<svg width="19" height="18" viewBox="0 0 19 18" fill="none" xmlns="http://www.w3.org/2000/svg">
<path d="M5.5 9H9.5M9.5 9H13.5M9.5 9V13M9.5 9V5M1.5 13.8002V4.2002C1.5 3.08009 1.5 2.51962 1.71799 2.0918C1.90973 1.71547 2.21547 1.40973 2.5918 1.21799C3.01962 1 3.58009 1 4.7002 1H14.3002C15.4203 1 15.9801 1 16.4079 1.21799C16.7842 1.40973 17.0905 1.71547 17.2822 2.0918C17.5002 2.51962 17.5002 3.07967 17.5002 4.19978V13.7998C17.5002 14.9199 17.5002 15.48 17.2822 15.9078C17.0905 16.2841 16.7842 16.5905 16.4079 16.7822C15.9805 17 15.4215 17 14.3036 17H4.69691C3.57899 17 3.0192 17 2.5918 16.7822C2.21547 16.5905 1.90973 16.2842 1.71799 15.9079C1.5 15.4801 1.5 14.9203 1.5 13.8002Z" stroke="#A4A4A6" stroke-width="2" stroke-linecap="round" stroke-linejoin="round"/>
</svg>
