<svg width="24" height="25" viewBox="0 0 24 25" fill="none" xmlns="http://www.w3.org/2000/svg">
<path d="M17.8949 10.416C17.8949 10.416 17.4613 15.7943 17.2097 18.0598C17.0899 19.1419 16.4215 19.776 15.3267 19.7959C13.2433 19.8334 11.1574 19.8358 9.07477 19.7919C8.02147 19.7704 7.36426 19.1283 7.24687 18.0654C6.99372 15.78 6.5625 10.416 6.5625 10.416" stroke="#2E2E2E" stroke-width="1.5" stroke-linecap="round" stroke-linejoin="round"/>
<path d="M18.999 7.83776H5.45703" stroke="#2E2E2E" stroke-width="1.5" stroke-linecap="round" stroke-linejoin="round"/>
<path d="M16.3898 7.83794C15.7629 7.83794 15.2231 7.39474 15.1001 6.78064L14.9061 5.80959C14.7863 5.3616 14.3806 5.05176 13.9183 5.05176H10.538C10.0756 5.05176 9.66992 5.3616 9.55013 5.80959L9.35608 6.78064C9.2331 7.39474 8.69328 7.83794 8.06641 7.83794" stroke="#2E2E2E" stroke-width="1.5" stroke-linecap="round" stroke-linejoin="round"/>
</svg>
