<svg width="250" height="250" viewBox="0 0 250 250" fill="none" xmlns="http://www.w3.org/2000/svg">
<rect width="250" height="250" fill="white"/>
<path d="M40.1267 120.636H37.1995H34.2723H31.345V124.344V125.71V129.418H34.2723H40.1267C40.1267 132.638 37.4922 135.272 34.2723 135.272H33.0363H20.8721H19.6361C16.4162 135.272 13.7817 132.638 13.7817 129.418V120.636C13.7817 117.416 16.4162 114.782 19.6361 114.782H20.8721H33.0688H34.2723C36.4514 114.782 38.3379 115.953 39.3461 117.709H40.1267H43.0539H48.6157C47.2496 111.041 41.3627 106 34.2723 106H19.6361C11.5375 106 5 112.537 5 120.636V129.418C5 137.516 11.5375 144.054 19.6361 144.054H34.2723C42.3709 144.054 48.9084 137.516 48.9084 129.418V123.563V120.636H45.9812H40.1267Z" fill="#4339DA"/>
<path d="M142.677 120.994V132.345C142.677 133.971 141.376 135.272 139.75 135.272C138.612 135.272 137.603 134.622 137.148 133.679C137.148 133.646 137.115 133.646 137.115 133.614L132.139 123.433L127 112.895C127 112.863 126.968 112.863 126.968 112.83L126.773 112.407C124.854 108.602 120.886 106 116.332 106C115.324 106 114.348 106.13 113.405 106.358C108.364 107.659 104.623 112.245 104.623 117.709V144.054H113.405V129.06V117.709C113.405 116.083 114.706 114.782 116.332 114.782C117.503 114.782 118.511 115.465 118.967 116.473L123.91 126.621L129.049 137.159C129.049 137.191 129.082 137.191 129.082 137.191L129.309 137.647C129.309 137.679 129.342 137.679 129.342 137.712C131.293 141.452 135.229 144.021 139.75 144.021C140.758 144.021 141.734 143.891 142.677 143.664C147.718 142.363 151.459 137.777 151.459 132.313V106H142.677V120.994Z" fill="#4339DA"/>
<path d="M86.9948 106C84.7506 106 82.6039 106.553 80.75 107.561C80.7175 107.561 80.7175 107.594 80.685 107.594L80.1321 107.886L80.0995 107.919L68.228 114.782L62.1459 118.294L60.6497 119.173C60.6497 119.173 60.6172 119.173 60.6172 119.205C56.324 121.384 53.3967 125.808 53.3967 130.914C53.3967 138.199 59.3813 144.086 66.7644 144.086H87.255C94.4429 144.086 100.232 138.265 100.232 131.109V119.173C100.167 111.887 94.2803 106 86.9948 106ZM91.3856 119.173V130.881V131.597C91.3531 131.597 91.3531 131.629 91.3206 131.629C90.9628 133.711 89.1739 135.272 86.9948 135.272H79.2864H74.8956H66.6993C64.1624 135.272 62.1134 133.223 62.1134 130.686C62.1134 128.962 63.0891 127.434 64.5202 126.653L74.0174 121.417L75.2534 120.734L85.1734 115.27C85.2059 115.237 85.271 115.237 85.3035 115.205C85.8889 114.912 86.5069 114.749 87.1899 114.749C89.4016 114.749 91.1905 116.505 91.3856 118.75C91.3856 118.75 91.3856 118.75 91.4182 118.75V119.173H91.3856Z" fill="#4339DA"/>
<path d="M191.009 119.205L199.791 106H191.009L189.35 108.049L180.894 118.49C179.82 119.79 178.194 120.636 176.373 120.636H164.664V106H155.882V120.636V129.418V144.054H164.664V129.418H176.373C178.194 129.418 179.82 130.263 180.894 131.564L189.35 142.005L191.009 144.054H199.791L191.009 130.849L188.797 127.531C188.244 126.621 187.561 125.775 186.813 125.027C187.561 124.279 188.244 123.433 188.797 122.523L191.009 119.205Z" fill="#4339DA"/>
<path d="M238.983 115.595C237.975 110.131 233.193 106 227.469 106H221.615C215.89 106 211.109 110.131 210.101 115.595C210.101 115.627 210.101 115.627 210.101 115.627L204.051 144.054H212.833L214.752 135.272H234.299L236.218 144.054H245L238.95 115.627C238.983 115.627 238.983 115.595 238.983 115.595ZM229.356 126.491H219.728H216.703L217.354 123.563L218.753 117.189C219.013 115.822 220.184 114.782 221.647 114.782H227.502C228.933 114.782 230.136 115.822 230.396 117.189L231.795 123.563L232.445 126.491H229.356Z" fill="#4339DA"/>
</svg>
