<svg width="200" height="49" viewBox="0 0 200 49" fill="none" xmlns="http://www.w3.org/2000/svg">
<path d="M199.776 15.2511C199.776 15.2324 199.776 15.2324 199.776 15.2511L199.067 13.1417C198.843 12.3017 198.264 11.5923 197.48 11.219C197.107 11.0323 196.677 10.939 196.211 10.939H190.33C190.181 10.939 190.05 10.9576 189.901 10.9763C188.613 11.163 187.586 12.171 187.418 13.459C187.4 13.5897 187.381 13.739 187.381 13.8884V16.8005V19.3205V21.8406H189.901V19.3205H197.051C198.525 19.3205 199.757 18.2192 199.963 16.8005C199.981 16.6698 200 16.5204 200 16.3711C200 15.9791 199.925 15.5871 199.776 15.2511ZM196.229 16.8005H194.157H190.349H189.92V16.7631V13.8697C189.92 13.6457 190.106 13.4404 190.349 13.4404H193.261H193.317H196.229C196.304 13.4404 196.397 13.459 196.453 13.4964C196.528 13.5524 196.603 13.627 196.621 13.7204C196.621 13.7204 196.621 13.7204 196.621 13.739L197.443 16.2218C197.443 16.2218 197.443 16.2218 197.443 16.2404C197.443 16.2591 197.461 16.2591 197.461 16.2778C197.48 16.3151 197.48 16.3524 197.48 16.3898C197.48 16.4458 197.48 16.5018 197.443 16.5391C197.387 16.6885 197.237 16.8005 197.051 16.8005H196.229Z" fill="#1C1C1C"/>
<path d="M199.776 15.2511C199.776 15.2324 199.776 15.2324 199.776 15.2511L199.067 13.1417C198.843 12.3017 198.264 11.5923 197.48 11.219C197.107 11.0323 196.677 10.939 196.211 10.939H190.33C190.181 10.939 190.05 10.9576 189.901 10.9763C188.613 11.163 187.586 12.171 187.418 13.459C187.4 13.5897 187.381 13.739 187.381 13.8884V16.8005V19.3205V21.8406H189.901V19.3205H197.051C198.525 19.3205 199.757 18.2192 199.963 16.8005C199.981 16.6698 200 16.5204 200 16.3711C200 15.9791 199.925 15.5871 199.776 15.2511ZM196.229 16.8005H194.157H190.349H189.92V16.7631V13.8697C189.92 13.6457 190.106 13.4404 190.349 13.4404H193.261H193.317H196.229C196.304 13.4404 196.397 13.459 196.453 13.4964C196.528 13.5524 196.603 13.627 196.621 13.7204C196.621 13.7204 196.621 13.7204 196.621 13.739L197.443 16.2218C197.443 16.2218 197.443 16.2218 197.443 16.2404C197.443 16.2591 197.461 16.2591 197.461 16.2778C197.48 16.3151 197.48 16.3524 197.48 16.3898C197.48 16.4458 197.48 16.5018 197.443 16.5391C197.387 16.6885 197.237 16.8005 197.051 16.8005H196.229Z" fill="black" fill-opacity="0.2"/>
<path d="M199.776 15.2511C199.776 15.2324 199.776 15.2324 199.776 15.2511L199.067 13.1417C198.843 12.3017 198.264 11.5923 197.48 11.219C197.107 11.0323 196.677 10.939 196.211 10.939H190.33C190.181 10.939 190.05 10.9576 189.901 10.9763C188.613 11.163 187.586 12.171 187.418 13.459C187.4 13.5897 187.381 13.739 187.381 13.8884V16.8005V19.3205V21.8406H189.901V19.3205H197.051C198.525 19.3205 199.757 18.2192 199.963 16.8005C199.981 16.6698 200 16.5204 200 16.3711C200 15.9791 199.925 15.5871 199.776 15.2511ZM196.229 16.8005H194.157H190.349H189.92V16.7631V13.8697C189.92 13.6457 190.106 13.4404 190.349 13.4404H193.261H193.317H196.229C196.304 13.4404 196.397 13.459 196.453 13.4964C196.528 13.5524 196.603 13.627 196.621 13.7204C196.621 13.7204 196.621 13.7204 196.621 13.739L197.443 16.2218C197.443 16.2218 197.443 16.2218 197.443 16.2404C197.443 16.2591 197.461 16.2591 197.461 16.2778C197.48 16.3151 197.48 16.3524 197.48 16.3898C197.48 16.4458 197.48 16.5018 197.443 16.5391C197.387 16.6885 197.237 16.8005 197.051 16.8005H196.229Z" fill="black" fill-opacity="0.2"/>
<path d="M199.776 15.2511C199.776 15.2324 199.776 15.2324 199.776 15.2511L199.067 13.1417C198.843 12.3017 198.264 11.5923 197.48 11.219C197.107 11.0323 196.677 10.939 196.211 10.939H190.33C190.181 10.939 190.05 10.9576 189.901 10.9763C188.613 11.163 187.586 12.171 187.418 13.459C187.4 13.5897 187.381 13.739 187.381 13.8884V16.8005V19.3205V21.8406H189.901V19.3205H197.051C198.525 19.3205 199.757 18.2192 199.963 16.8005C199.981 16.6698 200 16.5204 200 16.3711C200 15.9791 199.925 15.5871 199.776 15.2511ZM196.229 16.8005H194.157H190.349H189.92V16.7631V13.8697C189.92 13.6457 190.106 13.4404 190.349 13.4404H193.261H193.317H196.229C196.304 13.4404 196.397 13.459 196.453 13.4964C196.528 13.5524 196.603 13.627 196.621 13.7204C196.621 13.7204 196.621 13.7204 196.621 13.739L197.443 16.2218C197.443 16.2218 197.443 16.2218 197.443 16.2404C197.443 16.2591 197.461 16.2591 197.461 16.2778C197.48 16.3151 197.48 16.3524 197.48 16.3898C197.48 16.4458 197.48 16.5018 197.443 16.5391C197.387 16.6885 197.237 16.8005 197.051 16.8005H196.229Z" fill="black" fill-opacity="0.2"/>
<path d="M199.776 15.2511C199.776 15.2324 199.776 15.2324 199.776 15.2511L199.067 13.1417C198.843 12.3017 198.264 11.5923 197.48 11.219C197.107 11.0323 196.677 10.939 196.211 10.939H190.33C190.181 10.939 190.05 10.9576 189.901 10.9763C188.613 11.163 187.586 12.171 187.418 13.459C187.4 13.5897 187.381 13.739 187.381 13.8884V16.8005V19.3205V21.8406H189.901V19.3205H197.051C198.525 19.3205 199.757 18.2192 199.963 16.8005C199.981 16.6698 200 16.5204 200 16.3711C200 15.9791 199.925 15.5871 199.776 15.2511ZM196.229 16.8005H194.157H190.349H189.92V16.7631V13.8697C189.92 13.6457 190.106 13.4404 190.349 13.4404H193.261H193.317H196.229C196.304 13.4404 196.397 13.459 196.453 13.4964C196.528 13.5524 196.603 13.627 196.621 13.7204C196.621 13.7204 196.621 13.7204 196.621 13.739L197.443 16.2218C197.443 16.2218 197.443 16.2218 197.443 16.2404C197.443 16.2591 197.461 16.2591 197.461 16.2778C197.48 16.3151 197.48 16.3524 197.48 16.3898C197.48 16.4458 197.48 16.5018 197.443 16.5391C197.387 16.6885 197.237 16.8005 197.051 16.8005H196.229Z" fill="black" fill-opacity="0.2"/>
<path d="M199.776 15.2511C199.776 15.2324 199.776 15.2324 199.776 15.2511L199.067 13.1417C198.843 12.3017 198.264 11.5923 197.48 11.219C197.107 11.0323 196.677 10.939 196.211 10.939H190.33C190.181 10.939 190.05 10.9576 189.901 10.9763C188.613 11.163 187.586 12.171 187.418 13.459C187.4 13.5897 187.381 13.739 187.381 13.8884V16.8005V19.3205V21.8406H189.901V19.3205H197.051C198.525 19.3205 199.757 18.2192 199.963 16.8005C199.981 16.6698 200 16.5204 200 16.3711C200 15.9791 199.925 15.5871 199.776 15.2511ZM196.229 16.8005H194.157H190.349H189.92V16.7631V13.8697C189.92 13.6457 190.106 13.4404 190.349 13.4404H193.261H193.317H196.229C196.304 13.4404 196.397 13.459 196.453 13.4964C196.528 13.5524 196.603 13.627 196.621 13.7204C196.621 13.7204 196.621 13.7204 196.621 13.739L197.443 16.2218C197.443 16.2218 197.443 16.2218 197.443 16.2404C197.443 16.2591 197.461 16.2591 197.461 16.2778C197.48 16.3151 197.48 16.3524 197.48 16.3898C197.48 16.4458 197.48 16.5018 197.443 16.5391C197.387 16.6885 197.237 16.8005 197.051 16.8005H196.229Z" fill="black" fill-opacity="0.2"/>
<path d="M199.776 15.2511C199.776 15.2324 199.776 15.2324 199.776 15.2511L199.067 13.1417C198.843 12.3017 198.264 11.5923 197.48 11.219C197.107 11.0323 196.677 10.939 196.211 10.939H190.33C190.181 10.939 190.05 10.9576 189.901 10.9763C188.613 11.163 187.586 12.171 187.418 13.459C187.4 13.5897 187.381 13.739 187.381 13.8884V16.8005V19.3205V21.8406H189.901V19.3205H197.051C198.525 19.3205 199.757 18.2192 199.963 16.8005C199.981 16.6698 200 16.5204 200 16.3711C200 15.9791 199.925 15.5871 199.776 15.2511ZM196.229 16.8005H194.157H190.349H189.92V16.7631V13.8697C189.92 13.6457 190.106 13.4404 190.349 13.4404H193.261H193.317H196.229C196.304 13.4404 196.397 13.459 196.453 13.4964C196.528 13.5524 196.603 13.627 196.621 13.7204C196.621 13.7204 196.621 13.7204 196.621 13.739L197.443 16.2218C197.443 16.2218 197.443 16.2218 197.443 16.2404C197.443 16.2591 197.461 16.2591 197.461 16.2778C197.48 16.3151 197.48 16.3524 197.48 16.3898C197.48 16.4458 197.48 16.5018 197.443 16.5391C197.387 16.6885 197.237 16.8005 197.051 16.8005H196.229Z" fill="black" fill-opacity="0.2"/>
<path d="M199.776 15.2511C199.776 15.2324 199.776 15.2324 199.776 15.2511L199.067 13.1417C198.843 12.3017 198.264 11.5923 197.48 11.219C197.107 11.0323 196.677 10.939 196.211 10.939H190.33C190.181 10.939 190.05 10.9576 189.901 10.9763C188.613 11.163 187.586 12.171 187.418 13.459C187.4 13.5897 187.381 13.739 187.381 13.8884V16.8005V19.3205V21.8406H189.901V19.3205H197.051C198.525 19.3205 199.757 18.2192 199.963 16.8005C199.981 16.6698 200 16.5204 200 16.3711C200 15.9791 199.925 15.5871 199.776 15.2511ZM196.229 16.8005H194.157H190.349H189.92V16.7631V13.8697C189.92 13.6457 190.106 13.4404 190.349 13.4404H193.261H193.317H196.229C196.304 13.4404 196.397 13.459 196.453 13.4964C196.528 13.5524 196.603 13.627 196.621 13.7204C196.621 13.7204 196.621 13.7204 196.621 13.739L197.443 16.2218C197.443 16.2218 197.443 16.2218 197.443 16.2404C197.443 16.2591 197.461 16.2591 197.461 16.2778C197.48 16.3151 197.48 16.3524 197.48 16.3898C197.48 16.4458 197.48 16.5018 197.443 16.5391C197.387 16.6885 197.237 16.8005 197.051 16.8005H196.229Z" fill="black" fill-opacity="0.2"/>
<path d="M199.776 15.2511C199.776 15.2324 199.776 15.2324 199.776 15.2511L199.067 13.1417C198.843 12.3017 198.264 11.5923 197.48 11.219C197.107 11.0323 196.677 10.939 196.211 10.939H190.33C190.181 10.939 190.05 10.9576 189.901 10.9763C188.613 11.163 187.586 12.171 187.418 13.459C187.4 13.5897 187.381 13.739 187.381 13.8884V16.8005V19.3205V21.8406H189.901V19.3205H197.051C198.525 19.3205 199.757 18.2192 199.963 16.8005C199.981 16.6698 200 16.5204 200 16.3711C200 15.9791 199.925 15.5871 199.776 15.2511ZM196.229 16.8005H194.157H190.349H189.92V16.7631V13.8697C189.92 13.6457 190.106 13.4404 190.349 13.4404H193.261H193.317H196.229C196.304 13.4404 196.397 13.459 196.453 13.4964C196.528 13.5524 196.603 13.627 196.621 13.7204C196.621 13.7204 196.621 13.7204 196.621 13.739L197.443 16.2218C197.443 16.2218 197.443 16.2218 197.443 16.2404C197.443 16.2591 197.461 16.2591 197.461 16.2778C197.48 16.3151 197.48 16.3524 197.48 16.3898C197.48 16.4458 197.48 16.5018 197.443 16.5391C197.387 16.6885 197.237 16.8005 197.051 16.8005H196.229Z" fill="black" fill-opacity="0.2"/>
<path d="M199.776 15.2511C199.776 15.2324 199.776 15.2324 199.776 15.2511L199.067 13.1417C198.843 12.3017 198.264 11.5923 197.48 11.219C197.107 11.0323 196.677 10.939 196.211 10.939H190.33C190.181 10.939 190.05 10.9576 189.901 10.9763C188.613 11.163 187.586 12.171 187.418 13.459C187.4 13.5897 187.381 13.739 187.381 13.8884V16.8005V19.3205V21.8406H189.901V19.3205H197.051C198.525 19.3205 199.757 18.2192 199.963 16.8005C199.981 16.6698 200 16.5204 200 16.3711C200 15.9791 199.925 15.5871 199.776 15.2511ZM196.229 16.8005H194.157H190.349H189.92V16.7631V13.8697C189.92 13.6457 190.106 13.4404 190.349 13.4404H193.261H193.317H196.229C196.304 13.4404 196.397 13.459 196.453 13.4964C196.528 13.5524 196.603 13.627 196.621 13.7204C196.621 13.7204 196.621 13.7204 196.621 13.739L197.443 16.2218C197.443 16.2218 197.443 16.2218 197.443 16.2404C197.443 16.2591 197.461 16.2591 197.461 16.2778C197.48 16.3151 197.48 16.3524 197.48 16.3898C197.48 16.4458 197.48 16.5018 197.443 16.5391C197.387 16.6885 197.237 16.8005 197.051 16.8005H196.229Z" fill="black" fill-opacity="0.2"/>
<path d="M199.776 15.2511C199.776 15.2324 199.776 15.2324 199.776 15.2511L199.067 13.1417C198.843 12.3017 198.264 11.5923 197.48 11.219C197.107 11.0323 196.677 10.939 196.211 10.939H190.33C190.181 10.939 190.05 10.9576 189.901 10.9763C188.613 11.163 187.586 12.171 187.418 13.459C187.4 13.5897 187.381 13.739 187.381 13.8884V16.8005V19.3205V21.8406H189.901V19.3205H197.051C198.525 19.3205 199.757 18.2192 199.963 16.8005C199.981 16.6698 200 16.5204 200 16.3711C200 15.9791 199.925 15.5871 199.776 15.2511ZM196.229 16.8005H194.157H190.349H189.92V16.7631V13.8697C189.92 13.6457 190.106 13.4404 190.349 13.4404H193.261H193.317H196.229C196.304 13.4404 196.397 13.459 196.453 13.4964C196.528 13.5524 196.603 13.627 196.621 13.7204C196.621 13.7204 196.621 13.7204 196.621 13.739L197.443 16.2218C197.443 16.2218 197.443 16.2218 197.443 16.2404C197.443 16.2591 197.461 16.2591 197.461 16.2778C197.48 16.3151 197.48 16.3524 197.48 16.3898C197.48 16.4458 197.48 16.5018 197.443 16.5391C197.387 16.6885 197.237 16.8005 197.051 16.8005H196.229Z" fill="black" fill-opacity="0.2"/>
<path d="M199.776 15.2511C199.776 15.2324 199.776 15.2324 199.776 15.2511L199.067 13.1417C198.843 12.3017 198.264 11.5923 197.48 11.219C197.107 11.0323 196.677 10.939 196.211 10.939H190.33C190.181 10.939 190.05 10.9576 189.901 10.9763C188.613 11.163 187.586 12.171 187.418 13.459C187.4 13.5897 187.381 13.739 187.381 13.8884V16.8005V19.3205V21.8406H189.901V19.3205H197.051C198.525 19.3205 199.757 18.2192 199.963 16.8005C199.981 16.6698 200 16.5204 200 16.3711C200 15.9791 199.925 15.5871 199.776 15.2511ZM196.229 16.8005H194.157H190.349H189.92V16.7631V13.8697C189.92 13.6457 190.106 13.4404 190.349 13.4404H193.261H193.317H196.229C196.304 13.4404 196.397 13.459 196.453 13.4964C196.528 13.5524 196.603 13.627 196.621 13.7204C196.621 13.7204 196.621 13.7204 196.621 13.739L197.443 16.2218C197.443 16.2218 197.443 16.2218 197.443 16.2404C197.443 16.2591 197.461 16.2591 197.461 16.2778C197.48 16.3151 197.48 16.3524 197.48 16.3898C197.48 16.4458 197.48 16.5018 197.443 16.5391C197.387 16.6885 197.237 16.8005 197.051 16.8005H196.229Z" fill="black" fill-opacity="0.2"/>
<path d="M199.776 15.2511C199.776 15.2324 199.776 15.2324 199.776 15.2511L199.067 13.1417C198.843 12.3017 198.264 11.5923 197.48 11.219C197.107 11.0323 196.677 10.939 196.211 10.939H190.33C190.181 10.939 190.05 10.9576 189.901 10.9763C188.613 11.163 187.586 12.171 187.418 13.459C187.4 13.5897 187.381 13.739 187.381 13.8884V16.8005V19.3205V21.8406H189.901V19.3205H197.051C198.525 19.3205 199.757 18.2192 199.963 16.8005C199.981 16.6698 200 16.5204 200 16.3711C200 15.9791 199.925 15.5871 199.776 15.2511ZM196.229 16.8005H194.157H190.349H189.92V16.7631V13.8697C189.92 13.6457 190.106 13.4404 190.349 13.4404H193.261H193.317H196.229C196.304 13.4404 196.397 13.459 196.453 13.4964C196.528 13.5524 196.603 13.627 196.621 13.7204C196.621 13.7204 196.621 13.7204 196.621 13.739L197.443 16.2218C197.443 16.2218 197.443 16.2218 197.443 16.2404C197.443 16.2591 197.461 16.2591 197.461 16.2778C197.48 16.3151 197.48 16.3524 197.48 16.3898C197.48 16.4458 197.48 16.5018 197.443 16.5391C197.387 16.6885 197.237 16.8005 197.051 16.8005H196.229Z" fill="black" fill-opacity="0.2"/>
<path d="M182.341 10.9204H176.461C174.37 10.9204 172.671 12.6191 172.671 14.7098V18.0699C172.671 20.1607 174.37 21.8594 176.461 21.8594H182.341C184.432 21.8594 186.13 20.1607 186.13 18.0699V14.7098C186.13 12.6191 184.432 10.9204 182.341 10.9204ZM180.026 19.3206H178.775H176.461C175.845 19.3206 175.322 18.8726 175.21 18.2753C175.191 18.2006 175.191 18.1446 175.191 18.0699V14.7098C175.191 14.6352 175.191 14.5605 175.21 14.5045C175.303 13.9072 175.826 13.4591 176.461 13.4591H178.775H180.026H182.341C182.957 13.4591 183.48 13.9072 183.592 14.5045C183.61 14.5792 183.61 14.6352 183.61 14.7098V18.0699C183.61 18.1446 183.61 18.2193 183.592 18.2753C183.498 18.8726 182.976 19.3206 182.341 19.3206H180.026Z" fill="#1C1C1C"/>
<path d="M182.341 10.9204H176.461C174.37 10.9204 172.671 12.6191 172.671 14.7098V18.0699C172.671 20.1607 174.37 21.8594 176.461 21.8594H182.341C184.432 21.8594 186.13 20.1607 186.13 18.0699V14.7098C186.13 12.6191 184.432 10.9204 182.341 10.9204ZM180.026 19.3206H178.775H176.461C175.845 19.3206 175.322 18.8726 175.21 18.2753C175.191 18.2006 175.191 18.1446 175.191 18.0699V14.7098C175.191 14.6352 175.191 14.5605 175.21 14.5045C175.303 13.9072 175.826 13.4591 176.461 13.4591H178.775H180.026H182.341C182.957 13.4591 183.48 13.9072 183.592 14.5045C183.61 14.5792 183.61 14.6352 183.61 14.7098V18.0699C183.61 18.1446 183.61 18.2193 183.592 18.2753C183.498 18.8726 182.976 19.3206 182.341 19.3206H180.026Z" fill="black" fill-opacity="0.2"/>
<path d="M182.341 10.9204H176.461C174.37 10.9204 172.671 12.6191 172.671 14.7098V18.0699C172.671 20.1607 174.37 21.8594 176.461 21.8594H182.341C184.432 21.8594 186.13 20.1607 186.13 18.0699V14.7098C186.13 12.6191 184.432 10.9204 182.341 10.9204ZM180.026 19.3206H178.775H176.461C175.845 19.3206 175.322 18.8726 175.21 18.2753C175.191 18.2006 175.191 18.1446 175.191 18.0699V14.7098C175.191 14.6352 175.191 14.5605 175.21 14.5045C175.303 13.9072 175.826 13.4591 176.461 13.4591H178.775H180.026H182.341C182.957 13.4591 183.48 13.9072 183.592 14.5045C183.61 14.5792 183.61 14.6352 183.61 14.7098V18.0699C183.61 18.1446 183.61 18.2193 183.592 18.2753C183.498 18.8726 182.976 19.3206 182.341 19.3206H180.026Z" fill="black" fill-opacity="0.2"/>
<path d="M182.341 10.9204H176.461C174.37 10.9204 172.671 12.6191 172.671 14.7098V18.0699C172.671 20.1607 174.37 21.8594 176.461 21.8594H182.341C184.432 21.8594 186.13 20.1607 186.13 18.0699V14.7098C186.13 12.6191 184.432 10.9204 182.341 10.9204ZM180.026 19.3206H178.775H176.461C175.845 19.3206 175.322 18.8726 175.21 18.2753C175.191 18.2006 175.191 18.1446 175.191 18.0699V14.7098C175.191 14.6352 175.191 14.5605 175.21 14.5045C175.303 13.9072 175.826 13.4591 176.461 13.4591H178.775H180.026H182.341C182.957 13.4591 183.48 13.9072 183.592 14.5045C183.61 14.5792 183.61 14.6352 183.61 14.7098V18.0699C183.61 18.1446 183.61 18.2193 183.592 18.2753C183.498 18.8726 182.976 19.3206 182.341 19.3206H180.026Z" fill="black" fill-opacity="0.2"/>
<path d="M182.341 10.9204H176.461C174.37 10.9204 172.671 12.6191 172.671 14.7098V18.0699C172.671 20.1607 174.37 21.8594 176.461 21.8594H182.341C184.432 21.8594 186.13 20.1607 186.13 18.0699V14.7098C186.13 12.6191 184.432 10.9204 182.341 10.9204ZM180.026 19.3206H178.775H176.461C175.845 19.3206 175.322 18.8726 175.21 18.2753C175.191 18.2006 175.191 18.1446 175.191 18.0699V14.7098C175.191 14.6352 175.191 14.5605 175.21 14.5045C175.303 13.9072 175.826 13.4591 176.461 13.4591H178.775H180.026H182.341C182.957 13.4591 183.48 13.9072 183.592 14.5045C183.61 14.5792 183.61 14.6352 183.61 14.7098V18.0699C183.61 18.1446 183.61 18.2193 183.592 18.2753C183.498 18.8726 182.976 19.3206 182.341 19.3206H180.026Z" fill="black" fill-opacity="0.2"/>
<path d="M182.341 10.9204H176.461C174.37 10.9204 172.671 12.6191 172.671 14.7098V18.0699C172.671 20.1607 174.37 21.8594 176.461 21.8594H182.341C184.432 21.8594 186.13 20.1607 186.13 18.0699V14.7098C186.13 12.6191 184.432 10.9204 182.341 10.9204ZM180.026 19.3206H178.775H176.461C175.845 19.3206 175.322 18.8726 175.21 18.2753C175.191 18.2006 175.191 18.1446 175.191 18.0699V14.7098C175.191 14.6352 175.191 14.5605 175.21 14.5045C175.303 13.9072 175.826 13.4591 176.461 13.4591H178.775H180.026H182.341C182.957 13.4591 183.48 13.9072 183.592 14.5045C183.61 14.5792 183.61 14.6352 183.61 14.7098V18.0699C183.61 18.1446 183.61 18.2193 183.592 18.2753C183.498 18.8726 182.976 19.3206 182.341 19.3206H180.026Z" fill="black" fill-opacity="0.2"/>
<path d="M182.341 10.9204H176.461C174.37 10.9204 172.671 12.6191 172.671 14.7098V18.0699C172.671 20.1607 174.37 21.8594 176.461 21.8594H182.341C184.432 21.8594 186.13 20.1607 186.13 18.0699V14.7098C186.13 12.6191 184.432 10.9204 182.341 10.9204ZM180.026 19.3206H178.775H176.461C175.845 19.3206 175.322 18.8726 175.21 18.2753C175.191 18.2006 175.191 18.1446 175.191 18.0699V14.7098C175.191 14.6352 175.191 14.5605 175.21 14.5045C175.303 13.9072 175.826 13.4591 176.461 13.4591H178.775H180.026H182.341C182.957 13.4591 183.48 13.9072 183.592 14.5045C183.61 14.5792 183.61 14.6352 183.61 14.7098V18.0699C183.61 18.1446 183.61 18.2193 183.592 18.2753C183.498 18.8726 182.976 19.3206 182.341 19.3206H180.026Z" fill="black" fill-opacity="0.2"/>
<path d="M182.341 10.9204H176.461C174.37 10.9204 172.671 12.6191 172.671 14.7098V18.0699C172.671 20.1607 174.37 21.8594 176.461 21.8594H182.341C184.432 21.8594 186.13 20.1607 186.13 18.0699V14.7098C186.13 12.6191 184.432 10.9204 182.341 10.9204ZM180.026 19.3206H178.775H176.461C175.845 19.3206 175.322 18.8726 175.21 18.2753C175.191 18.2006 175.191 18.1446 175.191 18.0699V14.7098C175.191 14.6352 175.191 14.5605 175.21 14.5045C175.303 13.9072 175.826 13.4591 176.461 13.4591H178.775H180.026H182.341C182.957 13.4591 183.48 13.9072 183.592 14.5045C183.61 14.5792 183.61 14.6352 183.61 14.7098V18.0699C183.61 18.1446 183.61 18.2193 183.592 18.2753C183.498 18.8726 182.976 19.3206 182.341 19.3206H180.026Z" fill="black" fill-opacity="0.2"/>
<path d="M182.341 10.9204H176.461C174.37 10.9204 172.671 12.6191 172.671 14.7098V18.0699C172.671 20.1607 174.37 21.8594 176.461 21.8594H182.341C184.432 21.8594 186.13 20.1607 186.13 18.0699V14.7098C186.13 12.6191 184.432 10.9204 182.341 10.9204ZM180.026 19.3206H178.775H176.461C175.845 19.3206 175.322 18.8726 175.21 18.2753C175.191 18.2006 175.191 18.1446 175.191 18.0699V14.7098C175.191 14.6352 175.191 14.5605 175.21 14.5045C175.303 13.9072 175.826 13.4591 176.461 13.4591H178.775H180.026H182.341C182.957 13.4591 183.48 13.9072 183.592 14.5045C183.61 14.5792 183.61 14.6352 183.61 14.7098V18.0699C183.61 18.1446 183.61 18.2193 183.592 18.2753C183.498 18.8726 182.976 19.3206 182.341 19.3206H180.026Z" fill="black" fill-opacity="0.2"/>
<path d="M182.341 10.9204H176.461C174.37 10.9204 172.671 12.6191 172.671 14.7098V18.0699C172.671 20.1607 174.37 21.8594 176.461 21.8594H182.341C184.432 21.8594 186.13 20.1607 186.13 18.0699V14.7098C186.13 12.6191 184.432 10.9204 182.341 10.9204ZM180.026 19.3206H178.775H176.461C175.845 19.3206 175.322 18.8726 175.21 18.2753C175.191 18.2006 175.191 18.1446 175.191 18.0699V14.7098C175.191 14.6352 175.191 14.5605 175.21 14.5045C175.303 13.9072 175.826 13.4591 176.461 13.4591H178.775H180.026H182.341C182.957 13.4591 183.48 13.9072 183.592 14.5045C183.61 14.5792 183.61 14.6352 183.61 14.7098V18.0699C183.61 18.1446 183.61 18.2193 183.592 18.2753C183.498 18.8726 182.976 19.3206 182.341 19.3206H180.026Z" fill="black" fill-opacity="0.2"/>
<path d="M182.341 10.9204H176.461C174.37 10.9204 172.671 12.6191 172.671 14.7098V18.0699C172.671 20.1607 174.37 21.8594 176.461 21.8594H182.341C184.432 21.8594 186.13 20.1607 186.13 18.0699V14.7098C186.13 12.6191 184.432 10.9204 182.341 10.9204ZM180.026 19.3206H178.775H176.461C175.845 19.3206 175.322 18.8726 175.21 18.2753C175.191 18.2006 175.191 18.1446 175.191 18.0699V14.7098C175.191 14.6352 175.191 14.5605 175.21 14.5045C175.303 13.9072 175.826 13.4591 176.461 13.4591H178.775H180.026H182.341C182.957 13.4591 183.48 13.9072 183.592 14.5045C183.61 14.5792 183.61 14.6352 183.61 14.7098V18.0699C183.61 18.1446 183.61 18.2193 183.592 18.2753C183.498 18.8726 182.976 19.3206 182.341 19.3206H180.026Z" fill="black" fill-opacity="0.2"/>
<path d="M182.341 10.9204H176.461C174.37 10.9204 172.671 12.6191 172.671 14.7098V18.0699C172.671 20.1607 174.37 21.8594 176.461 21.8594H182.341C184.432 21.8594 186.13 20.1607 186.13 18.0699V14.7098C186.13 12.6191 184.432 10.9204 182.341 10.9204ZM180.026 19.3206H178.775H176.461C175.845 19.3206 175.322 18.8726 175.21 18.2753C175.191 18.2006 175.191 18.1446 175.191 18.0699V14.7098C175.191 14.6352 175.191 14.5605 175.21 14.5045C175.303 13.9072 175.826 13.4591 176.461 13.4591H178.775H180.026H182.341C182.957 13.4591 183.48 13.9072 183.592 14.5045C183.61 14.5792 183.61 14.6352 183.61 14.7098V18.0699C183.61 18.1446 183.61 18.2193 183.592 18.2753C183.498 18.8726 182.976 19.3206 182.341 19.3206H180.026Z" fill="black" fill-opacity="0.2"/>
<path d="M182.341 10.9204H176.461C174.37 10.9204 172.671 12.6191 172.671 14.7098V18.0699C172.671 20.1607 174.37 21.8594 176.461 21.8594H182.341C184.432 21.8594 186.13 20.1607 186.13 18.0699V14.7098C186.13 12.6191 184.432 10.9204 182.341 10.9204ZM180.026 19.3206H178.775H176.461C175.845 19.3206 175.322 18.8726 175.21 18.2753C175.191 18.2006 175.191 18.1446 175.191 18.0699V14.7098C175.191 14.6352 175.191 14.5605 175.21 14.5045C175.303 13.9072 175.826 13.4591 176.461 13.4591H178.775H180.026H182.341C182.957 13.4591 183.48 13.9072 183.592 14.5045C183.61 14.5792 183.61 14.6352 183.61 14.7098V18.0699C183.61 18.1446 183.61 18.2193 183.592 18.2753C183.498 18.8726 182.976 19.3206 182.341 19.3206H180.026Z" fill="black" fill-opacity="0.2"/>
<path d="M142.822 19.3203H140.302V21.8404H142.822V19.3203Z" fill="#1C1C1C"/>
<path d="M142.822 19.3203H140.302V21.8404H142.822V19.3203Z" fill="black" fill-opacity="0.2"/>
<path d="M142.822 19.3203H140.302V21.8404H142.822V19.3203Z" fill="black" fill-opacity="0.2"/>
<path d="M142.822 19.3203H140.302V21.8404H142.822V19.3203Z" fill="black" fill-opacity="0.2"/>
<path d="M142.822 19.3203H140.302V21.8404H142.822V19.3203Z" fill="black" fill-opacity="0.2"/>
<path d="M142.822 19.3203H140.302V21.8404H142.822V19.3203Z" fill="black" fill-opacity="0.2"/>
<path d="M142.822 19.3203H140.302V21.8404H142.822V19.3203Z" fill="black" fill-opacity="0.2"/>
<path d="M142.822 19.3203H140.302V21.8404H142.822V19.3203Z" fill="black" fill-opacity="0.2"/>
<path d="M142.822 19.3203H140.302V21.8404H142.822V19.3203Z" fill="black" fill-opacity="0.2"/>
<path d="M142.822 19.3203H140.302V21.8404H142.822V19.3203Z" fill="black" fill-opacity="0.2"/>
<path d="M142.822 19.3203H140.302V21.8404H142.822V19.3203Z" fill="black" fill-opacity="0.2"/>
<path d="M142.822 19.3203H140.302V21.8404H142.822V19.3203Z" fill="black" fill-opacity="0.2"/>
<path d="M142.822 19.3203H140.302V21.8404H142.822V19.3203Z" fill="black" fill-opacity="0.2"/>
<path d="M20.1605 8.40022H18.4805H16.8004H15.1204V10.5283V11.3123V13.4404H16.8004H20.1605C20.1605 15.2884 18.6485 16.8004 16.8004 16.8004H16.0911H9.10957H8.40022C6.55217 16.8004 5.04013 15.2884 5.04013 13.4404V8.40022C5.04013 6.55217 6.55217 5.04013 8.40022 5.04013H9.10957H16.1098H16.8004C18.0511 5.04013 19.1338 5.71215 19.7125 6.72018H20.1605H21.8406H25.0327C24.2486 2.89341 20.8699 0 16.8004 0H8.40022C3.7521 0 0 3.7521 0 8.40022V13.4404C0 18.0885 3.7521 21.8406 8.40022 21.8406H16.8004C21.4486 21.8406 25.2007 18.0885 25.2007 13.4404V10.0803V8.40022H23.5206H20.1605Z" fill="#1C1C1C"/>
<path d="M20.1605 8.40022H18.4805H16.8004H15.1204V10.5283V11.3123V13.4404H16.8004H20.1605C20.1605 15.2884 18.6485 16.8004 16.8004 16.8004H16.0911H9.10957H8.40022C6.55217 16.8004 5.04013 15.2884 5.04013 13.4404V8.40022C5.04013 6.55217 6.55217 5.04013 8.40022 5.04013H9.10957H16.1098H16.8004C18.0511 5.04013 19.1338 5.71215 19.7125 6.72018H20.1605H21.8406H25.0327C24.2486 2.89341 20.8699 0 16.8004 0H8.40022C3.7521 0 0 3.7521 0 8.40022V13.4404C0 18.0885 3.7521 21.8406 8.40022 21.8406H16.8004C21.4486 21.8406 25.2007 18.0885 25.2007 13.4404V10.0803V8.40022H23.5206H20.1605Z" fill="black" fill-opacity="0.2"/>
<path d="M20.1605 8.40022H18.4805H16.8004H15.1204V10.5283V11.3123V13.4404H16.8004H20.1605C20.1605 15.2884 18.6485 16.8004 16.8004 16.8004H16.0911H9.10957H8.40022C6.55217 16.8004 5.04013 15.2884 5.04013 13.4404V8.40022C5.04013 6.55217 6.55217 5.04013 8.40022 5.04013H9.10957H16.1098H16.8004C18.0511 5.04013 19.1338 5.71215 19.7125 6.72018H20.1605H21.8406H25.0327C24.2486 2.89341 20.8699 0 16.8004 0H8.40022C3.7521 0 0 3.7521 0 8.40022V13.4404C0 18.0885 3.7521 21.8406 8.40022 21.8406H16.8004C21.4486 21.8406 25.2007 18.0885 25.2007 13.4404V10.0803V8.40022H23.5206H20.1605Z" fill="black" fill-opacity="0.2"/>
<path d="M20.1605 8.40022H18.4805H16.8004H15.1204V10.5283V11.3123V13.4404H16.8004H20.1605C20.1605 15.2884 18.6485 16.8004 16.8004 16.8004H16.0911H9.10957H8.40022C6.55217 16.8004 5.04013 15.2884 5.04013 13.4404V8.40022C5.04013 6.55217 6.55217 5.04013 8.40022 5.04013H9.10957H16.1098H16.8004C18.0511 5.04013 19.1338 5.71215 19.7125 6.72018H20.1605H21.8406H25.0327C24.2486 2.89341 20.8699 0 16.8004 0H8.40022C3.7521 0 0 3.7521 0 8.40022V13.4404C0 18.0885 3.7521 21.8406 8.40022 21.8406H16.8004C21.4486 21.8406 25.2007 18.0885 25.2007 13.4404V10.0803V8.40022H23.5206H20.1605Z" fill="black" fill-opacity="0.2"/>
<path d="M20.1605 8.40022H18.4805H16.8004H15.1204V10.5283V11.3123V13.4404H16.8004H20.1605C20.1605 15.2884 18.6485 16.8004 16.8004 16.8004H16.0911H9.10957H8.40022C6.55217 16.8004 5.04013 15.2884 5.04013 13.4404V8.40022C5.04013 6.55217 6.55217 5.04013 8.40022 5.04013H9.10957H16.1098H16.8004C18.0511 5.04013 19.1338 5.71215 19.7125 6.72018H20.1605H21.8406H25.0327C24.2486 2.89341 20.8699 0 16.8004 0H8.40022C3.7521 0 0 3.7521 0 8.40022V13.4404C0 18.0885 3.7521 21.8406 8.40022 21.8406H16.8004C21.4486 21.8406 25.2007 18.0885 25.2007 13.4404V10.0803V8.40022H23.5206H20.1605Z" fill="black" fill-opacity="0.2"/>
<path d="M20.1605 8.40022H18.4805H16.8004H15.1204V10.5283V11.3123V13.4404H16.8004H20.1605C20.1605 15.2884 18.6485 16.8004 16.8004 16.8004H16.0911H9.10957H8.40022C6.55217 16.8004 5.04013 15.2884 5.04013 13.4404V8.40022C5.04013 6.55217 6.55217 5.04013 8.40022 5.04013H9.10957H16.1098H16.8004C18.0511 5.04013 19.1338 5.71215 19.7125 6.72018H20.1605H21.8406H25.0327C24.2486 2.89341 20.8699 0 16.8004 0H8.40022C3.7521 0 0 3.7521 0 8.40022V13.4404C0 18.0885 3.7521 21.8406 8.40022 21.8406H16.8004C21.4486 21.8406 25.2007 18.0885 25.2007 13.4404V10.0803V8.40022H23.5206H20.1605Z" fill="black" fill-opacity="0.2"/>
<path d="M20.1605 8.40022H18.4805H16.8004H15.1204V10.5283V11.3123V13.4404H16.8004H20.1605C20.1605 15.2884 18.6485 16.8004 16.8004 16.8004H16.0911H9.10957H8.40022C6.55217 16.8004 5.04013 15.2884 5.04013 13.4404V8.40022C5.04013 6.55217 6.55217 5.04013 8.40022 5.04013H9.10957H16.1098H16.8004C18.0511 5.04013 19.1338 5.71215 19.7125 6.72018H20.1605H21.8406H25.0327C24.2486 2.89341 20.8699 0 16.8004 0H8.40022C3.7521 0 0 3.7521 0 8.40022V13.4404C0 18.0885 3.7521 21.8406 8.40022 21.8406H16.8004C21.4486 21.8406 25.2007 18.0885 25.2007 13.4404V10.0803V8.40022H23.5206H20.1605Z" fill="black" fill-opacity="0.2"/>
<path d="M20.1605 8.40022H18.4805H16.8004H15.1204V10.5283V11.3123V13.4404H16.8004H20.1605C20.1605 15.2884 18.6485 16.8004 16.8004 16.8004H16.0911H9.10957H8.40022C6.55217 16.8004 5.04013 15.2884 5.04013 13.4404V8.40022C5.04013 6.55217 6.55217 5.04013 8.40022 5.04013H9.10957H16.1098H16.8004C18.0511 5.04013 19.1338 5.71215 19.7125 6.72018H20.1605H21.8406H25.0327C24.2486 2.89341 20.8699 0 16.8004 0H8.40022C3.7521 0 0 3.7521 0 8.40022V13.4404C0 18.0885 3.7521 21.8406 8.40022 21.8406H16.8004C21.4486 21.8406 25.2007 18.0885 25.2007 13.4404V10.0803V8.40022H23.5206H20.1605Z" fill="black" fill-opacity="0.2"/>
<path d="M20.1605 8.40022H18.4805H16.8004H15.1204V10.5283V11.3123V13.4404H16.8004H20.1605C20.1605 15.2884 18.6485 16.8004 16.8004 16.8004H16.0911H9.10957H8.40022C6.55217 16.8004 5.04013 15.2884 5.04013 13.4404V8.40022C5.04013 6.55217 6.55217 5.04013 8.40022 5.04013H9.10957H16.1098H16.8004C18.0511 5.04013 19.1338 5.71215 19.7125 6.72018H20.1605H21.8406H25.0327C24.2486 2.89341 20.8699 0 16.8004 0H8.40022C3.7521 0 0 3.7521 0 8.40022V13.4404C0 18.0885 3.7521 21.8406 8.40022 21.8406H16.8004C21.4486 21.8406 25.2007 18.0885 25.2007 13.4404V10.0803V8.40022H23.5206H20.1605Z" fill="black" fill-opacity="0.2"/>
<path d="M20.1605 8.40022H18.4805H16.8004H15.1204V10.5283V11.3123V13.4404H16.8004H20.1605C20.1605 15.2884 18.6485 16.8004 16.8004 16.8004H16.0911H9.10957H8.40022C6.55217 16.8004 5.04013 15.2884 5.04013 13.4404V8.40022C5.04013 6.55217 6.55217 5.04013 8.40022 5.04013H9.10957H16.1098H16.8004C18.0511 5.04013 19.1338 5.71215 19.7125 6.72018H20.1605H21.8406H25.0327C24.2486 2.89341 20.8699 0 16.8004 0H8.40022C3.7521 0 0 3.7521 0 8.40022V13.4404C0 18.0885 3.7521 21.8406 8.40022 21.8406H16.8004C21.4486 21.8406 25.2007 18.0885 25.2007 13.4404V10.0803V8.40022H23.5206H20.1605Z" fill="black" fill-opacity="0.2"/>
<path d="M20.1605 8.40022H18.4805H16.8004H15.1204V10.5283V11.3123V13.4404H16.8004H20.1605C20.1605 15.2884 18.6485 16.8004 16.8004 16.8004H16.0911H9.10957H8.40022C6.55217 16.8004 5.04013 15.2884 5.04013 13.4404V8.40022C5.04013 6.55217 6.55217 5.04013 8.40022 5.04013H9.10957H16.1098H16.8004C18.0511 5.04013 19.1338 5.71215 19.7125 6.72018H20.1605H21.8406H25.0327C24.2486 2.89341 20.8699 0 16.8004 0H8.40022C3.7521 0 0 3.7521 0 8.40022V13.4404C0 18.0885 3.7521 21.8406 8.40022 21.8406H16.8004C21.4486 21.8406 25.2007 18.0885 25.2007 13.4404V10.0803V8.40022H23.5206H20.1605Z" fill="black" fill-opacity="0.2"/>
<path d="M20.1605 8.40022H18.4805H16.8004H15.1204V10.5283V11.3123V13.4404H16.8004H20.1605C20.1605 15.2884 18.6485 16.8004 16.8004 16.8004H16.0911H9.10957H8.40022C6.55217 16.8004 5.04013 15.2884 5.04013 13.4404V8.40022C5.04013 6.55217 6.55217 5.04013 8.40022 5.04013H9.10957H16.1098H16.8004C18.0511 5.04013 19.1338 5.71215 19.7125 6.72018H20.1605H21.8406H25.0327C24.2486 2.89341 20.8699 0 16.8004 0H8.40022C3.7521 0 0 3.7521 0 8.40022V13.4404C0 18.0885 3.7521 21.8406 8.40022 21.8406H16.8004C21.4486 21.8406 25.2007 18.0885 25.2007 13.4404V10.0803V8.40022H23.5206H20.1605Z" fill="black" fill-opacity="0.2"/>
<path d="M20.1605 8.40022H18.4805H16.8004H15.1204V10.5283V11.3123V13.4404H16.8004H20.1605C20.1605 15.2884 18.6485 16.8004 16.8004 16.8004H16.0911H9.10957H8.40022C6.55217 16.8004 5.04013 15.2884 5.04013 13.4404V8.40022C5.04013 6.55217 6.55217 5.04013 8.40022 5.04013H9.10957H16.1098H16.8004C18.0511 5.04013 19.1338 5.71215 19.7125 6.72018H20.1605H21.8406H25.0327C24.2486 2.89341 20.8699 0 16.8004 0H8.40022C3.7521 0 0 3.7521 0 8.40022V13.4404C0 18.0885 3.7521 21.8406 8.40022 21.8406H16.8004C21.4486 21.8406 25.2007 18.0885 25.2007 13.4404V10.0803V8.40022H23.5206H20.1605Z" fill="black" fill-opacity="0.2"/>
<path d="M79.0181 8.60556V15.1204C79.0181 16.0538 78.2714 16.8004 77.3381 16.8004C76.6847 16.8004 76.106 16.4271 75.8447 15.8858C75.8447 15.8671 75.826 15.8671 75.826 15.8484L72.9699 10.0056L70.0205 3.95744C70.0205 3.93877 70.0019 3.93877 70.0019 3.9201L69.8899 3.67743C68.7885 1.49337 66.5111 0 63.8977 0C63.319 0 62.759 0.0746687 62.2177 0.205339C59.3242 0.952025 57.1775 3.5841 57.1775 6.72018V21.8406H62.2177V13.235V6.72018C62.2177 5.78682 62.9643 5.04013 63.8977 5.04013C64.5697 5.04013 65.1484 5.43215 65.4097 6.01083L68.2472 11.835L71.1966 17.8831C71.1966 17.9018 71.2152 17.9018 71.2152 17.9018L71.3459 18.1632C71.3459 18.1818 71.3646 18.1818 71.3646 18.2005C72.4846 20.3472 74.7433 21.8219 77.3381 21.8219C77.9167 21.8219 78.4768 21.7472 79.0181 21.6166C81.9115 20.8699 84.0582 18.2378 84.0582 15.1017V0H79.0181V8.60556Z" fill="#1C1C1C"/>
<path d="M79.0181 8.60556V15.1204C79.0181 16.0538 78.2714 16.8004 77.3381 16.8004C76.6847 16.8004 76.106 16.4271 75.8447 15.8858C75.8447 15.8671 75.826 15.8671 75.826 15.8484L72.9699 10.0056L70.0205 3.95744C70.0205 3.93877 70.0019 3.93877 70.0019 3.9201L69.8899 3.67743C68.7885 1.49337 66.5111 0 63.8977 0C63.319 0 62.759 0.0746687 62.2177 0.205339C59.3242 0.952025 57.1775 3.5841 57.1775 6.72018V21.8406H62.2177V13.235V6.72018C62.2177 5.78682 62.9643 5.04013 63.8977 5.04013C64.5697 5.04013 65.1484 5.43215 65.4097 6.01083L68.2472 11.835L71.1966 17.8831C71.1966 17.9018 71.2152 17.9018 71.2152 17.9018L71.3459 18.1632C71.3459 18.1818 71.3646 18.1818 71.3646 18.2005C72.4846 20.3472 74.7433 21.8219 77.3381 21.8219C77.9167 21.8219 78.4768 21.7472 79.0181 21.6166C81.9115 20.8699 84.0582 18.2378 84.0582 15.1017V0H79.0181V8.60556Z" fill="black" fill-opacity="0.2"/>
<path d="M79.0181 8.60556V15.1204C79.0181 16.0538 78.2714 16.8004 77.3381 16.8004C76.6847 16.8004 76.106 16.4271 75.8447 15.8858C75.8447 15.8671 75.826 15.8671 75.826 15.8484L72.9699 10.0056L70.0205 3.95744C70.0205 3.93877 70.0019 3.93877 70.0019 3.9201L69.8899 3.67743C68.7885 1.49337 66.5111 0 63.8977 0C63.319 0 62.759 0.0746687 62.2177 0.205339C59.3242 0.952025 57.1775 3.5841 57.1775 6.72018V21.8406H62.2177V13.235V6.72018C62.2177 5.78682 62.9643 5.04013 63.8977 5.04013C64.5697 5.04013 65.1484 5.43215 65.4097 6.01083L68.2472 11.835L71.1966 17.8831C71.1966 17.9018 71.2152 17.9018 71.2152 17.9018L71.3459 18.1632C71.3459 18.1818 71.3646 18.1818 71.3646 18.2005C72.4846 20.3472 74.7433 21.8219 77.3381 21.8219C77.9167 21.8219 78.4768 21.7472 79.0181 21.6166C81.9115 20.8699 84.0582 18.2378 84.0582 15.1017V0H79.0181V8.60556Z" fill="black" fill-opacity="0.2"/>
<path d="M79.0181 8.60556V15.1204C79.0181 16.0538 78.2714 16.8004 77.3381 16.8004C76.6847 16.8004 76.106 16.4271 75.8447 15.8858C75.8447 15.8671 75.826 15.8671 75.826 15.8484L72.9699 10.0056L70.0205 3.95744C70.0205 3.93877 70.0019 3.93877 70.0019 3.9201L69.8899 3.67743C68.7885 1.49337 66.5111 0 63.8977 0C63.319 0 62.759 0.0746687 62.2177 0.205339C59.3242 0.952025 57.1775 3.5841 57.1775 6.72018V21.8406H62.2177V13.235V6.72018C62.2177 5.78682 62.9643 5.04013 63.8977 5.04013C64.5697 5.04013 65.1484 5.43215 65.4097 6.01083L68.2472 11.835L71.1966 17.8831C71.1966 17.9018 71.2152 17.9018 71.2152 17.9018L71.3459 18.1632C71.3459 18.1818 71.3646 18.1818 71.3646 18.2005C72.4846 20.3472 74.7433 21.8219 77.3381 21.8219C77.9167 21.8219 78.4768 21.7472 79.0181 21.6166C81.9115 20.8699 84.0582 18.2378 84.0582 15.1017V0H79.0181V8.60556Z" fill="black" fill-opacity="0.2"/>
<path d="M79.0181 8.60556V15.1204C79.0181 16.0538 78.2714 16.8004 77.3381 16.8004C76.6847 16.8004 76.106 16.4271 75.8447 15.8858C75.8447 15.8671 75.826 15.8671 75.826 15.8484L72.9699 10.0056L70.0205 3.95744C70.0205 3.93877 70.0019 3.93877 70.0019 3.9201L69.8899 3.67743C68.7885 1.49337 66.5111 0 63.8977 0C63.319 0 62.759 0.0746687 62.2177 0.205339C59.3242 0.952025 57.1775 3.5841 57.1775 6.72018V21.8406H62.2177V13.235V6.72018C62.2177 5.78682 62.9643 5.04013 63.8977 5.04013C64.5697 5.04013 65.1484 5.43215 65.4097 6.01083L68.2472 11.835L71.1966 17.8831C71.1966 17.9018 71.2152 17.9018 71.2152 17.9018L71.3459 18.1632C71.3459 18.1818 71.3646 18.1818 71.3646 18.2005C72.4846 20.3472 74.7433 21.8219 77.3381 21.8219C77.9167 21.8219 78.4768 21.7472 79.0181 21.6166C81.9115 20.8699 84.0582 18.2378 84.0582 15.1017V0H79.0181V8.60556Z" fill="black" fill-opacity="0.2"/>
<path d="M79.0181 8.60556V15.1204C79.0181 16.0538 78.2714 16.8004 77.3381 16.8004C76.6847 16.8004 76.106 16.4271 75.8447 15.8858C75.8447 15.8671 75.826 15.8671 75.826 15.8484L72.9699 10.0056L70.0205 3.95744C70.0205 3.93877 70.0019 3.93877 70.0019 3.9201L69.8899 3.67743C68.7885 1.49337 66.5111 0 63.8977 0C63.319 0 62.759 0.0746687 62.2177 0.205339C59.3242 0.952025 57.1775 3.5841 57.1775 6.72018V21.8406H62.2177V13.235V6.72018C62.2177 5.78682 62.9643 5.04013 63.8977 5.04013C64.5697 5.04013 65.1484 5.43215 65.4097 6.01083L68.2472 11.835L71.1966 17.8831C71.1966 17.9018 71.2152 17.9018 71.2152 17.9018L71.3459 18.1632C71.3459 18.1818 71.3646 18.1818 71.3646 18.2005C72.4846 20.3472 74.7433 21.8219 77.3381 21.8219C77.9167 21.8219 78.4768 21.7472 79.0181 21.6166C81.9115 20.8699 84.0582 18.2378 84.0582 15.1017V0H79.0181V8.60556Z" fill="black" fill-opacity="0.2"/>
<path d="M79.0181 8.60556V15.1204C79.0181 16.0538 78.2714 16.8004 77.3381 16.8004C76.6847 16.8004 76.106 16.4271 75.8447 15.8858C75.8447 15.8671 75.826 15.8671 75.826 15.8484L72.9699 10.0056L70.0205 3.95744C70.0205 3.93877 70.0019 3.93877 70.0019 3.9201L69.8899 3.67743C68.7885 1.49337 66.5111 0 63.8977 0C63.319 0 62.759 0.0746687 62.2177 0.205339C59.3242 0.952025 57.1775 3.5841 57.1775 6.72018V21.8406H62.2177V13.235V6.72018C62.2177 5.78682 62.9643 5.04013 63.8977 5.04013C64.5697 5.04013 65.1484 5.43215 65.4097 6.01083L68.2472 11.835L71.1966 17.8831C71.1966 17.9018 71.2152 17.9018 71.2152 17.9018L71.3459 18.1632C71.3459 18.1818 71.3646 18.1818 71.3646 18.2005C72.4846 20.3472 74.7433 21.8219 77.3381 21.8219C77.9167 21.8219 78.4768 21.7472 79.0181 21.6166C81.9115 20.8699 84.0582 18.2378 84.0582 15.1017V0H79.0181V8.60556Z" fill="black" fill-opacity="0.2"/>
<path d="M79.0181 8.60556V15.1204C79.0181 16.0538 78.2714 16.8004 77.3381 16.8004C76.6847 16.8004 76.106 16.4271 75.8447 15.8858C75.8447 15.8671 75.826 15.8671 75.826 15.8484L72.9699 10.0056L70.0205 3.95744C70.0205 3.93877 70.0019 3.93877 70.0019 3.9201L69.8899 3.67743C68.7885 1.49337 66.5111 0 63.8977 0C63.319 0 62.759 0.0746687 62.2177 0.205339C59.3242 0.952025 57.1775 3.5841 57.1775 6.72018V21.8406H62.2177V13.235V6.72018C62.2177 5.78682 62.9643 5.04013 63.8977 5.04013C64.5697 5.04013 65.1484 5.43215 65.4097 6.01083L68.2472 11.835L71.1966 17.8831C71.1966 17.9018 71.2152 17.9018 71.2152 17.9018L71.3459 18.1632C71.3459 18.1818 71.3646 18.1818 71.3646 18.2005C72.4846 20.3472 74.7433 21.8219 77.3381 21.8219C77.9167 21.8219 78.4768 21.7472 79.0181 21.6166C81.9115 20.8699 84.0582 18.2378 84.0582 15.1017V0H79.0181V8.60556Z" fill="black" fill-opacity="0.2"/>
<path d="M79.0181 8.60556V15.1204C79.0181 16.0538 78.2714 16.8004 77.3381 16.8004C76.6847 16.8004 76.106 16.4271 75.8447 15.8858C75.8447 15.8671 75.826 15.8671 75.826 15.8484L72.9699 10.0056L70.0205 3.95744C70.0205 3.93877 70.0019 3.93877 70.0019 3.9201L69.8899 3.67743C68.7885 1.49337 66.5111 0 63.8977 0C63.319 0 62.759 0.0746687 62.2177 0.205339C59.3242 0.952025 57.1775 3.5841 57.1775 6.72018V21.8406H62.2177V13.235V6.72018C62.2177 5.78682 62.9643 5.04013 63.8977 5.04013C64.5697 5.04013 65.1484 5.43215 65.4097 6.01083L68.2472 11.835L71.1966 17.8831C71.1966 17.9018 71.2152 17.9018 71.2152 17.9018L71.3459 18.1632C71.3459 18.1818 71.3646 18.1818 71.3646 18.2005C72.4846 20.3472 74.7433 21.8219 77.3381 21.8219C77.9167 21.8219 78.4768 21.7472 79.0181 21.6166C81.9115 20.8699 84.0582 18.2378 84.0582 15.1017V0H79.0181V8.60556Z" fill="black" fill-opacity="0.2"/>
<path d="M79.0181 8.60556V15.1204C79.0181 16.0538 78.2714 16.8004 77.3381 16.8004C76.6847 16.8004 76.106 16.4271 75.8447 15.8858C75.8447 15.8671 75.826 15.8671 75.826 15.8484L72.9699 10.0056L70.0205 3.95744C70.0205 3.93877 70.0019 3.93877 70.0019 3.9201L69.8899 3.67743C68.7885 1.49337 66.5111 0 63.8977 0C63.319 0 62.759 0.0746687 62.2177 0.205339C59.3242 0.952025 57.1775 3.5841 57.1775 6.72018V21.8406H62.2177V13.235V6.72018C62.2177 5.78682 62.9643 5.04013 63.8977 5.04013C64.5697 5.04013 65.1484 5.43215 65.4097 6.01083L68.2472 11.835L71.1966 17.8831C71.1966 17.9018 71.2152 17.9018 71.2152 17.9018L71.3459 18.1632C71.3459 18.1818 71.3646 18.1818 71.3646 18.2005C72.4846 20.3472 74.7433 21.8219 77.3381 21.8219C77.9167 21.8219 78.4768 21.7472 79.0181 21.6166C81.9115 20.8699 84.0582 18.2378 84.0582 15.1017V0H79.0181V8.60556Z" fill="black" fill-opacity="0.2"/>
<path d="M79.0181 8.60556V15.1204C79.0181 16.0538 78.2714 16.8004 77.3381 16.8004C76.6847 16.8004 76.106 16.4271 75.8447 15.8858C75.8447 15.8671 75.826 15.8671 75.826 15.8484L72.9699 10.0056L70.0205 3.95744C70.0205 3.93877 70.0019 3.93877 70.0019 3.9201L69.8899 3.67743C68.7885 1.49337 66.5111 0 63.8977 0C63.319 0 62.759 0.0746687 62.2177 0.205339C59.3242 0.952025 57.1775 3.5841 57.1775 6.72018V21.8406H62.2177V13.235V6.72018C62.2177 5.78682 62.9643 5.04013 63.8977 5.04013C64.5697 5.04013 65.1484 5.43215 65.4097 6.01083L68.2472 11.835L71.1966 17.8831C71.1966 17.9018 71.2152 17.9018 71.2152 17.9018L71.3459 18.1632C71.3459 18.1818 71.3646 18.1818 71.3646 18.2005C72.4846 20.3472 74.7433 21.8219 77.3381 21.8219C77.9167 21.8219 78.4768 21.7472 79.0181 21.6166C81.9115 20.8699 84.0582 18.2378 84.0582 15.1017V0H79.0181V8.60556Z" fill="black" fill-opacity="0.2"/>
<path d="M79.0181 8.60556V15.1204C79.0181 16.0538 78.2714 16.8004 77.3381 16.8004C76.6847 16.8004 76.106 16.4271 75.8447 15.8858C75.8447 15.8671 75.826 15.8671 75.826 15.8484L72.9699 10.0056L70.0205 3.95744C70.0205 3.93877 70.0019 3.93877 70.0019 3.9201L69.8899 3.67743C68.7885 1.49337 66.5111 0 63.8977 0C63.319 0 62.759 0.0746687 62.2177 0.205339C59.3242 0.952025 57.1775 3.5841 57.1775 6.72018V21.8406H62.2177V13.235V6.72018C62.2177 5.78682 62.9643 5.04013 63.8977 5.04013C64.5697 5.04013 65.1484 5.43215 65.4097 6.01083L68.2472 11.835L71.1966 17.8831C71.1966 17.9018 71.2152 17.9018 71.2152 17.9018L71.3459 18.1632C71.3459 18.1818 71.3646 18.1818 71.3646 18.2005C72.4846 20.3472 74.7433 21.8219 77.3381 21.8219C77.9167 21.8219 78.4768 21.7472 79.0181 21.6166C81.9115 20.8699 84.0582 18.2378 84.0582 15.1017V0H79.0181V8.60556Z" fill="black" fill-opacity="0.2"/>
<path d="M79.0181 8.60556V15.1204C79.0181 16.0538 78.2714 16.8004 77.3381 16.8004C76.6847 16.8004 76.106 16.4271 75.8447 15.8858C75.8447 15.8671 75.826 15.8671 75.826 15.8484L72.9699 10.0056L70.0205 3.95744C70.0205 3.93877 70.0019 3.93877 70.0019 3.9201L69.8899 3.67743C68.7885 1.49337 66.5111 0 63.8977 0C63.319 0 62.759 0.0746687 62.2177 0.205339C59.3242 0.952025 57.1775 3.5841 57.1775 6.72018V21.8406H62.2177V13.235V6.72018C62.2177 5.78682 62.9643 5.04013 63.8977 5.04013C64.5697 5.04013 65.1484 5.43215 65.4097 6.01083L68.2472 11.835L71.1966 17.8831C71.1966 17.9018 71.2152 17.9018 71.2152 17.9018L71.3459 18.1632C71.3459 18.1818 71.3646 18.1818 71.3646 18.2005C72.4846 20.3472 74.7433 21.8219 77.3381 21.8219C77.9167 21.8219 78.4768 21.7472 79.0181 21.6166C81.9115 20.8699 84.0582 18.2378 84.0582 15.1017V0H79.0181V8.60556Z" fill="black" fill-opacity="0.2"/>
<path d="M47.0599 0C45.7719 0 44.5398 0.317342 43.4758 0.896024C43.4571 0.896024 43.4571 0.914691 43.4385 0.914691L43.1211 1.0827L43.1025 1.10136L36.289 5.04013L32.7982 7.05619L31.9395 7.5602C31.9395 7.5602 31.9208 7.5602 31.9208 7.57887C29.4568 8.82957 27.7767 11.3683 27.7767 14.299C27.7767 18.4805 31.2115 21.8592 35.4489 21.8592H47.2092C51.3347 21.8592 54.6574 18.5178 54.6574 14.411V7.5602C54.6201 3.37876 51.2414 0 47.0599 0ZM49.58 7.5602V14.2804V14.6911C49.5613 14.6911 49.5613 14.7097 49.5426 14.7097C49.3373 15.9044 48.3106 16.8004 47.0599 16.8004H42.6358H40.1157H35.4116C33.9556 16.8004 32.7795 15.6244 32.7795 14.1684C32.7795 13.179 33.3395 12.3017 34.1609 11.8536L39.6117 8.84824L40.3211 8.45622L46.0145 5.32014C46.0332 5.30147 46.0705 5.30147 46.0892 5.28281C46.4252 5.1148 46.7799 5.02147 47.1719 5.02147C48.4413 5.02147 49.468 6.02949 49.58 7.31753C49.58 7.31753 49.58 7.31753 49.5986 7.31753V7.5602H49.58Z" fill="#1C1C1C"/>
<path d="M47.0599 0C45.7719 0 44.5398 0.317342 43.4758 0.896024C43.4571 0.896024 43.4571 0.914691 43.4385 0.914691L43.1211 1.0827L43.1025 1.10136L36.289 5.04013L32.7982 7.05619L31.9395 7.5602C31.9395 7.5602 31.9208 7.5602 31.9208 7.57887C29.4568 8.82957 27.7767 11.3683 27.7767 14.299C27.7767 18.4805 31.2115 21.8592 35.4489 21.8592H47.2092C51.3347 21.8592 54.6574 18.5178 54.6574 14.411V7.5602C54.6201 3.37876 51.2414 0 47.0599 0ZM49.58 7.5602V14.2804V14.6911C49.5613 14.6911 49.5613 14.7097 49.5426 14.7097C49.3373 15.9044 48.3106 16.8004 47.0599 16.8004H42.6358H40.1157H35.4116C33.9556 16.8004 32.7795 15.6244 32.7795 14.1684C32.7795 13.179 33.3395 12.3017 34.1609 11.8536L39.6117 8.84824L40.3211 8.45622L46.0145 5.32014C46.0332 5.30147 46.0705 5.30147 46.0892 5.28281C46.4252 5.1148 46.7799 5.02147 47.1719 5.02147C48.4413 5.02147 49.468 6.02949 49.58 7.31753C49.58 7.31753 49.58 7.31753 49.5986 7.31753V7.5602H49.58Z" fill="black" fill-opacity="0.2"/>
<path d="M47.0599 0C45.7719 0 44.5398 0.317342 43.4758 0.896024C43.4571 0.896024 43.4571 0.914691 43.4385 0.914691L43.1211 1.0827L43.1025 1.10136L36.289 5.04013L32.7982 7.05619L31.9395 7.5602C31.9395 7.5602 31.9208 7.5602 31.9208 7.57887C29.4568 8.82957 27.7767 11.3683 27.7767 14.299C27.7767 18.4805 31.2115 21.8592 35.4489 21.8592H47.2092C51.3347 21.8592 54.6574 18.5178 54.6574 14.411V7.5602C54.6201 3.37876 51.2414 0 47.0599 0ZM49.58 7.5602V14.2804V14.6911C49.5613 14.6911 49.5613 14.7097 49.5426 14.7097C49.3373 15.9044 48.3106 16.8004 47.0599 16.8004H42.6358H40.1157H35.4116C33.9556 16.8004 32.7795 15.6244 32.7795 14.1684C32.7795 13.179 33.3395 12.3017 34.1609 11.8536L39.6117 8.84824L40.3211 8.45622L46.0145 5.32014C46.0332 5.30147 46.0705 5.30147 46.0892 5.28281C46.4252 5.1148 46.7799 5.02147 47.1719 5.02147C48.4413 5.02147 49.468 6.02949 49.58 7.31753C49.58 7.31753 49.58 7.31753 49.5986 7.31753V7.5602H49.58Z" fill="black" fill-opacity="0.2"/>
<path d="M47.0599 0C45.7719 0 44.5398 0.317342 43.4758 0.896024C43.4571 0.896024 43.4571 0.914691 43.4385 0.914691L43.1211 1.0827L43.1025 1.10136L36.289 5.04013L32.7982 7.05619L31.9395 7.5602C31.9395 7.5602 31.9208 7.5602 31.9208 7.57887C29.4568 8.82957 27.7767 11.3683 27.7767 14.299C27.7767 18.4805 31.2115 21.8592 35.4489 21.8592H47.2092C51.3347 21.8592 54.6574 18.5178 54.6574 14.411V7.5602C54.6201 3.37876 51.2414 0 47.0599 0ZM49.58 7.5602V14.2804V14.6911C49.5613 14.6911 49.5613 14.7097 49.5426 14.7097C49.3373 15.9044 48.3106 16.8004 47.0599 16.8004H42.6358H40.1157H35.4116C33.9556 16.8004 32.7795 15.6244 32.7795 14.1684C32.7795 13.179 33.3395 12.3017 34.1609 11.8536L39.6117 8.84824L40.3211 8.45622L46.0145 5.32014C46.0332 5.30147 46.0705 5.30147 46.0892 5.28281C46.4252 5.1148 46.7799 5.02147 47.1719 5.02147C48.4413 5.02147 49.468 6.02949 49.58 7.31753C49.58 7.31753 49.58 7.31753 49.5986 7.31753V7.5602H49.58Z" fill="black" fill-opacity="0.2"/>
<path d="M47.0599 0C45.7719 0 44.5398 0.317342 43.4758 0.896024C43.4571 0.896024 43.4571 0.914691 43.4385 0.914691L43.1211 1.0827L43.1025 1.10136L36.289 5.04013L32.7982 7.05619L31.9395 7.5602C31.9395 7.5602 31.9208 7.5602 31.9208 7.57887C29.4568 8.82957 27.7767 11.3683 27.7767 14.299C27.7767 18.4805 31.2115 21.8592 35.4489 21.8592H47.2092C51.3347 21.8592 54.6574 18.5178 54.6574 14.411V7.5602C54.6201 3.37876 51.2414 0 47.0599 0ZM49.58 7.5602V14.2804V14.6911C49.5613 14.6911 49.5613 14.7097 49.5426 14.7097C49.3373 15.9044 48.3106 16.8004 47.0599 16.8004H42.6358H40.1157H35.4116C33.9556 16.8004 32.7795 15.6244 32.7795 14.1684C32.7795 13.179 33.3395 12.3017 34.1609 11.8536L39.6117 8.84824L40.3211 8.45622L46.0145 5.32014C46.0332 5.30147 46.0705 5.30147 46.0892 5.28281C46.4252 5.1148 46.7799 5.02147 47.1719 5.02147C48.4413 5.02147 49.468 6.02949 49.58 7.31753C49.58 7.31753 49.58 7.31753 49.5986 7.31753V7.5602H49.58Z" fill="black" fill-opacity="0.2"/>
<path d="M47.0599 0C45.7719 0 44.5398 0.317342 43.4758 0.896024C43.4571 0.896024 43.4571 0.914691 43.4385 0.914691L43.1211 1.0827L43.1025 1.10136L36.289 5.04013L32.7982 7.05619L31.9395 7.5602C31.9395 7.5602 31.9208 7.5602 31.9208 7.57887C29.4568 8.82957 27.7767 11.3683 27.7767 14.299C27.7767 18.4805 31.2115 21.8592 35.4489 21.8592H47.2092C51.3347 21.8592 54.6574 18.5178 54.6574 14.411V7.5602C54.6201 3.37876 51.2414 0 47.0599 0ZM49.58 7.5602V14.2804V14.6911C49.5613 14.6911 49.5613 14.7097 49.5426 14.7097C49.3373 15.9044 48.3106 16.8004 47.0599 16.8004H42.6358H40.1157H35.4116C33.9556 16.8004 32.7795 15.6244 32.7795 14.1684C32.7795 13.179 33.3395 12.3017 34.1609 11.8536L39.6117 8.84824L40.3211 8.45622L46.0145 5.32014C46.0332 5.30147 46.0705 5.30147 46.0892 5.28281C46.4252 5.1148 46.7799 5.02147 47.1719 5.02147C48.4413 5.02147 49.468 6.02949 49.58 7.31753C49.58 7.31753 49.58 7.31753 49.5986 7.31753V7.5602H49.58Z" fill="black" fill-opacity="0.2"/>
<path d="M47.0599 0C45.7719 0 44.5398 0.317342 43.4758 0.896024C43.4571 0.896024 43.4571 0.914691 43.4385 0.914691L43.1211 1.0827L43.1025 1.10136L36.289 5.04013L32.7982 7.05619L31.9395 7.5602C31.9395 7.5602 31.9208 7.5602 31.9208 7.57887C29.4568 8.82957 27.7767 11.3683 27.7767 14.299C27.7767 18.4805 31.2115 21.8592 35.4489 21.8592H47.2092C51.3347 21.8592 54.6574 18.5178 54.6574 14.411V7.5602C54.6201 3.37876 51.2414 0 47.0599 0ZM49.58 7.5602V14.2804V14.6911C49.5613 14.6911 49.5613 14.7097 49.5426 14.7097C49.3373 15.9044 48.3106 16.8004 47.0599 16.8004H42.6358H40.1157H35.4116C33.9556 16.8004 32.7795 15.6244 32.7795 14.1684C32.7795 13.179 33.3395 12.3017 34.1609 11.8536L39.6117 8.84824L40.3211 8.45622L46.0145 5.32014C46.0332 5.30147 46.0705 5.30147 46.0892 5.28281C46.4252 5.1148 46.7799 5.02147 47.1719 5.02147C48.4413 5.02147 49.468 6.02949 49.58 7.31753C49.58 7.31753 49.58 7.31753 49.5986 7.31753V7.5602H49.58Z" fill="black" fill-opacity="0.2"/>
<path d="M47.0599 0C45.7719 0 44.5398 0.317342 43.4758 0.896024C43.4571 0.896024 43.4571 0.914691 43.4385 0.914691L43.1211 1.0827L43.1025 1.10136L36.289 5.04013L32.7982 7.05619L31.9395 7.5602C31.9395 7.5602 31.9208 7.5602 31.9208 7.57887C29.4568 8.82957 27.7767 11.3683 27.7767 14.299C27.7767 18.4805 31.2115 21.8592 35.4489 21.8592H47.2092C51.3347 21.8592 54.6574 18.5178 54.6574 14.411V7.5602C54.6201 3.37876 51.2414 0 47.0599 0ZM49.58 7.5602V14.2804V14.6911C49.5613 14.6911 49.5613 14.7097 49.5426 14.7097C49.3373 15.9044 48.3106 16.8004 47.0599 16.8004H42.6358H40.1157H35.4116C33.9556 16.8004 32.7795 15.6244 32.7795 14.1684C32.7795 13.179 33.3395 12.3017 34.1609 11.8536L39.6117 8.84824L40.3211 8.45622L46.0145 5.32014C46.0332 5.30147 46.0705 5.30147 46.0892 5.28281C46.4252 5.1148 46.7799 5.02147 47.1719 5.02147C48.4413 5.02147 49.468 6.02949 49.58 7.31753C49.58 7.31753 49.58 7.31753 49.5986 7.31753V7.5602H49.58Z" fill="black" fill-opacity="0.2"/>
<path d="M47.0599 0C45.7719 0 44.5398 0.317342 43.4758 0.896024C43.4571 0.896024 43.4571 0.914691 43.4385 0.914691L43.1211 1.0827L43.1025 1.10136L36.289 5.04013L32.7982 7.05619L31.9395 7.5602C31.9395 7.5602 31.9208 7.5602 31.9208 7.57887C29.4568 8.82957 27.7767 11.3683 27.7767 14.299C27.7767 18.4805 31.2115 21.8592 35.4489 21.8592H47.2092C51.3347 21.8592 54.6574 18.5178 54.6574 14.411V7.5602C54.6201 3.37876 51.2414 0 47.0599 0ZM49.58 7.5602V14.2804V14.6911C49.5613 14.6911 49.5613 14.7097 49.5426 14.7097C49.3373 15.9044 48.3106 16.8004 47.0599 16.8004H42.6358H40.1157H35.4116C33.9556 16.8004 32.7795 15.6244 32.7795 14.1684C32.7795 13.179 33.3395 12.3017 34.1609 11.8536L39.6117 8.84824L40.3211 8.45622L46.0145 5.32014C46.0332 5.30147 46.0705 5.30147 46.0892 5.28281C46.4252 5.1148 46.7799 5.02147 47.1719 5.02147C48.4413 5.02147 49.468 6.02949 49.58 7.31753C49.58 7.31753 49.58 7.31753 49.5986 7.31753V7.5602H49.58Z" fill="black" fill-opacity="0.2"/>
<path d="M47.0599 0C45.7719 0 44.5398 0.317342 43.4758 0.896024C43.4571 0.896024 43.4571 0.914691 43.4385 0.914691L43.1211 1.0827L43.1025 1.10136L36.289 5.04013L32.7982 7.05619L31.9395 7.5602C31.9395 7.5602 31.9208 7.5602 31.9208 7.57887C29.4568 8.82957 27.7767 11.3683 27.7767 14.299C27.7767 18.4805 31.2115 21.8592 35.4489 21.8592H47.2092C51.3347 21.8592 54.6574 18.5178 54.6574 14.411V7.5602C54.6201 3.37876 51.2414 0 47.0599 0ZM49.58 7.5602V14.2804V14.6911C49.5613 14.6911 49.5613 14.7097 49.5426 14.7097C49.3373 15.9044 48.3106 16.8004 47.0599 16.8004H42.6358H40.1157H35.4116C33.9556 16.8004 32.7795 15.6244 32.7795 14.1684C32.7795 13.179 33.3395 12.3017 34.1609 11.8536L39.6117 8.84824L40.3211 8.45622L46.0145 5.32014C46.0332 5.30147 46.0705 5.30147 46.0892 5.28281C46.4252 5.1148 46.7799 5.02147 47.1719 5.02147C48.4413 5.02147 49.468 6.02949 49.58 7.31753C49.58 7.31753 49.58 7.31753 49.5986 7.31753V7.5602H49.58Z" fill="black" fill-opacity="0.2"/>
<path d="M47.0599 0C45.7719 0 44.5398 0.317342 43.4758 0.896024C43.4571 0.896024 43.4571 0.914691 43.4385 0.914691L43.1211 1.0827L43.1025 1.10136L36.289 5.04013L32.7982 7.05619L31.9395 7.5602C31.9395 7.5602 31.9208 7.5602 31.9208 7.57887C29.4568 8.82957 27.7767 11.3683 27.7767 14.299C27.7767 18.4805 31.2115 21.8592 35.4489 21.8592H47.2092C51.3347 21.8592 54.6574 18.5178 54.6574 14.411V7.5602C54.6201 3.37876 51.2414 0 47.0599 0ZM49.58 7.5602V14.2804V14.6911C49.5613 14.6911 49.5613 14.7097 49.5426 14.7097C49.3373 15.9044 48.3106 16.8004 47.0599 16.8004H42.6358H40.1157H35.4116C33.9556 16.8004 32.7795 15.6244 32.7795 14.1684C32.7795 13.179 33.3395 12.3017 34.1609 11.8536L39.6117 8.84824L40.3211 8.45622L46.0145 5.32014C46.0332 5.30147 46.0705 5.30147 46.0892 5.28281C46.4252 5.1148 46.7799 5.02147 47.1719 5.02147C48.4413 5.02147 49.468 6.02949 49.58 7.31753C49.58 7.31753 49.58 7.31753 49.5986 7.31753V7.5602H49.58Z" fill="black" fill-opacity="0.2"/>
<path d="M47.0599 0C45.7719 0 44.5398 0.317342 43.4758 0.896024C43.4571 0.896024 43.4571 0.914691 43.4385 0.914691L43.1211 1.0827L43.1025 1.10136L36.289 5.04013L32.7982 7.05619L31.9395 7.5602C31.9395 7.5602 31.9208 7.5602 31.9208 7.57887C29.4568 8.82957 27.7767 11.3683 27.7767 14.299C27.7767 18.4805 31.2115 21.8592 35.4489 21.8592H47.2092C51.3347 21.8592 54.6574 18.5178 54.6574 14.411V7.5602C54.6201 3.37876 51.2414 0 47.0599 0ZM49.58 7.5602V14.2804V14.6911C49.5613 14.6911 49.5613 14.7097 49.5426 14.7097C49.3373 15.9044 48.3106 16.8004 47.0599 16.8004H42.6358H40.1157H35.4116C33.9556 16.8004 32.7795 15.6244 32.7795 14.1684C32.7795 13.179 33.3395 12.3017 34.1609 11.8536L39.6117 8.84824L40.3211 8.45622L46.0145 5.32014C46.0332 5.30147 46.0705 5.30147 46.0892 5.28281C46.4252 5.1148 46.7799 5.02147 47.1719 5.02147C48.4413 5.02147 49.468 6.02949 49.58 7.31753C49.58 7.31753 49.58 7.31753 49.5986 7.31753V7.5602H49.58Z" fill="black" fill-opacity="0.2"/>
<path d="M47.0599 0C45.7719 0 44.5398 0.317342 43.4758 0.896024C43.4571 0.896024 43.4571 0.914691 43.4385 0.914691L43.1211 1.0827L43.1025 1.10136L36.289 5.04013L32.7982 7.05619L31.9395 7.5602C31.9395 7.5602 31.9208 7.5602 31.9208 7.57887C29.4568 8.82957 27.7767 11.3683 27.7767 14.299C27.7767 18.4805 31.2115 21.8592 35.4489 21.8592H47.2092C51.3347 21.8592 54.6574 18.5178 54.6574 14.411V7.5602C54.6201 3.37876 51.2414 0 47.0599 0ZM49.58 7.5602V14.2804V14.6911C49.5613 14.6911 49.5613 14.7097 49.5426 14.7097C49.3373 15.9044 48.3106 16.8004 47.0599 16.8004H42.6358H40.1157H35.4116C33.9556 16.8004 32.7795 15.6244 32.7795 14.1684C32.7795 13.179 33.3395 12.3017 34.1609 11.8536L39.6117 8.84824L40.3211 8.45622L46.0145 5.32014C46.0332 5.30147 46.0705 5.30147 46.0892 5.28281C46.4252 5.1148 46.7799 5.02147 47.1719 5.02147C48.4413 5.02147 49.468 6.02949 49.58 7.31753C49.58 7.31753 49.58 7.31753 49.5986 7.31753V7.5602H49.58Z" fill="black" fill-opacity="0.2"/>
<path d="M106.758 7.57887L111.798 0H106.758L105.805 1.17603L100.952 7.16819C100.336 7.91488 99.4026 8.40022 98.3573 8.40022H91.6371V0H86.597V8.40022V13.4404V21.8406H91.6371V13.4404H98.3573C99.4026 13.4404 100.336 13.9257 100.952 14.6724L105.805 20.6646L106.758 21.8406H111.798L106.758 14.2617L105.488 12.3577C105.171 11.835 104.779 11.3496 104.349 10.9203C104.779 10.4909 105.171 10.0056 105.488 9.48292L106.758 7.57887Z" fill="#1C1C1C"/>
<path d="M106.758 7.57887L111.798 0H106.758L105.805 1.17603L100.952 7.16819C100.336 7.91488 99.4026 8.40022 98.3573 8.40022H91.6371V0H86.597V8.40022V13.4404V21.8406H91.6371V13.4404H98.3573C99.4026 13.4404 100.336 13.9257 100.952 14.6724L105.805 20.6646L106.758 21.8406H111.798L106.758 14.2617L105.488 12.3577C105.171 11.835 104.779 11.3496 104.349 10.9203C104.779 10.4909 105.171 10.0056 105.488 9.48292L106.758 7.57887Z" fill="black" fill-opacity="0.2"/>
<path d="M106.758 7.57887L111.798 0H106.758L105.805 1.17603L100.952 7.16819C100.336 7.91488 99.4026 8.40022 98.3573 8.40022H91.6371V0H86.597V8.40022V13.4404V21.8406H91.6371V13.4404H98.3573C99.4026 13.4404 100.336 13.9257 100.952 14.6724L105.805 20.6646L106.758 21.8406H111.798L106.758 14.2617L105.488 12.3577C105.171 11.835 104.779 11.3496 104.349 10.9203C104.779 10.4909 105.171 10.0056 105.488 9.48292L106.758 7.57887Z" fill="black" fill-opacity="0.2"/>
<path d="M106.758 7.57887L111.798 0H106.758L105.805 1.17603L100.952 7.16819C100.336 7.91488 99.4026 8.40022 98.3573 8.40022H91.6371V0H86.597V8.40022V13.4404V21.8406H91.6371V13.4404H98.3573C99.4026 13.4404 100.336 13.9257 100.952 14.6724L105.805 20.6646L106.758 21.8406H111.798L106.758 14.2617L105.488 12.3577C105.171 11.835 104.779 11.3496 104.349 10.9203C104.779 10.4909 105.171 10.0056 105.488 9.48292L106.758 7.57887Z" fill="black" fill-opacity="0.2"/>
<path d="M106.758 7.57887L111.798 0H106.758L105.805 1.17603L100.952 7.16819C100.336 7.91488 99.4026 8.40022 98.3573 8.40022H91.6371V0H86.597V8.40022V13.4404V21.8406H91.6371V13.4404H98.3573C99.4026 13.4404 100.336 13.9257 100.952 14.6724L105.805 20.6646L106.758 21.8406H111.798L106.758 14.2617L105.488 12.3577C105.171 11.835 104.779 11.3496 104.349 10.9203C104.779 10.4909 105.171 10.0056 105.488 9.48292L106.758 7.57887Z" fill="black" fill-opacity="0.2"/>
<path d="M106.758 7.57887L111.798 0H106.758L105.805 1.17603L100.952 7.16819C100.336 7.91488 99.4026 8.40022 98.3573 8.40022H91.6371V0H86.597V8.40022V13.4404V21.8406H91.6371V13.4404H98.3573C99.4026 13.4404 100.336 13.9257 100.952 14.6724L105.805 20.6646L106.758 21.8406H111.798L106.758 14.2617L105.488 12.3577C105.171 11.835 104.779 11.3496 104.349 10.9203C104.779 10.4909 105.171 10.0056 105.488 9.48292L106.758 7.57887Z" fill="black" fill-opacity="0.2"/>
<path d="M106.758 7.57887L111.798 0H106.758L105.805 1.17603L100.952 7.16819C100.336 7.91488 99.4026 8.40022 98.3573 8.40022H91.6371V0H86.597V8.40022V13.4404V21.8406H91.6371V13.4404H98.3573C99.4026 13.4404 100.336 13.9257 100.952 14.6724L105.805 20.6646L106.758 21.8406H111.798L106.758 14.2617L105.488 12.3577C105.171 11.835 104.779 11.3496 104.349 10.9203C104.779 10.4909 105.171 10.0056 105.488 9.48292L106.758 7.57887Z" fill="black" fill-opacity="0.2"/>
<path d="M106.758 7.57887L111.798 0H106.758L105.805 1.17603L100.952 7.16819C100.336 7.91488 99.4026 8.40022 98.3573 8.40022H91.6371V0H86.597V8.40022V13.4404V21.8406H91.6371V13.4404H98.3573C99.4026 13.4404 100.336 13.9257 100.952 14.6724L105.805 20.6646L106.758 21.8406H111.798L106.758 14.2617L105.488 12.3577C105.171 11.835 104.779 11.3496 104.349 10.9203C104.779 10.4909 105.171 10.0056 105.488 9.48292L106.758 7.57887Z" fill="black" fill-opacity="0.2"/>
<path d="M106.758 7.57887L111.798 0H106.758L105.805 1.17603L100.952 7.16819C100.336 7.91488 99.4026 8.40022 98.3573 8.40022H91.6371V0H86.597V8.40022V13.4404V21.8406H91.6371V13.4404H98.3573C99.4026 13.4404 100.336 13.9257 100.952 14.6724L105.805 20.6646L106.758 21.8406H111.798L106.758 14.2617L105.488 12.3577C105.171 11.835 104.779 11.3496 104.349 10.9203C104.779 10.4909 105.171 10.0056 105.488 9.48292L106.758 7.57887Z" fill="black" fill-opacity="0.2"/>
<path d="M106.758 7.57887L111.798 0H106.758L105.805 1.17603L100.952 7.16819C100.336 7.91488 99.4026 8.40022 98.3573 8.40022H91.6371V0H86.597V8.40022V13.4404V21.8406H91.6371V13.4404H98.3573C99.4026 13.4404 100.336 13.9257 100.952 14.6724L105.805 20.6646L106.758 21.8406H111.798L106.758 14.2617L105.488 12.3577C105.171 11.835 104.779 11.3496 104.349 10.9203C104.779 10.4909 105.171 10.0056 105.488 9.48292L106.758 7.57887Z" fill="black" fill-opacity="0.2"/>
<path d="M106.758 7.57887L111.798 0H106.758L105.805 1.17603L100.952 7.16819C100.336 7.91488 99.4026 8.40022 98.3573 8.40022H91.6371V0H86.597V8.40022V13.4404V21.8406H91.6371V13.4404H98.3573C99.4026 13.4404 100.336 13.9257 100.952 14.6724L105.805 20.6646L106.758 21.8406H111.798L106.758 14.2617L105.488 12.3577C105.171 11.835 104.779 11.3496 104.349 10.9203C104.779 10.4909 105.171 10.0056 105.488 9.48292L106.758 7.57887Z" fill="black" fill-opacity="0.2"/>
<path d="M106.758 7.57887L111.798 0H106.758L105.805 1.17603L100.952 7.16819C100.336 7.91488 99.4026 8.40022 98.3573 8.40022H91.6371V0H86.597V8.40022V13.4404V21.8406H91.6371V13.4404H98.3573C99.4026 13.4404 100.336 13.9257 100.952 14.6724L105.805 20.6646L106.758 21.8406H111.798L106.758 14.2617L105.488 12.3577C105.171 11.835 104.779 11.3496 104.349 10.9203C104.779 10.4909 105.171 10.0056 105.488 9.48292L106.758 7.57887Z" fill="black" fill-opacity="0.2"/>
<path d="M106.758 7.57887L111.798 0H106.758L105.805 1.17603L100.952 7.16819C100.336 7.91488 99.4026 8.40022 98.3573 8.40022H91.6371V0H86.597V8.40022V13.4404V21.8406H91.6371V13.4404H98.3573C99.4026 13.4404 100.336 13.9257 100.952 14.6724L105.805 20.6646L106.758 21.8406H111.798L106.758 14.2617L105.488 12.3577C105.171 11.835 104.779 11.3496 104.349 10.9203C104.779 10.4909 105.171 10.0056 105.488 9.48292L106.758 7.57887Z" fill="black" fill-opacity="0.2"/>
<path d="M134.292 5.50681C133.713 2.37073 130.969 0 127.683 0H124.323C121.038 0 118.294 2.37073 117.715 5.50681C117.715 5.52548 117.715 5.52548 117.715 5.52548L114.243 21.8406H119.283L120.385 16.8004H131.604L132.705 21.8406H137.745L134.273 5.52548C134.292 5.52548 134.292 5.50681 134.292 5.50681ZM128.766 11.7603H123.241H121.505L121.878 10.0803L122.681 6.4215C122.83 5.63748 123.502 5.04013 124.342 5.04013H127.702C128.523 5.04013 129.214 5.63748 129.363 6.4215L130.166 10.0803L130.539 11.7603H128.766Z" fill="#1C1C1C"/>
<path d="M134.292 5.50681C133.713 2.37073 130.969 0 127.683 0H124.323C121.038 0 118.294 2.37073 117.715 5.50681C117.715 5.52548 117.715 5.52548 117.715 5.52548L114.243 21.8406H119.283L120.385 16.8004H131.604L132.705 21.8406H137.745L134.273 5.52548C134.292 5.52548 134.292 5.50681 134.292 5.50681ZM128.766 11.7603H123.241H121.505L121.878 10.0803L122.681 6.4215C122.83 5.63748 123.502 5.04013 124.342 5.04013H127.702C128.523 5.04013 129.214 5.63748 129.363 6.4215L130.166 10.0803L130.539 11.7603H128.766Z" fill="black" fill-opacity="0.2"/>
<path d="M134.292 5.50681C133.713 2.37073 130.969 0 127.683 0H124.323C121.038 0 118.294 2.37073 117.715 5.50681C117.715 5.52548 117.715 5.52548 117.715 5.52548L114.243 21.8406H119.283L120.385 16.8004H131.604L132.705 21.8406H137.745L134.273 5.52548C134.292 5.52548 134.292 5.50681 134.292 5.50681ZM128.766 11.7603H123.241H121.505L121.878 10.0803L122.681 6.4215C122.83 5.63748 123.502 5.04013 124.342 5.04013H127.702C128.523 5.04013 129.214 5.63748 129.363 6.4215L130.166 10.0803L130.539 11.7603H128.766Z" fill="black" fill-opacity="0.2"/>
<path d="M134.292 5.50681C133.713 2.37073 130.969 0 127.683 0H124.323C121.038 0 118.294 2.37073 117.715 5.50681C117.715 5.52548 117.715 5.52548 117.715 5.52548L114.243 21.8406H119.283L120.385 16.8004H131.604L132.705 21.8406H137.745L134.273 5.52548C134.292 5.52548 134.292 5.50681 134.292 5.50681ZM128.766 11.7603H123.241H121.505L121.878 10.0803L122.681 6.4215C122.83 5.63748 123.502 5.04013 124.342 5.04013H127.702C128.523 5.04013 129.214 5.63748 129.363 6.4215L130.166 10.0803L130.539 11.7603H128.766Z" fill="black" fill-opacity="0.2"/>
<path d="M134.292 5.50681C133.713 2.37073 130.969 0 127.683 0H124.323C121.038 0 118.294 2.37073 117.715 5.50681C117.715 5.52548 117.715 5.52548 117.715 5.52548L114.243 21.8406H119.283L120.385 16.8004H131.604L132.705 21.8406H137.745L134.273 5.52548C134.292 5.52548 134.292 5.50681 134.292 5.50681ZM128.766 11.7603H123.241H121.505L121.878 10.0803L122.681 6.4215C122.83 5.63748 123.502 5.04013 124.342 5.04013H127.702C128.523 5.04013 129.214 5.63748 129.363 6.4215L130.166 10.0803L130.539 11.7603H128.766Z" fill="black" fill-opacity="0.2"/>
<path d="M134.292 5.50681C133.713 2.37073 130.969 0 127.683 0H124.323C121.038 0 118.294 2.37073 117.715 5.50681C117.715 5.52548 117.715 5.52548 117.715 5.52548L114.243 21.8406H119.283L120.385 16.8004H131.604L132.705 21.8406H137.745L134.273 5.52548C134.292 5.52548 134.292 5.50681 134.292 5.50681ZM128.766 11.7603H123.241H121.505L121.878 10.0803L122.681 6.4215C122.83 5.63748 123.502 5.04013 124.342 5.04013H127.702C128.523 5.04013 129.214 5.63748 129.363 6.4215L130.166 10.0803L130.539 11.7603H128.766Z" fill="black" fill-opacity="0.2"/>
<path d="M134.292 5.50681C133.713 2.37073 130.969 0 127.683 0H124.323C121.038 0 118.294 2.37073 117.715 5.50681C117.715 5.52548 117.715 5.52548 117.715 5.52548L114.243 21.8406H119.283L120.385 16.8004H131.604L132.705 21.8406H137.745L134.273 5.52548C134.292 5.52548 134.292 5.50681 134.292 5.50681ZM128.766 11.7603H123.241H121.505L121.878 10.0803L122.681 6.4215C122.83 5.63748 123.502 5.04013 124.342 5.04013H127.702C128.523 5.04013 129.214 5.63748 129.363 6.4215L130.166 10.0803L130.539 11.7603H128.766Z" fill="black" fill-opacity="0.2"/>
<path d="M134.292 5.50681C133.713 2.37073 130.969 0 127.683 0H124.323C121.038 0 118.294 2.37073 117.715 5.50681C117.715 5.52548 117.715 5.52548 117.715 5.52548L114.243 21.8406H119.283L120.385 16.8004H131.604L132.705 21.8406H137.745L134.273 5.52548C134.292 5.52548 134.292 5.50681 134.292 5.50681ZM128.766 11.7603H123.241H121.505L121.878 10.0803L122.681 6.4215C122.83 5.63748 123.502 5.04013 124.342 5.04013H127.702C128.523 5.04013 129.214 5.63748 129.363 6.4215L130.166 10.0803L130.539 11.7603H128.766Z" fill="black" fill-opacity="0.2"/>
<path d="M134.292 5.50681C133.713 2.37073 130.969 0 127.683 0H124.323C121.038 0 118.294 2.37073 117.715 5.50681C117.715 5.52548 117.715 5.52548 117.715 5.52548L114.243 21.8406H119.283L120.385 16.8004H131.604L132.705 21.8406H137.745L134.273 5.52548C134.292 5.52548 134.292 5.50681 134.292 5.50681ZM128.766 11.7603H123.241H121.505L121.878 10.0803L122.681 6.4215C122.83 5.63748 123.502 5.04013 124.342 5.04013H127.702C128.523 5.04013 129.214 5.63748 129.363 6.4215L130.166 10.0803L130.539 11.7603H128.766Z" fill="black" fill-opacity="0.2"/>
<path d="M134.292 5.50681C133.713 2.37073 130.969 0 127.683 0H124.323C121.038 0 118.294 2.37073 117.715 5.50681C117.715 5.52548 117.715 5.52548 117.715 5.52548L114.243 21.8406H119.283L120.385 16.8004H131.604L132.705 21.8406H137.745L134.273 5.52548C134.292 5.52548 134.292 5.50681 134.292 5.50681ZM128.766 11.7603H123.241H121.505L121.878 10.0803L122.681 6.4215C122.83 5.63748 123.502 5.04013 124.342 5.04013H127.702C128.523 5.04013 129.214 5.63748 129.363 6.4215L130.166 10.0803L130.539 11.7603H128.766Z" fill="black" fill-opacity="0.2"/>
<path d="M134.292 5.50681C133.713 2.37073 130.969 0 127.683 0H124.323C121.038 0 118.294 2.37073 117.715 5.50681C117.715 5.52548 117.715 5.52548 117.715 5.52548L114.243 21.8406H119.283L120.385 16.8004H131.604L132.705 21.8406H137.745L134.273 5.52548C134.292 5.52548 134.292 5.50681 134.292 5.50681ZM128.766 11.7603H123.241H121.505L121.878 10.0803L122.681 6.4215C122.83 5.63748 123.502 5.04013 124.342 5.04013H127.702C128.523 5.04013 129.214 5.63748 129.363 6.4215L130.166 10.0803L130.539 11.7603H128.766Z" fill="black" fill-opacity="0.2"/>
<path d="M134.292 5.50681C133.713 2.37073 130.969 0 127.683 0H124.323C121.038 0 118.294 2.37073 117.715 5.50681C117.715 5.52548 117.715 5.52548 117.715 5.52548L114.243 21.8406H119.283L120.385 16.8004H131.604L132.705 21.8406H137.745L134.273 5.52548C134.292 5.52548 134.292 5.50681 134.292 5.50681ZM128.766 11.7603H123.241H121.505L121.878 10.0803L122.681 6.4215C122.83 5.63748 123.502 5.04013 124.342 5.04013H127.702C128.523 5.04013 129.214 5.63748 129.363 6.4215L130.166 10.0803L130.539 11.7603H128.766Z" fill="black" fill-opacity="0.2"/>
<path d="M134.292 5.50681C133.713 2.37073 130.969 0 127.683 0H124.323C121.038 0 118.294 2.37073 117.715 5.50681C117.715 5.52548 117.715 5.52548 117.715 5.52548L114.243 21.8406H119.283L120.385 16.8004H131.604L132.705 21.8406H137.745L134.273 5.52548C134.292 5.52548 134.292 5.50681 134.292 5.50681ZM128.766 11.7603H123.241H121.505L121.878 10.0803L122.681 6.4215C122.83 5.63748 123.502 5.04013 124.342 5.04013H127.702C128.523 5.04013 129.214 5.63748 129.363 6.4215L130.166 10.0803L130.539 11.7603H128.766Z" fill="black" fill-opacity="0.2"/>
<path d="M168.9 15.1205H161.34V10.9204H158.82V15.1205V17.6406V21.8407H161.34V17.6406H168.9V21.8407H171.421V17.6406V15.1205V10.9204H168.9V15.1205Z" fill="#1C1C1C"/>
<path d="M168.9 15.1205H161.34V10.9204H158.82V15.1205V17.6406V21.8407H161.34V17.6406H168.9V21.8407H171.421V17.6406V15.1205V10.9204H168.9V15.1205Z" fill="black" fill-opacity="0.2"/>
<path d="M168.9 15.1205H161.34V10.9204H158.82V15.1205V17.6406V21.8407H161.34V17.6406H168.9V21.8407H171.421V17.6406V15.1205V10.9204H168.9V15.1205Z" fill="black" fill-opacity="0.2"/>
<path d="M168.9 15.1205H161.34V10.9204H158.82V15.1205V17.6406V21.8407H161.34V17.6406H168.9V21.8407H171.421V17.6406V15.1205V10.9204H168.9V15.1205Z" fill="black" fill-opacity="0.2"/>
<path d="M168.9 15.1205H161.34V10.9204H158.82V15.1205V17.6406V21.8407H161.34V17.6406H168.9V21.8407H171.421V17.6406V15.1205V10.9204H168.9V15.1205Z" fill="black" fill-opacity="0.2"/>
<path d="M168.9 15.1205H161.34V10.9204H158.82V15.1205V17.6406V21.8407H161.34V17.6406H168.9V21.8407H171.421V17.6406V15.1205V10.9204H168.9V15.1205Z" fill="black" fill-opacity="0.2"/>
<path d="M168.9 15.1205H161.34V10.9204H158.82V15.1205V17.6406V21.8407H161.34V17.6406H168.9V21.8407H171.421V17.6406V15.1205V10.9204H168.9V15.1205Z" fill="black" fill-opacity="0.2"/>
<path d="M168.9 15.1205H161.34V10.9204H158.82V15.1205V17.6406V21.8407H161.34V17.6406H168.9V21.8407H171.421V17.6406V15.1205V10.9204H168.9V15.1205Z" fill="black" fill-opacity="0.2"/>
<path d="M168.9 15.1205H161.34V10.9204H158.82V15.1205V17.6406V21.8407H161.34V17.6406H168.9V21.8407H171.421V17.6406V15.1205V10.9204H168.9V15.1205Z" fill="black" fill-opacity="0.2"/>
<path d="M168.9 15.1205H161.34V10.9204H158.82V15.1205V17.6406V21.8407H161.34V17.6406H168.9V21.8407H171.421V17.6406V15.1205V10.9204H168.9V15.1205Z" fill="black" fill-opacity="0.2"/>
<path d="M168.9 15.1205H161.34V10.9204H158.82V15.1205V17.6406V21.8407H161.34V17.6406H168.9V21.8407H171.421V17.6406V15.1205V10.9204H168.9V15.1205Z" fill="black" fill-opacity="0.2"/>
<path d="M168.9 15.1205H161.34V10.9204H158.82V15.1205V17.6406V21.8407H161.34V17.6406H168.9V21.8407H171.421V17.6406V15.1205V10.9204H168.9V15.1205Z" fill="black" fill-opacity="0.2"/>
<path d="M168.9 15.1205H161.34V10.9204H158.82V15.1205V17.6406V21.8407H161.34V17.6406H168.9V21.8407H171.421V17.6406V15.1205V10.9204H168.9V15.1205Z" fill="black" fill-opacity="0.2"/>
<path d="M144.204 13.4405C144.129 13.7018 144.092 13.9818 144.092 14.2618C144.092 16.1099 145.585 17.6033 147.433 17.6033L150.924 17.6219L154.172 17.6406C154.639 17.6406 155.012 18.0139 155.012 18.4806C155.012 18.9473 154.639 19.3206 154.172 19.3206H150.924H144.11V21.8407H154.191C155.759 21.8407 157.066 20.7767 157.439 19.3206C157.514 19.0593 157.551 18.7793 157.551 18.4806C157.551 16.6326 156.039 15.1205 154.191 15.1205L150.7 15.1019L147.452 15.0832C147.004 15.0832 146.631 14.7098 146.631 14.2618C146.631 13.8138 147.004 13.4405 147.452 13.4405H150.7H157.551V10.9204H147.452C145.884 10.9204 144.577 11.9844 144.204 13.4405Z" fill="#1C1C1C"/>
<path d="M144.204 13.4405C144.129 13.7018 144.092 13.9818 144.092 14.2618C144.092 16.1099 145.585 17.6033 147.433 17.6033L150.924 17.6219L154.172 17.6406C154.639 17.6406 155.012 18.0139 155.012 18.4806C155.012 18.9473 154.639 19.3206 154.172 19.3206H150.924H144.11V21.8407H154.191C155.759 21.8407 157.066 20.7767 157.439 19.3206C157.514 19.0593 157.551 18.7793 157.551 18.4806C157.551 16.6326 156.039 15.1205 154.191 15.1205L150.7 15.1019L147.452 15.0832C147.004 15.0832 146.631 14.7098 146.631 14.2618C146.631 13.8138 147.004 13.4405 147.452 13.4405H150.7H157.551V10.9204H147.452C145.884 10.9204 144.577 11.9844 144.204 13.4405Z" fill="black" fill-opacity="0.2"/>
<path d="M144.204 13.4405C144.129 13.7018 144.092 13.9818 144.092 14.2618C144.092 16.1099 145.585 17.6033 147.433 17.6033L150.924 17.6219L154.172 17.6406C154.639 17.6406 155.012 18.0139 155.012 18.4806C155.012 18.9473 154.639 19.3206 154.172 19.3206H150.924H144.11V21.8407H154.191C155.759 21.8407 157.066 20.7767 157.439 19.3206C157.514 19.0593 157.551 18.7793 157.551 18.4806C157.551 16.6326 156.039 15.1205 154.191 15.1205L150.7 15.1019L147.452 15.0832C147.004 15.0832 146.631 14.7098 146.631 14.2618C146.631 13.8138 147.004 13.4405 147.452 13.4405H150.7H157.551V10.9204H147.452C145.884 10.9204 144.577 11.9844 144.204 13.4405Z" fill="black" fill-opacity="0.2"/>
<path d="M144.204 13.4405C144.129 13.7018 144.092 13.9818 144.092 14.2618C144.092 16.1099 145.585 17.6033 147.433 17.6033L150.924 17.6219L154.172 17.6406C154.639 17.6406 155.012 18.0139 155.012 18.4806C155.012 18.9473 154.639 19.3206 154.172 19.3206H150.924H144.11V21.8407H154.191C155.759 21.8407 157.066 20.7767 157.439 19.3206C157.514 19.0593 157.551 18.7793 157.551 18.4806C157.551 16.6326 156.039 15.1205 154.191 15.1205L150.7 15.1019L147.452 15.0832C147.004 15.0832 146.631 14.7098 146.631 14.2618C146.631 13.8138 147.004 13.4405 147.452 13.4405H150.7H157.551V10.9204H147.452C145.884 10.9204 144.577 11.9844 144.204 13.4405Z" fill="black" fill-opacity="0.2"/>
<path d="M144.204 13.4405C144.129 13.7018 144.092 13.9818 144.092 14.2618C144.092 16.1099 145.585 17.6033 147.433 17.6033L150.924 17.6219L154.172 17.6406C154.639 17.6406 155.012 18.0139 155.012 18.4806C155.012 18.9473 154.639 19.3206 154.172 19.3206H150.924H144.11V21.8407H154.191C155.759 21.8407 157.066 20.7767 157.439 19.3206C157.514 19.0593 157.551 18.7793 157.551 18.4806C157.551 16.6326 156.039 15.1205 154.191 15.1205L150.7 15.1019L147.452 15.0832C147.004 15.0832 146.631 14.7098 146.631 14.2618C146.631 13.8138 147.004 13.4405 147.452 13.4405H150.7H157.551V10.9204H147.452C145.884 10.9204 144.577 11.9844 144.204 13.4405Z" fill="black" fill-opacity="0.2"/>
<path d="M144.204 13.4405C144.129 13.7018 144.092 13.9818 144.092 14.2618C144.092 16.1099 145.585 17.6033 147.433 17.6033L150.924 17.6219L154.172 17.6406C154.639 17.6406 155.012 18.0139 155.012 18.4806C155.012 18.9473 154.639 19.3206 154.172 19.3206H150.924H144.11V21.8407H154.191C155.759 21.8407 157.066 20.7767 157.439 19.3206C157.514 19.0593 157.551 18.7793 157.551 18.4806C157.551 16.6326 156.039 15.1205 154.191 15.1205L150.7 15.1019L147.452 15.0832C147.004 15.0832 146.631 14.7098 146.631 14.2618C146.631 13.8138 147.004 13.4405 147.452 13.4405H150.7H157.551V10.9204H147.452C145.884 10.9204 144.577 11.9844 144.204 13.4405Z" fill="black" fill-opacity="0.2"/>
<path d="M144.204 13.4405C144.129 13.7018 144.092 13.9818 144.092 14.2618C144.092 16.1099 145.585 17.6033 147.433 17.6033L150.924 17.6219L154.172 17.6406C154.639 17.6406 155.012 18.0139 155.012 18.4806C155.012 18.9473 154.639 19.3206 154.172 19.3206H150.924H144.11V21.8407H154.191C155.759 21.8407 157.066 20.7767 157.439 19.3206C157.514 19.0593 157.551 18.7793 157.551 18.4806C157.551 16.6326 156.039 15.1205 154.191 15.1205L150.7 15.1019L147.452 15.0832C147.004 15.0832 146.631 14.7098 146.631 14.2618C146.631 13.8138 147.004 13.4405 147.452 13.4405H150.7H157.551V10.9204H147.452C145.884 10.9204 144.577 11.9844 144.204 13.4405Z" fill="black" fill-opacity="0.2"/>
<path d="M144.204 13.4405C144.129 13.7018 144.092 13.9818 144.092 14.2618C144.092 16.1099 145.585 17.6033 147.433 17.6033L150.924 17.6219L154.172 17.6406C154.639 17.6406 155.012 18.0139 155.012 18.4806C155.012 18.9473 154.639 19.3206 154.172 19.3206H150.924H144.11V21.8407H154.191C155.759 21.8407 157.066 20.7767 157.439 19.3206C157.514 19.0593 157.551 18.7793 157.551 18.4806C157.551 16.6326 156.039 15.1205 154.191 15.1205L150.7 15.1019L147.452 15.0832C147.004 15.0832 146.631 14.7098 146.631 14.2618C146.631 13.8138 147.004 13.4405 147.452 13.4405H150.7H157.551V10.9204H147.452C145.884 10.9204 144.577 11.9844 144.204 13.4405Z" fill="black" fill-opacity="0.2"/>
<path d="M144.204 13.4405C144.129 13.7018 144.092 13.9818 144.092 14.2618C144.092 16.1099 145.585 17.6033 147.433 17.6033L150.924 17.6219L154.172 17.6406C154.639 17.6406 155.012 18.0139 155.012 18.4806C155.012 18.9473 154.639 19.3206 154.172 19.3206H150.924H144.11V21.8407H154.191C155.759 21.8407 157.066 20.7767 157.439 19.3206C157.514 19.0593 157.551 18.7793 157.551 18.4806C157.551 16.6326 156.039 15.1205 154.191 15.1205L150.7 15.1019L147.452 15.0832C147.004 15.0832 146.631 14.7098 146.631 14.2618C146.631 13.8138 147.004 13.4405 147.452 13.4405H150.7H157.551V10.9204H147.452C145.884 10.9204 144.577 11.9844 144.204 13.4405Z" fill="black" fill-opacity="0.2"/>
<path d="M144.204 13.4405C144.129 13.7018 144.092 13.9818 144.092 14.2618C144.092 16.1099 145.585 17.6033 147.433 17.6033L150.924 17.6219L154.172 17.6406C154.639 17.6406 155.012 18.0139 155.012 18.4806C155.012 18.9473 154.639 19.3206 154.172 19.3206H150.924H144.11V21.8407H154.191C155.759 21.8407 157.066 20.7767 157.439 19.3206C157.514 19.0593 157.551 18.7793 157.551 18.4806C157.551 16.6326 156.039 15.1205 154.191 15.1205L150.7 15.1019L147.452 15.0832C147.004 15.0832 146.631 14.7098 146.631 14.2618C146.631 13.8138 147.004 13.4405 147.452 13.4405H150.7H157.551V10.9204H147.452C145.884 10.9204 144.577 11.9844 144.204 13.4405Z" fill="black" fill-opacity="0.2"/>
<path d="M144.204 13.4405C144.129 13.7018 144.092 13.9818 144.092 14.2618C144.092 16.1099 145.585 17.6033 147.433 17.6033L150.924 17.6219L154.172 17.6406C154.639 17.6406 155.012 18.0139 155.012 18.4806C155.012 18.9473 154.639 19.3206 154.172 19.3206H150.924H144.11V21.8407H154.191C155.759 21.8407 157.066 20.7767 157.439 19.3206C157.514 19.0593 157.551 18.7793 157.551 18.4806C157.551 16.6326 156.039 15.1205 154.191 15.1205L150.7 15.1019L147.452 15.0832C147.004 15.0832 146.631 14.7098 146.631 14.2618C146.631 13.8138 147.004 13.4405 147.452 13.4405H150.7H157.551V10.9204H147.452C145.884 10.9204 144.577 11.9844 144.204 13.4405Z" fill="black" fill-opacity="0.2"/>
<path d="M144.204 13.4405C144.129 13.7018 144.092 13.9818 144.092 14.2618C144.092 16.1099 145.585 17.6033 147.433 17.6033L150.924 17.6219L154.172 17.6406C154.639 17.6406 155.012 18.0139 155.012 18.4806C155.012 18.9473 154.639 19.3206 154.172 19.3206H150.924H144.11V21.8407H154.191C155.759 21.8407 157.066 20.7767 157.439 19.3206C157.514 19.0593 157.551 18.7793 157.551 18.4806C157.551 16.6326 156.039 15.1205 154.191 15.1205L150.7 15.1019L147.452 15.0832C147.004 15.0832 146.631 14.7098 146.631 14.2618C146.631 13.8138 147.004 13.4405 147.452 13.4405H150.7H157.551V10.9204H147.452C145.884 10.9204 144.577 11.9844 144.204 13.4405Z" fill="black" fill-opacity="0.2"/>
<path d="M144.204 13.4405C144.129 13.7018 144.092 13.9818 144.092 14.2618C144.092 16.1099 145.585 17.6033 147.433 17.6033L150.924 17.6219L154.172 17.6406C154.639 17.6406 155.012 18.0139 155.012 18.4806C155.012 18.9473 154.639 19.3206 154.172 19.3206H150.924H144.11V21.8407H154.191C155.759 21.8407 157.066 20.7767 157.439 19.3206C157.514 19.0593 157.551 18.7793 157.551 18.4806C157.551 16.6326 156.039 15.1205 154.191 15.1205L150.7 15.1019L147.452 15.0832C147.004 15.0832 146.631 14.7098 146.631 14.2618C146.631 13.8138 147.004 13.4405 147.452 13.4405H150.7H157.551V10.9204H147.452C145.884 10.9204 144.577 11.9844 144.204 13.4405Z" fill="black" fill-opacity="0.2"/>
<path d="M2.172 44.8154H6.48V45.8594H0.444V45.0434L3.864 41.7434C4.752 40.8794 4.92 40.3514 4.92 39.8234C4.92 38.9594 4.308 38.4314 3.132 38.4314C2.232 38.4314 1.5 38.7194 0.984 39.3434L0.168 38.6354C0.816 37.8314 1.932 37.3634 3.24 37.3634C4.992 37.3634 6.12 38.2634 6.12 39.7034C6.12 40.5194 5.88 41.2514 4.74 42.3434L2.172 44.8154ZM10.8635 45.9554C8.89547 45.9554 7.43147 44.3954 7.43147 41.6594C7.43147 38.9234 8.89547 37.3634 10.8635 37.3634C12.8195 37.3634 14.2835 38.9234 14.2835 41.6594C14.2835 44.3954 12.8195 45.9554 10.8635 45.9554ZM10.8635 44.8874C12.1715 44.8874 13.0835 43.8074 13.0835 41.6594C13.0835 39.5114 12.1715 38.4314 10.8635 38.4314C9.54347 38.4314 8.63147 39.5114 8.63147 41.6594C8.63147 43.8074 9.54347 44.8874 10.8635 44.8874ZM16.9962 44.8154H21.3042V45.8594H15.2682V45.0434L18.6882 41.7434C19.5762 40.8794 19.7442 40.3514 19.7442 39.8234C19.7442 38.9594 19.1322 38.4314 17.9562 38.4314C17.0562 38.4314 16.3242 38.7194 15.8082 39.3434L14.9922 38.6354C15.6402 37.8314 16.7562 37.3634 18.0642 37.3634C19.8162 37.3634 20.9442 38.2634 20.9442 39.7034C20.9442 40.5194 20.7042 41.2514 19.5642 42.3434L16.9962 44.8154ZM24.6908 40.8074C27.1988 40.8074 28.1828 41.8514 28.1828 43.3394C28.1828 44.7914 27.1508 45.9554 25.0028 45.9554C23.8148 45.9554 22.6388 45.5714 21.9188 44.9354L22.4708 43.9874C23.0348 44.5154 23.9708 44.8874 24.9908 44.8874C26.2628 44.8874 26.9828 44.2994 26.9828 43.3874C26.9828 42.4394 26.3828 41.8514 24.4388 41.8514H22.5308L22.9748 37.4594H27.7148V38.5034H23.9828L23.7548 40.8074H24.6908ZM36.6281 45.8954C34.2401 45.8954 32.4041 44.0234 32.4041 41.6594C32.4041 39.2954 34.2401 37.4234 36.6521 37.4234C39.0641 37.4234 40.8761 39.2474 40.8761 41.6354C40.8761 44.0234 39.0161 45.8954 36.6281 45.8954ZM36.6281 45.3554C38.7161 45.3554 40.3121 43.7234 40.3121 41.6354C40.3121 39.5474 38.7641 37.9634 36.6521 37.9634C34.5401 37.9634 32.9681 39.5954 32.9681 41.6594C32.9681 43.7234 34.5401 45.3554 36.6281 45.3554ZM36.7601 44.1314C35.2841 44.1314 34.2281 43.1114 34.2281 41.6594C34.2281 40.2074 35.2841 39.1874 36.7601 39.1874C37.6121 39.1874 38.3201 39.5714 38.7041 40.1594L38.0201 40.6514C37.7201 40.2074 37.2641 40.0034 36.7481 40.0034C35.8361 40.0034 35.1401 40.6514 35.1401 41.6594C35.1401 42.6674 35.8361 43.3154 36.7481 43.3154C37.2641 43.3154 37.7201 43.1114 38.0201 42.6674L38.7041 43.1474C38.3201 43.7474 37.6121 44.1314 36.7601 44.1314ZM51.7519 44.3474V41.6114H52.9039V44.8874C52.0639 45.5954 50.8999 45.9554 49.7239 45.9554C47.1439 45.9554 45.2479 44.1434 45.2479 41.6594C45.2479 39.1754 47.1439 37.3634 49.7479 37.3634C51.0799 37.3634 52.2079 37.8074 52.9759 38.6594L52.2319 39.4034C51.5359 38.7314 50.7439 38.4314 49.7959 38.4314C47.8519 38.4314 46.4479 39.7874 46.4479 41.6594C46.4479 43.5074 47.8519 44.8874 49.7839 44.8874C50.4919 44.8874 51.1519 44.7314 51.7519 44.3474ZM58.9934 45.9554C56.4134 45.9554 54.5174 44.1194 54.5174 41.6594C54.5174 39.1994 56.4134 37.3634 58.9934 37.3634C61.5494 37.3634 63.4454 39.1874 63.4454 41.6594C63.4454 44.1314 61.5494 45.9554 58.9934 45.9554ZM58.9934 44.8874C60.8534 44.8874 62.2454 43.5194 62.2454 41.6594C62.2454 39.7994 60.8534 38.4314 58.9934 38.4314C57.1094 38.4314 55.7174 39.7994 55.7174 41.6594C55.7174 43.5194 57.1094 44.8874 58.9934 44.8874ZM71.3035 37.4594H72.5035V45.8594H71.5195L66.4795 39.5954V45.8594H65.2795V37.4594H66.2635L71.3035 43.7234V37.4594ZM80.9698 45.8594L77.7538 42.1274L76.2178 43.6874V45.8594H75.0178V37.4594H76.2178V42.1514L80.7778 37.4594H82.1458L78.5578 41.2394L82.3738 45.8594H80.9698ZM89.579 45.8594L88.655 43.7594H84.191L83.267 45.8594H82.031L85.835 37.4594H87.023L90.839 45.8594H89.579ZM84.611 42.7994H88.235L86.423 38.6834L84.611 42.7994ZM92.5985 45.9314C92.1545 45.9314 91.7825 45.5834 91.7825 45.1034C91.7825 44.6234 92.1545 44.2874 92.5985 44.2874C93.0305 44.2874 93.3905 44.6234 93.3905 45.1034C93.3905 45.5834 93.0305 45.9314 92.5985 45.9314ZM96.8652 45.9314C95.8092 45.9314 94.7652 45.6074 94.2372 45.1874L94.7172 44.2754C95.2572 44.6594 96.1212 44.9354 96.9492 44.9354C98.0172 44.9354 98.4612 44.6114 98.4612 44.0714C98.4612 42.6434 94.4412 43.8794 94.4412 41.3474C94.4412 40.2074 95.4612 39.4394 97.0932 39.4394C97.9212 39.4394 98.8572 39.6554 99.4092 40.0154L98.9172 40.9274C98.3412 40.5554 97.7052 40.4234 97.0812 40.4234C96.0732 40.4234 95.5812 40.7954 95.5812 41.2994C95.5812 42.7994 99.6132 41.5754 99.6132 44.0474C99.6132 45.1994 98.5572 45.9314 96.8652 45.9314ZM104.449 39.4394C105.997 39.4394 107.089 40.3274 107.089 42.1994V45.8594H105.937V42.3314C105.937 41.0834 105.313 40.4714 104.221 40.4714C102.997 40.4714 102.205 41.2034 102.205 42.5834V45.8594H101.053V36.9554H102.205V40.3994C102.685 39.7874 103.477 39.4394 104.449 39.4394ZM111.98 45.9314C110.072 45.9314 108.668 44.5754 108.668 42.6794C108.668 40.7834 110.072 39.4394 111.98 39.4394C113.888 39.4394 115.28 40.7834 115.28 42.6794C115.28 44.5754 113.888 45.9314 111.98 45.9314ZM111.98 44.9234C113.204 44.9234 114.116 44.0354 114.116 42.6794C114.116 41.3234 113.204 40.4474 111.98 40.4474C110.756 40.4474 109.832 41.3234 109.832 42.6794C109.832 44.0354 110.756 44.9234 111.98 44.9234ZM120.245 39.4394C122.105 39.4394 123.461 40.7354 123.461 42.6794C123.461 44.6354 122.105 45.9314 120.245 45.9314C119.345 45.9314 118.553 45.5834 118.025 44.8994V48.1874H116.873V39.4994H117.977V40.5074C118.493 39.7994 119.309 39.4394 120.245 39.4394ZM120.149 44.9234C121.373 44.9234 122.297 44.0354 122.297 42.6794C122.297 41.3354 121.373 40.4474 120.149 40.4474C118.937 40.4474 118.013 41.3354 118.013 42.6794C118.013 44.0354 118.937 44.9234 120.149 44.9234Z" fill="#949494"/>
</svg>
