<?xml version="1.0" standalone="no"?>
<!DOCTYPE svg PUBLIC "-//W3C//DTD SVG 20010904//EN"
 "http://www.w3.org/TR/2001/REC-SVG-20010904/DTD/svg10.dtd">
<svg version="1.0" xmlns="http://www.w3.org/2000/svg"
 width="598.000000pt" height="216.000000pt" viewBox="0 0 598.000000 216.000000"
 preserveAspectRatio="xMidYMid meet">

<g transform="translate(0.000000,216.000000) scale(0.100000,-0.100000)"
fill="#000000" stroke="none">
<path d="M464 2070 c-116 -23 -225 -121 -262 -234 -18 -56 -22 -90 -22 -209 0
-169 15 -239 67 -314 40 -60 127 -123 194 -142 31 -8 118 -11 289 -9 242 3
246 3 302 30 73 34 142 103 176 176 25 53 27 69 30 210 l4 152 -214 -2 -213
-3 -3 -107 -3 -108 106 0 105 0 0 -26 c0 -17 -14 -40 -39 -65 l-39 -39 -230 0
-230 0 -30 25 c-48 40 -54 68 -50 229 l3 146 38 37 37 38 203 3 c111 2 216 1
234 -3 17 -3 46 -19 63 -35 32 -30 34 -30 142 -30 l110 0 -6 28 c-20 80 -103
182 -180 221 -24 11 -67 25 -96 31 -62 12 -426 11 -486 0z"/>
<path d="M2095 2074 c-49 -12 -91 -34 -270 -137 -410 -236 -400 -228 -452
-331 -36 -69 -38 -178 -5 -251 29 -63 92 -129 157 -163 l50 -27 335 0 c332 0
335 0 380 24 61 32 116 86 148 146 27 50 27 50 27 275 0 215 -1 227 -24 277
-27 61 -103 136 -165 164 -45 19 -144 32 -181 23z m126 -243 l29 -29 0 -182 0
-182 -29 -29 -29 -29 -287 0 -287 0 -29 29 c-40 40 -41 98 -1 140 15 17 119
80 232 142 113 61 228 125 255 140 66 38 108 38 146 0z"/>
<path d="M2785 2067 c-67 -23 -101 -44 -144 -93 -68 -77 -71 -100 -71 -481 l0
-333 110 0 110 0 0 330 c0 317 1 331 20 350 23 23 58 26 83 8 9 -7 76 -134
148 -283 73 -148 144 -286 160 -306 40 -51 118 -90 194 -97 116 -9 212 44 270
149 l30 54 3 358 3 358 -108 -3 -108 -3 -3 -329 c-3 -371 -2 -370 -71 -364
l-36 3 -141 283 c-87 174 -155 298 -175 319 -71 74 -189 108 -274 80z"/>
<path d="M3800 1620 l0 -460 110 0 110 0 0 175 0 175 153 0 c124 -1 158 -4
184 -18 17 -9 89 -88 159 -174 l128 -158 108 0 109 0 -153 228 -153 229 152
229 153 229 -107 3 c-94 2 -109 0 -121 -15 -68 -94 -251 -307 -273 -318 -21
-11 -67 -15 -184 -15 l-155 0 0 175 0 175 -110 0 -110 0 0 -460z"/>
<path d="M5293 2062 c-28 -10 -68 -31 -88 -46 -41 -32 -91 -104 -99 -145 -3
-14 -37 -175 -76 -356 -38 -182 -70 -336 -70 -343 0 -10 27 -12 107 -10 l107
3 21 100 21 100 234 0 234 0 21 -100 21 -100 107 -3 c74 -2 107 1 107 9 0 43
-154 719 -172 756 -27 54 -75 98 -137 127 -66 29 -263 34 -338 8z m267 -220
c16 -13 29 -46 46 -117 35 -150 53 -135 -156 -135 -99 0 -180 4 -180 9 0 4 11
57 25 117 31 139 36 144 155 144 69 0 92 -4 110 -18z"/>
</g>
</svg>
