<?xml version="1.0" encoding="UTF-8"?>
<svg version="1.1" xmlns="http://www.w3.org/2000/svg" width="1187" height="215">
<path d="M0 0 C391.71 0 783.42 0 1187 0 C1187 70.95 1187 141.9 1187 215 C795.29 215 403.58 215 0 215 C0 144.05 0 73.1 0 0 Z " fill="#FDFDFE" transform="translate(0,0)"/>
<path d="M0 0 C0 0.66 0 1.32 0 2 C0.59167969 2.12117188 1.18335938 2.24234375 1.79296875 2.3671875 C2.58316406 2.53476562 3.37335938 2.70234375 4.1875 2.875 C4.96480469 3.03742187 5.74210938 3.19984375 6.54296875 3.3671875 C12.58891017 4.92432981 16.93703414 7.85672887 21.875 11.5625 C22.58591797 12.09536621 23.29683594 12.62823242 24.02929688 13.17724609 C29.16289694 17.12917186 33.80931263 21.26190901 37 27 C37 27.66 37 28.32 37 29 C37.66 29 38.32 29 39 29 C39.433125 30.051875 39.86625 31.10375 40.3125 32.1875 C41.27570765 34.45467272 42.24963415 36.39941464 43.5625 38.5 C49.31639556 48.50677488 48.15078204 61.24185174 48.1328125 72.40234375 C48.13348773 73.89010128 48.13445957 75.37785869 48.13571167 76.86561584 C48.13717881 79.97121235 48.13506621 83.07677993 48.13037109 86.18237305 C48.12467942 90.13717171 48.12795555 94.0919024 48.13394356 98.04669857 C48.13758011 101.11557006 48.13639637 104.1844258 48.13381577 107.25329781 C48.13315477 108.7103533 48.13394553 110.16741029 48.13629532 111.62446404 C48.14616948 119.4670848 48.01585036 127.2115484 47 135 C46.34 135 45.68 135 45 135 C44.96261719 135.65226563 44.92523438 136.30453125 44.88671875 136.9765625 C44.48506238 142.31622957 43.83238391 146.3204092 41 151 C40.34 151 39.68 151 39 151 C39 151.66 39 152.32 39 153 C38.34 153 37.68 153 37 153 C36.62875 153.804375 36.62875 153.804375 36.25 154.625 C29.6362204 167.19118124 18.60044739 172.66849757 6 178 C5.21238281 178.35191406 4.42476562 178.70382813 3.61328125 179.06640625 C-4.57951785 182.50638478 -13.7948691 182.14955866 -22.53588867 182.14526367 C-24.03812485 182.15030159 -24.03812485 182.15030159 -25.57070923 182.15544128 C-28.85314199 182.16487243 -32.13552331 182.16689052 -35.41796875 182.16796875 C-37.72186808 182.17118706 -40.02576722 182.17455155 -42.32966614 182.17805481 C-47.15020216 182.18402672 -51.97072031 182.18589673 -56.79125977 182.18530273 C-62.93263801 182.18520129 -69.07390018 182.19884396 -75.21525097 182.21607494 C-79.9725445 182.22725834 -84.72981054 182.22921999 -89.48711586 182.22869301 C-91.74945792 182.22986395 -94.01180091 182.23423526 -96.27412987 182.24202538 C-133.37175495 182.35780113 -133.37175495 182.35780113 -145 174 C-145 173.34 -145 172.68 -145 172 C-145.84111328 171.86271484 -145.84111328 171.86271484 -146.69921875 171.72265625 C-157.84097971 168.22312182 -166.11373481 155.65769365 -171.35620117 145.94042969 C-174.1886728 140.27407479 -175.18153737 135.05492944 -175.74609375 128.73046875 C-175.8301113 126.03771323 -175.8301113 126.03771323 -177 124 C-177.07181821 121.28239892 -177.09299506 118.59140612 -177.0625 115.875 C-177.05798828 115.12089844 -177.05347656 114.36679688 -177.04882812 113.58984375 C-177.03703499 111.72652873 -177.01909942 109.86325445 -177 108 C-176.34 108 -175.68 108 -175 108 C-175 106.35 -175 104.7 -175 103 C-174.34 103 -173.68 103 -173 103 C-172.896875 101.865625 -172.79375 100.73125 -172.6875 99.5625 C-170.73793161 84.79776874 -161.612672 76.11619339 -151.125 66.3125 C-147.83637837 63.87892 -144.5704049 62.20103758 -140.89453125 60.4375 C-131.72229256 55.88232613 -123.00255576 50.41886737 -114.3125 45.01953125 C-109.62962884 42.16452607 -104.86775533 39.46078369 -100.09375 36.76171875 C-98.17922888 35.67150533 -96.27958848 34.55408263 -94.40625 33.39453125 C-92 32 -92 32 -89.42578125 30.97265625 C-87.04453125 30.01785553 -85.26749683 28.92442238 -83.1875 27.4375 C-77.66737455 23.66541428 -71.85005198 20.48608616 -66.01171875 17.2421875 C-62.47610339 15.27636854 -58.98332613 13.2448257 -55.5 11.1875 C-51.08016225 8.58971781 -46.60050199 6.25842825 -42 4 C-41.01 3.34 -40.02 2.68 -39 2 C-36.6131796 1.36390361 -34.2965546 0.82944101 -31.875 0.375 C-31.17648926 0.24383789 -30.47797852 0.11267578 -29.75830078 -0.02246094 C-19.9825016 -1.69632471 -9.75287264 -1.88373241 0 0 Z " fill="#463CDA" transform="translate(432,20)"/>
<path d="M0 0 C0.91510849 -0.0033284 1.83021698 -0.0066568 2.77305603 -0.01008606 C4.70701599 -0.01513546 6.64098462 -0.017495 8.57495117 -0.01733398 C11.49347842 -0.01950605 14.41161836 -0.03764313 17.33007812 -0.05664062 C43.39875925 -0.14080461 43.39875925 -0.14080461 54.27734375 5.79296875 C54.88642578 6.1178125 55.49550781 6.44265625 56.12304688 6.77734375 C57.57955125 7.55720436 59.02377844 8.35993513 60.46484375 9.16796875 C60.46484375 9.82796875 60.46484375 10.48796875 60.46484375 11.16796875 C61.04492188 11.43351562 61.625 11.6990625 62.22265625 11.97265625 C69.12590956 15.6527878 74.18646458 21.75678563 78.46484375 28.16796875 C79.03525391 29.01488281 79.03525391 29.01488281 79.6171875 29.87890625 C84.82168266 38.24537771 85.91678198 47.51578297 86.83984375 57.140625 C87.30476205 60.89548599 88.45277935 64.22146409 89.70703125 67.77758789 C91.06125868 72.04925051 91.72587451 76.44331943 92.46484375 80.85546875 C92.80429996 82.80237869 93.14544544 84.74899484 93.48828125 86.6953125 C93.73529785 88.10079346 93.73529785 88.10079346 93.98730469 89.53466797 C94.8167478 94.10847853 95.80702083 98.64144367 96.8125 103.1796875 C97.59582845 106.76798848 98.27997062 110.37109453 98.9375 113.984375 C99.41672738 116.23305597 99.41672738 116.23305597 100.45703125 118.4921875 C101.69864256 121.78871366 102.09264339 124.92575413 102.52734375 128.41796875 C102.70663396 132.61818214 102.70663396 132.61818214 104.46484375 136.16796875 C104.81759675 137.99398427 105.12147031 139.82952444 105.40234375 141.66796875 C106.12320496 146.20293889 106.98511978 150.65483626 108.02734375 155.125 C108.45796322 157.13583913 108.76268636 159.12927976 109.02734375 161.16796875 C109.14156403 164.04391073 109.14156403 164.04391073 110.46484375 165.16796875 C111.39604164 170.23782395 111.55482299 175.03915179 111.46484375 180.16796875 C112.12484375 180.16796875 112.78484375 180.16796875 113.46484375 180.16796875 C113.46484375 180.82796875 113.46484375 181.48796875 113.46484375 182.16796875 C99.27484375 182.16796875 85.08484375 182.16796875 70.46484375 182.16796875 C68.21484375 169.79296875 68.21484375 169.79296875 68.46484375 163.16796875 C67.80484375 163.16796875 67.14484375 163.16796875 66.46484375 163.16796875 C63.64000173 155.29749695 63.13041925 148.8204502 62.46484375 140.16796875 C31.11484375 140.16796875 -0.23515625 140.16796875 -32.53515625 140.16796875 C-33.19515625 144.78796875 -33.85515625 149.40796875 -34.53515625 154.16796875 C-35.1647379 157.17596998 -35.81406331 160.1805837 -36.53515625 163.16796875 C-37.19515625 163.16796875 -37.85515625 163.16796875 -38.53515625 163.16796875 C-38.59574219 164.28816406 -38.65632812 165.40835938 -38.71875 166.5625 C-38.80317049 168.03516859 -38.88781774 169.50782419 -38.97265625 170.98046875 C-39.01197266 171.71845703 -39.05128906 172.45644531 -39.09179688 173.21679688 C-39.2789666 176.39868217 -39.52236418 179.12959253 -40.53515625 182.16796875 C-54.72515625 182.16796875 -68.91515625 182.16796875 -83.53515625 182.16796875 C-82.48942941 171.71070038 -82.48942941 171.71070038 -80.296875 166.5234375 C-78.88526185 162.15829531 -78.51373363 157.5872536 -77.96484375 153.046875 C-77.53515625 150.16796875 -77.53515625 150.16796875 -76.53515625 149.16796875 C-76.13766325 146.82072909 -75.79146902 144.46468327 -75.47265625 142.10546875 C-75.29605469 140.81511719 -75.11945312 139.52476562 -74.9375 138.1953125 C-74.80472656 137.19628906 -74.67195312 136.19726562 -74.53515625 135.16796875 C-73.87515625 135.16796875 -73.21515625 135.16796875 -72.53515625 135.16796875 C-72.59703125 134.13671875 -72.65890625 133.10546875 -72.72265625 132.04296875 C-72.75749169 125.61002496 -71.00391946 119.39272712 -69.53515625 113.16796875 C-68.87515625 113.16796875 -68.21515625 113.16796875 -67.53515625 113.16796875 C-67.57253906 112.07484375 -67.60992188 110.98171875 -67.6484375 109.85546875 C-67.64490924 104.5113302 -66.70408193 99.4069975 -65.72265625 94.16796875 C-65.55701172 93.22179687 -65.39136719 92.275625 -65.22070312 91.30078125 C-64.30201153 86.29477874 -63.09719663 81.74660356 -61.19750977 77.03076172 C-60.1183989 73.99588671 -59.78747885 70.91712963 -59.41015625 67.73046875 C-58.62803924 61.26085174 -58.62803924 61.26085174 -57.53515625 60.16796875 C-57.3227399 58.84736625 -57.16316396 57.51816319 -57.02734375 56.1875 C-55.15116059 39.93621026 -50.38417523 26.99285531 -38.53515625 15.16796875 C-37.87515625 15.16796875 -37.21515625 15.16796875 -36.53515625 15.16796875 C-36.20515625 14.17796875 -35.87515625 13.18796875 -35.53515625 12.16796875 C-33.20703125 10.66796875 -33.20703125 10.66796875 -30.28515625 9.16796875 C-26.62643146 7.26938724 -23.05247476 5.31845364 -19.53515625 3.16796875 C-13.50673415 -0.33240537 -6.76591127 0.00866605 0 0 Z " fill="#453BDA" transform="translate(1062.53515625,18.83203125)"/>
<path d="M0 0 C0.90007278 -0.00175232 1.80014557 -0.00350464 2.72749329 -0.00531006 C5.68472251 -0.00968976 8.64189132 -0.00680478 11.59912109 -0.00341797 C13.66222139 -0.004092 15.72532161 -0.00506286 17.78842163 -0.00631714 C22.1039099 -0.00778875 26.41937743 -0.00565635 30.73486328 -0.00097656 C36.26409361 0.00472756 41.79327548 0.00143399 47.32250404 -0.00454903 C51.57927821 -0.008163 55.83604089 -0.00701232 60.0928154 -0.00442123 C62.13175843 -0.00375466 64.17070251 -0.00457099 66.20964432 -0.00690079 C69.05775975 -0.00944178 71.90579666 -0.00556656 74.75390625 0 C75.59455124 -0.00202423 76.43519623 -0.00404846 77.30131531 -0.00613403 C81.25130504 0.00815912 84.89115753 0.15049138 88.74755859 1.12939453 C88.74755859 1.78939453 88.74755859 2.44939453 88.74755859 3.12939453 C89.77880859 3.25314453 90.81005859 3.37689453 91.87255859 3.50439453 C95.36872706 4.06829267 98.43153487 4.91621512 101.74755859 6.12939453 C101.74755859 6.78939453 101.74755859 7.44939453 101.74755859 8.12939453 C102.45396484 8.21189453 103.16037109 8.29439453 103.88818359 8.37939453 C114.36985948 11.12868657 125.65546848 23.18914341 131.55615234 31.98876953 C135.88920611 39.77405958 138.75628651 47.27948675 139.74755859 56.12939453 C133.39401494 56.25602092 127.04079571 56.34367154 120.6862793 56.40405273 C118.52404623 56.42921952 116.36189841 56.46335612 114.19995117 56.5065918 C111.09451288 56.56714749 107.99019762 56.5955824 104.88427734 56.61767578 C103.91544113 56.64348221 102.94660492 56.66928864 101.94841003 56.69587708 C99.44823528 56.69692537 97.18968047 56.66610296 94.74755859 56.12939453 C92.77807617 53.70043945 92.77807617 53.70043945 91.74755859 51.12939453 C90.0949402 50.10634505 88.42964494 49.10323399 86.74755859 48.12939453 C86.41755859 47.13939453 86.08755859 46.14939453 85.74755859 45.12939453 C84.75755859 45.12939453 83.76755859 45.12939453 82.74755859 45.12939453 C82.74755859 44.46939453 82.74755859 43.80939453 82.74755859 43.12939453 C71.98531526 43.08289579 61.22309614 43.04743661 50.46077251 43.02577019 C45.4625002 43.01536736 40.464297 43.00127261 35.46606445 42.97851562 C30.63553508 42.95666177 25.80507187 42.94479962 20.97449684 42.93964005 C19.13866956 42.93596669 17.30284558 42.92879401 15.46704674 42.91793442 C6.0386917 42.8644186 -3.0353682 42.82506499 -12.25244141 45.12939453 C-12.25244141 45.78939453 -12.25244141 46.44939453 -12.25244141 47.12939453 C-13.09806641 47.43876953 -13.94369141 47.74814453 -14.81494141 48.06689453 C-19.51431571 50.39420371 -22.51435229 54.77711514 -25.25244141 59.12939453 C-26.28579206 62.34399547 -26.40472241 65.3597899 -26.45776367 68.72412109 C-26.47770889 69.84498108 -26.49765411 70.96584106 -26.51820374 72.1206665 C-26.53491623 73.324953 -26.55162872 74.5292395 -26.56884766 75.77001953 C-26.58962875 77.00733826 -26.61040985 78.24465698 -26.63182068 79.51947021 C-26.68610013 82.80078144 -26.73635919 86.08212186 -26.78466797 89.36352539 C-26.83500233 92.71522558 -26.89070501 96.06683173 -26.94580078 99.41845703 C-27.0528865 105.98869917 -27.15467177 112.55900751 -27.25244141 119.12939453 C-26.59244141 119.12939453 -25.93244141 119.12939453 -25.25244141 119.12939453 C-24.97271484 119.85384766 -24.69298828 120.57830078 -24.40478516 121.32470703 C-21.01822839 129.49164458 -17.83916252 134.16273527 -9.63995361 137.67832947 C-5.32337944 139.26607791 -1.48247119 139.57370861 3.08447266 139.56518555 C3.87591171 139.57526138 4.66735077 139.58533722 5.48277283 139.59571838 C8.07639032 139.62400879 10.66942179 139.63006551 13.26318359 139.63330078 C15.08388499 139.64295605 16.9045841 139.65304956 18.72528076 139.66355896 C22.53468209 139.68147381 26.34387986 139.68708489 30.15332031 139.68530273 C35.00639531 139.68499838 39.85814844 139.72592348 44.7109108 139.77761936 C48.47047783 139.81117394 52.22973193 139.81705447 55.98943329 139.81547356 C57.77702126 139.81898591 59.56461979 139.83209777 61.35205841 139.85547066 C73.01954576 139.99374491 82.8778118 139.39164489 91.98468018 131.09010315 C94.03571841 128.80889743 94.94044253 126.74870957 95.99755859 123.87939453 C96.33271484 122.98736328 96.66787109 122.09533203 97.01318359 121.17626953 C97.25552734 120.50080078 97.49787109 119.82533203 97.74755859 119.12939453 C98.40755859 119.12939453 99.06755859 119.12939453 99.74755859 119.12939453 C99.74755859 116.81939453 99.74755859 114.50939453 99.74755859 112.12939453 C85.88755859 112.12939453 72.02755859 112.12939453 57.74755859 112.12939453 C57.74755859 98.26939453 57.74755859 84.40939453 57.74755859 70.12939453 C85.46755859 70.12939453 113.18755859 70.12939453 141.74755859 70.12939453 C141.80943359 77.18314453 141.87130859 84.23689453 141.93505859 91.50439453 C141.97602661 94.78256104 141.97602661 94.78256104 142.01782227 98.12695312 C142.12631185 113.18289644 141.26290963 127.9470633 135.74755859 142.12939453 C135.08755859 142.12939453 134.42755859 142.12939453 133.74755859 142.12939453 C133.58513672 142.98597656 133.58513672 142.98597656 133.41943359 143.85986328 C132.16115537 148.11021007 129.25761171 151.52348895 126.74755859 155.12939453 C126.34279297 155.75458984 125.93802734 156.37978516 125.52099609 157.02392578 C122.28365849 161.90195489 118.25004115 165.42960866 113.74755859 169.12939453 C112.92255859 169.87189453 112.09755859 170.61439453 111.24755859 171.37939453 C108.57010479 173.25361219 106.08396993 174.28386686 103.00537109 175.32080078 C100.5655353 176.15846353 100.5655353 176.15846353 97.58616638 177.57574463 C93.84574445 179.17934512 90.07457458 180.10556499 86.07202148 180.79638672 C85.34021951 180.92285961 84.60841753 181.0493325 83.85443974 181.17963791 C74.77983811 182.60901826 65.71899416 182.5238516 56.55615234 182.45751953 C54.67147473 182.45445116 52.78679483 182.45258326 50.90211487 182.45184326 C46.98844464 182.44728413 43.07498524 182.4330226 39.16137695 182.41064453 C34.16182976 182.38218858 29.16244612 182.37140981 24.16282558 182.36696243 C19.35641384 182.36179861 14.55004237 182.34728677 9.74365234 182.33251953 C8.83845793 182.33063881 7.93326351 182.32875809 7.00063896 182.32682037 C4.42721017 182.31990259 1.85390587 182.30624917 -0.71948242 182.29052734 C-1.46817596 182.28940948 -2.21686951 182.28829163 -2.98825073 182.28713989 C-7.81822851 182.24829757 -12.46877884 181.80544457 -17.25244141 181.12939453 C-17.25244141 180.46939453 -17.25244141 179.80939453 -17.25244141 179.12939453 C-18.03619141 179.04689453 -18.81994141 178.96439453 -19.62744141 178.87939453 C-24.44740857 177.88215995 -28.74244611 176.06647448 -33.25244141 174.12939453 C-34.28369141 173.71689453 -35.31494141 173.30439453 -36.37744141 172.87939453 C-39.87871967 170.74818168 -42.42434688 168.13712676 -45.22509766 165.16455078 C-47.24353266 163.04475222 -47.24353266 163.04475222 -49.77587891 161.21533203 C-52.49332578 158.92650454 -53.99755172 156.73212182 -55.81494141 153.69189453 C-57.53255365 150.83978552 -59.16208601 148.23486577 -61.33056641 145.70361328 C-63.5898078 142.67751555 -64.43443814 140.00741447 -65.43994141 136.37939453 C-66.26728033 132.44991005 -66.26728033 132.44991005 -68.25244141 129.12939453 C-69.47283544 122.02369059 -69.39717891 114.95153914 -69.38525391 107.75830078 C-69.38621063 106.48139877 -69.38716736 105.20449677 -69.38815308 103.88890076 C-69.38883157 101.19681358 -69.38750852 98.50481812 -69.3828125 95.81274414 C-69.3771216 92.38580695 -69.38039661 88.95894821 -69.38638496 85.53201389 C-69.39089673 82.23244017 -69.38772428 78.93287553 -69.38525391 75.63330078 C-69.38727814 74.41429581 -69.38930237 73.19529083 -69.39138794 71.93934631 C-69.34341582 54.36584178 -69.34341582 54.36584178 -65.25244141 49.12939453 C-64.94063228 47.76310365 -64.6757953 46.38582446 -64.43994141 45.00439453 C-62.44276497 35.08346118 -54.78528197 24.7945387 -47.13525391 18.34423828 C-45.25244141 17.12939453 -45.25244141 17.12939453 -43.25244141 17.12939453 C-43.25244141 16.46939453 -43.25244141 15.80939453 -43.25244141 15.12939453 C-39.10142771 11.16605965 -34.53933124 8.57696551 -29.13134766 6.77783203 C-26.37319866 5.82595525 -23.84692343 4.45546312 -21.25244141 3.12939453 C-14.43949913 -0.01504036 -7.36156244 -0.01781205 0 0 Z " fill="#443ADA" transform="translate(91.25244140625,18.87060546875)"/>
<path d="M0 0 C0 0.66 0 1.32 0 2 C0.556875 2.08765625 1.11375 2.1753125 1.6875 2.265625 C4.68206439 3.21660153 6.56345245 4.77401936 9 6.75 C10.2684375 7.76320313 10.2684375 7.76320313 11.5625 8.796875 C14.02745277 11.02481308 15.9732483 13.37483239 18 16 C18.99 16.8971875 18.99 16.8971875 20 17.8125 C24.55721734 22.79695647 26.44696425 28.36357104 27 35 C27.66 35 28.32 35 29 35 C29 35.99 29 36.98 29 38 C29.66 38 30.32 38 31 38 C31.495 40.97 31.495 40.97 32 44 C32.66 44 33.32 44 34 44 C34 44.99 34 45.98 34 47 C34.66 47 35.32 47 36 47 C36.99 51.95 36.99 51.95 38 57 C38.66 57 39.32 57 40 57 C40.495 58.155 40.99 59.31 41.5 60.5 C44.41715113 67.06359004 47.68813673 73.44969471 50.92236328 79.86083984 C53.02605436 84.03676672 55.11206877 88.22154739 57.20117188 92.40478516 C58.61918691 95.24292955 60.04012728 98.07929661 61.47265625 100.91015625 C63.4751342 104.87224564 65.4400732 108.84960859 67.3125 112.875 C67.63863281 113.57367188 67.96476563 114.27234375 68.30078125 114.9921875 C69 117 69 117 69 121 C69.66 121 70.32 121 71 121 C71.31453125 121.61488281 71.6290625 122.22976562 71.953125 122.86328125 C72.38109375 123.67152344 72.8090625 124.47976562 73.25 125.3125 C73.87648438 126.51326172 73.87648438 126.51326172 74.515625 127.73828125 C76.15119822 130.23037833 77.40706494 131.53300611 80 133 C82.64517257 133.43568488 82.64517257 133.43568488 85.4375 133.3125 C86.82775391 133.30669922 86.82775391 133.30669922 88.24609375 133.30078125 C91.14281444 132.98440183 93.35881903 132.2031514 96 131 C96 130.01 96 129.02 96 128 C96.66 128 97.32 128 98 128 C98.72168619 124.09613242 99.13093242 120.38725709 99.15821838 116.4190979 C99.1680072 115.3338382 99.17779602 114.24857849 99.18788147 113.13043213 C99.19363693 111.95510925 99.1993924 110.77978638 99.20532227 109.56884766 C99.21522186 108.31951447 99.22512146 107.07018127 99.23532104 105.7829895 C99.26143425 102.37023569 99.28332682 98.95750434 99.30332303 95.54471254 C99.32525351 91.97325458 99.35260751 88.40183819 99.37937927 84.83041382 C99.42921098 78.07326987 99.47418496 71.31610273 99.51740164 64.55891359 C99.56685561 56.86360927 99.62174337 49.16834669 99.67708123 41.47308278 C99.79075502 25.64875901 99.89690839 9.82439679 100 -6 C113.86 -6 127.72 -6 142 -6 C142.11310095 11.78573337 142.20510793 29.57115727 142.25906086 47.35715103 C142.28478395 55.61648737 142.31982075 63.87558351 142.37719727 72.13476562 C142.42721386 79.33797557 142.45933382 86.54101146 142.47044247 93.74439025 C142.4769306 97.55454684 142.49205405 101.36420574 142.52865028 105.17420197 C142.56289971 108.76942057 142.57299572 112.36394236 142.56553841 115.95930862 C142.5675435 117.88939616 142.59428591 119.81940995 142.62210083 121.7492981 C142.55654943 132.98063012 138.98151108 141.91245515 132.4375 150.9375 C131.69371094 151.97777344 130.94992187 153.01804688 130.18359375 154.08984375 C129.10271484 155.53037109 129.10271484 155.53037109 128 157 C127.36449219 157.87527344 126.72898437 158.75054687 126.07421875 159.65234375 C123.73608666 162.29870418 121.40925742 163.83388848 118.375 165.625 C114.09476307 168.1572959 114.09476307 168.1572959 111 172 C109.1171875 172.9140625 109.1171875 172.9140625 106.875 173.625 C106.15054688 173.86476562 105.42609375 174.10453125 104.6796875 174.3515625 C93.95242429 176.94737255 79.01437136 178.63864712 69.1015625 173.08984375 C65.0203869 170.97339767 60.44379102 170.09641199 56 169 C56 168.34 56 167.68 56 167 C55.2575 166.74863281 54.515 166.49726563 53.75 166.23828125 C50.79365514 164.90708619 49.2181145 163.52635863 47 161.1875 C44.8233743 158.89652999 42.73980242 156.78216017 40.3125 154.75 C37.42225977 151.31295756 36.1912469 147.84501948 34.56640625 143.68359375 C32.76779188 139.27522519 30.50243902 135.12700243 28.25 130.9375 C23.50801229 122.08821593 19.18691962 113.08167088 14.93701172 103.98828125 C13.38443319 100.69380509 11.75831326 97.43845934 10.109375 94.19140625 C9.31509113 92.62241594 8.53547758 91.04596502 7.765625 89.46484375 C5.78888537 85.41984877 3.76301085 81.52996688 1.3125 77.75 C-0.72268335 74.58345697 -1.89332789 71.61512888 -3 68 C-5.56968669 61.68338099 -8.67481214 55.6428104 -11.828125 49.6015625 C-13 47 -13 47 -13 44 C-13.66 44 -14.32 44 -15 44 C-16.68816933 42.35511706 -18.35353315 40.68662458 -20 39 C-24.03957497 36.30695002 -27.25504364 36.08871699 -32 37 C-35.27202592 38.86626664 -38.37844505 41.07681253 -39.5721426 44.770298 C-40.06680333 47.34813358 -40.14033799 49.75249309 -40.15821838 52.37835693 C-40.17290161 54.01474373 -40.17290161 54.01474373 -40.18788147 55.68418884 C-40.19363693 56.87605301 -40.1993924 58.06791718 -40.20532227 59.29589844 C-40.21522186 60.55469315 -40.22512146 61.81348785 -40.23532104 63.11042786 C-40.26232751 66.55840792 -40.28336008 70.0064016 -40.30332303 73.45442867 C-40.32520889 77.05926425 -40.35258485 80.66405803 -40.37937927 84.26885986 C-40.42927102 91.09336066 -40.47422288 97.91788471 -40.51740164 104.74243093 C-40.5668041 112.51265734 -40.62171106 120.28284181 -40.67708123 128.05302763 C-40.79084727 144.03531446 -40.89697135 160.0176398 -41 176 C-54.86 176 -68.72 176 -83 176 C-83.02260309 159.07515681 -83.04101186 142.15032656 -83.05181217 125.22547245 C-83.05696099 117.36637391 -83.06397668 109.50728544 -83.07543945 101.64819336 C-83.08542957 94.79550003 -83.09186371 87.94281399 -83.09408849 81.09011358 C-83.09538826 77.46414533 -83.09842748 73.83819794 -83.10573006 70.2122364 C-83.11383001 66.15718804 -83.11398835 62.10217558 -83.11352539 58.04711914 C-83.11712067 56.85452988 -83.12071594 55.66194061 -83.12442017 54.43321228 C-83.1167354 48.20213749 -82.82641156 42.17758186 -82 36 C-81.34 36 -80.68 36 -80 36 C-80.061875 35.113125 -80.12375 34.22625 -80.1875 33.3125 C-79.97572253 29.57109805 -79.04791909 28.07187864 -77 25 C-76.70867187 24.22398438 -76.41734375 23.44796875 -76.1171875 22.6484375 C-74.90418749 19.77286404 -73.42055369 17.64108872 -71.5 15.1875 C-70.8915625 14.39730469 -70.283125 13.60710938 -69.65625 12.79296875 C-69.1096875 12.20128906 -68.563125 11.60960938 -68 11 C-67.34 11 -66.68 11 -66 11 C-65.67 10.01 -65.34 9.02 -65 8 C-64.34 8 -63.68 8 -63 8 C-63 7.34 -63 6.68 -63 6 C-57.58522221 1.40447937 -51.73284204 -1.06646587 -45 -3 C-44.27683594 -3.2784375 -43.55367187 -3.556875 -42.80859375 -3.84375 C-29.15079294 -8.83543355 -12.68640974 -6.8193292 0 0 Z " fill="#453BDA" transform="translate(584,25)"/>
<path d="M0 0 C14.19 0 28.38 0 43 0 C43 23.1 43 46.2 43 70 C53.27125 69.896875 63.5425 69.79375 74.125 69.6875 C77.35941895 69.66260498 80.59383789 69.63770996 83.92626953 69.61206055 C86.49513199 69.57977016 89.06398116 69.54639638 91.6328125 69.51171875 C92.29473602 69.50880325 92.95665955 69.50588776 93.63864136 69.50288391 C95.60442517 69.4930842 97.5700754 69.4630328 99.53564453 69.43237305 C100.64150909 69.42126999 101.74737366 69.41016693 102.88674927 69.39872742 C110.8073787 68.38429833 117.84062848 62.85955202 122.6640625 56.71875 C124.0274217 54.93623348 125.36396012 53.14034054 126.67480469 51.31884766 C127.74197103 49.84840657 128.86654834 48.41997476 130 47 C130.66 47 131.32 47 132 47 C132.3403125 46.2265625 132.3403125 46.2265625 132.6875 45.4375 C134.48217618 42.10452995 136.49965015 38.85296329 139 36 C139.66 36 140.32 36 141 36 C141.2475 35.278125 141.495 34.55625 141.75 33.8125 C143.12269592 30.72393418 144.72353296 28.48988582 147 26 C147.66 26 148.32 26 149 26 C149.22171875 25.47921875 149.4434375 24.9584375 149.671875 24.421875 C151.50391004 21.08110522 153.87085978 18.20957389 156.25 15.25 C157.1936584 14.0684665 158.1363602 12.88616838 159.078125 11.703125 C159.53671906 11.14163757 159.99531311 10.58015015 160.46780396 10.00164795 C162.03036985 8.03915726 162.03036985 8.03915726 163.24655151 5.91583252 C166.68070691 0.42127978 166.68070691 0.42127978 170.1940918 -0.70062256 C172.82836545 -0.9252531 175.35109092 -0.90113902 177.9921875 -0.78125 C178.93812775 -0.76993042 179.88406799 -0.75861084 180.8586731 -0.74694824 C183.86621695 -0.70232805 186.86890949 -0.60199923 189.875 -0.5 C191.91920174 -0.45985413 193.96347858 -0.42335529 196.0078125 -0.390625 C201.00706422 -0.30264007 206.00271112 -0.16469706 211 0 C210.21537142 1.43155045 209.42836792 2.86179936 208.64038086 4.29150391 C208.20237656 5.08811432 207.76437225 5.88472473 207.31309509 6.70547485 C205.5706101 9.75032337 203.61501014 12.52855991 201.5625 15.375 C198.00788463 20.3582717 195.00184832 25.46409638 192.2890625 30.953125 C191 33 191 33 188 34 C187.95875 34.680625 187.9175 35.36125 187.875 36.0625 C186.98560882 39.04831325 186.28703059 39.98953297 184.2421875 42.2109375 C181.11012805 45.76721732 178.67275193 49.5026039 176.25 53.5625 C171.8641608 60.74153187 167.15154883 67.60031905 162.18164062 74.38476562 C161.02560797 75.96499539 159.87986618 77.55273723 158.734375 79.140625 C155.58023886 83.50968765 152.3905996 87.81029433 149 92 C149.99 92.33 150.98 92.66 152 93 C153.3503418 94.55053711 153.3503418 94.55053711 154.69921875 96.52734375 C155.18583984 97.23697266 155.67246094 97.94660156 156.17382812 98.67773438 C156.67333984 99.42345703 157.17285156 100.16917969 157.6875 100.9375 C158.19861328 101.67935547 158.70972656 102.42121094 159.23632812 103.18554688 C163 108.72804364 163 108.72804364 163 111 C163.66 111 164.32 111 165 111 C166.375 112.9140625 166.375 112.9140625 168 115.625 C171.26211378 120.91824123 174.76686832 125.95775327 178.44726562 130.96337891 C182.33267515 136.30193159 185.73069538 141.75941229 188 148 C188.66 148 189.32 148 190 148 C190.33 149.65 190.66 151.3 191 153 C191.66 153 192.32 153 193 153 C194.19542478 154.68125012 195.30712843 156.42248083 196.375 158.1875 C198.70691689 162.02437647 201.17756198 165.5110725 204 169 C204.72148728 170.1247428 205.41498335 171.26860631 206.0625 172.4375 C206.36285156 172.97246094 206.66320312 173.50742188 206.97265625 174.05859375 C208.36132054 176.68279966 209.67488989 179.34324549 211 182 C205.09187458 182.12362482 199.18450226 182.2143513 193.27539062 182.2746582 C191.2654916 182.29979816 189.25568395 182.33391529 187.24609375 182.37719727 C184.35654156 182.43787215 181.46819808 182.46621447 178.578125 182.48828125 C177.68007141 182.51408768 176.78201782 182.5398941 175.85675049 182.56648254 C169.584646 182.5693005 169.584646 182.5693005 166.55371094 179.61791992 C166.04098633 178.75400635 165.52826172 177.89009277 165 177 C163.7934375 175.824375 163.7934375 175.824375 162.5625 174.625 C160.09831193 172.10070979 158.17421957 169.56041964 156.2109375 166.6484375 C155.04592166 164.97265722 155.04592166 164.97265722 153.58642578 163.60009766 C152.05480728 162.05527961 150.73485932 160.47055912 149.40625 158.75 C148.93316406 158.1415625 148.46007812 157.533125 147.97265625 156.90625 C146.99088542 155.63541667 146.00911458 154.36458333 145.02734375 153.09375 C144.55425781 152.4853125 144.08117187 151.876875 143.59375 151.25 C143.16771484 150.69828125 142.74167969 150.1465625 142.30273438 149.578125 C140.95547363 147.94606101 139.5050133 146.48614325 138 145 C134.62552382 140.87386325 131.41087885 136.63088847 128.375 132.25 C126.19807912 129.16543784 123.74086169 126.60716112 121 124 C120.49082031 123.47019531 119.98164062 122.94039063 119.45703125 122.39453125 C116.20366117 118.99229606 116.20366117 118.99229606 112 117 C112 116.34 112 115.68 112 115 C104.01921485 113.01379673 96.31688129 112.66211572 88.1171875 112.5859375 C86.96742432 112.56829346 85.81766113 112.55064941 84.63305664 112.5324707 C80.38050752 112.46989608 76.1277344 112.42337081 71.875 112.375 C62.34625 112.25125 52.8175 112.1275 43 112 C43 135.43 43 158.86 43 183 C36.090625 183.020625 29.18125 183.04125 22.0625 183.0625 C19.87890869 183.071604 17.69531738 183.08070801 15.44555664 183.09008789 C13.7254238 183.09300698 12.00529028 183.09555555 10.28515625 183.09765625 C9.38341675 183.10277222 8.48167725 183.10788818 7.5526123 183.11315918 C5.36808255 183.11346882 3.1836367 183.0624587 1 183 C-0.66267523 181.33732477 -0.1221288 179.32814207 -0.12908131 177.1074118 C-0.12616847 176.40217205 -0.12325563 175.69693231 -0.12025452 174.97032166 C-0.12110894 174.2262607 -0.12196337 173.48219975 -0.12284368 172.71559149 C-0.12450071 170.2035182 -0.1189735 167.69151058 -0.11352539 165.17944336 C-0.11324354 163.38621523 -0.11340121 161.59298698 -0.1139679 159.79975891 C-0.11425596 154.91566635 -0.10835786 150.03159813 -0.10139394 145.14751124 C-0.09516181 140.0492342 -0.09455671 134.95095666 -0.09336853 129.85267639 C-0.0902548 120.19122841 -0.08204084 110.52979168 -0.07201904 100.86834866 C-0.06085921 89.87216377 -0.05534778 78.87597837 -0.05032361 67.87978923 C-0.03985826 45.25318514 -0.02151226 22.62659648 0 0 Z " fill="#443ADA" transform="translate(747,19)"/>
<path d="M0 0 C4.01858902 2.55662921 7.22538095 5.51070917 9.125 9.9375 C9.88590088 14.45043009 10.26030075 18.8154805 10.30200195 23.38842773 C10.32125481 25.24086342 10.32125481 25.24086342 10.34089661 27.13072205 C10.34828354 28.44754471 10.35567047 29.76436737 10.36328125 31.12109375 C10.36735678 31.79974047 10.3714323 32.47838718 10.37563133 33.17759895 C10.39638879 36.7659384 10.41073793 40.35424072 10.42016602 43.94262695 C10.43124472 47.62888729 10.46569024 51.31454648 10.50533772 55.00059414 C10.53158101 57.85493528 10.53986431 60.70913414 10.54344749 63.56358528 C10.55062618 65.57758846 10.57701945 67.59149398 10.60383606 69.60533142 C10.58660266 76.89855921 10.05287032 81.7390552 6.125 87.9375 C5.67125 88.700625 5.2175 89.46375 4.75 90.25 C0.7682928 94.38484978 -4.55412523 95.74797295 -10.12892056 96.06613445 C-11.28283842 96.06864822 -11.28283842 96.06864822 -12.46006775 96.07121277 C-13.79522179 96.07761024 -13.79522179 96.07761024 -15.15734863 96.08413696 C-16.12112427 96.08368378 -17.0848999 96.08323059 -18.07788086 96.08276367 C-19.61533714 96.08780159 -19.61533714 96.08780159 -21.18385315 96.09294128 C-24.5691957 96.1024337 -27.95448872 96.10439344 -31.33984375 96.10546875 C-33.6948702 96.10868216 -36.04989645 96.11204629 -38.40492249 96.11555481 C-43.34018415 96.12154154 -48.27542832 96.12339514 -53.21069336 96.12280273 C-59.53358221 96.12270106 -65.8563589 96.1363613 -72.17922115 96.15357494 C-77.04253149 96.16469384 -81.90581468 96.16672199 -86.76913643 96.16619301 C-89.10032094 96.16737298 -91.43150615 96.17179571 -93.76267815 96.17952538 C-97.02277362 96.18932428 -100.2826252 96.18644764 -103.54272461 96.18041992 C-104.50447601 96.18603943 -105.46622742 96.19165894 -106.4571228 96.19744873 C-115.89217487 96.15312773 -120.93544229 93.78951199 -127.6875 87.1875 C-131.63452526 81.38009341 -130.81970392 73.57703883 -129.875 66.9375 C-126.62747251 58.9584755 -120.54642887 54.60994438 -113.0234375 50.98828125 C-108.0959403 48.57828716 -103.35942508 45.79615546 -98.61328125 43.05078125 C-77.67152817 30.9375 -77.67152817 30.9375 -72.875 30.9375 C-72.875 30.2775 -72.875 29.6175 -72.875 28.9375 C-70.895 28.6075 -68.915 28.2775 -66.875 27.9375 C-66.875 27.2775 -66.875 26.6175 -66.875 25.9375 C-64.47462088 24.29152575 -62.15458988 23.04503457 -59.4375 22 C-56.70459057 20.96379695 -56.70459057 20.96379695 -53.875 18.9375 C-50.03630036 16.37836691 -46.3586817 14.93387371 -41.875 13.9375 C-41.875 13.2775 -41.875 12.6175 -41.875 11.9375 C-40.94816406 11.52757813 -40.02132812 11.11765625 -39.06640625 10.6953125 C-37.86886719 10.15648438 -36.67132813 9.61765625 -35.4375 9.0625 C-34.24253906 8.52882813 -33.04757812 7.99515625 -31.81640625 7.4453125 C-28.78972369 6.26022765 -28.78972369 6.26022765 -27.875 3.9375 C-25.3125 3.3125 -25.3125 3.3125 -22.875 2.9375 C-22.875 2.2775 -22.875 1.6175 -22.875 0.9375 C-15.45184275 -3.0215172 -7.68917843 -3.88303511 0 0 Z " fill="#FDFDFE" transform="translate(426.875,63.0625)"/>
<path d="M0 0 C1.18372948 0.00636726 1.18372948 0.00636726 2.39137268 0.01286316 C4.88757886 0.02952423 7.38294817 0.06715096 9.87890625 0.10546875 C11.58136847 0.12053192 13.28384346 0.13421746 14.98632812 0.14648438 C19.13833845 0.17938625 23.28973095 0.23107924 27.44140625 0.29296875 C27.93640625 1.77796875 27.93640625 1.77796875 28.44140625 3.29296875 C29.03953125 3.39609375 29.63765625 3.49921875 30.25390625 3.60546875 C33.01404386 4.47294057 34.05911305 5.91482086 35.5625 8.33203125 C36.9856196 11.50716921 37.49988407 14.79877865 38.046875 18.21875 C38.23661721 20.27568795 38.23661721 20.27568795 39.44140625 21.29296875 C40.01865737 24.64824089 40.47226311 28.01475247 40.94140625 31.38671875 C41.1338333 34.17772158 41.1338333 34.17772158 42.44140625 35.29296875 C43.0101553 37.87444113 43.52586264 40.44460731 44.00390625 43.04296875 C44.14248047 43.7596875 44.28105469 44.47640625 44.42382812 45.21484375 C44.55466797 45.91609375 44.68550781 46.61734375 44.8203125 47.33984375 C44.93963135 47.97760742 45.0589502 48.61537109 45.18188477 49.27246094 C45.48021919 51.59514737 45.44140625 53.9512011 45.44140625 56.29296875 C20.69140625 56.29296875 -4.05859375 56.29296875 -29.55859375 56.29296875 C-28.38322407 49.82843549 -27.22095177 43.47396458 -25.68359375 37.10546875 C-25.51432373 36.39422852 -25.34505371 35.68298828 -25.1706543 34.95019531 C-23.63122351 28.51450953 -22.01995036 22.09703379 -20.390625 15.68359375 C-19.70612003 12.89415567 -19.09166514 10.1144779 -18.55859375 7.29296875 C-17.89859375 7.29296875 -17.23859375 7.29296875 -16.55859375 7.29296875 C-16.53796875 6.69484375 -16.51734375 6.09671875 -16.49609375 5.48046875 C-15.24378026 2.55840393 -13.46913074 2.04936114 -10.61398315 0.90390015 C-7.08226836 -0.14584519 -3.65796439 -0.0753858 0 0 Z " fill="#FCFCFE" transform="translate(1069.55859375,60.70703125)"/>
<path d="M0 0 C0.33 0 0.66 0 1 0 C1 59.4 1 118.8 1 180 C14.2 180 27.4 180 41 180 C41 157.56 41 135.12 41 112 C41.66 112 42.32 112 43 112 C43 135.43 43 158.86 43 183 C36.090625 183.020625 29.18125 183.04125 22.0625 183.0625 C19.87890869 183.071604 17.69531738 183.08070801 15.44555664 183.09008789 C13.7254238 183.09300698 12.00529028 183.09555555 10.28515625 183.09765625 C9.38341675 183.10277222 8.48167725 183.10788818 7.5526123 183.11315918 C5.36808255 183.11346882 3.1836367 183.0624587 1 183 C-0.66267523 181.33732477 -0.1221288 179.32814207 -0.12908131 177.1074118 C-0.12616847 176.40217205 -0.12325563 175.69693231 -0.12025452 174.97032166 C-0.12110894 174.2262607 -0.12196337 173.48219975 -0.12284368 172.71559149 C-0.12450071 170.2035182 -0.1189735 167.69151058 -0.11352539 165.17944336 C-0.11324354 163.38621523 -0.11340121 161.59298698 -0.1139679 159.79975891 C-0.11425596 154.91566635 -0.10835786 150.03159813 -0.10139394 145.14751124 C-0.09516181 140.0492342 -0.09455671 134.95095666 -0.09336853 129.85267639 C-0.0902548 120.19122841 -0.08204084 110.52979168 -0.07201904 100.86834866 C-0.06085921 89.87216377 -0.05534778 78.87597837 -0.05032361 67.87978923 C-0.03985826 45.25318657 -0.02225801 22.62659392 0 0 Z " fill="#817AE9" transform="translate(747,19)"/>
<path d="M0 0 C27.72 0 55.44 0 84 0 C83.67 13.86 83.34 27.72 83 42 C82.67 42 82.34 42 82 42 C82 28.8 82 15.6 82 2 C54.94 2 27.88 2 0 2 C0 1.34 0 0.68 0 0 Z " fill="#564CE6" transform="translate(149,89)"/>
<path d="M0 0 C2 3 2 3 3 11 C-11.85 11 -26.7 11 -42 11 C-42.33 10.01 -42.66 9.02 -43 8 C-28.81 8.33 -14.62 8.66 0 9 C0 6.03 0 3.06 0 0 Z " fill="#5147E1" transform="translate(228,64)"/>
<path d="M0 0 C1.57156655 3.1431331 0.11705576 5.365464 -0.9375 8.625 C-1.31777344 9.81351563 -1.69804687 11.00203125 -2.08984375 12.2265625 C-2.39019531 13.14179687 -2.69054687 14.05703125 -3 15 C-3.66 15 -4.32 15 -5 15 C-5 16.65 -5 18.3 -5 20 C-5.66 20 -6.32 20 -7 20 C-6.4711755 32.09565858 -6.4711755 32.09565858 -4.3046875 43.984375 C-3.95779099 46.27922886 -4.38645349 47.7847681 -5 50 C-7.76050904 43.21820273 -8.46512969 37.22298365 -8.375 29.9375 C-8.38660156 28.99583984 -8.39820313 28.05417969 -8.41015625 27.08398438 C-8.38475294 20.99989136 -7.44419582 16.56767186 -5 11 C-4.56494141 9.79923828 -4.56494141 9.79923828 -4.12109375 8.57421875 C-2.98181298 5.42980383 -1.86323011 2.79484517 0 0 Z " fill="#C0BDF2" transform="translate(262,108)"/>
<path d="M0 0 C0.33 0 0.66 0 1 0 C1.07665296 6.9009685 1.12885065 13.80182545 1.16479492 20.703125 C1.17979438 23.04626569 1.20020059 25.38937873 1.22631836 27.73242188 C1.26309285 31.11855942 1.27981537 34.50432278 1.29296875 37.890625 C1.30845261 38.92237854 1.32393646 39.95413208 1.33988953 41.01715088 C1.34155927 48.38704147 0.07453302 54.93679651 -2 62 C-2.98593815 58.49319134 -2.82602503 56.29857407 -2.1015625 52.70703125 C-0.39241565 42.44209635 -0.53169537 32.06938457 -0.375 21.6875 C-0.33673889 19.57876135 -0.2976827 17.47003697 -0.2578125 15.36132812 C-0.16270957 10.24100382 -0.07836201 5.12060675 0 0 Z " fill="#C8C5F4" transform="translate(233,89)"/>
<path d="M0 0 C1.24546405 2.49092811 0.7767578 3.41080733 0 6 C-0.66 6 -1.32 6 -2 6 C-2.33 25.14 -2.66 44.28 -3 64 C-3.33 64 -3.66 64 -4 64 C-4.07620035 56.15297684 -4.12866329 48.30604948 -4.16479492 40.45874023 C-4.17816361 37.79026928 -4.20031605 35.12228282 -4.22631836 32.45385742 C-4.26279585 28.61370748 -4.27974859 24.77388562 -4.29296875 20.93359375 C-4.30845261 19.74479111 -4.32393646 18.55598846 -4.33988953 17.3311615 C-4.34114867 11.10398142 -4.07010891 6.4757152 -1 1 C-0.67 0.67 -0.34 0.34 0 0 Z " fill="#C6C3F3" transform="translate(68,74)"/>
<path d="M0 0 C-2.79285066 1.86190044 -4.20113742 2.41797842 -7.375 3.0625 C-8.17421875 3.2275 -8.9734375 3.3925 -9.796875 3.5625 C-10.52390625 3.706875 -11.2509375 3.85125 -12 4 C-12.86625 4.185625 -13.7325 4.37125 -14.625 4.5625 C-17.73771376 5.13589464 -20.86468939 5.56966325 -24 6 C-22.5231535 3.04630699 -20.15536235 2.71243193 -17.1796875 1.6640625 C-11.48599199 -0.07057592 -5.88613237 -0.10326548 0 0 Z " fill="#9E99EB" transform="translate(90,19)"/>
<path d="M0 0 C0.76183594 -0.01675781 1.52367188 -0.03351563 2.30859375 -0.05078125 C4.5625 0.3125 4.5625 0.3125 8.5625 3.3125 C3.2825 2.9825 -1.9975 2.6525 -7.4375 2.3125 C-4.35229997 0.25569998 -3.52476496 0.01783186 0 0 Z " fill="#655DE3" transform="translate(81.4375,197.6875)"/>
<path d="M0 0 C0.66 0 1.32 0 2 0 C1.55120234 2.62696231 1.09145886 5.25116893 0.625 7.875 C0.49867187 8.62136719 0.37234375 9.36773437 0.2421875 10.13671875 C-0.7734375 15.7734375 -0.7734375 15.7734375 -3 18 C-2.88521587 15.93690624 -2.75773802 13.87451646 -2.625 11.8125 C-2.55539062 10.66394531 -2.48578125 9.51539062 -2.4140625 8.33203125 C-2.02490426 5.20040883 -1.3190149 2.84714191 0 0 Z " fill="#9F9AEC" transform="translate(1049,71)"/>
<path d="M0 0 C-2.62235014 0.86316536 -5.24733452 1.71580779 -7.875 2.5625 C-8.62136719 2.80935547 -9.36773438 3.05621094 -10.13671875 3.31054688 C-15.7734375 5.11328125 -15.7734375 5.11328125 -18 4 C-11.99286421 0.72199443 -6.91121058 -1.93454826 0 0 Z " fill="#A09BEC" transform="translate(1057,20)"/>
<path d="M0 0 C1.57156655 3.1431331 0.11705576 5.365464 -0.9375 8.625 C-1.31777344 9.81351563 -1.69804687 11.00203125 -2.08984375 12.2265625 C-2.39019531 13.14179687 -2.69054687 14.05703125 -3 15 C-3.66 15 -4.32 15 -5 15 C-4.74322411 13.24788218 -4.46897047 11.49832064 -4.1875 9.75 C-4.03667969 8.77546875 -3.88585937 7.8009375 -3.73046875 6.796875 C-2.96781736 3.87677662 -1.96225899 2.25794185 0 0 Z " fill="#867FE7" transform="translate(262,108)"/>
<path d="M0 0 C0.33 0.66 0.66 1.32 1 2 C-0.43257963 4.72872311 -1.81722366 6.81722366 -4 9 C-5.98821313 9.39764263 -7.98944339 9.73775349 -10 10 C-8.6875 8.5 -8.6875 8.5 -7 7 C-6.01 7 -5.02 7 -4 7 C-3.71125 6.401875 -3.4225 5.80375 -3.125 5.1875 C-2 3 -2 3 0 0 Z " fill="#7770E4" transform="translate(434,148)"/>
<path d="M0 0 C4.97306516 0.49730652 8.63799813 1.55302334 13 4 C9.67465243 5.10844919 7.37817425 4.84454356 4 4 C4 3.34 4 2.68 4 2 C2.68 1.67 1.36 1.34 0 1 C0 0.67 0 0.34 0 0 Z " fill="#A5A0ED" transform="translate(644,195)"/>
<path d="M0 0 C0.33 0 0.66 0 1 0 C1.08131463 1.43655854 1.13933559 2.8744483 1.1875 4.3125 C1.23970703 5.51326172 1.23970703 5.51326172 1.29296875 6.73828125 C0.93801608 9.47851584 0.10633718 10.29171079 -2 12 C-1.85962479 10.18706911 -1.71255111 8.3746557 -1.5625 6.5625 C-1.48128906 5.55316406 -1.40007813 4.54382813 -1.31640625 3.50390625 C-1 1 -1 1 0 0 Z " fill="#6057E2" transform="translate(1005,79)"/>
<path d="M0 0 C0 3.64478912 -0.85802506 5.09303401 -3 8 C-5.109375 8.6484375 -5.109375 8.6484375 -7 9 C-6.02180976 7.68677212 -5.0424189 6.37443848 -4.0625 5.0625 C-3.51722656 4.33160156 -2.97195313 3.60070313 -2.41015625 2.84765625 C-1 1 -1 1 0 0 Z " fill="#6F68E3" transform="translate(903,35)"/>
<path d="M0 0 C-3.11910856 1.79275866 -5.67682428 2.34290718 -9.25 2.625 C-10.14203125 2.69976563 -11.0340625 2.77453125 -11.953125 2.8515625 C-12.62859375 2.90054687 -13.3040625 2.94953125 -14 3 C-13 1 -13 1 -11.07421875 0.33203125 C-10.28660156 0.16058594 -9.49898438 -0.01085937 -8.6875 -0.1875 C-7.90761719 -0.36667969 -7.12773438 -0.54585937 -6.32421875 -0.73046875 C-3.90795241 -1.01067443 -2.29757048 -0.74132137 0 0 Z " fill="#766FE4" transform="translate(80,22)"/>
<path d="M0 0 C6.4 0.49230769 6.4 0.49230769 9.4375 3.0625 C10.2109375 4.0215625 10.2109375 4.0215625 11 5 C7.13351728 3.95902388 3.50538557 2.96301592 0 1 C0 0.67 0 0.34 0 0 Z " fill="#9F9AEC" transform="translate(291,195)"/>
<path d="M0 0 C1.24546405 2.49092811 0.7767578 3.41080733 0 6 C-0.66 6 -1.32 6 -2 6 C-2.33 7.98 -2.66 9.96 -3 12 C-4.41116678 8.79280276 -3.89413879 7.71609948 -2.625 4.3125 C-1 1 -1 1 0 0 Z " fill="#A6A2ED" transform="translate(68,74)"/>
<path d="M0 0 C0 3 0 3 -2.5 5.6875 C-3.325 6.450625 -4.15 7.21375 -5 8 C-5.66 7.67 -6.32 7.34 -7 7 C-2.25 1.125 -2.25 1.125 0 0 Z " fill="#D1CEF5" transform="translate(76,66)"/>
<path d="M0 0 C0 0.66 0 1.32 0 2 C-1.65 2.33 -3.3 2.66 -5 3 C-5.33 3.99 -5.66 4.98 -6 6 C-7.32 5.67 -8.64 5.34 -10 5 C-8.71186658 4.16121545 -7.41936744 3.32913217 -6.125 2.5 C-5.40570313 2.0359375 -4.68640625 1.571875 -3.9453125 1.09375 C-2 0 -2 0 0 0 Z " fill="#8982E8" transform="translate(342,52)"/>
<path d="M0 0 C0.33 0.66 0.66 1.32 1 2 C0.0625 4.125 0.0625 4.125 -1 6 C-1.99 6 -2.98 6 -4 6 C-4 6.66 -4 7.32 -4 8 C-4.66 7.67 -5.32 7.34 -6 7 C-4.02 4.69 -2.04 2.38 0 0 Z " fill="#6E66E4" transform="translate(912,24)"/>
<path d="M0 0 C1.10844919 3.32534757 0.84454356 5.62182575 0 9 C-2 7 -2 7 -2.25 4.5 C-2 2 -2 2 0 0 Z " fill="#6B63E4" transform="translate(1045,89)"/>
<path d="M0 0 C0.66 0.33 1.32 0.66 2 1 C1.67 1.99 1.34 2.98 1 4 C-1.31 4.33 -3.62 4.66 -6 5 C-2.25 1.125 -2.25 1.125 0 0 Z " fill="#8781E8" transform="translate(530,25)"/>
</svg>
