<svg width="738" height="188" viewBox="0 0 738 188" fill="none" xmlns="http://www.w3.org/2000/svg">
<path d="M108 45.1001H99H90H81V56.5001V60.7001V72.1001H90H108C108 82.0001 99.9 90.1001 90 90.1001H86.2H48.8H45C35.1 90.1001 27 82.0001 27 72.1001V45.1001C27 35.2001 35.1 27.1001 45 27.1001H48.8H86.3H90C96.7 27.1001 102.5 30.7001 105.6 36.1001H108H117H134.1C129.9 15.6001 111.8 0.100098 90 0.100098H45C20.1 0.100098 0 20.2001 0 45.1001V72.1001C0 97.0001 20.1 117.1 45 117.1H90C114.9 117.1 135 97.0001 135 72.1001V54.1001V45.1001H126H108Z" fill="#4339DA"/>
<path d="M423.3 46.2001V81.1001C423.3 86.1001 419.3 90.1001 414.3 90.1001C410.8 90.1001 407.7 88.1001 406.3 85.2001C406.3 85.1001 406.2 85.1001 406.2 85.0001L390.9 53.7001L375.1 21.3001C375.1 21.2001 375 21.2001 375 21.1001L374.4 19.8001C368.5 8.1001 356.3 0.100098 342.3 0.100098C339.2 0.100098 336.2 0.500098 333.3 1.2001C317.8 5.2001 306.3 19.3001 306.3 36.1001V117.1H333.3V71.0001V36.1001C333.3 31.1001 337.3 27.1001 342.3 27.1001C345.9 27.1001 349 29.2001 350.4 32.3001L365.6 63.5001L381.4 95.9001C381.4 96.0001 381.5 96.0001 381.5 96.0001L382.2 97.4001C382.2 97.5001 382.3 97.5001 382.3 97.6001C388.3 109.1 400.4 117 414.3 117C417.4 117 420.4 116.6 423.3 115.9C438.8 111.9 450.3 97.8001 450.3 81.0001V0.100098H423.3V46.2001Z" fill="#4339DA"/>
<path d="M252.1 0.100098C245.2 0.100098 238.6 1.8001 232.9 4.9001C232.8 4.9001 232.8 5.0001 232.7 5.0001L231 5.9001L230.9 6.0001L194.4 27.1001L175.7 37.9001L171.1 40.6001C171.1 40.6001 171 40.6001 171 40.7001C157.8 47.4001 148.8 61.0001 148.8 76.7001C148.8 99.1001 167.2 117.2 189.9 117.2H252.9C275 117.2 292.8 99.3001 292.8 77.3001V40.6001C292.6 18.2001 274.5 0.100098 252.1 0.100098ZM265.6 40.6001V76.6001V78.8001C265.5 78.8001 265.5 78.9001 265.4 78.9001C264.3 85.3001 258.8 90.1001 252.1 90.1001H228.4H214.9H189.7C181.9 90.1001 175.6 83.8001 175.6 76.0001C175.6 70.7001 178.6 66.0001 183 63.6001L212.2 47.5001L216 45.4001L246.5 28.6001C246.6 28.5001 246.8 28.5001 246.9 28.4001C248.7 27.5001 250.6 27.0001 252.7 27.0001C259.5 27.0001 265 32.4001 265.6 39.3001C265.6 39.3001 265.6 39.3001 265.7 39.3001V40.6001H265.6Z" fill="#4339DA"/>
<path d="M571.9 40.7001L598.9 0.100098H571.9L566.8 6.4001L540.8 38.5001C537.5 42.5001 532.5 45.1001 526.9 45.1001H490.9V0.100098H463.9V45.1001V72.1001V117.1H490.9V72.1001H526.9C532.5 72.1001 537.5 74.7001 540.8 78.7001L566.8 110.8L571.9 117.1H598.9L571.9 76.5001L565.1 66.3001C563.4 63.5001 561.3 60.9001 559 58.6001C561.3 56.3001 563.4 53.7001 565.1 50.9001L571.9 40.7001Z" fill="#4339DA"/>
<path d="M719.4 29.6001C716.3 12.8001 701.6 0.100098 684 0.100098H666C648.4 0.100098 633.7 12.8001 630.6 29.6001C630.6 29.7001 630.6 29.7001 630.6 29.7001L612 117.1H639L644.9 90.1001H705L710.9 117.1H737.9L719.3 29.7001C719.4 29.7001 719.4 29.6001 719.4 29.6001ZM689.8 63.1001H660.2H650.9L652.9 54.1001L657.2 34.5001C658 30.3001 661.6 27.1001 666.1 27.1001H684.1C688.5 27.1001 692.2 30.3001 693 34.5001L697.3 54.1001L699.3 63.1001H689.8Z" fill="#4339DA"/>
<path d="M482.742 160L479.842 151.3C478.942 147.8 476.542 145 473.342 143.4C471.742 142.6 470.042 142.2 468.142 142.2H444.042C443.442 142.2 442.842 142.2 442.342 142.3C437.042 143.1 432.842 147.2 432.142 152.5C432.042 153.1 432.042 153.6 432.042 154.2V166.4V176.7V187H442.342V176.7H471.642C477.742 176.7 482.742 172.2 483.542 166.4C483.642 165.8 483.642 165.3 483.642 164.7C483.742 163 483.342 161.4 482.742 160ZM473.242 165.3C473.042 166 472.342 166.4 471.642 166.4H468.242H459.742H444.142H442.442V166.3V154.4C442.442 153.4 443.242 152.7 444.142 152.7H455.942H456.142H468.042C468.342 152.7 468.742 152.8 468.942 153C469.242 153.2 469.542 153.5 469.642 153.9C469.642 153.9 469.642 153.9 469.642 154L473.042 164.2C473.042 164.3 473.042 164.3 473.142 164.4C473.142 164.5 473.242 164.7 473.242 164.8C473.342 164.9 473.342 165.1 473.242 165.3Z" fill="#4339DA"/>
<path d="M411.242 142.2H387.142C378.542 142.2 371.642 149.2 371.642 157.7V171.5C371.642 180.1 378.542 187 387.142 187H411.242C419.842 187 426.742 180 426.742 171.5V157.7C426.742 149.2 419.742 142.2 411.242 142.2ZM416.342 171.5C416.342 171.8 416.342 172.1 416.242 172.4C415.842 174.8 413.742 176.7 411.142 176.7H401.642H396.542H387.042C384.442 176.7 382.342 174.8 381.942 172.4C381.942 172.1 381.842 171.8 381.842 171.5V157.7C381.842 157.4 381.842 157.1 381.942 156.8C382.342 154.4 384.442 152.5 387.042 152.5H396.542H401.642H411.142C413.742 152.5 415.842 154.4 416.242 156.8C416.342 157.1 416.342 157.4 416.342 157.7V171.5Z" fill="#4339DA"/>
<path d="M355.942 159.5H324.942V142.2H314.642V159.5V169.8V187.1H324.942V169.8H355.942V187.1H366.342V169.8V159.5V142.2H355.942V159.5Z" fill="#4339DA"/>
<path d="M254.642 152.6C254.342 153.7 254.242 154.8 254.242 156C254.242 163.6 260.442 169.7 267.942 169.7L282.242 169.8L295.642 169.9C297.542 169.9 299.042 171.4 299.042 173.3C299.042 175.2 297.542 176.7 295.642 176.7H282.242H254.242V187H295.642C302.042 187 307.442 182.6 309.042 176.7C309.342 175.6 309.442 174.4 309.442 173.3C309.442 165.7 303.242 159.5 295.642 159.5L281.342 159.4H268.042C266.142 159.4 264.642 157.9 264.642 156C264.642 154.1 266.142 152.6 268.042 152.6H281.342H309.442V142.3H267.942C261.542 142.2 256.142 146.6 254.642 152.6Z" fill="#4339DA"/>
</svg>
