<svg width="158" height="40" viewBox="0 0 158 40" fill="none" xmlns="http://www.w3.org/2000/svg">
<path d="M23.1818 9.62567H21.2567H19.3315H17.4064V12.0642V12.9626V15.4011H19.3315H23.1818C23.1818 17.5187 21.4492 19.2513 19.3315 19.2513H18.5187H10.5187H9.70587C7.58822 19.2513 5.8556 17.5187 5.8556 15.4011V9.62567C5.8556 7.50802 7.58822 5.7754 9.70587 5.7754H10.5187H18.5401H19.3315C20.7647 5.7754 22.0053 6.54545 22.6684 7.70053H23.1818H25.1069H28.7647C27.8663 3.31551 23.9946 0 19.3315 0H9.70587C4.37967 0 0.0802002 4.29947 0.0802002 9.62567V15.4011C0.0802002 20.7273 4.37967 25.0267 9.70587 25.0267H19.3315C24.6577 25.0267 28.9572 20.7273 28.9572 15.4011V11.5508V9.62567H27.0321H23.1818Z" fill="#1C1C1C"/>
<path d="M23.1818 9.62567H21.2567H19.3315H17.4064V12.0642V12.9626V15.4011H19.3315H23.1818C23.1818 17.5187 21.4492 19.2513 19.3315 19.2513H18.5187H10.5187H9.70587C7.58822 19.2513 5.8556 17.5187 5.8556 15.4011V9.62567C5.8556 7.50802 7.58822 5.7754 9.70587 5.7754H10.5187H18.5401H19.3315C20.7647 5.7754 22.0053 6.54545 22.6684 7.70053H23.1818H25.1069H28.7647C27.8663 3.31551 23.9946 0 19.3315 0H9.70587C4.37967 0 0.0802002 4.29947 0.0802002 9.62567V15.4011C0.0802002 20.7273 4.37967 25.0267 9.70587 25.0267H19.3315C24.6577 25.0267 28.9572 20.7273 28.9572 15.4011V11.5508V9.62567H27.0321H23.1818Z" fill="black" fill-opacity="0.2"/>
<path d="M23.1818 9.62567H21.2567H19.3315H17.4064V12.0642V12.9626V15.4011H19.3315H23.1818C23.1818 17.5187 21.4492 19.2513 19.3315 19.2513H18.5187H10.5187H9.70587C7.58822 19.2513 5.8556 17.5187 5.8556 15.4011V9.62567C5.8556 7.50802 7.58822 5.7754 9.70587 5.7754H10.5187H18.5401H19.3315C20.7647 5.7754 22.0053 6.54545 22.6684 7.70053H23.1818H25.1069H28.7647C27.8663 3.31551 23.9946 0 19.3315 0H9.70587C4.37967 0 0.0802002 4.29947 0.0802002 9.62567V15.4011C0.0802002 20.7273 4.37967 25.0267 9.70587 25.0267H19.3315C24.6577 25.0267 28.9572 20.7273 28.9572 15.4011V11.5508V9.62567H27.0321H23.1818Z" fill="black" fill-opacity="0.2"/>
<path d="M23.1818 9.62567H21.2567H19.3315H17.4064V12.0642V12.9626V15.4011H19.3315H23.1818C23.1818 17.5187 21.4492 19.2513 19.3315 19.2513H18.5187H10.5187H9.70587C7.58822 19.2513 5.8556 17.5187 5.8556 15.4011V9.62567C5.8556 7.50802 7.58822 5.7754 9.70587 5.7754H10.5187H18.5401H19.3315C20.7647 5.7754 22.0053 6.54545 22.6684 7.70053H23.1818H25.1069H28.7647C27.8663 3.31551 23.9946 0 19.3315 0H9.70587C4.37967 0 0.0802002 4.29947 0.0802002 9.62567V15.4011C0.0802002 20.7273 4.37967 25.0267 9.70587 25.0267H19.3315C24.6577 25.0267 28.9572 20.7273 28.9572 15.4011V11.5508V9.62567H27.0321H23.1818Z" fill="black" fill-opacity="0.2"/>
<path d="M23.1818 9.62567H21.2567H19.3315H17.4064V12.0642V12.9626V15.4011H19.3315H23.1818C23.1818 17.5187 21.4492 19.2513 19.3315 19.2513H18.5187H10.5187H9.70587C7.58822 19.2513 5.8556 17.5187 5.8556 15.4011V9.62567C5.8556 7.50802 7.58822 5.7754 9.70587 5.7754H10.5187H18.5401H19.3315C20.7647 5.7754 22.0053 6.54545 22.6684 7.70053H23.1818H25.1069H28.7647C27.8663 3.31551 23.9946 0 19.3315 0H9.70587C4.37967 0 0.0802002 4.29947 0.0802002 9.62567V15.4011C0.0802002 20.7273 4.37967 25.0267 9.70587 25.0267H19.3315C24.6577 25.0267 28.9572 20.7273 28.9572 15.4011V11.5508V9.62567H27.0321H23.1818Z" fill="black" fill-opacity="0.2"/>
<path d="M23.1818 9.62567H21.2567H19.3315H17.4064V12.0642V12.9626V15.4011H19.3315H23.1818C23.1818 17.5187 21.4492 19.2513 19.3315 19.2513H18.5187H10.5187H9.70587C7.58822 19.2513 5.8556 17.5187 5.8556 15.4011V9.62567C5.8556 7.50802 7.58822 5.7754 9.70587 5.7754H10.5187H18.5401H19.3315C20.7647 5.7754 22.0053 6.54545 22.6684 7.70053H23.1818H25.1069H28.7647C27.8663 3.31551 23.9946 0 19.3315 0H9.70587C4.37967 0 0.0802002 4.29947 0.0802002 9.62567V15.4011C0.0802002 20.7273 4.37967 25.0267 9.70587 25.0267H19.3315C24.6577 25.0267 28.9572 20.7273 28.9572 15.4011V11.5508V9.62567H27.0321H23.1818Z" fill="black" fill-opacity="0.2"/>
<path d="M23.1818 9.62567H21.2567H19.3315H17.4064V12.0642V12.9626V15.4011H19.3315H23.1818C23.1818 17.5187 21.4492 19.2513 19.3315 19.2513H18.5187H10.5187H9.70587C7.58822 19.2513 5.8556 17.5187 5.8556 15.4011V9.62567C5.8556 7.50802 7.58822 5.7754 9.70587 5.7754H10.5187H18.5401H19.3315C20.7647 5.7754 22.0053 6.54545 22.6684 7.70053H23.1818H25.1069H28.7647C27.8663 3.31551 23.9946 0 19.3315 0H9.70587C4.37967 0 0.0802002 4.29947 0.0802002 9.62567V15.4011C0.0802002 20.7273 4.37967 25.0267 9.70587 25.0267H19.3315C24.6577 25.0267 28.9572 20.7273 28.9572 15.4011V11.5508V9.62567H27.0321H23.1818Z" fill="black" fill-opacity="0.2"/>
<path d="M23.1818 9.62567H21.2567H19.3315H17.4064V12.0642V12.9626V15.4011H19.3315H23.1818C23.1818 17.5187 21.4492 19.2513 19.3315 19.2513H18.5187H10.5187H9.70587C7.58822 19.2513 5.8556 17.5187 5.8556 15.4011V9.62567C5.8556 7.50802 7.58822 5.7754 9.70587 5.7754H10.5187H18.5401H19.3315C20.7647 5.7754 22.0053 6.54545 22.6684 7.70053H23.1818H25.1069H28.7647C27.8663 3.31551 23.9946 0 19.3315 0H9.70587C4.37967 0 0.0802002 4.29947 0.0802002 9.62567V15.4011C0.0802002 20.7273 4.37967 25.0267 9.70587 25.0267H19.3315C24.6577 25.0267 28.9572 20.7273 28.9572 15.4011V11.5508V9.62567H27.0321H23.1818Z" fill="black" fill-opacity="0.2"/>
<path d="M23.1818 9.62567H21.2567H19.3315H17.4064V12.0642V12.9626V15.4011H19.3315H23.1818C23.1818 17.5187 21.4492 19.2513 19.3315 19.2513H18.5187H10.5187H9.70587C7.58822 19.2513 5.8556 17.5187 5.8556 15.4011V9.62567C5.8556 7.50802 7.58822 5.7754 9.70587 5.7754H10.5187H18.5401H19.3315C20.7647 5.7754 22.0053 6.54545 22.6684 7.70053H23.1818H25.1069H28.7647C27.8663 3.31551 23.9946 0 19.3315 0H9.70587C4.37967 0 0.0802002 4.29947 0.0802002 9.62567V15.4011C0.0802002 20.7273 4.37967 25.0267 9.70587 25.0267H19.3315C24.6577 25.0267 28.9572 20.7273 28.9572 15.4011V11.5508V9.62567H27.0321H23.1818Z" fill="black" fill-opacity="0.2"/>
<path d="M23.1818 9.62567H21.2567H19.3315H17.4064V12.0642V12.9626V15.4011H19.3315H23.1818C23.1818 17.5187 21.4492 19.2513 19.3315 19.2513H18.5187H10.5187H9.70587C7.58822 19.2513 5.8556 17.5187 5.8556 15.4011V9.62567C5.8556 7.50802 7.58822 5.7754 9.70587 5.7754H10.5187H18.5401H19.3315C20.7647 5.7754 22.0053 6.54545 22.6684 7.70053H23.1818H25.1069H28.7647C27.8663 3.31551 23.9946 0 19.3315 0H9.70587C4.37967 0 0.0802002 4.29947 0.0802002 9.62567V15.4011C0.0802002 20.7273 4.37967 25.0267 9.70587 25.0267H19.3315C24.6577 25.0267 28.9572 20.7273 28.9572 15.4011V11.5508V9.62567H27.0321H23.1818Z" fill="black" fill-opacity="0.2"/>
<path d="M23.1818 9.62567H21.2567H19.3315H17.4064V12.0642V12.9626V15.4011H19.3315H23.1818C23.1818 17.5187 21.4492 19.2513 19.3315 19.2513H18.5187H10.5187H9.70587C7.58822 19.2513 5.8556 17.5187 5.8556 15.4011V9.62567C5.8556 7.50802 7.58822 5.7754 9.70587 5.7754H10.5187H18.5401H19.3315C20.7647 5.7754 22.0053 6.54545 22.6684 7.70053H23.1818H25.1069H28.7647C27.8663 3.31551 23.9946 0 19.3315 0H9.70587C4.37967 0 0.0802002 4.29947 0.0802002 9.62567V15.4011C0.0802002 20.7273 4.37967 25.0267 9.70587 25.0267H19.3315C24.6577 25.0267 28.9572 20.7273 28.9572 15.4011V11.5508V9.62567H27.0321H23.1818Z" fill="black" fill-opacity="0.2"/>
<path d="M23.1818 9.62567H21.2567H19.3315H17.4064V12.0642V12.9626V15.4011H19.3315H23.1818C23.1818 17.5187 21.4492 19.2513 19.3315 19.2513H18.5187H10.5187H9.70587C7.58822 19.2513 5.8556 17.5187 5.8556 15.4011V9.62567C5.8556 7.50802 7.58822 5.7754 9.70587 5.7754H10.5187H18.5401H19.3315C20.7647 5.7754 22.0053 6.54545 22.6684 7.70053H23.1818H25.1069H28.7647C27.8663 3.31551 23.9946 0 19.3315 0H9.70587C4.37967 0 0.0802002 4.29947 0.0802002 9.62567V15.4011C0.0802002 20.7273 4.37967 25.0267 9.70587 25.0267H19.3315C24.6577 25.0267 28.9572 20.7273 28.9572 15.4011V11.5508V9.62567H27.0321H23.1818Z" fill="black" fill-opacity="0.2"/>
<path d="M23.1818 9.62567H21.2567H19.3315H17.4064V12.0642V12.9626V15.4011H19.3315H23.1818C23.1818 17.5187 21.4492 19.2513 19.3315 19.2513H18.5187H10.5187H9.70587C7.58822 19.2513 5.8556 17.5187 5.8556 15.4011V9.62567C5.8556 7.50802 7.58822 5.7754 9.70587 5.7754H10.5187H18.5401H19.3315C20.7647 5.7754 22.0053 6.54545 22.6684 7.70053H23.1818H25.1069H28.7647C27.8663 3.31551 23.9946 0 19.3315 0H9.70587C4.37967 0 0.0802002 4.29947 0.0802002 9.62567V15.4011C0.0802002 20.7273 4.37967 25.0267 9.70587 25.0267H19.3315C24.6577 25.0267 28.9572 20.7273 28.9572 15.4011V11.5508V9.62567H27.0321H23.1818Z" fill="black" fill-opacity="0.2"/>
<path d="M90.6256 9.86096V17.3262C90.6256 18.3957 89.77 19.2513 88.7005 19.2513C87.9518 19.2513 87.2887 18.8235 86.9893 18.2032C86.9893 18.1818 86.9679 18.1818 86.9679 18.1604L83.6951 11.4652L80.3155 4.53476C80.3155 4.51337 80.2941 4.51337 80.2941 4.49198L80.1657 4.2139C78.9037 1.71123 76.2941 0 73.2994 0C72.6363 0 71.9946 0.0855615 71.3743 0.235294C68.0588 1.09091 65.5989 4.10695 65.5989 7.70053V25.0267H71.3743V15.1658V7.70053C71.3743 6.63102 72.2299 5.7754 73.2994 5.7754C74.0695 5.7754 74.7326 6.2246 75.032 6.8877L78.2834 13.5615L81.663 20.492C81.663 20.5134 81.6844 20.5134 81.6844 20.5134L81.8342 20.8128C81.8342 20.8342 81.8556 20.8342 81.8556 20.8556C83.139 23.3155 85.7272 25.0053 88.7005 25.0053C89.3636 25.0053 90.0053 24.9198 90.6256 24.7701C93.9411 23.9144 96.401 20.8984 96.401 17.3048V0H90.6256V9.86096Z" fill="#1C1C1C"/>
<path d="M90.6256 9.86096V17.3262C90.6256 18.3957 89.77 19.2513 88.7005 19.2513C87.9518 19.2513 87.2887 18.8235 86.9893 18.2032C86.9893 18.1818 86.9679 18.1818 86.9679 18.1604L83.6951 11.4652L80.3155 4.53476C80.3155 4.51337 80.2941 4.51337 80.2941 4.49198L80.1657 4.2139C78.9037 1.71123 76.2941 0 73.2994 0C72.6363 0 71.9946 0.0855615 71.3743 0.235294C68.0588 1.09091 65.5989 4.10695 65.5989 7.70053V25.0267H71.3743V15.1658V7.70053C71.3743 6.63102 72.2299 5.7754 73.2994 5.7754C74.0695 5.7754 74.7326 6.2246 75.032 6.8877L78.2834 13.5615L81.663 20.492C81.663 20.5134 81.6844 20.5134 81.6844 20.5134L81.8342 20.8128C81.8342 20.8342 81.8556 20.8342 81.8556 20.8556C83.139 23.3155 85.7272 25.0053 88.7005 25.0053C89.3636 25.0053 90.0053 24.9198 90.6256 24.7701C93.9411 23.9144 96.401 20.8984 96.401 17.3048V0H90.6256V9.86096Z" fill="black" fill-opacity="0.2"/>
<path d="M90.6256 9.86096V17.3262C90.6256 18.3957 89.77 19.2513 88.7005 19.2513C87.9518 19.2513 87.2887 18.8235 86.9893 18.2032C86.9893 18.1818 86.9679 18.1818 86.9679 18.1604L83.6951 11.4652L80.3155 4.53476C80.3155 4.51337 80.2941 4.51337 80.2941 4.49198L80.1657 4.2139C78.9037 1.71123 76.2941 0 73.2994 0C72.6363 0 71.9946 0.0855615 71.3743 0.235294C68.0588 1.09091 65.5989 4.10695 65.5989 7.70053V25.0267H71.3743V15.1658V7.70053C71.3743 6.63102 72.2299 5.7754 73.2994 5.7754C74.0695 5.7754 74.7326 6.2246 75.032 6.8877L78.2834 13.5615L81.663 20.492C81.663 20.5134 81.6844 20.5134 81.6844 20.5134L81.8342 20.8128C81.8342 20.8342 81.8556 20.8342 81.8556 20.8556C83.139 23.3155 85.7272 25.0053 88.7005 25.0053C89.3636 25.0053 90.0053 24.9198 90.6256 24.7701C93.9411 23.9144 96.401 20.8984 96.401 17.3048V0H90.6256V9.86096Z" fill="black" fill-opacity="0.2"/>
<path d="M90.6256 9.86096V17.3262C90.6256 18.3957 89.77 19.2513 88.7005 19.2513C87.9518 19.2513 87.2887 18.8235 86.9893 18.2032C86.9893 18.1818 86.9679 18.1818 86.9679 18.1604L83.6951 11.4652L80.3155 4.53476C80.3155 4.51337 80.2941 4.51337 80.2941 4.49198L80.1657 4.2139C78.9037 1.71123 76.2941 0 73.2994 0C72.6363 0 71.9946 0.0855615 71.3743 0.235294C68.0588 1.09091 65.5989 4.10695 65.5989 7.70053V25.0267H71.3743V15.1658V7.70053C71.3743 6.63102 72.2299 5.7754 73.2994 5.7754C74.0695 5.7754 74.7326 6.2246 75.032 6.8877L78.2834 13.5615L81.663 20.492C81.663 20.5134 81.6844 20.5134 81.6844 20.5134L81.8342 20.8128C81.8342 20.8342 81.8556 20.8342 81.8556 20.8556C83.139 23.3155 85.7272 25.0053 88.7005 25.0053C89.3636 25.0053 90.0053 24.9198 90.6256 24.7701C93.9411 23.9144 96.401 20.8984 96.401 17.3048V0H90.6256V9.86096Z" fill="black" fill-opacity="0.2"/>
<path d="M90.6256 9.86096V17.3262C90.6256 18.3957 89.77 19.2513 88.7005 19.2513C87.9518 19.2513 87.2887 18.8235 86.9893 18.2032C86.9893 18.1818 86.9679 18.1818 86.9679 18.1604L83.6951 11.4652L80.3155 4.53476C80.3155 4.51337 80.2941 4.51337 80.2941 4.49198L80.1657 4.2139C78.9037 1.71123 76.2941 0 73.2994 0C72.6363 0 71.9946 0.0855615 71.3743 0.235294C68.0588 1.09091 65.5989 4.10695 65.5989 7.70053V25.0267H71.3743V15.1658V7.70053C71.3743 6.63102 72.2299 5.7754 73.2994 5.7754C74.0695 5.7754 74.7326 6.2246 75.032 6.8877L78.2834 13.5615L81.663 20.492C81.663 20.5134 81.6844 20.5134 81.6844 20.5134L81.8342 20.8128C81.8342 20.8342 81.8556 20.8342 81.8556 20.8556C83.139 23.3155 85.7272 25.0053 88.7005 25.0053C89.3636 25.0053 90.0053 24.9198 90.6256 24.7701C93.9411 23.9144 96.401 20.8984 96.401 17.3048V0H90.6256V9.86096Z" fill="black" fill-opacity="0.2"/>
<path d="M90.6256 9.86096V17.3262C90.6256 18.3957 89.77 19.2513 88.7005 19.2513C87.9518 19.2513 87.2887 18.8235 86.9893 18.2032C86.9893 18.1818 86.9679 18.1818 86.9679 18.1604L83.6951 11.4652L80.3155 4.53476C80.3155 4.51337 80.2941 4.51337 80.2941 4.49198L80.1657 4.2139C78.9037 1.71123 76.2941 0 73.2994 0C72.6363 0 71.9946 0.0855615 71.3743 0.235294C68.0588 1.09091 65.5989 4.10695 65.5989 7.70053V25.0267H71.3743V15.1658V7.70053C71.3743 6.63102 72.2299 5.7754 73.2994 5.7754C74.0695 5.7754 74.7326 6.2246 75.032 6.8877L78.2834 13.5615L81.663 20.492C81.663 20.5134 81.6844 20.5134 81.6844 20.5134L81.8342 20.8128C81.8342 20.8342 81.8556 20.8342 81.8556 20.8556C83.139 23.3155 85.7272 25.0053 88.7005 25.0053C89.3636 25.0053 90.0053 24.9198 90.6256 24.7701C93.9411 23.9144 96.401 20.8984 96.401 17.3048V0H90.6256V9.86096Z" fill="black" fill-opacity="0.2"/>
<path d="M90.6256 9.86096V17.3262C90.6256 18.3957 89.77 19.2513 88.7005 19.2513C87.9518 19.2513 87.2887 18.8235 86.9893 18.2032C86.9893 18.1818 86.9679 18.1818 86.9679 18.1604L83.6951 11.4652L80.3155 4.53476C80.3155 4.51337 80.2941 4.51337 80.2941 4.49198L80.1657 4.2139C78.9037 1.71123 76.2941 0 73.2994 0C72.6363 0 71.9946 0.0855615 71.3743 0.235294C68.0588 1.09091 65.5989 4.10695 65.5989 7.70053V25.0267H71.3743V15.1658V7.70053C71.3743 6.63102 72.2299 5.7754 73.2994 5.7754C74.0695 5.7754 74.7326 6.2246 75.032 6.8877L78.2834 13.5615L81.663 20.492C81.663 20.5134 81.6844 20.5134 81.6844 20.5134L81.8342 20.8128C81.8342 20.8342 81.8556 20.8342 81.8556 20.8556C83.139 23.3155 85.7272 25.0053 88.7005 25.0053C89.3636 25.0053 90.0053 24.9198 90.6256 24.7701C93.9411 23.9144 96.401 20.8984 96.401 17.3048V0H90.6256V9.86096Z" fill="black" fill-opacity="0.2"/>
<path d="M90.6256 9.86096V17.3262C90.6256 18.3957 89.77 19.2513 88.7005 19.2513C87.9518 19.2513 87.2887 18.8235 86.9893 18.2032C86.9893 18.1818 86.9679 18.1818 86.9679 18.1604L83.6951 11.4652L80.3155 4.53476C80.3155 4.51337 80.2941 4.51337 80.2941 4.49198L80.1657 4.2139C78.9037 1.71123 76.2941 0 73.2994 0C72.6363 0 71.9946 0.0855615 71.3743 0.235294C68.0588 1.09091 65.5989 4.10695 65.5989 7.70053V25.0267H71.3743V15.1658V7.70053C71.3743 6.63102 72.2299 5.7754 73.2994 5.7754C74.0695 5.7754 74.7326 6.2246 75.032 6.8877L78.2834 13.5615L81.663 20.492C81.663 20.5134 81.6844 20.5134 81.6844 20.5134L81.8342 20.8128C81.8342 20.8342 81.8556 20.8342 81.8556 20.8556C83.139 23.3155 85.7272 25.0053 88.7005 25.0053C89.3636 25.0053 90.0053 24.9198 90.6256 24.7701C93.9411 23.9144 96.401 20.8984 96.401 17.3048V0H90.6256V9.86096Z" fill="black" fill-opacity="0.2"/>
<path d="M90.6256 9.86096V17.3262C90.6256 18.3957 89.77 19.2513 88.7005 19.2513C87.9518 19.2513 87.2887 18.8235 86.9893 18.2032C86.9893 18.1818 86.9679 18.1818 86.9679 18.1604L83.6951 11.4652L80.3155 4.53476C80.3155 4.51337 80.2941 4.51337 80.2941 4.49198L80.1657 4.2139C78.9037 1.71123 76.2941 0 73.2994 0C72.6363 0 71.9946 0.0855615 71.3743 0.235294C68.0588 1.09091 65.5989 4.10695 65.5989 7.70053V25.0267H71.3743V15.1658V7.70053C71.3743 6.63102 72.2299 5.7754 73.2994 5.7754C74.0695 5.7754 74.7326 6.2246 75.032 6.8877L78.2834 13.5615L81.663 20.492C81.663 20.5134 81.6844 20.5134 81.6844 20.5134L81.8342 20.8128C81.8342 20.8342 81.8556 20.8342 81.8556 20.8556C83.139 23.3155 85.7272 25.0053 88.7005 25.0053C89.3636 25.0053 90.0053 24.9198 90.6256 24.7701C93.9411 23.9144 96.401 20.8984 96.401 17.3048V0H90.6256V9.86096Z" fill="black" fill-opacity="0.2"/>
<path d="M90.6256 9.86096V17.3262C90.6256 18.3957 89.77 19.2513 88.7005 19.2513C87.9518 19.2513 87.2887 18.8235 86.9893 18.2032C86.9893 18.1818 86.9679 18.1818 86.9679 18.1604L83.6951 11.4652L80.3155 4.53476C80.3155 4.51337 80.2941 4.51337 80.2941 4.49198L80.1657 4.2139C78.9037 1.71123 76.2941 0 73.2994 0C72.6363 0 71.9946 0.0855615 71.3743 0.235294C68.0588 1.09091 65.5989 4.10695 65.5989 7.70053V25.0267H71.3743V15.1658V7.70053C71.3743 6.63102 72.2299 5.7754 73.2994 5.7754C74.0695 5.7754 74.7326 6.2246 75.032 6.8877L78.2834 13.5615L81.663 20.492C81.663 20.5134 81.6844 20.5134 81.6844 20.5134L81.8342 20.8128C81.8342 20.8342 81.8556 20.8342 81.8556 20.8556C83.139 23.3155 85.7272 25.0053 88.7005 25.0053C89.3636 25.0053 90.0053 24.9198 90.6256 24.7701C93.9411 23.9144 96.401 20.8984 96.401 17.3048V0H90.6256V9.86096Z" fill="black" fill-opacity="0.2"/>
<path d="M90.6256 9.86096V17.3262C90.6256 18.3957 89.77 19.2513 88.7005 19.2513C87.9518 19.2513 87.2887 18.8235 86.9893 18.2032C86.9893 18.1818 86.9679 18.1818 86.9679 18.1604L83.6951 11.4652L80.3155 4.53476C80.3155 4.51337 80.2941 4.51337 80.2941 4.49198L80.1657 4.2139C78.9037 1.71123 76.2941 0 73.2994 0C72.6363 0 71.9946 0.0855615 71.3743 0.235294C68.0588 1.09091 65.5989 4.10695 65.5989 7.70053V25.0267H71.3743V15.1658V7.70053C71.3743 6.63102 72.2299 5.7754 73.2994 5.7754C74.0695 5.7754 74.7326 6.2246 75.032 6.8877L78.2834 13.5615L81.663 20.492C81.663 20.5134 81.6844 20.5134 81.6844 20.5134L81.8342 20.8128C81.8342 20.8342 81.8556 20.8342 81.8556 20.8556C83.139 23.3155 85.7272 25.0053 88.7005 25.0053C89.3636 25.0053 90.0053 24.9198 90.6256 24.7701C93.9411 23.9144 96.401 20.8984 96.401 17.3048V0H90.6256V9.86096Z" fill="black" fill-opacity="0.2"/>
<path d="M90.6256 9.86096V17.3262C90.6256 18.3957 89.77 19.2513 88.7005 19.2513C87.9518 19.2513 87.2887 18.8235 86.9893 18.2032C86.9893 18.1818 86.9679 18.1818 86.9679 18.1604L83.6951 11.4652L80.3155 4.53476C80.3155 4.51337 80.2941 4.51337 80.2941 4.49198L80.1657 4.2139C78.9037 1.71123 76.2941 0 73.2994 0C72.6363 0 71.9946 0.0855615 71.3743 0.235294C68.0588 1.09091 65.5989 4.10695 65.5989 7.70053V25.0267H71.3743V15.1658V7.70053C71.3743 6.63102 72.2299 5.7754 73.2994 5.7754C74.0695 5.7754 74.7326 6.2246 75.032 6.8877L78.2834 13.5615L81.663 20.492C81.663 20.5134 81.6844 20.5134 81.6844 20.5134L81.8342 20.8128C81.8342 20.8342 81.8556 20.8342 81.8556 20.8556C83.139 23.3155 85.7272 25.0053 88.7005 25.0053C89.3636 25.0053 90.0053 24.9198 90.6256 24.7701C93.9411 23.9144 96.401 20.8984 96.401 17.3048V0H90.6256V9.86096Z" fill="black" fill-opacity="0.2"/>
<path d="M90.6256 9.86096V17.3262C90.6256 18.3957 89.77 19.2513 88.7005 19.2513C87.9518 19.2513 87.2887 18.8235 86.9893 18.2032C86.9893 18.1818 86.9679 18.1818 86.9679 18.1604L83.6951 11.4652L80.3155 4.53476C80.3155 4.51337 80.2941 4.51337 80.2941 4.49198L80.1657 4.2139C78.9037 1.71123 76.2941 0 73.2994 0C72.6363 0 71.9946 0.0855615 71.3743 0.235294C68.0588 1.09091 65.5989 4.10695 65.5989 7.70053V25.0267H71.3743V15.1658V7.70053C71.3743 6.63102 72.2299 5.7754 73.2994 5.7754C74.0695 5.7754 74.7326 6.2246 75.032 6.8877L78.2834 13.5615L81.663 20.492C81.663 20.5134 81.6844 20.5134 81.6844 20.5134L81.8342 20.8128C81.8342 20.8342 81.8556 20.8342 81.8556 20.8556C83.139 23.3155 85.7272 25.0053 88.7005 25.0053C89.3636 25.0053 90.0053 24.9198 90.6256 24.7701C93.9411 23.9144 96.401 20.8984 96.401 17.3048V0H90.6256V9.86096Z" fill="black" fill-opacity="0.2"/>
<path d="M54.0053 0C52.5294 0 51.1176 0.363636 49.8984 1.02674C49.877 1.02674 49.877 1.04813 49.8556 1.04813L49.4919 1.24064L49.4706 1.26203L41.6631 5.7754L37.6631 8.08556L36.6791 8.6631C36.6791 8.6631 36.6577 8.6631 36.6577 8.68449C33.8342 10.1176 31.9091 13.0267 31.9091 16.385C31.9091 21.1765 35.8449 25.0481 40.7005 25.0481H54.1764C58.9037 25.0481 62.7112 21.2192 62.7112 16.5134V8.6631C62.6684 3.87166 58.7968 0 54.0053 0ZM56.893 8.6631V16.3636V16.8342C56.8716 16.8342 56.8716 16.8556 56.8502 16.8556C56.6149 18.2246 55.4385 19.2513 54.0053 19.2513H48.9358H46.0481H40.6577C38.9893 19.2513 37.6417 17.9037 37.6417 16.2353C37.6417 15.1016 38.2834 14.0963 39.2246 13.5829L45.4706 10.139L46.2834 9.68984L52.8075 6.09626C52.8288 6.07487 52.8716 6.07487 52.893 6.05348C53.278 5.86096 53.6845 5.75401 54.1337 5.75401C55.5882 5.75401 56.7647 6.90909 56.893 8.38503C56.893 8.38503 56.893 8.38503 56.9144 8.38503V8.6631H56.893Z" fill="#1C1C1C"/>
<path d="M54.0053 0C52.5294 0 51.1176 0.363636 49.8984 1.02674C49.877 1.02674 49.877 1.04813 49.8556 1.04813L49.4919 1.24064L49.4706 1.26203L41.6631 5.7754L37.6631 8.08556L36.6791 8.6631C36.6791 8.6631 36.6577 8.6631 36.6577 8.68449C33.8342 10.1176 31.9091 13.0267 31.9091 16.385C31.9091 21.1765 35.8449 25.0481 40.7005 25.0481H54.1764C58.9037 25.0481 62.7112 21.2192 62.7112 16.5134V8.6631C62.6684 3.87166 58.7968 0 54.0053 0ZM56.893 8.6631V16.3636V16.8342C56.8716 16.8342 56.8716 16.8556 56.8502 16.8556C56.6149 18.2246 55.4385 19.2513 54.0053 19.2513H48.9358H46.0481H40.6577C38.9893 19.2513 37.6417 17.9037 37.6417 16.2353C37.6417 15.1016 38.2834 14.0963 39.2246 13.5829L45.4706 10.139L46.2834 9.68984L52.8075 6.09626C52.8288 6.07487 52.8716 6.07487 52.893 6.05348C53.278 5.86096 53.6845 5.75401 54.1337 5.75401C55.5882 5.75401 56.7647 6.90909 56.893 8.38503C56.893 8.38503 56.893 8.38503 56.9144 8.38503V8.6631H56.893Z" fill="black" fill-opacity="0.2"/>
<path d="M54.0053 0C52.5294 0 51.1176 0.363636 49.8984 1.02674C49.877 1.02674 49.877 1.04813 49.8556 1.04813L49.4919 1.24064L49.4706 1.26203L41.6631 5.7754L37.6631 8.08556L36.6791 8.6631C36.6791 8.6631 36.6577 8.6631 36.6577 8.68449C33.8342 10.1176 31.9091 13.0267 31.9091 16.385C31.9091 21.1765 35.8449 25.0481 40.7005 25.0481H54.1764C58.9037 25.0481 62.7112 21.2192 62.7112 16.5134V8.6631C62.6684 3.87166 58.7968 0 54.0053 0ZM56.893 8.6631V16.3636V16.8342C56.8716 16.8342 56.8716 16.8556 56.8502 16.8556C56.6149 18.2246 55.4385 19.2513 54.0053 19.2513H48.9358H46.0481H40.6577C38.9893 19.2513 37.6417 17.9037 37.6417 16.2353C37.6417 15.1016 38.2834 14.0963 39.2246 13.5829L45.4706 10.139L46.2834 9.68984L52.8075 6.09626C52.8288 6.07487 52.8716 6.07487 52.893 6.05348C53.278 5.86096 53.6845 5.75401 54.1337 5.75401C55.5882 5.75401 56.7647 6.90909 56.893 8.38503C56.893 8.38503 56.893 8.38503 56.9144 8.38503V8.6631H56.893Z" fill="black" fill-opacity="0.2"/>
<path d="M54.0053 0C52.5294 0 51.1176 0.363636 49.8984 1.02674C49.877 1.02674 49.877 1.04813 49.8556 1.04813L49.4919 1.24064L49.4706 1.26203L41.6631 5.7754L37.6631 8.08556L36.6791 8.6631C36.6791 8.6631 36.6577 8.6631 36.6577 8.68449C33.8342 10.1176 31.9091 13.0267 31.9091 16.385C31.9091 21.1765 35.8449 25.0481 40.7005 25.0481H54.1764C58.9037 25.0481 62.7112 21.2192 62.7112 16.5134V8.6631C62.6684 3.87166 58.7968 0 54.0053 0ZM56.893 8.6631V16.3636V16.8342C56.8716 16.8342 56.8716 16.8556 56.8502 16.8556C56.6149 18.2246 55.4385 19.2513 54.0053 19.2513H48.9358H46.0481H40.6577C38.9893 19.2513 37.6417 17.9037 37.6417 16.2353C37.6417 15.1016 38.2834 14.0963 39.2246 13.5829L45.4706 10.139L46.2834 9.68984L52.8075 6.09626C52.8288 6.07487 52.8716 6.07487 52.893 6.05348C53.278 5.86096 53.6845 5.75401 54.1337 5.75401C55.5882 5.75401 56.7647 6.90909 56.893 8.38503C56.893 8.38503 56.893 8.38503 56.9144 8.38503V8.6631H56.893Z" fill="black" fill-opacity="0.2"/>
<path d="M54.0053 0C52.5294 0 51.1176 0.363636 49.8984 1.02674C49.877 1.02674 49.877 1.04813 49.8556 1.04813L49.4919 1.24064L49.4706 1.26203L41.6631 5.7754L37.6631 8.08556L36.6791 8.6631C36.6791 8.6631 36.6577 8.6631 36.6577 8.68449C33.8342 10.1176 31.9091 13.0267 31.9091 16.385C31.9091 21.1765 35.8449 25.0481 40.7005 25.0481H54.1764C58.9037 25.0481 62.7112 21.2192 62.7112 16.5134V8.6631C62.6684 3.87166 58.7968 0 54.0053 0ZM56.893 8.6631V16.3636V16.8342C56.8716 16.8342 56.8716 16.8556 56.8502 16.8556C56.6149 18.2246 55.4385 19.2513 54.0053 19.2513H48.9358H46.0481H40.6577C38.9893 19.2513 37.6417 17.9037 37.6417 16.2353C37.6417 15.1016 38.2834 14.0963 39.2246 13.5829L45.4706 10.139L46.2834 9.68984L52.8075 6.09626C52.8288 6.07487 52.8716 6.07487 52.893 6.05348C53.278 5.86096 53.6845 5.75401 54.1337 5.75401C55.5882 5.75401 56.7647 6.90909 56.893 8.38503C56.893 8.38503 56.893 8.38503 56.9144 8.38503V8.6631H56.893Z" fill="black" fill-opacity="0.2"/>
<path d="M54.0053 0C52.5294 0 51.1176 0.363636 49.8984 1.02674C49.877 1.02674 49.877 1.04813 49.8556 1.04813L49.4919 1.24064L49.4706 1.26203L41.6631 5.7754L37.6631 8.08556L36.6791 8.6631C36.6791 8.6631 36.6577 8.6631 36.6577 8.68449C33.8342 10.1176 31.9091 13.0267 31.9091 16.385C31.9091 21.1765 35.8449 25.0481 40.7005 25.0481H54.1764C58.9037 25.0481 62.7112 21.2192 62.7112 16.5134V8.6631C62.6684 3.87166 58.7968 0 54.0053 0ZM56.893 8.6631V16.3636V16.8342C56.8716 16.8342 56.8716 16.8556 56.8502 16.8556C56.6149 18.2246 55.4385 19.2513 54.0053 19.2513H48.9358H46.0481H40.6577C38.9893 19.2513 37.6417 17.9037 37.6417 16.2353C37.6417 15.1016 38.2834 14.0963 39.2246 13.5829L45.4706 10.139L46.2834 9.68984L52.8075 6.09626C52.8288 6.07487 52.8716 6.07487 52.893 6.05348C53.278 5.86096 53.6845 5.75401 54.1337 5.75401C55.5882 5.75401 56.7647 6.90909 56.893 8.38503C56.893 8.38503 56.893 8.38503 56.9144 8.38503V8.6631H56.893Z" fill="black" fill-opacity="0.2"/>
<path d="M54.0053 0C52.5294 0 51.1176 0.363636 49.8984 1.02674C49.877 1.02674 49.877 1.04813 49.8556 1.04813L49.4919 1.24064L49.4706 1.26203L41.6631 5.7754L37.6631 8.08556L36.6791 8.6631C36.6791 8.6631 36.6577 8.6631 36.6577 8.68449C33.8342 10.1176 31.9091 13.0267 31.9091 16.385C31.9091 21.1765 35.8449 25.0481 40.7005 25.0481H54.1764C58.9037 25.0481 62.7112 21.2192 62.7112 16.5134V8.6631C62.6684 3.87166 58.7968 0 54.0053 0ZM56.893 8.6631V16.3636V16.8342C56.8716 16.8342 56.8716 16.8556 56.8502 16.8556C56.6149 18.2246 55.4385 19.2513 54.0053 19.2513H48.9358H46.0481H40.6577C38.9893 19.2513 37.6417 17.9037 37.6417 16.2353C37.6417 15.1016 38.2834 14.0963 39.2246 13.5829L45.4706 10.139L46.2834 9.68984L52.8075 6.09626C52.8288 6.07487 52.8716 6.07487 52.893 6.05348C53.278 5.86096 53.6845 5.75401 54.1337 5.75401C55.5882 5.75401 56.7647 6.90909 56.893 8.38503C56.893 8.38503 56.893 8.38503 56.9144 8.38503V8.6631H56.893Z" fill="black" fill-opacity="0.2"/>
<path d="M54.0053 0C52.5294 0 51.1176 0.363636 49.8984 1.02674C49.877 1.02674 49.877 1.04813 49.8556 1.04813L49.4919 1.24064L49.4706 1.26203L41.6631 5.7754L37.6631 8.08556L36.6791 8.6631C36.6791 8.6631 36.6577 8.6631 36.6577 8.68449C33.8342 10.1176 31.9091 13.0267 31.9091 16.385C31.9091 21.1765 35.8449 25.0481 40.7005 25.0481H54.1764C58.9037 25.0481 62.7112 21.2192 62.7112 16.5134V8.6631C62.6684 3.87166 58.7968 0 54.0053 0ZM56.893 8.6631V16.3636V16.8342C56.8716 16.8342 56.8716 16.8556 56.8502 16.8556C56.6149 18.2246 55.4385 19.2513 54.0053 19.2513H48.9358H46.0481H40.6577C38.9893 19.2513 37.6417 17.9037 37.6417 16.2353C37.6417 15.1016 38.2834 14.0963 39.2246 13.5829L45.4706 10.139L46.2834 9.68984L52.8075 6.09626C52.8288 6.07487 52.8716 6.07487 52.893 6.05348C53.278 5.86096 53.6845 5.75401 54.1337 5.75401C55.5882 5.75401 56.7647 6.90909 56.893 8.38503C56.893 8.38503 56.893 8.38503 56.9144 8.38503V8.6631H56.893Z" fill="black" fill-opacity="0.2"/>
<path d="M54.0053 0C52.5294 0 51.1176 0.363636 49.8984 1.02674C49.877 1.02674 49.877 1.04813 49.8556 1.04813L49.4919 1.24064L49.4706 1.26203L41.6631 5.7754L37.6631 8.08556L36.6791 8.6631C36.6791 8.6631 36.6577 8.6631 36.6577 8.68449C33.8342 10.1176 31.9091 13.0267 31.9091 16.385C31.9091 21.1765 35.8449 25.0481 40.7005 25.0481H54.1764C58.9037 25.0481 62.7112 21.2192 62.7112 16.5134V8.6631C62.6684 3.87166 58.7968 0 54.0053 0ZM56.893 8.6631V16.3636V16.8342C56.8716 16.8342 56.8716 16.8556 56.8502 16.8556C56.6149 18.2246 55.4385 19.2513 54.0053 19.2513H48.9358H46.0481H40.6577C38.9893 19.2513 37.6417 17.9037 37.6417 16.2353C37.6417 15.1016 38.2834 14.0963 39.2246 13.5829L45.4706 10.139L46.2834 9.68984L52.8075 6.09626C52.8288 6.07487 52.8716 6.07487 52.893 6.05348C53.278 5.86096 53.6845 5.75401 54.1337 5.75401C55.5882 5.75401 56.7647 6.90909 56.893 8.38503C56.893 8.38503 56.893 8.38503 56.9144 8.38503V8.6631H56.893Z" fill="black" fill-opacity="0.2"/>
<path d="M54.0053 0C52.5294 0 51.1176 0.363636 49.8984 1.02674C49.877 1.02674 49.877 1.04813 49.8556 1.04813L49.4919 1.24064L49.4706 1.26203L41.6631 5.7754L37.6631 8.08556L36.6791 8.6631C36.6791 8.6631 36.6577 8.6631 36.6577 8.68449C33.8342 10.1176 31.9091 13.0267 31.9091 16.385C31.9091 21.1765 35.8449 25.0481 40.7005 25.0481H54.1764C58.9037 25.0481 62.7112 21.2192 62.7112 16.5134V8.6631C62.6684 3.87166 58.7968 0 54.0053 0ZM56.893 8.6631V16.3636V16.8342C56.8716 16.8342 56.8716 16.8556 56.8502 16.8556C56.6149 18.2246 55.4385 19.2513 54.0053 19.2513H48.9358H46.0481H40.6577C38.9893 19.2513 37.6417 17.9037 37.6417 16.2353C37.6417 15.1016 38.2834 14.0963 39.2246 13.5829L45.4706 10.139L46.2834 9.68984L52.8075 6.09626C52.8288 6.07487 52.8716 6.07487 52.893 6.05348C53.278 5.86096 53.6845 5.75401 54.1337 5.75401C55.5882 5.75401 56.7647 6.90909 56.893 8.38503C56.893 8.38503 56.893 8.38503 56.9144 8.38503V8.6631H56.893Z" fill="black" fill-opacity="0.2"/>
<path d="M54.0053 0C52.5294 0 51.1176 0.363636 49.8984 1.02674C49.877 1.02674 49.877 1.04813 49.8556 1.04813L49.4919 1.24064L49.4706 1.26203L41.6631 5.7754L37.6631 8.08556L36.6791 8.6631C36.6791 8.6631 36.6577 8.6631 36.6577 8.68449C33.8342 10.1176 31.9091 13.0267 31.9091 16.385C31.9091 21.1765 35.8449 25.0481 40.7005 25.0481H54.1764C58.9037 25.0481 62.7112 21.2192 62.7112 16.5134V8.6631C62.6684 3.87166 58.7968 0 54.0053 0ZM56.893 8.6631V16.3636V16.8342C56.8716 16.8342 56.8716 16.8556 56.8502 16.8556C56.6149 18.2246 55.4385 19.2513 54.0053 19.2513H48.9358H46.0481H40.6577C38.9893 19.2513 37.6417 17.9037 37.6417 16.2353C37.6417 15.1016 38.2834 14.0963 39.2246 13.5829L45.4706 10.139L46.2834 9.68984L52.8075 6.09626C52.8288 6.07487 52.8716 6.07487 52.893 6.05348C53.278 5.86096 53.6845 5.75401 54.1337 5.75401C55.5882 5.75401 56.7647 6.90909 56.893 8.38503C56.893 8.38503 56.893 8.38503 56.9144 8.38503V8.6631H56.893Z" fill="black" fill-opacity="0.2"/>
<path d="M54.0053 0C52.5294 0 51.1176 0.363636 49.8984 1.02674C49.877 1.02674 49.877 1.04813 49.8556 1.04813L49.4919 1.24064L49.4706 1.26203L41.6631 5.7754L37.6631 8.08556L36.6791 8.6631C36.6791 8.6631 36.6577 8.6631 36.6577 8.68449C33.8342 10.1176 31.9091 13.0267 31.9091 16.385C31.9091 21.1765 35.8449 25.0481 40.7005 25.0481H54.1764C58.9037 25.0481 62.7112 21.2192 62.7112 16.5134V8.6631C62.6684 3.87166 58.7968 0 54.0053 0ZM56.893 8.6631V16.3636V16.8342C56.8716 16.8342 56.8716 16.8556 56.8502 16.8556C56.6149 18.2246 55.4385 19.2513 54.0053 19.2513H48.9358H46.0481H40.6577C38.9893 19.2513 37.6417 17.9037 37.6417 16.2353C37.6417 15.1016 38.2834 14.0963 39.2246 13.5829L45.4706 10.139L46.2834 9.68984L52.8075 6.09626C52.8288 6.07487 52.8716 6.07487 52.893 6.05348C53.278 5.86096 53.6845 5.75401 54.1337 5.75401C55.5882 5.75401 56.7647 6.90909 56.893 8.38503C56.893 8.38503 56.893 8.38503 56.9144 8.38503V8.6631H56.893Z" fill="black" fill-opacity="0.2"/>
<path d="M54.0053 0C52.5294 0 51.1176 0.363636 49.8984 1.02674C49.877 1.02674 49.877 1.04813 49.8556 1.04813L49.4919 1.24064L49.4706 1.26203L41.6631 5.7754L37.6631 8.08556L36.6791 8.6631C36.6791 8.6631 36.6577 8.6631 36.6577 8.68449C33.8342 10.1176 31.9091 13.0267 31.9091 16.385C31.9091 21.1765 35.8449 25.0481 40.7005 25.0481H54.1764C58.9037 25.0481 62.7112 21.2192 62.7112 16.5134V8.6631C62.6684 3.87166 58.7968 0 54.0053 0ZM56.893 8.6631V16.3636V16.8342C56.8716 16.8342 56.8716 16.8556 56.8502 16.8556C56.6149 18.2246 55.4385 19.2513 54.0053 19.2513H48.9358H46.0481H40.6577C38.9893 19.2513 37.6417 17.9037 37.6417 16.2353C37.6417 15.1016 38.2834 14.0963 39.2246 13.5829L45.4706 10.139L46.2834 9.68984L52.8075 6.09626C52.8288 6.07487 52.8716 6.07487 52.893 6.05348C53.278 5.86096 53.6845 5.75401 54.1337 5.75401C55.5882 5.75401 56.7647 6.90909 56.893 8.38503C56.893 8.38503 56.893 8.38503 56.9144 8.38503V8.6631H56.893Z" fill="black" fill-opacity="0.2"/>
<path d="M122.412 8.68449L128.187 0H122.412L121.321 1.34759L115.759 8.2139C115.053 9.06952 113.984 9.62567 112.786 9.62567H105.086V0H99.3101V9.62567V15.4011V25.0267H105.086V15.4011H112.786C113.984 15.4011 115.053 15.9572 115.759 16.8128L121.321 23.6791L122.412 25.0267H128.187L122.412 16.3422L120.957 14.1604C120.594 13.5615 120.144 13.0053 119.652 12.5134C120.144 12.0214 120.594 11.4652 120.957 10.8663L122.412 8.68449Z" fill="#1C1C1C"/>
<path d="M122.412 8.68449L128.187 0H122.412L121.321 1.34759L115.759 8.2139C115.053 9.06952 113.984 9.62567 112.786 9.62567H105.086V0H99.3101V9.62567V15.4011V25.0267H105.086V15.4011H112.786C113.984 15.4011 115.053 15.9572 115.759 16.8128L121.321 23.6791L122.412 25.0267H128.187L122.412 16.3422L120.957 14.1604C120.594 13.5615 120.144 13.0053 119.652 12.5134C120.144 12.0214 120.594 11.4652 120.957 10.8663L122.412 8.68449Z" fill="black" fill-opacity="0.2"/>
<path d="M122.412 8.68449L128.187 0H122.412L121.321 1.34759L115.759 8.2139C115.053 9.06952 113.984 9.62567 112.786 9.62567H105.086V0H99.3101V9.62567V15.4011V25.0267H105.086V15.4011H112.786C113.984 15.4011 115.053 15.9572 115.759 16.8128L121.321 23.6791L122.412 25.0267H128.187L122.412 16.3422L120.957 14.1604C120.594 13.5615 120.144 13.0053 119.652 12.5134C120.144 12.0214 120.594 11.4652 120.957 10.8663L122.412 8.68449Z" fill="black" fill-opacity="0.2"/>
<path d="M122.412 8.68449L128.187 0H122.412L121.321 1.34759L115.759 8.2139C115.053 9.06952 113.984 9.62567 112.786 9.62567H105.086V0H99.3101V9.62567V15.4011V25.0267H105.086V15.4011H112.786C113.984 15.4011 115.053 15.9572 115.759 16.8128L121.321 23.6791L122.412 25.0267H128.187L122.412 16.3422L120.957 14.1604C120.594 13.5615 120.144 13.0053 119.652 12.5134C120.144 12.0214 120.594 11.4652 120.957 10.8663L122.412 8.68449Z" fill="black" fill-opacity="0.2"/>
<path d="M122.412 8.68449L128.187 0H122.412L121.321 1.34759L115.759 8.2139C115.053 9.06952 113.984 9.62567 112.786 9.62567H105.086V0H99.3101V9.62567V15.4011V25.0267H105.086V15.4011H112.786C113.984 15.4011 115.053 15.9572 115.759 16.8128L121.321 23.6791L122.412 25.0267H128.187L122.412 16.3422L120.957 14.1604C120.594 13.5615 120.144 13.0053 119.652 12.5134C120.144 12.0214 120.594 11.4652 120.957 10.8663L122.412 8.68449Z" fill="black" fill-opacity="0.2"/>
<path d="M122.412 8.68449L128.187 0H122.412L121.321 1.34759L115.759 8.2139C115.053 9.06952 113.984 9.62567 112.786 9.62567H105.086V0H99.3101V9.62567V15.4011V25.0267H105.086V15.4011H112.786C113.984 15.4011 115.053 15.9572 115.759 16.8128L121.321 23.6791L122.412 25.0267H128.187L122.412 16.3422L120.957 14.1604C120.594 13.5615 120.144 13.0053 119.652 12.5134C120.144 12.0214 120.594 11.4652 120.957 10.8663L122.412 8.68449Z" fill="black" fill-opacity="0.2"/>
<path d="M122.412 8.68449L128.187 0H122.412L121.321 1.34759L115.759 8.2139C115.053 9.06952 113.984 9.62567 112.786 9.62567H105.086V0H99.3101V9.62567V15.4011V25.0267H105.086V15.4011H112.786C113.984 15.4011 115.053 15.9572 115.759 16.8128L121.321 23.6791L122.412 25.0267H128.187L122.412 16.3422L120.957 14.1604C120.594 13.5615 120.144 13.0053 119.652 12.5134C120.144 12.0214 120.594 11.4652 120.957 10.8663L122.412 8.68449Z" fill="black" fill-opacity="0.2"/>
<path d="M122.412 8.68449L128.187 0H122.412L121.321 1.34759L115.759 8.2139C115.053 9.06952 113.984 9.62567 112.786 9.62567H105.086V0H99.3101V9.62567V15.4011V25.0267H105.086V15.4011H112.786C113.984 15.4011 115.053 15.9572 115.759 16.8128L121.321 23.6791L122.412 25.0267H128.187L122.412 16.3422L120.957 14.1604C120.594 13.5615 120.144 13.0053 119.652 12.5134C120.144 12.0214 120.594 11.4652 120.957 10.8663L122.412 8.68449Z" fill="black" fill-opacity="0.2"/>
<path d="M122.412 8.68449L128.187 0H122.412L121.321 1.34759L115.759 8.2139C115.053 9.06952 113.984 9.62567 112.786 9.62567H105.086V0H99.3101V9.62567V15.4011V25.0267H105.086V15.4011H112.786C113.984 15.4011 115.053 15.9572 115.759 16.8128L121.321 23.6791L122.412 25.0267H128.187L122.412 16.3422L120.957 14.1604C120.594 13.5615 120.144 13.0053 119.652 12.5134C120.144 12.0214 120.594 11.4652 120.957 10.8663L122.412 8.68449Z" fill="black" fill-opacity="0.2"/>
<path d="M122.412 8.68449L128.187 0H122.412L121.321 1.34759L115.759 8.2139C115.053 9.06952 113.984 9.62567 112.786 9.62567H105.086V0H99.3101V9.62567V15.4011V25.0267H105.086V15.4011H112.786C113.984 15.4011 115.053 15.9572 115.759 16.8128L121.321 23.6791L122.412 25.0267H128.187L122.412 16.3422L120.957 14.1604C120.594 13.5615 120.144 13.0053 119.652 12.5134C120.144 12.0214 120.594 11.4652 120.957 10.8663L122.412 8.68449Z" fill="black" fill-opacity="0.2"/>
<path d="M122.412 8.68449L128.187 0H122.412L121.321 1.34759L115.759 8.2139C115.053 9.06952 113.984 9.62567 112.786 9.62567H105.086V0H99.3101V9.62567V15.4011V25.0267H105.086V15.4011H112.786C113.984 15.4011 115.053 15.9572 115.759 16.8128L121.321 23.6791L122.412 25.0267H128.187L122.412 16.3422L120.957 14.1604C120.594 13.5615 120.144 13.0053 119.652 12.5134C120.144 12.0214 120.594 11.4652 120.957 10.8663L122.412 8.68449Z" fill="black" fill-opacity="0.2"/>
<path d="M122.412 8.68449L128.187 0H122.412L121.321 1.34759L115.759 8.2139C115.053 9.06952 113.984 9.62567 112.786 9.62567H105.086V0H99.3101V9.62567V15.4011V25.0267H105.086V15.4011H112.786C113.984 15.4011 115.053 15.9572 115.759 16.8128L121.321 23.6791L122.412 25.0267H128.187L122.412 16.3422L120.957 14.1604C120.594 13.5615 120.144 13.0053 119.652 12.5134C120.144 12.0214 120.594 11.4652 120.957 10.8663L122.412 8.68449Z" fill="black" fill-opacity="0.2"/>
<path d="M122.412 8.68449L128.187 0H122.412L121.321 1.34759L115.759 8.2139C115.053 9.06952 113.984 9.62567 112.786 9.62567H105.086V0H99.3101V9.62567V15.4011V25.0267H105.086V15.4011H112.786C113.984 15.4011 115.053 15.9572 115.759 16.8128L121.321 23.6791L122.412 25.0267H128.187L122.412 16.3422L120.957 14.1604C120.594 13.5615 120.144 13.0053 119.652 12.5134C120.144 12.0214 120.594 11.4652 120.957 10.8663L122.412 8.68449Z" fill="black" fill-opacity="0.2"/>
<path d="M153.963 6.31016C153.299 2.71658 150.155 0 146.39 0H142.54C138.775 0 135.631 2.71658 134.968 6.31016C134.968 6.33155 134.968 6.33155 134.968 6.33155L130.989 25.0267H136.765L138.027 19.2513H150.882L152.144 25.0267H157.92L153.941 6.33155C153.963 6.33155 153.963 6.31016 153.963 6.31016ZM147.631 13.4759H141.299H139.31L139.738 11.5508L140.658 7.35829C140.829 6.45989 141.599 5.7754 142.561 5.7754H146.412C147.353 5.7754 148.144 6.45989 148.315 7.35829L149.235 11.5508L149.663 13.4759H147.631Z" fill="#1C1C1C"/>
<path d="M153.963 6.31016C153.299 2.71658 150.155 0 146.39 0H142.54C138.775 0 135.631 2.71658 134.968 6.31016C134.968 6.33155 134.968 6.33155 134.968 6.33155L130.989 25.0267H136.765L138.027 19.2513H150.882L152.144 25.0267H157.92L153.941 6.33155C153.963 6.33155 153.963 6.31016 153.963 6.31016ZM147.631 13.4759H141.299H139.31L139.738 11.5508L140.658 7.35829C140.829 6.45989 141.599 5.7754 142.561 5.7754H146.412C147.353 5.7754 148.144 6.45989 148.315 7.35829L149.235 11.5508L149.663 13.4759H147.631Z" fill="black" fill-opacity="0.2"/>
<path d="M153.963 6.31016C153.299 2.71658 150.155 0 146.39 0H142.54C138.775 0 135.631 2.71658 134.968 6.31016C134.968 6.33155 134.968 6.33155 134.968 6.33155L130.989 25.0267H136.765L138.027 19.2513H150.882L152.144 25.0267H157.92L153.941 6.33155C153.963 6.33155 153.963 6.31016 153.963 6.31016ZM147.631 13.4759H141.299H139.31L139.738 11.5508L140.658 7.35829C140.829 6.45989 141.599 5.7754 142.561 5.7754H146.412C147.353 5.7754 148.144 6.45989 148.315 7.35829L149.235 11.5508L149.663 13.4759H147.631Z" fill="black" fill-opacity="0.2"/>
<path d="M153.963 6.31016C153.299 2.71658 150.155 0 146.39 0H142.54C138.775 0 135.631 2.71658 134.968 6.31016C134.968 6.33155 134.968 6.33155 134.968 6.33155L130.989 25.0267H136.765L138.027 19.2513H150.882L152.144 25.0267H157.92L153.941 6.33155C153.963 6.33155 153.963 6.31016 153.963 6.31016ZM147.631 13.4759H141.299H139.31L139.738 11.5508L140.658 7.35829C140.829 6.45989 141.599 5.7754 142.561 5.7754H146.412C147.353 5.7754 148.144 6.45989 148.315 7.35829L149.235 11.5508L149.663 13.4759H147.631Z" fill="black" fill-opacity="0.2"/>
<path d="M153.963 6.31016C153.299 2.71658 150.155 0 146.39 0H142.54C138.775 0 135.631 2.71658 134.968 6.31016C134.968 6.33155 134.968 6.33155 134.968 6.33155L130.989 25.0267H136.765L138.027 19.2513H150.882L152.144 25.0267H157.92L153.941 6.33155C153.963 6.33155 153.963 6.31016 153.963 6.31016ZM147.631 13.4759H141.299H139.31L139.738 11.5508L140.658 7.35829C140.829 6.45989 141.599 5.7754 142.561 5.7754H146.412C147.353 5.7754 148.144 6.45989 148.315 7.35829L149.235 11.5508L149.663 13.4759H147.631Z" fill="black" fill-opacity="0.2"/>
<path d="M153.963 6.31016C153.299 2.71658 150.155 0 146.39 0H142.54C138.775 0 135.631 2.71658 134.968 6.31016C134.968 6.33155 134.968 6.33155 134.968 6.33155L130.989 25.0267H136.765L138.027 19.2513H150.882L152.144 25.0267H157.92L153.941 6.33155C153.963 6.33155 153.963 6.31016 153.963 6.31016ZM147.631 13.4759H141.299H139.31L139.738 11.5508L140.658 7.35829C140.829 6.45989 141.599 5.7754 142.561 5.7754H146.412C147.353 5.7754 148.144 6.45989 148.315 7.35829L149.235 11.5508L149.663 13.4759H147.631Z" fill="black" fill-opacity="0.2"/>
<path d="M153.963 6.31016C153.299 2.71658 150.155 0 146.39 0H142.54C138.775 0 135.631 2.71658 134.968 6.31016C134.968 6.33155 134.968 6.33155 134.968 6.33155L130.989 25.0267H136.765L138.027 19.2513H150.882L152.144 25.0267H157.92L153.941 6.33155C153.963 6.33155 153.963 6.31016 153.963 6.31016ZM147.631 13.4759H141.299H139.31L139.738 11.5508L140.658 7.35829C140.829 6.45989 141.599 5.7754 142.561 5.7754H146.412C147.353 5.7754 148.144 6.45989 148.315 7.35829L149.235 11.5508L149.663 13.4759H147.631Z" fill="black" fill-opacity="0.2"/>
<path d="M153.963 6.31016C153.299 2.71658 150.155 0 146.39 0H142.54C138.775 0 135.631 2.71658 134.968 6.31016C134.968 6.33155 134.968 6.33155 134.968 6.33155L130.989 25.0267H136.765L138.027 19.2513H150.882L152.144 25.0267H157.92L153.941 6.33155C153.963 6.33155 153.963 6.31016 153.963 6.31016ZM147.631 13.4759H141.299H139.31L139.738 11.5508L140.658 7.35829C140.829 6.45989 141.599 5.7754 142.561 5.7754H146.412C147.353 5.7754 148.144 6.45989 148.315 7.35829L149.235 11.5508L149.663 13.4759H147.631Z" fill="black" fill-opacity="0.2"/>
<path d="M153.963 6.31016C153.299 2.71658 150.155 0 146.39 0H142.54C138.775 0 135.631 2.71658 134.968 6.31016C134.968 6.33155 134.968 6.33155 134.968 6.33155L130.989 25.0267H136.765L138.027 19.2513H150.882L152.144 25.0267H157.92L153.941 6.33155C153.963 6.33155 153.963 6.31016 153.963 6.31016ZM147.631 13.4759H141.299H139.31L139.738 11.5508L140.658 7.35829C140.829 6.45989 141.599 5.7754 142.561 5.7754H146.412C147.353 5.7754 148.144 6.45989 148.315 7.35829L149.235 11.5508L149.663 13.4759H147.631Z" fill="black" fill-opacity="0.2"/>
<path d="M153.963 6.31016C153.299 2.71658 150.155 0 146.39 0H142.54C138.775 0 135.631 2.71658 134.968 6.31016C134.968 6.33155 134.968 6.33155 134.968 6.33155L130.989 25.0267H136.765L138.027 19.2513H150.882L152.144 25.0267H157.92L153.941 6.33155C153.963 6.33155 153.963 6.31016 153.963 6.31016ZM147.631 13.4759H141.299H139.31L139.738 11.5508L140.658 7.35829C140.829 6.45989 141.599 5.7754 142.561 5.7754H146.412C147.353 5.7754 148.144 6.45989 148.315 7.35829L149.235 11.5508L149.663 13.4759H147.631Z" fill="black" fill-opacity="0.2"/>
<path d="M153.963 6.31016C153.299 2.71658 150.155 0 146.39 0H142.54C138.775 0 135.631 2.71658 134.968 6.31016C134.968 6.33155 134.968 6.33155 134.968 6.33155L130.989 25.0267H136.765L138.027 19.2513H150.882L152.144 25.0267H157.92L153.941 6.33155C153.963 6.33155 153.963 6.31016 153.963 6.31016ZM147.631 13.4759H141.299H139.31L139.738 11.5508L140.658 7.35829C140.829 6.45989 141.599 5.7754 142.561 5.7754H146.412C147.353 5.7754 148.144 6.45989 148.315 7.35829L149.235 11.5508L149.663 13.4759H147.631Z" fill="black" fill-opacity="0.2"/>
<path d="M153.963 6.31016C153.299 2.71658 150.155 0 146.39 0H142.54C138.775 0 135.631 2.71658 134.968 6.31016C134.968 6.33155 134.968 6.33155 134.968 6.33155L130.989 25.0267H136.765L138.027 19.2513H150.882L152.144 25.0267H157.92L153.941 6.33155C153.963 6.33155 153.963 6.31016 153.963 6.31016ZM147.631 13.4759H141.299H139.31L139.738 11.5508L140.658 7.35829C140.829 6.45989 141.599 5.7754 142.561 5.7754H146.412C147.353 5.7754 148.144 6.45989 148.315 7.35829L149.235 11.5508L149.663 13.4759H147.631Z" fill="black" fill-opacity="0.2"/>
<path d="M153.963 6.31016C153.299 2.71658 150.155 0 146.39 0H142.54C138.775 0 135.631 2.71658 134.968 6.31016C134.968 6.33155 134.968 6.33155 134.968 6.33155L130.989 25.0267H136.765L138.027 19.2513H150.882L152.144 25.0267H157.92L153.941 6.33155C153.963 6.33155 153.963 6.31016 153.963 6.31016ZM147.631 13.4759H141.299H139.31L139.738 11.5508L140.658 7.35829C140.829 6.45989 141.599 5.7754 142.561 5.7754H146.412C147.353 5.7754 148.144 6.45989 148.315 7.35829L149.235 11.5508L149.663 13.4759H147.631Z" fill="black" fill-opacity="0.2"/>
<path d="M103.341 34.2032L102.72 32.3423C102.528 31.5936 102.014 30.9947 101.33 30.6524C100.988 30.4813 100.624 30.3957 100.218 30.3957H95.0625C94.9342 30.3957 94.8058 30.3957 94.6989 30.4171C93.5652 30.5882 92.6668 31.4653 92.5171 32.5989C92.4957 32.7273 92.4957 32.8342 92.4957 32.9626V35.5722V37.7754V39.9786H94.6989V37.7754H100.966C102.271 37.7754 103.341 36.8128 103.512 35.5722C103.533 35.4439 103.533 35.3369 103.533 35.2086C103.554 34.8449 103.469 34.5027 103.341 34.2032ZM101.308 35.3369C101.266 35.4866 101.116 35.5722 100.966 35.5722H100.239H98.4208H95.0839H94.7203V35.5508V33.0054C94.7203 32.7915 94.8914 32.6417 95.0839 32.6417H97.608H97.6507H100.196C100.26 32.6417 100.346 32.6631 100.389 32.7059C100.453 32.7487 100.517 32.8128 100.538 32.8984C100.538 32.8984 100.538 32.8984 100.538 32.9198L101.266 35.1016C101.266 35.123 101.266 35.123 101.287 35.1444C101.287 35.1658 101.308 35.2086 101.308 35.23C101.33 35.2513 101.33 35.2941 101.308 35.3369Z" fill="#1C1C1C"/>
<path d="M103.341 34.2032L102.72 32.3423C102.528 31.5936 102.014 30.9947 101.33 30.6524C100.988 30.4813 100.624 30.3957 100.218 30.3957H95.0625C94.9342 30.3957 94.8058 30.3957 94.6989 30.4171C93.5652 30.5882 92.6668 31.4653 92.5171 32.5989C92.4957 32.7273 92.4957 32.8342 92.4957 32.9626V35.5722V37.7754V39.9786H94.6989V37.7754H100.966C102.271 37.7754 103.341 36.8128 103.512 35.5722C103.533 35.4439 103.533 35.3369 103.533 35.2086C103.554 34.8449 103.469 34.5027 103.341 34.2032ZM101.308 35.3369C101.266 35.4866 101.116 35.5722 100.966 35.5722H100.239H98.4208H95.0839H94.7203V35.5508V33.0054C94.7203 32.7915 94.8914 32.6417 95.0839 32.6417H97.608H97.6507H100.196C100.26 32.6417 100.346 32.6631 100.389 32.7059C100.453 32.7487 100.517 32.8128 100.538 32.8984C100.538 32.8984 100.538 32.8984 100.538 32.9198L101.266 35.1016C101.266 35.123 101.266 35.123 101.287 35.1444C101.287 35.1658 101.308 35.2086 101.308 35.23C101.33 35.2513 101.33 35.2941 101.308 35.3369Z" fill="black" fill-opacity="0.2"/>
<path d="M103.341 34.2032L102.72 32.3423C102.528 31.5936 102.014 30.9947 101.33 30.6524C100.988 30.4813 100.624 30.3957 100.218 30.3957H95.0625C94.9342 30.3957 94.8058 30.3957 94.6989 30.4171C93.5652 30.5882 92.6668 31.4653 92.5171 32.5989C92.4957 32.7273 92.4957 32.8342 92.4957 32.9626V35.5722V37.7754V39.9786H94.6989V37.7754H100.966C102.271 37.7754 103.341 36.8128 103.512 35.5722C103.533 35.4439 103.533 35.3369 103.533 35.2086C103.554 34.8449 103.469 34.5027 103.341 34.2032ZM101.308 35.3369C101.266 35.4866 101.116 35.5722 100.966 35.5722H100.239H98.4208H95.0839H94.7203V35.5508V33.0054C94.7203 32.7915 94.8914 32.6417 95.0839 32.6417H97.608H97.6507H100.196C100.26 32.6417 100.346 32.6631 100.389 32.7059C100.453 32.7487 100.517 32.8128 100.538 32.8984C100.538 32.8984 100.538 32.8984 100.538 32.9198L101.266 35.1016C101.266 35.123 101.266 35.123 101.287 35.1444C101.287 35.1658 101.308 35.2086 101.308 35.23C101.33 35.2513 101.33 35.2941 101.308 35.3369Z" fill="black" fill-opacity="0.2"/>
<path d="M103.341 34.2032L102.72 32.3423C102.528 31.5936 102.014 30.9947 101.33 30.6524C100.988 30.4813 100.624 30.3957 100.218 30.3957H95.0625C94.9342 30.3957 94.8058 30.3957 94.6989 30.4171C93.5652 30.5882 92.6668 31.4653 92.5171 32.5989C92.4957 32.7273 92.4957 32.8342 92.4957 32.9626V35.5722V37.7754V39.9786H94.6989V37.7754H100.966C102.271 37.7754 103.341 36.8128 103.512 35.5722C103.533 35.4439 103.533 35.3369 103.533 35.2086C103.554 34.8449 103.469 34.5027 103.341 34.2032ZM101.308 35.3369C101.266 35.4866 101.116 35.5722 100.966 35.5722H100.239H98.4208H95.0839H94.7203V35.5508V33.0054C94.7203 32.7915 94.8914 32.6417 95.0839 32.6417H97.608H97.6507H100.196C100.26 32.6417 100.346 32.6631 100.389 32.7059C100.453 32.7487 100.517 32.8128 100.538 32.8984C100.538 32.8984 100.538 32.8984 100.538 32.9198L101.266 35.1016C101.266 35.123 101.266 35.123 101.287 35.1444C101.287 35.1658 101.308 35.2086 101.308 35.23C101.33 35.2513 101.33 35.2941 101.308 35.3369Z" fill="black" fill-opacity="0.2"/>
<path d="M103.341 34.2032L102.72 32.3423C102.528 31.5936 102.014 30.9947 101.33 30.6524C100.988 30.4813 100.624 30.3957 100.218 30.3957H95.0625C94.9342 30.3957 94.8058 30.3957 94.6989 30.4171C93.5652 30.5882 92.6668 31.4653 92.5171 32.5989C92.4957 32.7273 92.4957 32.8342 92.4957 32.9626V35.5722V37.7754V39.9786H94.6989V37.7754H100.966C102.271 37.7754 103.341 36.8128 103.512 35.5722C103.533 35.4439 103.533 35.3369 103.533 35.2086C103.554 34.8449 103.469 34.5027 103.341 34.2032ZM101.308 35.3369C101.266 35.4866 101.116 35.5722 100.966 35.5722H100.239H98.4208H95.0839H94.7203V35.5508V33.0054C94.7203 32.7915 94.8914 32.6417 95.0839 32.6417H97.608H97.6507H100.196C100.26 32.6417 100.346 32.6631 100.389 32.7059C100.453 32.7487 100.517 32.8128 100.538 32.8984C100.538 32.8984 100.538 32.8984 100.538 32.9198L101.266 35.1016C101.266 35.123 101.266 35.123 101.287 35.1444C101.287 35.1658 101.308 35.2086 101.308 35.23C101.33 35.2513 101.33 35.2941 101.308 35.3369Z" fill="black" fill-opacity="0.2"/>
<path d="M103.341 34.2032L102.72 32.3423C102.528 31.5936 102.014 30.9947 101.33 30.6524C100.988 30.4813 100.624 30.3957 100.218 30.3957H95.0625C94.9342 30.3957 94.8058 30.3957 94.6989 30.4171C93.5652 30.5882 92.6668 31.4653 92.5171 32.5989C92.4957 32.7273 92.4957 32.8342 92.4957 32.9626V35.5722V37.7754V39.9786H94.6989V37.7754H100.966C102.271 37.7754 103.341 36.8128 103.512 35.5722C103.533 35.4439 103.533 35.3369 103.533 35.2086C103.554 34.8449 103.469 34.5027 103.341 34.2032ZM101.308 35.3369C101.266 35.4866 101.116 35.5722 100.966 35.5722H100.239H98.4208H95.0839H94.7203V35.5508V33.0054C94.7203 32.7915 94.8914 32.6417 95.0839 32.6417H97.608H97.6507H100.196C100.26 32.6417 100.346 32.6631 100.389 32.7059C100.453 32.7487 100.517 32.8128 100.538 32.8984C100.538 32.8984 100.538 32.8984 100.538 32.9198L101.266 35.1016C101.266 35.123 101.266 35.123 101.287 35.1444C101.287 35.1658 101.308 35.2086 101.308 35.23C101.33 35.2513 101.33 35.2941 101.308 35.3369Z" fill="black" fill-opacity="0.2"/>
<path d="M103.341 34.2032L102.72 32.3423C102.528 31.5936 102.014 30.9947 101.33 30.6524C100.988 30.4813 100.624 30.3957 100.218 30.3957H95.0625C94.9342 30.3957 94.8058 30.3957 94.6989 30.4171C93.5652 30.5882 92.6668 31.4653 92.5171 32.5989C92.4957 32.7273 92.4957 32.8342 92.4957 32.9626V35.5722V37.7754V39.9786H94.6989V37.7754H100.966C102.271 37.7754 103.341 36.8128 103.512 35.5722C103.533 35.4439 103.533 35.3369 103.533 35.2086C103.554 34.8449 103.469 34.5027 103.341 34.2032ZM101.308 35.3369C101.266 35.4866 101.116 35.5722 100.966 35.5722H100.239H98.4208H95.0839H94.7203V35.5508V33.0054C94.7203 32.7915 94.8914 32.6417 95.0839 32.6417H97.608H97.6507H100.196C100.26 32.6417 100.346 32.6631 100.389 32.7059C100.453 32.7487 100.517 32.8128 100.538 32.8984C100.538 32.8984 100.538 32.8984 100.538 32.9198L101.266 35.1016C101.266 35.123 101.266 35.123 101.287 35.1444C101.287 35.1658 101.308 35.2086 101.308 35.23C101.33 35.2513 101.33 35.2941 101.308 35.3369Z" fill="black" fill-opacity="0.2"/>
<path d="M103.341 34.2032L102.72 32.3423C102.528 31.5936 102.014 30.9947 101.33 30.6524C100.988 30.4813 100.624 30.3957 100.218 30.3957H95.0625C94.9342 30.3957 94.8058 30.3957 94.6989 30.4171C93.5652 30.5882 92.6668 31.4653 92.5171 32.5989C92.4957 32.7273 92.4957 32.8342 92.4957 32.9626V35.5722V37.7754V39.9786H94.6989V37.7754H100.966C102.271 37.7754 103.341 36.8128 103.512 35.5722C103.533 35.4439 103.533 35.3369 103.533 35.2086C103.554 34.8449 103.469 34.5027 103.341 34.2032ZM101.308 35.3369C101.266 35.4866 101.116 35.5722 100.966 35.5722H100.239H98.4208H95.0839H94.7203V35.5508V33.0054C94.7203 32.7915 94.8914 32.6417 95.0839 32.6417H97.608H97.6507H100.196C100.26 32.6417 100.346 32.6631 100.389 32.7059C100.453 32.7487 100.517 32.8128 100.538 32.8984C100.538 32.8984 100.538 32.8984 100.538 32.9198L101.266 35.1016C101.266 35.123 101.266 35.123 101.287 35.1444C101.287 35.1658 101.308 35.2086 101.308 35.23C101.33 35.2513 101.33 35.2941 101.308 35.3369Z" fill="black" fill-opacity="0.2"/>
<path d="M103.341 34.2032L102.72 32.3423C102.528 31.5936 102.014 30.9947 101.33 30.6524C100.988 30.4813 100.624 30.3957 100.218 30.3957H95.0625C94.9342 30.3957 94.8058 30.3957 94.6989 30.4171C93.5652 30.5882 92.6668 31.4653 92.5171 32.5989C92.4957 32.7273 92.4957 32.8342 92.4957 32.9626V35.5722V37.7754V39.9786H94.6989V37.7754H100.966C102.271 37.7754 103.341 36.8128 103.512 35.5722C103.533 35.4439 103.533 35.3369 103.533 35.2086C103.554 34.8449 103.469 34.5027 103.341 34.2032ZM101.308 35.3369C101.266 35.4866 101.116 35.5722 100.966 35.5722H100.239H98.4208H95.0839H94.7203V35.5508V33.0054C94.7203 32.7915 94.8914 32.6417 95.0839 32.6417H97.608H97.6507H100.196C100.26 32.6417 100.346 32.6631 100.389 32.7059C100.453 32.7487 100.517 32.8128 100.538 32.8984C100.538 32.8984 100.538 32.8984 100.538 32.9198L101.266 35.1016C101.266 35.123 101.266 35.123 101.287 35.1444C101.287 35.1658 101.308 35.2086 101.308 35.23C101.33 35.2513 101.33 35.2941 101.308 35.3369Z" fill="black" fill-opacity="0.2"/>
<path d="M103.341 34.2032L102.72 32.3423C102.528 31.5936 102.014 30.9947 101.33 30.6524C100.988 30.4813 100.624 30.3957 100.218 30.3957H95.0625C94.9342 30.3957 94.8058 30.3957 94.6989 30.4171C93.5652 30.5882 92.6668 31.4653 92.5171 32.5989C92.4957 32.7273 92.4957 32.8342 92.4957 32.9626V35.5722V37.7754V39.9786H94.6989V37.7754H100.966C102.271 37.7754 103.341 36.8128 103.512 35.5722C103.533 35.4439 103.533 35.3369 103.533 35.2086C103.554 34.8449 103.469 34.5027 103.341 34.2032ZM101.308 35.3369C101.266 35.4866 101.116 35.5722 100.966 35.5722H100.239H98.4208H95.0839H94.7203V35.5508V33.0054C94.7203 32.7915 94.8914 32.6417 95.0839 32.6417H97.608H97.6507H100.196C100.26 32.6417 100.346 32.6631 100.389 32.7059C100.453 32.7487 100.517 32.8128 100.538 32.8984C100.538 32.8984 100.538 32.8984 100.538 32.9198L101.266 35.1016C101.266 35.123 101.266 35.123 101.287 35.1444C101.287 35.1658 101.308 35.2086 101.308 35.23C101.33 35.2513 101.33 35.2941 101.308 35.3369Z" fill="black" fill-opacity="0.2"/>
<path d="M103.341 34.2032L102.72 32.3423C102.528 31.5936 102.014 30.9947 101.33 30.6524C100.988 30.4813 100.624 30.3957 100.218 30.3957H95.0625C94.9342 30.3957 94.8058 30.3957 94.6989 30.4171C93.5652 30.5882 92.6668 31.4653 92.5171 32.5989C92.4957 32.7273 92.4957 32.8342 92.4957 32.9626V35.5722V37.7754V39.9786H94.6989V37.7754H100.966C102.271 37.7754 103.341 36.8128 103.512 35.5722C103.533 35.4439 103.533 35.3369 103.533 35.2086C103.554 34.8449 103.469 34.5027 103.341 34.2032ZM101.308 35.3369C101.266 35.4866 101.116 35.5722 100.966 35.5722H100.239H98.4208H95.0839H94.7203V35.5508V33.0054C94.7203 32.7915 94.8914 32.6417 95.0839 32.6417H97.608H97.6507H100.196C100.26 32.6417 100.346 32.6631 100.389 32.7059C100.453 32.7487 100.517 32.8128 100.538 32.8984C100.538 32.8984 100.538 32.8984 100.538 32.9198L101.266 35.1016C101.266 35.123 101.266 35.123 101.287 35.1444C101.287 35.1658 101.308 35.2086 101.308 35.23C101.33 35.2513 101.33 35.2941 101.308 35.3369Z" fill="black" fill-opacity="0.2"/>
<path d="M103.341 34.2032L102.72 32.3423C102.528 31.5936 102.014 30.9947 101.33 30.6524C100.988 30.4813 100.624 30.3957 100.218 30.3957H95.0625C94.9342 30.3957 94.8058 30.3957 94.6989 30.4171C93.5652 30.5882 92.6668 31.4653 92.5171 32.5989C92.4957 32.7273 92.4957 32.8342 92.4957 32.9626V35.5722V37.7754V39.9786H94.6989V37.7754H100.966C102.271 37.7754 103.341 36.8128 103.512 35.5722C103.533 35.4439 103.533 35.3369 103.533 35.2086C103.554 34.8449 103.469 34.5027 103.341 34.2032ZM101.308 35.3369C101.266 35.4866 101.116 35.5722 100.966 35.5722H100.239H98.4208H95.0839H94.7203V35.5508V33.0054C94.7203 32.7915 94.8914 32.6417 95.0839 32.6417H97.608H97.6507H100.196C100.26 32.6417 100.346 32.6631 100.389 32.7059C100.453 32.7487 100.517 32.8128 100.538 32.8984C100.538 32.8984 100.538 32.8984 100.538 32.9198L101.266 35.1016C101.266 35.123 101.266 35.123 101.287 35.1444C101.287 35.1658 101.308 35.2086 101.308 35.23C101.33 35.2513 101.33 35.2941 101.308 35.3369Z" fill="black" fill-opacity="0.2"/>
<path d="M103.341 34.2032L102.72 32.3423C102.528 31.5936 102.014 30.9947 101.33 30.6524C100.988 30.4813 100.624 30.3957 100.218 30.3957H95.0625C94.9342 30.3957 94.8058 30.3957 94.6989 30.4171C93.5652 30.5882 92.6668 31.4653 92.5171 32.5989C92.4957 32.7273 92.4957 32.8342 92.4957 32.9626V35.5722V37.7754V39.9786H94.6989V37.7754H100.966C102.271 37.7754 103.341 36.8128 103.512 35.5722C103.533 35.4439 103.533 35.3369 103.533 35.2086C103.554 34.8449 103.469 34.5027 103.341 34.2032ZM101.308 35.3369C101.266 35.4866 101.116 35.5722 100.966 35.5722H100.239H98.4208H95.0839H94.7203V35.5508V33.0054C94.7203 32.7915 94.8914 32.6417 95.0839 32.6417H97.608H97.6507H100.196C100.26 32.6417 100.346 32.6631 100.389 32.7059C100.453 32.7487 100.517 32.8128 100.538 32.8984C100.538 32.8984 100.538 32.8984 100.538 32.9198L101.266 35.1016C101.266 35.123 101.266 35.123 101.287 35.1444C101.287 35.1658 101.308 35.2086 101.308 35.23C101.33 35.2513 101.33 35.2941 101.308 35.3369Z" fill="black" fill-opacity="0.2"/>
<path d="M88.0465 30.3957H82.8914C81.0519 30.3957 79.5759 31.8931 79.5759 33.7112V36.6631C79.5759 38.5027 81.0519 39.9786 82.8914 39.9786H88.0465C89.8861 39.9786 91.362 38.4813 91.362 36.6631V33.7112C91.362 31.8931 89.8647 30.3957 88.0465 30.3957ZM89.1374 36.6631C89.1374 36.7273 89.1374 36.7915 89.116 36.8556C89.0305 37.369 88.5813 37.7754 88.0251 37.7754H85.993H84.9021H82.87C82.3139 37.7754 81.8647 37.369 81.7791 36.8556C81.7791 36.7915 81.7577 36.7273 81.7577 36.6631V33.7112C81.7577 33.6471 81.7577 33.5829 81.7791 33.5187C81.8647 33.0054 82.3139 32.5989 82.87 32.5989H84.9021H85.993H88.0251C88.5813 32.5989 89.0305 33.0054 89.116 33.5187C89.1374 33.5829 89.1374 33.6471 89.1374 33.7112V36.6631Z" fill="#1C1C1C"/>
<path d="M88.0465 30.3957H82.8914C81.0519 30.3957 79.5759 31.8931 79.5759 33.7112V36.6631C79.5759 38.5027 81.0519 39.9786 82.8914 39.9786H88.0465C89.8861 39.9786 91.362 38.4813 91.362 36.6631V33.7112C91.362 31.8931 89.8647 30.3957 88.0465 30.3957ZM89.1374 36.6631C89.1374 36.7273 89.1374 36.7915 89.116 36.8556C89.0305 37.369 88.5813 37.7754 88.0251 37.7754H85.993H84.9021H82.87C82.3139 37.7754 81.8647 37.369 81.7791 36.8556C81.7791 36.7915 81.7577 36.7273 81.7577 36.6631V33.7112C81.7577 33.6471 81.7577 33.5829 81.7791 33.5187C81.8647 33.0054 82.3139 32.5989 82.87 32.5989H84.9021H85.993H88.0251C88.5813 32.5989 89.0305 33.0054 89.116 33.5187C89.1374 33.5829 89.1374 33.6471 89.1374 33.7112V36.6631Z" fill="black" fill-opacity="0.2"/>
<path d="M88.0465 30.3957H82.8914C81.0519 30.3957 79.5759 31.8931 79.5759 33.7112V36.6631C79.5759 38.5027 81.0519 39.9786 82.8914 39.9786H88.0465C89.8861 39.9786 91.362 38.4813 91.362 36.6631V33.7112C91.362 31.8931 89.8647 30.3957 88.0465 30.3957ZM89.1374 36.6631C89.1374 36.7273 89.1374 36.7915 89.116 36.8556C89.0305 37.369 88.5813 37.7754 88.0251 37.7754H85.993H84.9021H82.87C82.3139 37.7754 81.8647 37.369 81.7791 36.8556C81.7791 36.7915 81.7577 36.7273 81.7577 36.6631V33.7112C81.7577 33.6471 81.7577 33.5829 81.7791 33.5187C81.8647 33.0054 82.3139 32.5989 82.87 32.5989H84.9021H85.993H88.0251C88.5813 32.5989 89.0305 33.0054 89.116 33.5187C89.1374 33.5829 89.1374 33.6471 89.1374 33.7112V36.6631Z" fill="black" fill-opacity="0.2"/>
<path d="M88.0465 30.3957H82.8914C81.0519 30.3957 79.5759 31.8931 79.5759 33.7112V36.6631C79.5759 38.5027 81.0519 39.9786 82.8914 39.9786H88.0465C89.8861 39.9786 91.362 38.4813 91.362 36.6631V33.7112C91.362 31.8931 89.8647 30.3957 88.0465 30.3957ZM89.1374 36.6631C89.1374 36.7273 89.1374 36.7915 89.116 36.8556C89.0305 37.369 88.5813 37.7754 88.0251 37.7754H85.993H84.9021H82.87C82.3139 37.7754 81.8647 37.369 81.7791 36.8556C81.7791 36.7915 81.7577 36.7273 81.7577 36.6631V33.7112C81.7577 33.6471 81.7577 33.5829 81.7791 33.5187C81.8647 33.0054 82.3139 32.5989 82.87 32.5989H84.9021H85.993H88.0251C88.5813 32.5989 89.0305 33.0054 89.116 33.5187C89.1374 33.5829 89.1374 33.6471 89.1374 33.7112V36.6631Z" fill="black" fill-opacity="0.2"/>
<path d="M88.0465 30.3957H82.8914C81.0519 30.3957 79.5759 31.8931 79.5759 33.7112V36.6631C79.5759 38.5027 81.0519 39.9786 82.8914 39.9786H88.0465C89.8861 39.9786 91.362 38.4813 91.362 36.6631V33.7112C91.362 31.8931 89.8647 30.3957 88.0465 30.3957ZM89.1374 36.6631C89.1374 36.7273 89.1374 36.7915 89.116 36.8556C89.0305 37.369 88.5813 37.7754 88.0251 37.7754H85.993H84.9021H82.87C82.3139 37.7754 81.8647 37.369 81.7791 36.8556C81.7791 36.7915 81.7577 36.7273 81.7577 36.6631V33.7112C81.7577 33.6471 81.7577 33.5829 81.7791 33.5187C81.8647 33.0054 82.3139 32.5989 82.87 32.5989H84.9021H85.993H88.0251C88.5813 32.5989 89.0305 33.0054 89.116 33.5187C89.1374 33.5829 89.1374 33.6471 89.1374 33.7112V36.6631Z" fill="black" fill-opacity="0.2"/>
<path d="M88.0465 30.3957H82.8914C81.0519 30.3957 79.5759 31.8931 79.5759 33.7112V36.6631C79.5759 38.5027 81.0519 39.9786 82.8914 39.9786H88.0465C89.8861 39.9786 91.362 38.4813 91.362 36.6631V33.7112C91.362 31.8931 89.8647 30.3957 88.0465 30.3957ZM89.1374 36.6631C89.1374 36.7273 89.1374 36.7915 89.116 36.8556C89.0305 37.369 88.5813 37.7754 88.0251 37.7754H85.993H84.9021H82.87C82.3139 37.7754 81.8647 37.369 81.7791 36.8556C81.7791 36.7915 81.7577 36.7273 81.7577 36.6631V33.7112C81.7577 33.6471 81.7577 33.5829 81.7791 33.5187C81.8647 33.0054 82.3139 32.5989 82.87 32.5989H84.9021H85.993H88.0251C88.5813 32.5989 89.0305 33.0054 89.116 33.5187C89.1374 33.5829 89.1374 33.6471 89.1374 33.7112V36.6631Z" fill="black" fill-opacity="0.2"/>
<path d="M88.0465 30.3957H82.8914C81.0519 30.3957 79.5759 31.8931 79.5759 33.7112V36.6631C79.5759 38.5027 81.0519 39.9786 82.8914 39.9786H88.0465C89.8861 39.9786 91.362 38.4813 91.362 36.6631V33.7112C91.362 31.8931 89.8647 30.3957 88.0465 30.3957ZM89.1374 36.6631C89.1374 36.7273 89.1374 36.7915 89.116 36.8556C89.0305 37.369 88.5813 37.7754 88.0251 37.7754H85.993H84.9021H82.87C82.3139 37.7754 81.8647 37.369 81.7791 36.8556C81.7791 36.7915 81.7577 36.7273 81.7577 36.6631V33.7112C81.7577 33.6471 81.7577 33.5829 81.7791 33.5187C81.8647 33.0054 82.3139 32.5989 82.87 32.5989H84.9021H85.993H88.0251C88.5813 32.5989 89.0305 33.0054 89.116 33.5187C89.1374 33.5829 89.1374 33.6471 89.1374 33.7112V36.6631Z" fill="black" fill-opacity="0.2"/>
<path d="M88.0465 30.3957H82.8914C81.0519 30.3957 79.5759 31.8931 79.5759 33.7112V36.6631C79.5759 38.5027 81.0519 39.9786 82.8914 39.9786H88.0465C89.8861 39.9786 91.362 38.4813 91.362 36.6631V33.7112C91.362 31.8931 89.8647 30.3957 88.0465 30.3957ZM89.1374 36.6631C89.1374 36.7273 89.1374 36.7915 89.116 36.8556C89.0305 37.369 88.5813 37.7754 88.0251 37.7754H85.993H84.9021H82.87C82.3139 37.7754 81.8647 37.369 81.7791 36.8556C81.7791 36.7915 81.7577 36.7273 81.7577 36.6631V33.7112C81.7577 33.6471 81.7577 33.5829 81.7791 33.5187C81.8647 33.0054 82.3139 32.5989 82.87 32.5989H84.9021H85.993H88.0251C88.5813 32.5989 89.0305 33.0054 89.116 33.5187C89.1374 33.5829 89.1374 33.6471 89.1374 33.7112V36.6631Z" fill="black" fill-opacity="0.2"/>
<path d="M88.0465 30.3957H82.8914C81.0519 30.3957 79.5759 31.8931 79.5759 33.7112V36.6631C79.5759 38.5027 81.0519 39.9786 82.8914 39.9786H88.0465C89.8861 39.9786 91.362 38.4813 91.362 36.6631V33.7112C91.362 31.8931 89.8647 30.3957 88.0465 30.3957ZM89.1374 36.6631C89.1374 36.7273 89.1374 36.7915 89.116 36.8556C89.0305 37.369 88.5813 37.7754 88.0251 37.7754H85.993H84.9021H82.87C82.3139 37.7754 81.8647 37.369 81.7791 36.8556C81.7791 36.7915 81.7577 36.7273 81.7577 36.6631V33.7112C81.7577 33.6471 81.7577 33.5829 81.7791 33.5187C81.8647 33.0054 82.3139 32.5989 82.87 32.5989H84.9021H85.993H88.0251C88.5813 32.5989 89.0305 33.0054 89.116 33.5187C89.1374 33.5829 89.1374 33.6471 89.1374 33.7112V36.6631Z" fill="black" fill-opacity="0.2"/>
<path d="M88.0465 30.3957H82.8914C81.0519 30.3957 79.5759 31.8931 79.5759 33.7112V36.6631C79.5759 38.5027 81.0519 39.9786 82.8914 39.9786H88.0465C89.8861 39.9786 91.362 38.4813 91.362 36.6631V33.7112C91.362 31.8931 89.8647 30.3957 88.0465 30.3957ZM89.1374 36.6631C89.1374 36.7273 89.1374 36.7915 89.116 36.8556C89.0305 37.369 88.5813 37.7754 88.0251 37.7754H85.993H84.9021H82.87C82.3139 37.7754 81.8647 37.369 81.7791 36.8556C81.7791 36.7915 81.7577 36.7273 81.7577 36.6631V33.7112C81.7577 33.6471 81.7577 33.5829 81.7791 33.5187C81.8647 33.0054 82.3139 32.5989 82.87 32.5989H84.9021H85.993H88.0251C88.5813 32.5989 89.0305 33.0054 89.116 33.5187C89.1374 33.5829 89.1374 33.6471 89.1374 33.7112V36.6631Z" fill="black" fill-opacity="0.2"/>
<path d="M88.0465 30.3957H82.8914C81.0519 30.3957 79.5759 31.8931 79.5759 33.7112V36.6631C79.5759 38.5027 81.0519 39.9786 82.8914 39.9786H88.0465C89.8861 39.9786 91.362 38.4813 91.362 36.6631V33.7112C91.362 31.8931 89.8647 30.3957 88.0465 30.3957ZM89.1374 36.6631C89.1374 36.7273 89.1374 36.7915 89.116 36.8556C89.0305 37.369 88.5813 37.7754 88.0251 37.7754H85.993H84.9021H82.87C82.3139 37.7754 81.8647 37.369 81.7791 36.8556C81.7791 36.7915 81.7577 36.7273 81.7577 36.6631V33.7112C81.7577 33.6471 81.7577 33.5829 81.7791 33.5187C81.8647 33.0054 82.3139 32.5989 82.87 32.5989H84.9021H85.993H88.0251C88.5813 32.5989 89.0305 33.0054 89.116 33.5187C89.1374 33.5829 89.1374 33.6471 89.1374 33.7112V36.6631Z" fill="black" fill-opacity="0.2"/>
<path d="M88.0465 30.3957H82.8914C81.0519 30.3957 79.5759 31.8931 79.5759 33.7112V36.6631C79.5759 38.5027 81.0519 39.9786 82.8914 39.9786H88.0465C89.8861 39.9786 91.362 38.4813 91.362 36.6631V33.7112C91.362 31.8931 89.8647 30.3957 88.0465 30.3957ZM89.1374 36.6631C89.1374 36.7273 89.1374 36.7915 89.116 36.8556C89.0305 37.369 88.5813 37.7754 88.0251 37.7754H85.993H84.9021H82.87C82.3139 37.7754 81.8647 37.369 81.7791 36.8556C81.7791 36.7915 81.7577 36.7273 81.7577 36.6631V33.7112C81.7577 33.6471 81.7577 33.5829 81.7791 33.5187C81.8647 33.0054 82.3139 32.5989 82.87 32.5989H84.9021H85.993H88.0251C88.5813 32.5989 89.0305 33.0054 89.116 33.5187C89.1374 33.5829 89.1374 33.6471 89.1374 33.7112V36.6631Z" fill="black" fill-opacity="0.2"/>
<path d="M88.0465 30.3957H82.8914C81.0519 30.3957 79.5759 31.8931 79.5759 33.7112V36.6631C79.5759 38.5027 81.0519 39.9786 82.8914 39.9786H88.0465C89.8861 39.9786 91.362 38.4813 91.362 36.6631V33.7112C91.362 31.8931 89.8647 30.3957 88.0465 30.3957ZM89.1374 36.6631C89.1374 36.7273 89.1374 36.7915 89.116 36.8556C89.0305 37.369 88.5813 37.7754 88.0251 37.7754H85.993H84.9021H82.87C82.3139 37.7754 81.8647 37.369 81.7791 36.8556C81.7791 36.7915 81.7577 36.7273 81.7577 36.6631V33.7112C81.7577 33.6471 81.7577 33.5829 81.7791 33.5187C81.8647 33.0054 82.3139 32.5989 82.87 32.5989H84.9021H85.993H88.0251C88.5813 32.5989 89.0305 33.0054 89.116 33.5187C89.1374 33.5829 89.1374 33.6471 89.1374 33.7112V36.6631Z" fill="black" fill-opacity="0.2"/>
<path d="M76.2176 34.0963H69.5866V30.3957H67.3834V34.0963V36.2995V40H69.5866V36.2995H76.2176V40H78.4422V36.2995V34.0963V30.3957H76.2176V34.0963Z" fill="#1C1C1C"/>
<path d="M76.2176 34.0963H69.5866V30.3957H67.3834V34.0963V36.2995V40H69.5866V36.2995H76.2176V40H78.4422V36.2995V34.0963V30.3957H76.2176V34.0963Z" fill="black" fill-opacity="0.2"/>
<path d="M76.2176 34.0963H69.5866V30.3957H67.3834V34.0963V36.2995V40H69.5866V36.2995H76.2176V40H78.4422V36.2995V34.0963V30.3957H76.2176V34.0963Z" fill="black" fill-opacity="0.2"/>
<path d="M76.2176 34.0963H69.5866V30.3957H67.3834V34.0963V36.2995V40H69.5866V36.2995H76.2176V40H78.4422V36.2995V34.0963V30.3957H76.2176V34.0963Z" fill="black" fill-opacity="0.2"/>
<path d="M76.2176 34.0963H69.5866V30.3957H67.3834V34.0963V36.2995V40H69.5866V36.2995H76.2176V40H78.4422V36.2995V34.0963V30.3957H76.2176V34.0963Z" fill="black" fill-opacity="0.2"/>
<path d="M76.2176 34.0963H69.5866V30.3957H67.3834V34.0963V36.2995V40H69.5866V36.2995H76.2176V40H78.4422V36.2995V34.0963V30.3957H76.2176V34.0963Z" fill="black" fill-opacity="0.2"/>
<path d="M76.2176 34.0963H69.5866V30.3957H67.3834V34.0963V36.2995V40H69.5866V36.2995H76.2176V40H78.4422V36.2995V34.0963V30.3957H76.2176V34.0963Z" fill="black" fill-opacity="0.2"/>
<path d="M76.2176 34.0963H69.5866V30.3957H67.3834V34.0963V36.2995V40H69.5866V36.2995H76.2176V40H78.4422V36.2995V34.0963V30.3957H76.2176V34.0963Z" fill="black" fill-opacity="0.2"/>
<path d="M76.2176 34.0963H69.5866V30.3957H67.3834V34.0963V36.2995V40H69.5866V36.2995H76.2176V40H78.4422V36.2995V34.0963V30.3957H76.2176V34.0963Z" fill="black" fill-opacity="0.2"/>
<path d="M76.2176 34.0963H69.5866V30.3957H67.3834V34.0963V36.2995V40H69.5866V36.2995H76.2176V40H78.4422V36.2995V34.0963V30.3957H76.2176V34.0963Z" fill="black" fill-opacity="0.2"/>
<path d="M76.2176 34.0963H69.5866V30.3957H67.3834V34.0963V36.2995V40H69.5866V36.2995H76.2176V40H78.4422V36.2995V34.0963V30.3957H76.2176V34.0963Z" fill="black" fill-opacity="0.2"/>
<path d="M76.2176 34.0963H69.5866V30.3957H67.3834V34.0963V36.2995V40H69.5866V36.2995H76.2176V40H78.4422V36.2995V34.0963V30.3957H76.2176V34.0963Z" fill="black" fill-opacity="0.2"/>
<path d="M76.2176 34.0963H69.5866V30.3957H67.3834V34.0963V36.2995V40H69.5866V36.2995H76.2176V40H78.4422V36.2995V34.0963V30.3957H76.2176V34.0963Z" fill="black" fill-opacity="0.2"/>
<path d="M54.5492 32.6203C54.485 32.8556 54.4636 33.0909 54.4636 33.3476C54.4636 34.9733 55.7898 36.2781 57.3941 36.2781L60.4529 36.2995L63.3192 36.3209C63.7257 36.3209 64.0465 36.6417 64.0465 37.0481C64.0465 37.4546 63.7257 37.7754 63.3192 37.7754H60.4529H54.4636V39.9786H63.3192C64.6882 39.9786 65.8433 39.0374 66.1855 37.7754C66.2497 37.5401 66.2711 37.2834 66.2711 37.0481C66.2711 35.4225 64.9449 34.0963 63.3192 34.0963L60.2604 34.0749H57.4155C57.0091 34.0749 56.6882 33.754 56.6882 33.3476C56.6882 32.9412 57.0091 32.6203 57.4155 32.6203H60.2604H66.2711V30.4171H57.3941C56.0251 30.3957 54.87 31.3369 54.5492 32.6203Z" fill="#1C1C1C"/>
<path d="M54.5492 32.6203C54.485 32.8556 54.4636 33.0909 54.4636 33.3476C54.4636 34.9733 55.7898 36.2781 57.3941 36.2781L60.4529 36.2995L63.3192 36.3209C63.7257 36.3209 64.0465 36.6417 64.0465 37.0481C64.0465 37.4546 63.7257 37.7754 63.3192 37.7754H60.4529H54.4636V39.9786H63.3192C64.6882 39.9786 65.8433 39.0374 66.1855 37.7754C66.2497 37.5401 66.2711 37.2834 66.2711 37.0481C66.2711 35.4225 64.9449 34.0963 63.3192 34.0963L60.2604 34.0749H57.4155C57.0091 34.0749 56.6882 33.754 56.6882 33.3476C56.6882 32.9412 57.0091 32.6203 57.4155 32.6203H60.2604H66.2711V30.4171H57.3941C56.0251 30.3957 54.87 31.3369 54.5492 32.6203Z" fill="black" fill-opacity="0.2"/>
<path d="M54.5492 32.6203C54.485 32.8556 54.4636 33.0909 54.4636 33.3476C54.4636 34.9733 55.7898 36.2781 57.3941 36.2781L60.4529 36.2995L63.3192 36.3209C63.7257 36.3209 64.0465 36.6417 64.0465 37.0481C64.0465 37.4546 63.7257 37.7754 63.3192 37.7754H60.4529H54.4636V39.9786H63.3192C64.6882 39.9786 65.8433 39.0374 66.1855 37.7754C66.2497 37.5401 66.2711 37.2834 66.2711 37.0481C66.2711 35.4225 64.9449 34.0963 63.3192 34.0963L60.2604 34.0749H57.4155C57.0091 34.0749 56.6882 33.754 56.6882 33.3476C56.6882 32.9412 57.0091 32.6203 57.4155 32.6203H60.2604H66.2711V30.4171H57.3941C56.0251 30.3957 54.87 31.3369 54.5492 32.6203Z" fill="black" fill-opacity="0.2"/>
<path d="M54.5492 32.6203C54.485 32.8556 54.4636 33.0909 54.4636 33.3476C54.4636 34.9733 55.7898 36.2781 57.3941 36.2781L60.4529 36.2995L63.3192 36.3209C63.7257 36.3209 64.0465 36.6417 64.0465 37.0481C64.0465 37.4546 63.7257 37.7754 63.3192 37.7754H60.4529H54.4636V39.9786H63.3192C64.6882 39.9786 65.8433 39.0374 66.1855 37.7754C66.2497 37.5401 66.2711 37.2834 66.2711 37.0481C66.2711 35.4225 64.9449 34.0963 63.3192 34.0963L60.2604 34.0749H57.4155C57.0091 34.0749 56.6882 33.754 56.6882 33.3476C56.6882 32.9412 57.0091 32.6203 57.4155 32.6203H60.2604H66.2711V30.4171H57.3941C56.0251 30.3957 54.87 31.3369 54.5492 32.6203Z" fill="black" fill-opacity="0.2"/>
<path d="M54.5492 32.6203C54.485 32.8556 54.4636 33.0909 54.4636 33.3476C54.4636 34.9733 55.7898 36.2781 57.3941 36.2781L60.4529 36.2995L63.3192 36.3209C63.7257 36.3209 64.0465 36.6417 64.0465 37.0481C64.0465 37.4546 63.7257 37.7754 63.3192 37.7754H60.4529H54.4636V39.9786H63.3192C64.6882 39.9786 65.8433 39.0374 66.1855 37.7754C66.2497 37.5401 66.2711 37.2834 66.2711 37.0481C66.2711 35.4225 64.9449 34.0963 63.3192 34.0963L60.2604 34.0749H57.4155C57.0091 34.0749 56.6882 33.754 56.6882 33.3476C56.6882 32.9412 57.0091 32.6203 57.4155 32.6203H60.2604H66.2711V30.4171H57.3941C56.0251 30.3957 54.87 31.3369 54.5492 32.6203Z" fill="black" fill-opacity="0.2"/>
<path d="M54.5492 32.6203C54.485 32.8556 54.4636 33.0909 54.4636 33.3476C54.4636 34.9733 55.7898 36.2781 57.3941 36.2781L60.4529 36.2995L63.3192 36.3209C63.7257 36.3209 64.0465 36.6417 64.0465 37.0481C64.0465 37.4546 63.7257 37.7754 63.3192 37.7754H60.4529H54.4636V39.9786H63.3192C64.6882 39.9786 65.8433 39.0374 66.1855 37.7754C66.2497 37.5401 66.2711 37.2834 66.2711 37.0481C66.2711 35.4225 64.9449 34.0963 63.3192 34.0963L60.2604 34.0749H57.4155C57.0091 34.0749 56.6882 33.754 56.6882 33.3476C56.6882 32.9412 57.0091 32.6203 57.4155 32.6203H60.2604H66.2711V30.4171H57.3941C56.0251 30.3957 54.87 31.3369 54.5492 32.6203Z" fill="black" fill-opacity="0.2"/>
<path d="M54.5492 32.6203C54.485 32.8556 54.4636 33.0909 54.4636 33.3476C54.4636 34.9733 55.7898 36.2781 57.3941 36.2781L60.4529 36.2995L63.3192 36.3209C63.7257 36.3209 64.0465 36.6417 64.0465 37.0481C64.0465 37.4546 63.7257 37.7754 63.3192 37.7754H60.4529H54.4636V39.9786H63.3192C64.6882 39.9786 65.8433 39.0374 66.1855 37.7754C66.2497 37.5401 66.2711 37.2834 66.2711 37.0481C66.2711 35.4225 64.9449 34.0963 63.3192 34.0963L60.2604 34.0749H57.4155C57.0091 34.0749 56.6882 33.754 56.6882 33.3476C56.6882 32.9412 57.0091 32.6203 57.4155 32.6203H60.2604H66.2711V30.4171H57.3941C56.0251 30.3957 54.87 31.3369 54.5492 32.6203Z" fill="black" fill-opacity="0.2"/>
<path d="M54.5492 32.6203C54.485 32.8556 54.4636 33.0909 54.4636 33.3476C54.4636 34.9733 55.7898 36.2781 57.3941 36.2781L60.4529 36.2995L63.3192 36.3209C63.7257 36.3209 64.0465 36.6417 64.0465 37.0481C64.0465 37.4546 63.7257 37.7754 63.3192 37.7754H60.4529H54.4636V39.9786H63.3192C64.6882 39.9786 65.8433 39.0374 66.1855 37.7754C66.2497 37.5401 66.2711 37.2834 66.2711 37.0481C66.2711 35.4225 64.9449 34.0963 63.3192 34.0963L60.2604 34.0749H57.4155C57.0091 34.0749 56.6882 33.754 56.6882 33.3476C56.6882 32.9412 57.0091 32.6203 57.4155 32.6203H60.2604H66.2711V30.4171H57.3941C56.0251 30.3957 54.87 31.3369 54.5492 32.6203Z" fill="black" fill-opacity="0.2"/>
<path d="M54.5492 32.6203C54.485 32.8556 54.4636 33.0909 54.4636 33.3476C54.4636 34.9733 55.7898 36.2781 57.3941 36.2781L60.4529 36.2995L63.3192 36.3209C63.7257 36.3209 64.0465 36.6417 64.0465 37.0481C64.0465 37.4546 63.7257 37.7754 63.3192 37.7754H60.4529H54.4636V39.9786H63.3192C64.6882 39.9786 65.8433 39.0374 66.1855 37.7754C66.2497 37.5401 66.2711 37.2834 66.2711 37.0481C66.2711 35.4225 64.9449 34.0963 63.3192 34.0963L60.2604 34.0749H57.4155C57.0091 34.0749 56.6882 33.754 56.6882 33.3476C56.6882 32.9412 57.0091 32.6203 57.4155 32.6203H60.2604H66.2711V30.4171H57.3941C56.0251 30.3957 54.87 31.3369 54.5492 32.6203Z" fill="black" fill-opacity="0.2"/>
<path d="M54.5492 32.6203C54.485 32.8556 54.4636 33.0909 54.4636 33.3476C54.4636 34.9733 55.7898 36.2781 57.3941 36.2781L60.4529 36.2995L63.3192 36.3209C63.7257 36.3209 64.0465 36.6417 64.0465 37.0481C64.0465 37.4546 63.7257 37.7754 63.3192 37.7754H60.4529H54.4636V39.9786H63.3192C64.6882 39.9786 65.8433 39.0374 66.1855 37.7754C66.2497 37.5401 66.2711 37.2834 66.2711 37.0481C66.2711 35.4225 64.9449 34.0963 63.3192 34.0963L60.2604 34.0749H57.4155C57.0091 34.0749 56.6882 33.754 56.6882 33.3476C56.6882 32.9412 57.0091 32.6203 57.4155 32.6203H60.2604H66.2711V30.4171H57.3941C56.0251 30.3957 54.87 31.3369 54.5492 32.6203Z" fill="black" fill-opacity="0.2"/>
<path d="M54.5492 32.6203C54.485 32.8556 54.4636 33.0909 54.4636 33.3476C54.4636 34.9733 55.7898 36.2781 57.3941 36.2781L60.4529 36.2995L63.3192 36.3209C63.7257 36.3209 64.0465 36.6417 64.0465 37.0481C64.0465 37.4546 63.7257 37.7754 63.3192 37.7754H60.4529H54.4636V39.9786H63.3192C64.6882 39.9786 65.8433 39.0374 66.1855 37.7754C66.2497 37.5401 66.2711 37.2834 66.2711 37.0481C66.2711 35.4225 64.9449 34.0963 63.3192 34.0963L60.2604 34.0749H57.4155C57.0091 34.0749 56.6882 33.754 56.6882 33.3476C56.6882 32.9412 57.0091 32.6203 57.4155 32.6203H60.2604H66.2711V30.4171H57.3941C56.0251 30.3957 54.87 31.3369 54.5492 32.6203Z" fill="black" fill-opacity="0.2"/>
<path d="M54.5492 32.6203C54.485 32.8556 54.4636 33.0909 54.4636 33.3476C54.4636 34.9733 55.7898 36.2781 57.3941 36.2781L60.4529 36.2995L63.3192 36.3209C63.7257 36.3209 64.0465 36.6417 64.0465 37.0481C64.0465 37.4546 63.7257 37.7754 63.3192 37.7754H60.4529H54.4636V39.9786H63.3192C64.6882 39.9786 65.8433 39.0374 66.1855 37.7754C66.2497 37.5401 66.2711 37.2834 66.2711 37.0481C66.2711 35.4225 64.9449 34.0963 63.3192 34.0963L60.2604 34.0749H57.4155C57.0091 34.0749 56.6882 33.754 56.6882 33.3476C56.6882 32.9412 57.0091 32.6203 57.4155 32.6203H60.2604H66.2711V30.4171H57.3941C56.0251 30.3957 54.87 31.3369 54.5492 32.6203Z" fill="black" fill-opacity="0.2"/>
<path d="M54.5492 32.6203C54.485 32.8556 54.4636 33.0909 54.4636 33.3476C54.4636 34.9733 55.7898 36.2781 57.3941 36.2781L60.4529 36.2995L63.3192 36.3209C63.7257 36.3209 64.0465 36.6417 64.0465 37.0481C64.0465 37.4546 63.7257 37.7754 63.3192 37.7754H60.4529H54.4636V39.9786H63.3192C64.6882 39.9786 65.8433 39.0374 66.1855 37.7754C66.2497 37.5401 66.2711 37.2834 66.2711 37.0481C66.2711 35.4225 64.9449 34.0963 63.3192 34.0963L60.2604 34.0749H57.4155C57.0091 34.0749 56.6882 33.754 56.6882 33.3476C56.6882 32.9412 57.0091 32.6203 57.4155 32.6203H60.2604H66.2711V30.4171H57.3941C56.0251 30.3957 54.87 31.3369 54.5492 32.6203Z" fill="black" fill-opacity="0.2"/>
</svg>
