<svg width="25" height="25" viewBox="0 0 25 25" fill="none" xmlns="http://www.w3.org/2000/svg">
<path d="M9.87746 4.75722C9.57373 3.9979 8.83832 3.5 8.02051 3.5H5.26974C4.2233 3.5 3.375 4.3481 3.375 5.39453C3.375 14.2892 10.5858 21.5 19.4805 21.5C20.5269 21.5 21.375 20.6516 21.375 19.6052L21.3755 16.854C21.3755 16.0361 20.8777 15.3009 20.1184 14.9971L17.4819 13.9429C16.7999 13.6701 16.0233 13.7929 15.4589 14.2632L14.7785 14.8307C13.9839 15.4929 12.8146 15.4402 12.0832 14.7088L10.1672 12.7911C9.43579 12.0596 9.38173 10.8913 10.0439 10.0967L10.6113 9.4163C11.0816 8.85195 11.2055 8.07516 10.9327 7.39309L9.87746 4.75722Z" stroke="#1C1C1C" stroke-width="2" stroke-linecap="round" stroke-linejoin="round"/>
<path d="M9.87746 4.75722C9.57373 3.9979 8.83832 3.5 8.02051 3.5H5.26974C4.2233 3.5 3.375 4.3481 3.375 5.39453C3.375 14.2892 10.5858 21.5 19.4805 21.5C20.5269 21.5 21.375 20.6516 21.375 19.6052L21.3755 16.854C21.3755 16.0361 20.8777 15.3009 20.1184 14.9971L17.4819 13.9429C16.7999 13.6701 16.0233 13.7929 15.4589 14.2632L14.7785 14.8307C13.9839 15.4929 12.8146 15.4402 12.0832 14.7088L10.1672 12.7911C9.43579 12.0596 9.38173 10.8913 10.0439 10.0967L10.6113 9.4163C11.0816 8.85195 11.2055 8.07516 10.9327 7.39309L9.87746 4.75722Z" stroke="black" stroke-opacity="0.2" stroke-width="2" stroke-linecap="round" stroke-linejoin="round"/>
<path d="M9.87746 4.75722C9.57373 3.9979 8.83832 3.5 8.02051 3.5H5.26974C4.2233 3.5 3.375 4.3481 3.375 5.39453C3.375 14.2892 10.5858 21.5 19.4805 21.5C20.5269 21.5 21.375 20.6516 21.375 19.6052L21.3755 16.854C21.3755 16.0361 20.8777 15.3009 20.1184 14.9971L17.4819 13.9429C16.7999 13.6701 16.0233 13.7929 15.4589 14.2632L14.7785 14.8307C13.9839 15.4929 12.8146 15.4402 12.0832 14.7088L10.1672 12.7911C9.43579 12.0596 9.38173 10.8913 10.0439 10.0967L10.6113 9.4163C11.0816 8.85195 11.2055 8.07516 10.9327 7.39309L9.87746 4.75722Z" stroke="black" stroke-opacity="0.2" stroke-width="2" stroke-linecap="round" stroke-linejoin="round"/>
<path d="M9.87746 4.75722C9.57373 3.9979 8.83832 3.5 8.02051 3.5H5.26974C4.2233 3.5 3.375 4.3481 3.375 5.39453C3.375 14.2892 10.5858 21.5 19.4805 21.5C20.5269 21.5 21.375 20.6516 21.375 19.6052L21.3755 16.854C21.3755 16.0361 20.8777 15.3009 20.1184 14.9971L17.4819 13.9429C16.7999 13.6701 16.0233 13.7929 15.4589 14.2632L14.7785 14.8307C13.9839 15.4929 12.8146 15.4402 12.0832 14.7088L10.1672 12.7911C9.43579 12.0596 9.38173 10.8913 10.0439 10.0967L10.6113 9.4163C11.0816 8.85195 11.2055 8.07516 10.9327 7.39309L9.87746 4.75722Z" stroke="black" stroke-opacity="0.2" stroke-width="2" stroke-linecap="round" stroke-linejoin="round"/>
<path d="M9.87746 4.75722C9.57373 3.9979 8.83832 3.5 8.02051 3.5H5.26974C4.2233 3.5 3.375 4.3481 3.375 5.39453C3.375 14.2892 10.5858 21.5 19.4805 21.5C20.5269 21.5 21.375 20.6516 21.375 19.6052L21.3755 16.854C21.3755 16.0361 20.8777 15.3009 20.1184 14.9971L17.4819 13.9429C16.7999 13.6701 16.0233 13.7929 15.4589 14.2632L14.7785 14.8307C13.9839 15.4929 12.8146 15.4402 12.0832 14.7088L10.1672 12.7911C9.43579 12.0596 9.38173 10.8913 10.0439 10.0967L10.6113 9.4163C11.0816 8.85195 11.2055 8.07516 10.9327 7.39309L9.87746 4.75722Z" stroke="black" stroke-opacity="0.2" stroke-width="2" stroke-linecap="round" stroke-linejoin="round"/>
<path d="M9.87746 4.75722C9.57373 3.9979 8.83832 3.5 8.02051 3.5H5.26974C4.2233 3.5 3.375 4.3481 3.375 5.39453C3.375 14.2892 10.5858 21.5 19.4805 21.5C20.5269 21.5 21.375 20.6516 21.375 19.6052L21.3755 16.854C21.3755 16.0361 20.8777 15.3009 20.1184 14.9971L17.4819 13.9429C16.7999 13.6701 16.0233 13.7929 15.4589 14.2632L14.7785 14.8307C13.9839 15.4929 12.8146 15.4402 12.0832 14.7088L10.1672 12.7911C9.43579 12.0596 9.38173 10.8913 10.0439 10.0967L10.6113 9.4163C11.0816 8.85195 11.2055 8.07516 10.9327 7.39309L9.87746 4.75722Z" stroke="black" stroke-opacity="0.2" stroke-width="2" stroke-linecap="round" stroke-linejoin="round"/>
<path d="M9.87746 4.75722C9.57373 3.9979 8.83832 3.5 8.02051 3.5H5.26974C4.2233 3.5 3.375 4.3481 3.375 5.39453C3.375 14.2892 10.5858 21.5 19.4805 21.5C20.5269 21.5 21.375 20.6516 21.375 19.6052L21.3755 16.854C21.3755 16.0361 20.8777 15.3009 20.1184 14.9971L17.4819 13.9429C16.7999 13.6701 16.0233 13.7929 15.4589 14.2632L14.7785 14.8307C13.9839 15.4929 12.8146 15.4402 12.0832 14.7088L10.1672 12.7911C9.43579 12.0596 9.38173 10.8913 10.0439 10.0967L10.6113 9.4163C11.0816 8.85195 11.2055 8.07516 10.9327 7.39309L9.87746 4.75722Z" stroke="black" stroke-opacity="0.2" stroke-width="2" stroke-linecap="round" stroke-linejoin="round"/>
<path d="M9.87746 4.75722C9.57373 3.9979 8.83832 3.5 8.02051 3.5H5.26974C4.2233 3.5 3.375 4.3481 3.375 5.39453C3.375 14.2892 10.5858 21.5 19.4805 21.5C20.5269 21.5 21.375 20.6516 21.375 19.6052L21.3755 16.854C21.3755 16.0361 20.8777 15.3009 20.1184 14.9971L17.4819 13.9429C16.7999 13.6701 16.0233 13.7929 15.4589 14.2632L14.7785 14.8307C13.9839 15.4929 12.8146 15.4402 12.0832 14.7088L10.1672 12.7911C9.43579 12.0596 9.38173 10.8913 10.0439 10.0967L10.6113 9.4163C11.0816 8.85195 11.2055 8.07516 10.9327 7.39309L9.87746 4.75722Z" stroke="black" stroke-opacity="0.2" stroke-width="2" stroke-linecap="round" stroke-linejoin="round"/>
<path d="M9.87746 4.75722C9.57373 3.9979 8.83832 3.5 8.02051 3.5H5.26974C4.2233 3.5 3.375 4.3481 3.375 5.39453C3.375 14.2892 10.5858 21.5 19.4805 21.5C20.5269 21.5 21.375 20.6516 21.375 19.6052L21.3755 16.854C21.3755 16.0361 20.8777 15.3009 20.1184 14.9971L17.4819 13.9429C16.7999 13.6701 16.0233 13.7929 15.4589 14.2632L14.7785 14.8307C13.9839 15.4929 12.8146 15.4402 12.0832 14.7088L10.1672 12.7911C9.43579 12.0596 9.38173 10.8913 10.0439 10.0967L10.6113 9.4163C11.0816 8.85195 11.2055 8.07516 10.9327 7.39309L9.87746 4.75722Z" stroke="black" stroke-opacity="0.2" stroke-width="2" stroke-linecap="round" stroke-linejoin="round"/>
<path d="M9.87746 4.75722C9.57373 3.9979 8.83832 3.5 8.02051 3.5H5.26974C4.2233 3.5 3.375 4.3481 3.375 5.39453C3.375 14.2892 10.5858 21.5 19.4805 21.5C20.5269 21.5 21.375 20.6516 21.375 19.6052L21.3755 16.854C21.3755 16.0361 20.8777 15.3009 20.1184 14.9971L17.4819 13.9429C16.7999 13.6701 16.0233 13.7929 15.4589 14.2632L14.7785 14.8307C13.9839 15.4929 12.8146 15.4402 12.0832 14.7088L10.1672 12.7911C9.43579 12.0596 9.38173 10.8913 10.0439 10.0967L10.6113 9.4163C11.0816 8.85195 11.2055 8.07516 10.9327 7.39309L9.87746 4.75722Z" stroke="black" stroke-opacity="0.2" stroke-width="2" stroke-linecap="round" stroke-linejoin="round"/>
<path d="M9.87746 4.75722C9.57373 3.9979 8.83832 3.5 8.02051 3.5H5.26974C4.2233 3.5 3.375 4.3481 3.375 5.39453C3.375 14.2892 10.5858 21.5 19.4805 21.5C20.5269 21.5 21.375 20.6516 21.375 19.6052L21.3755 16.854C21.3755 16.0361 20.8777 15.3009 20.1184 14.9971L17.4819 13.9429C16.7999 13.6701 16.0233 13.7929 15.4589 14.2632L14.7785 14.8307C13.9839 15.4929 12.8146 15.4402 12.0832 14.7088L10.1672 12.7911C9.43579 12.0596 9.38173 10.8913 10.0439 10.0967L10.6113 9.4163C11.0816 8.85195 11.2055 8.07516 10.9327 7.39309L9.87746 4.75722Z" stroke="black" stroke-opacity="0.2" stroke-width="2" stroke-linecap="round" stroke-linejoin="round"/>
<path d="M9.87746 4.75722C9.57373 3.9979 8.83832 3.5 8.02051 3.5H5.26974C4.2233 3.5 3.375 4.3481 3.375 5.39453C3.375 14.2892 10.5858 21.5 19.4805 21.5C20.5269 21.5 21.375 20.6516 21.375 19.6052L21.3755 16.854C21.3755 16.0361 20.8777 15.3009 20.1184 14.9971L17.4819 13.9429C16.7999 13.6701 16.0233 13.7929 15.4589 14.2632L14.7785 14.8307C13.9839 15.4929 12.8146 15.4402 12.0832 14.7088L10.1672 12.7911C9.43579 12.0596 9.38173 10.8913 10.0439 10.0967L10.6113 9.4163C11.0816 8.85195 11.2055 8.07516 10.9327 7.39309L9.87746 4.75722Z" stroke="black" stroke-opacity="0.2" stroke-width="2" stroke-linecap="round" stroke-linejoin="round"/>
<path d="M9.87746 4.75722C9.57373 3.9979 8.83832 3.5 8.02051 3.5H5.26974C4.2233 3.5 3.375 4.3481 3.375 5.39453C3.375 14.2892 10.5858 21.5 19.4805 21.5C20.5269 21.5 21.375 20.6516 21.375 19.6052L21.3755 16.854C21.3755 16.0361 20.8777 15.3009 20.1184 14.9971L17.4819 13.9429C16.7999 13.6701 16.0233 13.7929 15.4589 14.2632L14.7785 14.8307C13.9839 15.4929 12.8146 15.4402 12.0832 14.7088L10.1672 12.7911C9.43579 12.0596 9.38173 10.8913 10.0439 10.0967L10.6113 9.4163C11.0816 8.85195 11.2055 8.07516 10.9327 7.39309L9.87746 4.75722Z" stroke="black" stroke-opacity="0.2" stroke-width="2" stroke-linecap="round" stroke-linejoin="round"/>
</svg>
