<svg width="200" height="22" viewBox="0 0 200 22" fill="none" xmlns="http://www.w3.org/2000/svg">
<path d="M199.776 15.3493C199.776 15.3305 199.776 15.3305 199.776 15.3493L199.067 13.2263C198.843 12.3809 198.264 11.6669 197.48 11.2912C197.107 11.1033 196.677 11.0094 196.211 11.0094H190.33C190.181 11.0094 190.05 11.0282 189.901 11.047C188.613 11.2348 187.586 12.2494 187.418 13.5457C187.4 13.6772 187.381 13.8275 187.381 13.9778V16.9086V19.4449V21.9812H189.901V19.4449H197.051C198.525 19.4449 199.757 18.3365 199.963 16.9086C199.981 16.7771 200 16.6268 200 16.4765C200 16.082 199.925 15.6874 199.776 15.3493ZM196.229 16.9086H194.157H190.349H189.92V16.871V13.959C189.92 13.7336 190.106 13.5269 190.349 13.5269H193.261H193.317H196.229C196.304 13.5269 196.397 13.5457 196.453 13.5833C196.528 13.6396 196.603 13.7148 196.621 13.8087C196.621 13.8087 196.621 13.8087 196.621 13.8275L197.443 16.3262C197.443 16.3262 197.443 16.3262 197.443 16.345C197.443 16.3638 197.461 16.3638 197.461 16.3826C197.48 16.4202 197.48 16.4577 197.48 16.4953C197.48 16.5517 197.48 16.608 197.443 16.6456C197.387 16.7959 197.237 16.9086 197.051 16.9086H196.229Z" fill="#1C1C1C"/>
<path d="M199.776 15.3493C199.776 15.3305 199.776 15.3305 199.776 15.3493L199.067 13.2263C198.843 12.3809 198.264 11.6669 197.48 11.2912C197.107 11.1033 196.677 11.0094 196.211 11.0094H190.33C190.181 11.0094 190.05 11.0282 189.901 11.047C188.613 11.2348 187.586 12.2494 187.418 13.5457C187.4 13.6772 187.381 13.8275 187.381 13.9778V16.9086V19.4449V21.9812H189.901V19.4449H197.051C198.525 19.4449 199.757 18.3365 199.963 16.9086C199.981 16.7771 200 16.6268 200 16.4765C200 16.082 199.925 15.6874 199.776 15.3493ZM196.229 16.9086H194.157H190.349H189.92V16.871V13.959C189.92 13.7336 190.106 13.5269 190.349 13.5269H193.261H193.317H196.229C196.304 13.5269 196.397 13.5457 196.453 13.5833C196.528 13.6396 196.603 13.7148 196.621 13.8087C196.621 13.8087 196.621 13.8087 196.621 13.8275L197.443 16.3262C197.443 16.3262 197.443 16.3262 197.443 16.345C197.443 16.3638 197.461 16.3638 197.461 16.3826C197.48 16.4202 197.48 16.4577 197.48 16.4953C197.48 16.5517 197.48 16.608 197.443 16.6456C197.387 16.7959 197.237 16.9086 197.051 16.9086H196.229Z" fill="black" fill-opacity="0.2"/>
<path d="M199.776 15.3493C199.776 15.3305 199.776 15.3305 199.776 15.3493L199.067 13.2263C198.843 12.3809 198.264 11.6669 197.48 11.2912C197.107 11.1033 196.677 11.0094 196.211 11.0094H190.33C190.181 11.0094 190.05 11.0282 189.901 11.047C188.613 11.2348 187.586 12.2494 187.418 13.5457C187.4 13.6772 187.381 13.8275 187.381 13.9778V16.9086V19.4449V21.9812H189.901V19.4449H197.051C198.525 19.4449 199.757 18.3365 199.963 16.9086C199.981 16.7771 200 16.6268 200 16.4765C200 16.082 199.925 15.6874 199.776 15.3493ZM196.229 16.9086H194.157H190.349H189.92V16.871V13.959C189.92 13.7336 190.106 13.5269 190.349 13.5269H193.261H193.317H196.229C196.304 13.5269 196.397 13.5457 196.453 13.5833C196.528 13.6396 196.603 13.7148 196.621 13.8087C196.621 13.8087 196.621 13.8087 196.621 13.8275L197.443 16.3262C197.443 16.3262 197.443 16.3262 197.443 16.345C197.443 16.3638 197.461 16.3638 197.461 16.3826C197.48 16.4202 197.48 16.4577 197.48 16.4953C197.48 16.5517 197.48 16.608 197.443 16.6456C197.387 16.7959 197.237 16.9086 197.051 16.9086H196.229Z" fill="black" fill-opacity="0.2"/>
<path d="M199.776 15.3493C199.776 15.3305 199.776 15.3305 199.776 15.3493L199.067 13.2263C198.843 12.3809 198.264 11.6669 197.48 11.2912C197.107 11.1033 196.677 11.0094 196.211 11.0094H190.33C190.181 11.0094 190.05 11.0282 189.901 11.047C188.613 11.2348 187.586 12.2494 187.418 13.5457C187.4 13.6772 187.381 13.8275 187.381 13.9778V16.9086V19.4449V21.9812H189.901V19.4449H197.051C198.525 19.4449 199.757 18.3365 199.963 16.9086C199.981 16.7771 200 16.6268 200 16.4765C200 16.082 199.925 15.6874 199.776 15.3493ZM196.229 16.9086H194.157H190.349H189.92V16.871V13.959C189.92 13.7336 190.106 13.5269 190.349 13.5269H193.261H193.317H196.229C196.304 13.5269 196.397 13.5457 196.453 13.5833C196.528 13.6396 196.603 13.7148 196.621 13.8087C196.621 13.8087 196.621 13.8087 196.621 13.8275L197.443 16.3262C197.443 16.3262 197.443 16.3262 197.443 16.345C197.443 16.3638 197.461 16.3638 197.461 16.3826C197.48 16.4202 197.48 16.4577 197.48 16.4953C197.48 16.5517 197.48 16.608 197.443 16.6456C197.387 16.7959 197.237 16.9086 197.051 16.9086H196.229Z" fill="black" fill-opacity="0.2"/>
<path d="M199.776 15.3493C199.776 15.3305 199.776 15.3305 199.776 15.3493L199.067 13.2263C198.843 12.3809 198.264 11.6669 197.48 11.2912C197.107 11.1033 196.677 11.0094 196.211 11.0094H190.33C190.181 11.0094 190.05 11.0282 189.901 11.047C188.613 11.2348 187.586 12.2494 187.418 13.5457C187.4 13.6772 187.381 13.8275 187.381 13.9778V16.9086V19.4449V21.9812H189.901V19.4449H197.051C198.525 19.4449 199.757 18.3365 199.963 16.9086C199.981 16.7771 200 16.6268 200 16.4765C200 16.082 199.925 15.6874 199.776 15.3493ZM196.229 16.9086H194.157H190.349H189.92V16.871V13.959C189.92 13.7336 190.106 13.5269 190.349 13.5269H193.261H193.317H196.229C196.304 13.5269 196.397 13.5457 196.453 13.5833C196.528 13.6396 196.603 13.7148 196.621 13.8087C196.621 13.8087 196.621 13.8087 196.621 13.8275L197.443 16.3262C197.443 16.3262 197.443 16.3262 197.443 16.345C197.443 16.3638 197.461 16.3638 197.461 16.3826C197.48 16.4202 197.48 16.4577 197.48 16.4953C197.48 16.5517 197.48 16.608 197.443 16.6456C197.387 16.7959 197.237 16.9086 197.051 16.9086H196.229Z" fill="black" fill-opacity="0.2"/>
<path d="M199.776 15.3493C199.776 15.3305 199.776 15.3305 199.776 15.3493L199.067 13.2263C198.843 12.3809 198.264 11.6669 197.48 11.2912C197.107 11.1033 196.677 11.0094 196.211 11.0094H190.33C190.181 11.0094 190.05 11.0282 189.901 11.047C188.613 11.2348 187.586 12.2494 187.418 13.5457C187.4 13.6772 187.381 13.8275 187.381 13.9778V16.9086V19.4449V21.9812H189.901V19.4449H197.051C198.525 19.4449 199.757 18.3365 199.963 16.9086C199.981 16.7771 200 16.6268 200 16.4765C200 16.082 199.925 15.6874 199.776 15.3493ZM196.229 16.9086H194.157H190.349H189.92V16.871V13.959C189.92 13.7336 190.106 13.5269 190.349 13.5269H193.261H193.317H196.229C196.304 13.5269 196.397 13.5457 196.453 13.5833C196.528 13.6396 196.603 13.7148 196.621 13.8087C196.621 13.8087 196.621 13.8087 196.621 13.8275L197.443 16.3262C197.443 16.3262 197.443 16.3262 197.443 16.345C197.443 16.3638 197.461 16.3638 197.461 16.3826C197.48 16.4202 197.48 16.4577 197.48 16.4953C197.48 16.5517 197.48 16.608 197.443 16.6456C197.387 16.7959 197.237 16.9086 197.051 16.9086H196.229Z" fill="black" fill-opacity="0.2"/>
<path d="M199.776 15.3493C199.776 15.3305 199.776 15.3305 199.776 15.3493L199.067 13.2263C198.843 12.3809 198.264 11.6669 197.48 11.2912C197.107 11.1033 196.677 11.0094 196.211 11.0094H190.33C190.181 11.0094 190.05 11.0282 189.901 11.047C188.613 11.2348 187.586 12.2494 187.418 13.5457C187.4 13.6772 187.381 13.8275 187.381 13.9778V16.9086V19.4449V21.9812H189.901V19.4449H197.051C198.525 19.4449 199.757 18.3365 199.963 16.9086C199.981 16.7771 200 16.6268 200 16.4765C200 16.082 199.925 15.6874 199.776 15.3493ZM196.229 16.9086H194.157H190.349H189.92V16.871V13.959C189.92 13.7336 190.106 13.5269 190.349 13.5269H193.261H193.317H196.229C196.304 13.5269 196.397 13.5457 196.453 13.5833C196.528 13.6396 196.603 13.7148 196.621 13.8087C196.621 13.8087 196.621 13.8087 196.621 13.8275L197.443 16.3262C197.443 16.3262 197.443 16.3262 197.443 16.345C197.443 16.3638 197.461 16.3638 197.461 16.3826C197.48 16.4202 197.48 16.4577 197.48 16.4953C197.48 16.5517 197.48 16.608 197.443 16.6456C197.387 16.7959 197.237 16.9086 197.051 16.9086H196.229Z" fill="black" fill-opacity="0.2"/>
<path d="M199.776 15.3493C199.776 15.3305 199.776 15.3305 199.776 15.3493L199.067 13.2263C198.843 12.3809 198.264 11.6669 197.48 11.2912C197.107 11.1033 196.677 11.0094 196.211 11.0094H190.33C190.181 11.0094 190.05 11.0282 189.901 11.047C188.613 11.2348 187.586 12.2494 187.418 13.5457C187.4 13.6772 187.381 13.8275 187.381 13.9778V16.9086V19.4449V21.9812H189.901V19.4449H197.051C198.525 19.4449 199.757 18.3365 199.963 16.9086C199.981 16.7771 200 16.6268 200 16.4765C200 16.082 199.925 15.6874 199.776 15.3493ZM196.229 16.9086H194.157H190.349H189.92V16.871V13.959C189.92 13.7336 190.106 13.5269 190.349 13.5269H193.261H193.317H196.229C196.304 13.5269 196.397 13.5457 196.453 13.5833C196.528 13.6396 196.603 13.7148 196.621 13.8087C196.621 13.8087 196.621 13.8087 196.621 13.8275L197.443 16.3262C197.443 16.3262 197.443 16.3262 197.443 16.345C197.443 16.3638 197.461 16.3638 197.461 16.3826C197.48 16.4202 197.48 16.4577 197.48 16.4953C197.48 16.5517 197.48 16.608 197.443 16.6456C197.387 16.7959 197.237 16.9086 197.051 16.9086H196.229Z" fill="black" fill-opacity="0.2"/>
<path d="M199.776 15.3493C199.776 15.3305 199.776 15.3305 199.776 15.3493L199.067 13.2263C198.843 12.3809 198.264 11.6669 197.48 11.2912C197.107 11.1033 196.677 11.0094 196.211 11.0094H190.33C190.181 11.0094 190.05 11.0282 189.901 11.047C188.613 11.2348 187.586 12.2494 187.418 13.5457C187.4 13.6772 187.381 13.8275 187.381 13.9778V16.9086V19.4449V21.9812H189.901V19.4449H197.051C198.525 19.4449 199.757 18.3365 199.963 16.9086C199.981 16.7771 200 16.6268 200 16.4765C200 16.082 199.925 15.6874 199.776 15.3493ZM196.229 16.9086H194.157H190.349H189.92V16.871V13.959C189.92 13.7336 190.106 13.5269 190.349 13.5269H193.261H193.317H196.229C196.304 13.5269 196.397 13.5457 196.453 13.5833C196.528 13.6396 196.603 13.7148 196.621 13.8087C196.621 13.8087 196.621 13.8087 196.621 13.8275L197.443 16.3262C197.443 16.3262 197.443 16.3262 197.443 16.345C197.443 16.3638 197.461 16.3638 197.461 16.3826C197.48 16.4202 197.48 16.4577 197.48 16.4953C197.48 16.5517 197.48 16.608 197.443 16.6456C197.387 16.7959 197.237 16.9086 197.051 16.9086H196.229Z" fill="black" fill-opacity="0.2"/>
<path d="M199.776 15.3493C199.776 15.3305 199.776 15.3305 199.776 15.3493L199.067 13.2263C198.843 12.3809 198.264 11.6669 197.48 11.2912C197.107 11.1033 196.677 11.0094 196.211 11.0094H190.33C190.181 11.0094 190.05 11.0282 189.901 11.047C188.613 11.2348 187.586 12.2494 187.418 13.5457C187.4 13.6772 187.381 13.8275 187.381 13.9778V16.9086V19.4449V21.9812H189.901V19.4449H197.051C198.525 19.4449 199.757 18.3365 199.963 16.9086C199.981 16.7771 200 16.6268 200 16.4765C200 16.082 199.925 15.6874 199.776 15.3493ZM196.229 16.9086H194.157H190.349H189.92V16.871V13.959C189.92 13.7336 190.106 13.5269 190.349 13.5269H193.261H193.317H196.229C196.304 13.5269 196.397 13.5457 196.453 13.5833C196.528 13.6396 196.603 13.7148 196.621 13.8087C196.621 13.8087 196.621 13.8087 196.621 13.8275L197.443 16.3262C197.443 16.3262 197.443 16.3262 197.443 16.345C197.443 16.3638 197.461 16.3638 197.461 16.3826C197.48 16.4202 197.48 16.4577 197.48 16.4953C197.48 16.5517 197.48 16.608 197.443 16.6456C197.387 16.7959 197.237 16.9086 197.051 16.9086H196.229Z" fill="black" fill-opacity="0.2"/>
<path d="M199.776 15.3493C199.776 15.3305 199.776 15.3305 199.776 15.3493L199.067 13.2263C198.843 12.3809 198.264 11.6669 197.48 11.2912C197.107 11.1033 196.677 11.0094 196.211 11.0094H190.33C190.181 11.0094 190.05 11.0282 189.901 11.047C188.613 11.2348 187.586 12.2494 187.418 13.5457C187.4 13.6772 187.381 13.8275 187.381 13.9778V16.9086V19.4449V21.9812H189.901V19.4449H197.051C198.525 19.4449 199.757 18.3365 199.963 16.9086C199.981 16.7771 200 16.6268 200 16.4765C200 16.082 199.925 15.6874 199.776 15.3493ZM196.229 16.9086H194.157H190.349H189.92V16.871V13.959C189.92 13.7336 190.106 13.5269 190.349 13.5269H193.261H193.317H196.229C196.304 13.5269 196.397 13.5457 196.453 13.5833C196.528 13.6396 196.603 13.7148 196.621 13.8087C196.621 13.8087 196.621 13.8087 196.621 13.8275L197.443 16.3262C197.443 16.3262 197.443 16.3262 197.443 16.345C197.443 16.3638 197.461 16.3638 197.461 16.3826C197.48 16.4202 197.48 16.4577 197.48 16.4953C197.48 16.5517 197.48 16.608 197.443 16.6456C197.387 16.7959 197.237 16.9086 197.051 16.9086H196.229Z" fill="black" fill-opacity="0.2"/>
<path d="M199.776 15.3493C199.776 15.3305 199.776 15.3305 199.776 15.3493L199.067 13.2263C198.843 12.3809 198.264 11.6669 197.48 11.2912C197.107 11.1033 196.677 11.0094 196.211 11.0094H190.33C190.181 11.0094 190.05 11.0282 189.901 11.047C188.613 11.2348 187.586 12.2494 187.418 13.5457C187.4 13.6772 187.381 13.8275 187.381 13.9778V16.9086V19.4449V21.9812H189.901V19.4449H197.051C198.525 19.4449 199.757 18.3365 199.963 16.9086C199.981 16.7771 200 16.6268 200 16.4765C200 16.082 199.925 15.6874 199.776 15.3493ZM196.229 16.9086H194.157H190.349H189.92V16.871V13.959C189.92 13.7336 190.106 13.5269 190.349 13.5269H193.261H193.317H196.229C196.304 13.5269 196.397 13.5457 196.453 13.5833C196.528 13.6396 196.603 13.7148 196.621 13.8087C196.621 13.8087 196.621 13.8087 196.621 13.8275L197.443 16.3262C197.443 16.3262 197.443 16.3262 197.443 16.345C197.443 16.3638 197.461 16.3638 197.461 16.3826C197.48 16.4202 197.48 16.4577 197.48 16.4953C197.48 16.5517 197.48 16.608 197.443 16.6456C197.387 16.7959 197.237 16.9086 197.051 16.9086H196.229Z" fill="black" fill-opacity="0.2"/>
<path d="M199.776 15.3493C199.776 15.3305 199.776 15.3305 199.776 15.3493L199.067 13.2263C198.843 12.3809 198.264 11.6669 197.48 11.2912C197.107 11.1033 196.677 11.0094 196.211 11.0094H190.33C190.181 11.0094 190.05 11.0282 189.901 11.047C188.613 11.2348 187.586 12.2494 187.418 13.5457C187.4 13.6772 187.381 13.8275 187.381 13.9778V16.9086V19.4449V21.9812H189.901V19.4449H197.051C198.525 19.4449 199.757 18.3365 199.963 16.9086C199.981 16.7771 200 16.6268 200 16.4765C200 16.082 199.925 15.6874 199.776 15.3493ZM196.229 16.9086H194.157H190.349H189.92V16.871V13.959C189.92 13.7336 190.106 13.5269 190.349 13.5269H193.261H193.317H196.229C196.304 13.5269 196.397 13.5457 196.453 13.5833C196.528 13.6396 196.603 13.7148 196.621 13.8087C196.621 13.8087 196.621 13.8087 196.621 13.8275L197.443 16.3262C197.443 16.3262 197.443 16.3262 197.443 16.345C197.443 16.3638 197.461 16.3638 197.461 16.3826C197.48 16.4202 197.48 16.4577 197.48 16.4953C197.48 16.5517 197.48 16.608 197.443 16.6456C197.387 16.7959 197.237 16.9086 197.051 16.9086H196.229Z" fill="black" fill-opacity="0.2"/>
<path d="M182.341 10.9906H176.461C174.37 10.9906 172.671 12.7003 172.671 14.8044V18.1862C172.671 20.2904 174.37 22 176.461 22H182.341C184.432 22 186.13 20.2904 186.13 18.1862V14.8044C186.13 12.7003 184.432 10.9906 182.341 10.9906ZM180.026 19.4449H178.775H176.461C175.845 19.4449 175.322 18.994 175.21 18.3928C175.191 18.3177 175.191 18.2613 175.191 18.1862V14.8044C175.191 14.7293 175.191 14.6541 175.21 14.5978C175.303 13.9966 175.826 13.5457 176.461 13.5457H178.775H180.026H182.341C182.957 13.5457 183.48 13.9966 183.592 14.5978C183.61 14.6729 183.61 14.7293 183.61 14.8044V18.1862C183.61 18.2613 183.61 18.3365 183.592 18.3928C183.498 18.994 182.976 19.4449 182.341 19.4449H180.026Z" fill="#1C1C1C"/>
<path d="M182.341 10.9906H176.461C174.37 10.9906 172.671 12.7003 172.671 14.8044V18.1862C172.671 20.2904 174.37 22 176.461 22H182.341C184.432 22 186.13 20.2904 186.13 18.1862V14.8044C186.13 12.7003 184.432 10.9906 182.341 10.9906ZM180.026 19.4449H178.775H176.461C175.845 19.4449 175.322 18.994 175.21 18.3928C175.191 18.3177 175.191 18.2613 175.191 18.1862V14.8044C175.191 14.7293 175.191 14.6541 175.21 14.5978C175.303 13.9966 175.826 13.5457 176.461 13.5457H178.775H180.026H182.341C182.957 13.5457 183.48 13.9966 183.592 14.5978C183.61 14.6729 183.61 14.7293 183.61 14.8044V18.1862C183.61 18.2613 183.61 18.3365 183.592 18.3928C183.498 18.994 182.976 19.4449 182.341 19.4449H180.026Z" fill="black" fill-opacity="0.2"/>
<path d="M182.341 10.9906H176.461C174.37 10.9906 172.671 12.7003 172.671 14.8044V18.1862C172.671 20.2904 174.37 22 176.461 22H182.341C184.432 22 186.13 20.2904 186.13 18.1862V14.8044C186.13 12.7003 184.432 10.9906 182.341 10.9906ZM180.026 19.4449H178.775H176.461C175.845 19.4449 175.322 18.994 175.21 18.3928C175.191 18.3177 175.191 18.2613 175.191 18.1862V14.8044C175.191 14.7293 175.191 14.6541 175.21 14.5978C175.303 13.9966 175.826 13.5457 176.461 13.5457H178.775H180.026H182.341C182.957 13.5457 183.48 13.9966 183.592 14.5978C183.61 14.6729 183.61 14.7293 183.61 14.8044V18.1862C183.61 18.2613 183.61 18.3365 183.592 18.3928C183.498 18.994 182.976 19.4449 182.341 19.4449H180.026Z" fill="black" fill-opacity="0.2"/>
<path d="M182.341 10.9906H176.461C174.37 10.9906 172.671 12.7003 172.671 14.8044V18.1862C172.671 20.2904 174.37 22 176.461 22H182.341C184.432 22 186.13 20.2904 186.13 18.1862V14.8044C186.13 12.7003 184.432 10.9906 182.341 10.9906ZM180.026 19.4449H178.775H176.461C175.845 19.4449 175.322 18.994 175.21 18.3928C175.191 18.3177 175.191 18.2613 175.191 18.1862V14.8044C175.191 14.7293 175.191 14.6541 175.21 14.5978C175.303 13.9966 175.826 13.5457 176.461 13.5457H178.775H180.026H182.341C182.957 13.5457 183.48 13.9966 183.592 14.5978C183.61 14.6729 183.61 14.7293 183.61 14.8044V18.1862C183.61 18.2613 183.61 18.3365 183.592 18.3928C183.498 18.994 182.976 19.4449 182.341 19.4449H180.026Z" fill="black" fill-opacity="0.2"/>
<path d="M182.341 10.9906H176.461C174.37 10.9906 172.671 12.7003 172.671 14.8044V18.1862C172.671 20.2904 174.37 22 176.461 22H182.341C184.432 22 186.13 20.2904 186.13 18.1862V14.8044C186.13 12.7003 184.432 10.9906 182.341 10.9906ZM180.026 19.4449H178.775H176.461C175.845 19.4449 175.322 18.994 175.21 18.3928C175.191 18.3177 175.191 18.2613 175.191 18.1862V14.8044C175.191 14.7293 175.191 14.6541 175.21 14.5978C175.303 13.9966 175.826 13.5457 176.461 13.5457H178.775H180.026H182.341C182.957 13.5457 183.48 13.9966 183.592 14.5978C183.61 14.6729 183.61 14.7293 183.61 14.8044V18.1862C183.61 18.2613 183.61 18.3365 183.592 18.3928C183.498 18.994 182.976 19.4449 182.341 19.4449H180.026Z" fill="black" fill-opacity="0.2"/>
<path d="M182.341 10.9906H176.461C174.37 10.9906 172.671 12.7003 172.671 14.8044V18.1862C172.671 20.2904 174.37 22 176.461 22H182.341C184.432 22 186.13 20.2904 186.13 18.1862V14.8044C186.13 12.7003 184.432 10.9906 182.341 10.9906ZM180.026 19.4449H178.775H176.461C175.845 19.4449 175.322 18.994 175.21 18.3928C175.191 18.3177 175.191 18.2613 175.191 18.1862V14.8044C175.191 14.7293 175.191 14.6541 175.21 14.5978C175.303 13.9966 175.826 13.5457 176.461 13.5457H178.775H180.026H182.341C182.957 13.5457 183.48 13.9966 183.592 14.5978C183.61 14.6729 183.61 14.7293 183.61 14.8044V18.1862C183.61 18.2613 183.61 18.3365 183.592 18.3928C183.498 18.994 182.976 19.4449 182.341 19.4449H180.026Z" fill="black" fill-opacity="0.2"/>
<path d="M182.341 10.9906H176.461C174.37 10.9906 172.671 12.7003 172.671 14.8044V18.1862C172.671 20.2904 174.37 22 176.461 22H182.341C184.432 22 186.13 20.2904 186.13 18.1862V14.8044C186.13 12.7003 184.432 10.9906 182.341 10.9906ZM180.026 19.4449H178.775H176.461C175.845 19.4449 175.322 18.994 175.21 18.3928C175.191 18.3177 175.191 18.2613 175.191 18.1862V14.8044C175.191 14.7293 175.191 14.6541 175.21 14.5978C175.303 13.9966 175.826 13.5457 176.461 13.5457H178.775H180.026H182.341C182.957 13.5457 183.48 13.9966 183.592 14.5978C183.61 14.6729 183.61 14.7293 183.61 14.8044V18.1862C183.61 18.2613 183.61 18.3365 183.592 18.3928C183.498 18.994 182.976 19.4449 182.341 19.4449H180.026Z" fill="black" fill-opacity="0.2"/>
<path d="M182.341 10.9906H176.461C174.37 10.9906 172.671 12.7003 172.671 14.8044V18.1862C172.671 20.2904 174.37 22 176.461 22H182.341C184.432 22 186.13 20.2904 186.13 18.1862V14.8044C186.13 12.7003 184.432 10.9906 182.341 10.9906ZM180.026 19.4449H178.775H176.461C175.845 19.4449 175.322 18.994 175.21 18.3928C175.191 18.3177 175.191 18.2613 175.191 18.1862V14.8044C175.191 14.7293 175.191 14.6541 175.21 14.5978C175.303 13.9966 175.826 13.5457 176.461 13.5457H178.775H180.026H182.341C182.957 13.5457 183.48 13.9966 183.592 14.5978C183.61 14.6729 183.61 14.7293 183.61 14.8044V18.1862C183.61 18.2613 183.61 18.3365 183.592 18.3928C183.498 18.994 182.976 19.4449 182.341 19.4449H180.026Z" fill="black" fill-opacity="0.2"/>
<path d="M182.341 10.9906H176.461C174.37 10.9906 172.671 12.7003 172.671 14.8044V18.1862C172.671 20.2904 174.37 22 176.461 22H182.341C184.432 22 186.13 20.2904 186.13 18.1862V14.8044C186.13 12.7003 184.432 10.9906 182.341 10.9906ZM180.026 19.4449H178.775H176.461C175.845 19.4449 175.322 18.994 175.21 18.3928C175.191 18.3177 175.191 18.2613 175.191 18.1862V14.8044C175.191 14.7293 175.191 14.6541 175.21 14.5978C175.303 13.9966 175.826 13.5457 176.461 13.5457H178.775H180.026H182.341C182.957 13.5457 183.48 13.9966 183.592 14.5978C183.61 14.6729 183.61 14.7293 183.61 14.8044V18.1862C183.61 18.2613 183.61 18.3365 183.592 18.3928C183.498 18.994 182.976 19.4449 182.341 19.4449H180.026Z" fill="black" fill-opacity="0.2"/>
<path d="M182.341 10.9906H176.461C174.37 10.9906 172.671 12.7003 172.671 14.8044V18.1862C172.671 20.2904 174.37 22 176.461 22H182.341C184.432 22 186.13 20.2904 186.13 18.1862V14.8044C186.13 12.7003 184.432 10.9906 182.341 10.9906ZM180.026 19.4449H178.775H176.461C175.845 19.4449 175.322 18.994 175.21 18.3928C175.191 18.3177 175.191 18.2613 175.191 18.1862V14.8044C175.191 14.7293 175.191 14.6541 175.21 14.5978C175.303 13.9966 175.826 13.5457 176.461 13.5457H178.775H180.026H182.341C182.957 13.5457 183.48 13.9966 183.592 14.5978C183.61 14.6729 183.61 14.7293 183.61 14.8044V18.1862C183.61 18.2613 183.61 18.3365 183.592 18.3928C183.498 18.994 182.976 19.4449 182.341 19.4449H180.026Z" fill="black" fill-opacity="0.2"/>
<path d="M182.341 10.9906H176.461C174.37 10.9906 172.671 12.7003 172.671 14.8044V18.1862C172.671 20.2904 174.37 22 176.461 22H182.341C184.432 22 186.13 20.2904 186.13 18.1862V14.8044C186.13 12.7003 184.432 10.9906 182.341 10.9906ZM180.026 19.4449H178.775H176.461C175.845 19.4449 175.322 18.994 175.21 18.3928C175.191 18.3177 175.191 18.2613 175.191 18.1862V14.8044C175.191 14.7293 175.191 14.6541 175.21 14.5978C175.303 13.9966 175.826 13.5457 176.461 13.5457H178.775H180.026H182.341C182.957 13.5457 183.48 13.9966 183.592 14.5978C183.61 14.6729 183.61 14.7293 183.61 14.8044V18.1862C183.61 18.2613 183.61 18.3365 183.592 18.3928C183.498 18.994 182.976 19.4449 182.341 19.4449H180.026Z" fill="black" fill-opacity="0.2"/>
<path d="M182.341 10.9906H176.461C174.37 10.9906 172.671 12.7003 172.671 14.8044V18.1862C172.671 20.2904 174.37 22 176.461 22H182.341C184.432 22 186.13 20.2904 186.13 18.1862V14.8044C186.13 12.7003 184.432 10.9906 182.341 10.9906ZM180.026 19.4449H178.775H176.461C175.845 19.4449 175.322 18.994 175.21 18.3928C175.191 18.3177 175.191 18.2613 175.191 18.1862V14.8044C175.191 14.7293 175.191 14.6541 175.21 14.5978C175.303 13.9966 175.826 13.5457 176.461 13.5457H178.775H180.026H182.341C182.957 13.5457 183.48 13.9966 183.592 14.5978C183.61 14.6729 183.61 14.7293 183.61 14.8044V18.1862C183.61 18.2613 183.61 18.3365 183.592 18.3928C183.498 18.994 182.976 19.4449 182.341 19.4449H180.026Z" fill="black" fill-opacity="0.2"/>
<path d="M182.341 10.9906H176.461C174.37 10.9906 172.671 12.7003 172.671 14.8044V18.1862C172.671 20.2904 174.37 22 176.461 22H182.341C184.432 22 186.13 20.2904 186.13 18.1862V14.8044C186.13 12.7003 184.432 10.9906 182.341 10.9906ZM180.026 19.4449H178.775H176.461C175.845 19.4449 175.322 18.994 175.21 18.3928C175.191 18.3177 175.191 18.2613 175.191 18.1862V14.8044C175.191 14.7293 175.191 14.6541 175.21 14.5978C175.303 13.9966 175.826 13.5457 176.461 13.5457H178.775H180.026H182.341C182.957 13.5457 183.48 13.9966 183.592 14.5978C183.61 14.6729 183.61 14.7293 183.61 14.8044V18.1862C183.61 18.2613 183.61 18.3365 183.592 18.3928C183.498 18.994 182.976 19.4449 182.341 19.4449H180.026Z" fill="black" fill-opacity="0.2"/>
<path d="M142.822 19.4449H140.302V21.9812H142.822V19.4449Z" fill="#1C1C1C"/>
<path d="M142.822 19.4449H140.302V21.9812H142.822V19.4449Z" fill="black" fill-opacity="0.2"/>
<path d="M142.822 19.4449H140.302V21.9812H142.822V19.4449Z" fill="black" fill-opacity="0.2"/>
<path d="M142.822 19.4449H140.302V21.9812H142.822V19.4449Z" fill="black" fill-opacity="0.2"/>
<path d="M142.822 19.4449H140.302V21.9812H142.822V19.4449Z" fill="black" fill-opacity="0.2"/>
<path d="M142.822 19.4449H140.302V21.9812H142.822V19.4449Z" fill="black" fill-opacity="0.2"/>
<path d="M142.822 19.4449H140.302V21.9812H142.822V19.4449Z" fill="black" fill-opacity="0.2"/>
<path d="M142.822 19.4449H140.302V21.9812H142.822V19.4449Z" fill="black" fill-opacity="0.2"/>
<path d="M142.822 19.4449H140.302V21.9812H142.822V19.4449Z" fill="black" fill-opacity="0.2"/>
<path d="M142.822 19.4449H140.302V21.9812H142.822V19.4449Z" fill="black" fill-opacity="0.2"/>
<path d="M142.822 19.4449H140.302V21.9812H142.822V19.4449Z" fill="black" fill-opacity="0.2"/>
<path d="M142.822 19.4449H140.302V21.9812H142.822V19.4449Z" fill="black" fill-opacity="0.2"/>
<path d="M142.822 19.4449H140.302V21.9812H142.822V19.4449Z" fill="black" fill-opacity="0.2"/>
<path d="M20.1605 8.45431H18.4805H16.8004H15.1204V10.5961V11.3851V13.5269H16.8004H20.1605C20.1605 15.3869 18.6485 16.9086 16.8004 16.9086H16.0911H9.10958H8.40022C6.55217 16.9086 5.04013 15.3869 5.04013 13.5269V8.45431C5.04013 6.59436 6.55217 5.07259 8.40022 5.07259H9.10958H16.1098H16.8004C18.0511 5.07259 19.1338 5.74893 19.7125 6.76345H20.1605H21.8406H25.0327C24.2486 2.91204 20.8699 0 16.8004 0H8.40022C3.7521 0 0 3.77626 0 8.45431V13.5269C0 18.205 3.7521 21.9812 8.40022 21.9812H16.8004C21.4486 21.9812 25.2007 18.205 25.2007 13.5269V10.1452V8.45431H23.5206H20.1605Z" fill="#1C1C1C"/>
<path d="M20.1605 8.45431H18.4805H16.8004H15.1204V10.5961V11.3851V13.5269H16.8004H20.1605C20.1605 15.3869 18.6485 16.9086 16.8004 16.9086H16.0911H9.10958H8.40022C6.55217 16.9086 5.04013 15.3869 5.04013 13.5269V8.45431C5.04013 6.59436 6.55217 5.07259 8.40022 5.07259H9.10958H16.1098H16.8004C18.0511 5.07259 19.1338 5.74893 19.7125 6.76345H20.1605H21.8406H25.0327C24.2486 2.91204 20.8699 0 16.8004 0H8.40022C3.7521 0 0 3.77626 0 8.45431V13.5269C0 18.205 3.7521 21.9812 8.40022 21.9812H16.8004C21.4486 21.9812 25.2007 18.205 25.2007 13.5269V10.1452V8.45431H23.5206H20.1605Z" fill="black" fill-opacity="0.2"/>
<path d="M20.1605 8.45431H18.4805H16.8004H15.1204V10.5961V11.3851V13.5269H16.8004H20.1605C20.1605 15.3869 18.6485 16.9086 16.8004 16.9086H16.0911H9.10958H8.40022C6.55217 16.9086 5.04013 15.3869 5.04013 13.5269V8.45431C5.04013 6.59436 6.55217 5.07259 8.40022 5.07259H9.10958H16.1098H16.8004C18.0511 5.07259 19.1338 5.74893 19.7125 6.76345H20.1605H21.8406H25.0327C24.2486 2.91204 20.8699 0 16.8004 0H8.40022C3.7521 0 0 3.77626 0 8.45431V13.5269C0 18.205 3.7521 21.9812 8.40022 21.9812H16.8004C21.4486 21.9812 25.2007 18.205 25.2007 13.5269V10.1452V8.45431H23.5206H20.1605Z" fill="black" fill-opacity="0.2"/>
<path d="M20.1605 8.45431H18.4805H16.8004H15.1204V10.5961V11.3851V13.5269H16.8004H20.1605C20.1605 15.3869 18.6485 16.9086 16.8004 16.9086H16.0911H9.10958H8.40022C6.55217 16.9086 5.04013 15.3869 5.04013 13.5269V8.45431C5.04013 6.59436 6.55217 5.07259 8.40022 5.07259H9.10958H16.1098H16.8004C18.0511 5.07259 19.1338 5.74893 19.7125 6.76345H20.1605H21.8406H25.0327C24.2486 2.91204 20.8699 0 16.8004 0H8.40022C3.7521 0 0 3.77626 0 8.45431V13.5269C0 18.205 3.7521 21.9812 8.40022 21.9812H16.8004C21.4486 21.9812 25.2007 18.205 25.2007 13.5269V10.1452V8.45431H23.5206H20.1605Z" fill="black" fill-opacity="0.2"/>
<path d="M20.1605 8.45431H18.4805H16.8004H15.1204V10.5961V11.3851V13.5269H16.8004H20.1605C20.1605 15.3869 18.6485 16.9086 16.8004 16.9086H16.0911H9.10958H8.40022C6.55217 16.9086 5.04013 15.3869 5.04013 13.5269V8.45431C5.04013 6.59436 6.55217 5.07259 8.40022 5.07259H9.10958H16.1098H16.8004C18.0511 5.07259 19.1338 5.74893 19.7125 6.76345H20.1605H21.8406H25.0327C24.2486 2.91204 20.8699 0 16.8004 0H8.40022C3.7521 0 0 3.77626 0 8.45431V13.5269C0 18.205 3.7521 21.9812 8.40022 21.9812H16.8004C21.4486 21.9812 25.2007 18.205 25.2007 13.5269V10.1452V8.45431H23.5206H20.1605Z" fill="black" fill-opacity="0.2"/>
<path d="M20.1605 8.45431H18.4805H16.8004H15.1204V10.5961V11.3851V13.5269H16.8004H20.1605C20.1605 15.3869 18.6485 16.9086 16.8004 16.9086H16.0911H9.10958H8.40022C6.55217 16.9086 5.04013 15.3869 5.04013 13.5269V8.45431C5.04013 6.59436 6.55217 5.07259 8.40022 5.07259H9.10958H16.1098H16.8004C18.0511 5.07259 19.1338 5.74893 19.7125 6.76345H20.1605H21.8406H25.0327C24.2486 2.91204 20.8699 0 16.8004 0H8.40022C3.7521 0 0 3.77626 0 8.45431V13.5269C0 18.205 3.7521 21.9812 8.40022 21.9812H16.8004C21.4486 21.9812 25.2007 18.205 25.2007 13.5269V10.1452V8.45431H23.5206H20.1605Z" fill="black" fill-opacity="0.2"/>
<path d="M20.1605 8.45431H18.4805H16.8004H15.1204V10.5961V11.3851V13.5269H16.8004H20.1605C20.1605 15.3869 18.6485 16.9086 16.8004 16.9086H16.0911H9.10958H8.40022C6.55217 16.9086 5.04013 15.3869 5.04013 13.5269V8.45431C5.04013 6.59436 6.55217 5.07259 8.40022 5.07259H9.10958H16.1098H16.8004C18.0511 5.07259 19.1338 5.74893 19.7125 6.76345H20.1605H21.8406H25.0327C24.2486 2.91204 20.8699 0 16.8004 0H8.40022C3.7521 0 0 3.77626 0 8.45431V13.5269C0 18.205 3.7521 21.9812 8.40022 21.9812H16.8004C21.4486 21.9812 25.2007 18.205 25.2007 13.5269V10.1452V8.45431H23.5206H20.1605Z" fill="black" fill-opacity="0.2"/>
<path d="M20.1605 8.45431H18.4805H16.8004H15.1204V10.5961V11.3851V13.5269H16.8004H20.1605C20.1605 15.3869 18.6485 16.9086 16.8004 16.9086H16.0911H9.10958H8.40022C6.55217 16.9086 5.04013 15.3869 5.04013 13.5269V8.45431C5.04013 6.59436 6.55217 5.07259 8.40022 5.07259H9.10958H16.1098H16.8004C18.0511 5.07259 19.1338 5.74893 19.7125 6.76345H20.1605H21.8406H25.0327C24.2486 2.91204 20.8699 0 16.8004 0H8.40022C3.7521 0 0 3.77626 0 8.45431V13.5269C0 18.205 3.7521 21.9812 8.40022 21.9812H16.8004C21.4486 21.9812 25.2007 18.205 25.2007 13.5269V10.1452V8.45431H23.5206H20.1605Z" fill="black" fill-opacity="0.2"/>
<path d="M20.1605 8.45431H18.4805H16.8004H15.1204V10.5961V11.3851V13.5269H16.8004H20.1605C20.1605 15.3869 18.6485 16.9086 16.8004 16.9086H16.0911H9.10958H8.40022C6.55217 16.9086 5.04013 15.3869 5.04013 13.5269V8.45431C5.04013 6.59436 6.55217 5.07259 8.40022 5.07259H9.10958H16.1098H16.8004C18.0511 5.07259 19.1338 5.74893 19.7125 6.76345H20.1605H21.8406H25.0327C24.2486 2.91204 20.8699 0 16.8004 0H8.40022C3.7521 0 0 3.77626 0 8.45431V13.5269C0 18.205 3.7521 21.9812 8.40022 21.9812H16.8004C21.4486 21.9812 25.2007 18.205 25.2007 13.5269V10.1452V8.45431H23.5206H20.1605Z" fill="black" fill-opacity="0.2"/>
<path d="M20.1605 8.45431H18.4805H16.8004H15.1204V10.5961V11.3851V13.5269H16.8004H20.1605C20.1605 15.3869 18.6485 16.9086 16.8004 16.9086H16.0911H9.10958H8.40022C6.55217 16.9086 5.04013 15.3869 5.04013 13.5269V8.45431C5.04013 6.59436 6.55217 5.07259 8.40022 5.07259H9.10958H16.1098H16.8004C18.0511 5.07259 19.1338 5.74893 19.7125 6.76345H20.1605H21.8406H25.0327C24.2486 2.91204 20.8699 0 16.8004 0H8.40022C3.7521 0 0 3.77626 0 8.45431V13.5269C0 18.205 3.7521 21.9812 8.40022 21.9812H16.8004C21.4486 21.9812 25.2007 18.205 25.2007 13.5269V10.1452V8.45431H23.5206H20.1605Z" fill="black" fill-opacity="0.2"/>
<path d="M20.1605 8.45431H18.4805H16.8004H15.1204V10.5961V11.3851V13.5269H16.8004H20.1605C20.1605 15.3869 18.6485 16.9086 16.8004 16.9086H16.0911H9.10958H8.40022C6.55217 16.9086 5.04013 15.3869 5.04013 13.5269V8.45431C5.04013 6.59436 6.55217 5.07259 8.40022 5.07259H9.10958H16.1098H16.8004C18.0511 5.07259 19.1338 5.74893 19.7125 6.76345H20.1605H21.8406H25.0327C24.2486 2.91204 20.8699 0 16.8004 0H8.40022C3.7521 0 0 3.77626 0 8.45431V13.5269C0 18.205 3.7521 21.9812 8.40022 21.9812H16.8004C21.4486 21.9812 25.2007 18.205 25.2007 13.5269V10.1452V8.45431H23.5206H20.1605Z" fill="black" fill-opacity="0.2"/>
<path d="M20.1605 8.45431H18.4805H16.8004H15.1204V10.5961V11.3851V13.5269H16.8004H20.1605C20.1605 15.3869 18.6485 16.9086 16.8004 16.9086H16.0911H9.10958H8.40022C6.55217 16.9086 5.04013 15.3869 5.04013 13.5269V8.45431C5.04013 6.59436 6.55217 5.07259 8.40022 5.07259H9.10958H16.1098H16.8004C18.0511 5.07259 19.1338 5.74893 19.7125 6.76345H20.1605H21.8406H25.0327C24.2486 2.91204 20.8699 0 16.8004 0H8.40022C3.7521 0 0 3.77626 0 8.45431V13.5269C0 18.205 3.7521 21.9812 8.40022 21.9812H16.8004C21.4486 21.9812 25.2007 18.205 25.2007 13.5269V10.1452V8.45431H23.5206H20.1605Z" fill="black" fill-opacity="0.2"/>
<path d="M20.1605 8.45431H18.4805H16.8004H15.1204V10.5961V11.3851V13.5269H16.8004H20.1605C20.1605 15.3869 18.6485 16.9086 16.8004 16.9086H16.0911H9.10958H8.40022C6.55217 16.9086 5.04013 15.3869 5.04013 13.5269V8.45431C5.04013 6.59436 6.55217 5.07259 8.40022 5.07259H9.10958H16.1098H16.8004C18.0511 5.07259 19.1338 5.74893 19.7125 6.76345H20.1605H21.8406H25.0327C24.2486 2.91204 20.8699 0 16.8004 0H8.40022C3.7521 0 0 3.77626 0 8.45431V13.5269C0 18.205 3.7521 21.9812 8.40022 21.9812H16.8004C21.4486 21.9812 25.2007 18.205 25.2007 13.5269V10.1452V8.45431H23.5206H20.1605Z" fill="black" fill-opacity="0.2"/>
<path d="M79.0181 8.66097V15.2178C79.0181 16.1571 78.2714 16.9086 77.338 16.9086C76.6847 16.9086 76.106 16.5329 75.8447 15.988C75.8447 15.9693 75.826 15.9693 75.826 15.9505L72.9699 10.07L70.0205 3.98292C70.0205 3.96413 70.0018 3.96413 70.0018 3.94535L69.8898 3.70111C68.7885 1.50299 66.5111 0 63.8977 0C63.319 0 62.759 0.0751495 62.2176 0.206661C59.3242 0.958156 57.1775 3.60717 57.1775 6.76345V21.9812H62.2176V13.3202V6.76345C62.2176 5.82408 62.9643 5.07259 63.8977 5.07259C64.5697 5.07259 65.1484 5.46712 65.4097 6.04953L68.2471 11.9112L71.1965 17.9983C71.1965 18.0171 71.2152 18.0171 71.2152 18.0171L71.3459 18.2801C71.3459 18.2989 71.3645 18.2989 71.3645 18.3177C72.4846 20.4782 74.7433 21.9624 77.338 21.9624C77.9167 21.9624 78.4767 21.8873 79.0181 21.7558C81.9115 21.0043 84.0582 18.3553 84.0582 15.199V0H79.0181V8.66097Z" fill="#1C1C1C"/>
<path d="M79.0181 8.66097V15.2178C79.0181 16.1571 78.2714 16.9086 77.338 16.9086C76.6847 16.9086 76.106 16.5329 75.8447 15.988C75.8447 15.9693 75.826 15.9693 75.826 15.9505L72.9699 10.07L70.0205 3.98292C70.0205 3.96413 70.0018 3.96413 70.0018 3.94535L69.8898 3.70111C68.7885 1.50299 66.5111 0 63.8977 0C63.319 0 62.759 0.0751495 62.2176 0.206661C59.3242 0.958156 57.1775 3.60717 57.1775 6.76345V21.9812H62.2176V13.3202V6.76345C62.2176 5.82408 62.9643 5.07259 63.8977 5.07259C64.5697 5.07259 65.1484 5.46712 65.4097 6.04953L68.2471 11.9112L71.1965 17.9983C71.1965 18.0171 71.2152 18.0171 71.2152 18.0171L71.3459 18.2801C71.3459 18.2989 71.3645 18.2989 71.3645 18.3177C72.4846 20.4782 74.7433 21.9624 77.338 21.9624C77.9167 21.9624 78.4767 21.8873 79.0181 21.7558C81.9115 21.0043 84.0582 18.3553 84.0582 15.199V0H79.0181V8.66097Z" fill="black" fill-opacity="0.2"/>
<path d="M79.0181 8.66097V15.2178C79.0181 16.1571 78.2714 16.9086 77.338 16.9086C76.6847 16.9086 76.106 16.5329 75.8447 15.988C75.8447 15.9693 75.826 15.9693 75.826 15.9505L72.9699 10.07L70.0205 3.98292C70.0205 3.96413 70.0018 3.96413 70.0018 3.94535L69.8898 3.70111C68.7885 1.50299 66.5111 0 63.8977 0C63.319 0 62.759 0.0751495 62.2176 0.206661C59.3242 0.958156 57.1775 3.60717 57.1775 6.76345V21.9812H62.2176V13.3202V6.76345C62.2176 5.82408 62.9643 5.07259 63.8977 5.07259C64.5697 5.07259 65.1484 5.46712 65.4097 6.04953L68.2471 11.9112L71.1965 17.9983C71.1965 18.0171 71.2152 18.0171 71.2152 18.0171L71.3459 18.2801C71.3459 18.2989 71.3645 18.2989 71.3645 18.3177C72.4846 20.4782 74.7433 21.9624 77.338 21.9624C77.9167 21.9624 78.4767 21.8873 79.0181 21.7558C81.9115 21.0043 84.0582 18.3553 84.0582 15.199V0H79.0181V8.66097Z" fill="black" fill-opacity="0.2"/>
<path d="M79.0181 8.66097V15.2178C79.0181 16.1571 78.2714 16.9086 77.338 16.9086C76.6847 16.9086 76.106 16.5329 75.8447 15.988C75.8447 15.9693 75.826 15.9693 75.826 15.9505L72.9699 10.07L70.0205 3.98292C70.0205 3.96413 70.0018 3.96413 70.0018 3.94535L69.8898 3.70111C68.7885 1.50299 66.5111 0 63.8977 0C63.319 0 62.759 0.0751495 62.2176 0.206661C59.3242 0.958156 57.1775 3.60717 57.1775 6.76345V21.9812H62.2176V13.3202V6.76345C62.2176 5.82408 62.9643 5.07259 63.8977 5.07259C64.5697 5.07259 65.1484 5.46712 65.4097 6.04953L68.2471 11.9112L71.1965 17.9983C71.1965 18.0171 71.2152 18.0171 71.2152 18.0171L71.3459 18.2801C71.3459 18.2989 71.3645 18.2989 71.3645 18.3177C72.4846 20.4782 74.7433 21.9624 77.338 21.9624C77.9167 21.9624 78.4767 21.8873 79.0181 21.7558C81.9115 21.0043 84.0582 18.3553 84.0582 15.199V0H79.0181V8.66097Z" fill="black" fill-opacity="0.2"/>
<path d="M79.0181 8.66097V15.2178C79.0181 16.1571 78.2714 16.9086 77.338 16.9086C76.6847 16.9086 76.106 16.5329 75.8447 15.988C75.8447 15.9693 75.826 15.9693 75.826 15.9505L72.9699 10.07L70.0205 3.98292C70.0205 3.96413 70.0018 3.96413 70.0018 3.94535L69.8898 3.70111C68.7885 1.50299 66.5111 0 63.8977 0C63.319 0 62.759 0.0751495 62.2176 0.206661C59.3242 0.958156 57.1775 3.60717 57.1775 6.76345V21.9812H62.2176V13.3202V6.76345C62.2176 5.82408 62.9643 5.07259 63.8977 5.07259C64.5697 5.07259 65.1484 5.46712 65.4097 6.04953L68.2471 11.9112L71.1965 17.9983C71.1965 18.0171 71.2152 18.0171 71.2152 18.0171L71.3459 18.2801C71.3459 18.2989 71.3645 18.2989 71.3645 18.3177C72.4846 20.4782 74.7433 21.9624 77.338 21.9624C77.9167 21.9624 78.4767 21.8873 79.0181 21.7558C81.9115 21.0043 84.0582 18.3553 84.0582 15.199V0H79.0181V8.66097Z" fill="black" fill-opacity="0.2"/>
<path d="M79.0181 8.66097V15.2178C79.0181 16.1571 78.2714 16.9086 77.338 16.9086C76.6847 16.9086 76.106 16.5329 75.8447 15.988C75.8447 15.9693 75.826 15.9693 75.826 15.9505L72.9699 10.07L70.0205 3.98292C70.0205 3.96413 70.0018 3.96413 70.0018 3.94535L69.8898 3.70111C68.7885 1.50299 66.5111 0 63.8977 0C63.319 0 62.759 0.0751495 62.2176 0.206661C59.3242 0.958156 57.1775 3.60717 57.1775 6.76345V21.9812H62.2176V13.3202V6.76345C62.2176 5.82408 62.9643 5.07259 63.8977 5.07259C64.5697 5.07259 65.1484 5.46712 65.4097 6.04953L68.2471 11.9112L71.1965 17.9983C71.1965 18.0171 71.2152 18.0171 71.2152 18.0171L71.3459 18.2801C71.3459 18.2989 71.3645 18.2989 71.3645 18.3177C72.4846 20.4782 74.7433 21.9624 77.338 21.9624C77.9167 21.9624 78.4767 21.8873 79.0181 21.7558C81.9115 21.0043 84.0582 18.3553 84.0582 15.199V0H79.0181V8.66097Z" fill="black" fill-opacity="0.2"/>
<path d="M79.0181 8.66097V15.2178C79.0181 16.1571 78.2714 16.9086 77.338 16.9086C76.6847 16.9086 76.106 16.5329 75.8447 15.988C75.8447 15.9693 75.826 15.9693 75.826 15.9505L72.9699 10.07L70.0205 3.98292C70.0205 3.96413 70.0018 3.96413 70.0018 3.94535L69.8898 3.70111C68.7885 1.50299 66.5111 0 63.8977 0C63.319 0 62.759 0.0751495 62.2176 0.206661C59.3242 0.958156 57.1775 3.60717 57.1775 6.76345V21.9812H62.2176V13.3202V6.76345C62.2176 5.82408 62.9643 5.07259 63.8977 5.07259C64.5697 5.07259 65.1484 5.46712 65.4097 6.04953L68.2471 11.9112L71.1965 17.9983C71.1965 18.0171 71.2152 18.0171 71.2152 18.0171L71.3459 18.2801C71.3459 18.2989 71.3645 18.2989 71.3645 18.3177C72.4846 20.4782 74.7433 21.9624 77.338 21.9624C77.9167 21.9624 78.4767 21.8873 79.0181 21.7558C81.9115 21.0043 84.0582 18.3553 84.0582 15.199V0H79.0181V8.66097Z" fill="black" fill-opacity="0.2"/>
<path d="M79.0181 8.66097V15.2178C79.0181 16.1571 78.2714 16.9086 77.338 16.9086C76.6847 16.9086 76.106 16.5329 75.8447 15.988C75.8447 15.9693 75.826 15.9693 75.826 15.9505L72.9699 10.07L70.0205 3.98292C70.0205 3.96413 70.0018 3.96413 70.0018 3.94535L69.8898 3.70111C68.7885 1.50299 66.5111 0 63.8977 0C63.319 0 62.759 0.0751495 62.2176 0.206661C59.3242 0.958156 57.1775 3.60717 57.1775 6.76345V21.9812H62.2176V13.3202V6.76345C62.2176 5.82408 62.9643 5.07259 63.8977 5.07259C64.5697 5.07259 65.1484 5.46712 65.4097 6.04953L68.2471 11.9112L71.1965 17.9983C71.1965 18.0171 71.2152 18.0171 71.2152 18.0171L71.3459 18.2801C71.3459 18.2989 71.3645 18.2989 71.3645 18.3177C72.4846 20.4782 74.7433 21.9624 77.338 21.9624C77.9167 21.9624 78.4767 21.8873 79.0181 21.7558C81.9115 21.0043 84.0582 18.3553 84.0582 15.199V0H79.0181V8.66097Z" fill="black" fill-opacity="0.2"/>
<path d="M79.0181 8.66097V15.2178C79.0181 16.1571 78.2714 16.9086 77.338 16.9086C76.6847 16.9086 76.106 16.5329 75.8447 15.988C75.8447 15.9693 75.826 15.9693 75.826 15.9505L72.9699 10.07L70.0205 3.98292C70.0205 3.96413 70.0018 3.96413 70.0018 3.94535L69.8898 3.70111C68.7885 1.50299 66.5111 0 63.8977 0C63.319 0 62.759 0.0751495 62.2176 0.206661C59.3242 0.958156 57.1775 3.60717 57.1775 6.76345V21.9812H62.2176V13.3202V6.76345C62.2176 5.82408 62.9643 5.07259 63.8977 5.07259C64.5697 5.07259 65.1484 5.46712 65.4097 6.04953L68.2471 11.9112L71.1965 17.9983C71.1965 18.0171 71.2152 18.0171 71.2152 18.0171L71.3459 18.2801C71.3459 18.2989 71.3645 18.2989 71.3645 18.3177C72.4846 20.4782 74.7433 21.9624 77.338 21.9624C77.9167 21.9624 78.4767 21.8873 79.0181 21.7558C81.9115 21.0043 84.0582 18.3553 84.0582 15.199V0H79.0181V8.66097Z" fill="black" fill-opacity="0.2"/>
<path d="M79.0181 8.66097V15.2178C79.0181 16.1571 78.2714 16.9086 77.338 16.9086C76.6847 16.9086 76.106 16.5329 75.8447 15.988C75.8447 15.9693 75.826 15.9693 75.826 15.9505L72.9699 10.07L70.0205 3.98292C70.0205 3.96413 70.0018 3.96413 70.0018 3.94535L69.8898 3.70111C68.7885 1.50299 66.5111 0 63.8977 0C63.319 0 62.759 0.0751495 62.2176 0.206661C59.3242 0.958156 57.1775 3.60717 57.1775 6.76345V21.9812H62.2176V13.3202V6.76345C62.2176 5.82408 62.9643 5.07259 63.8977 5.07259C64.5697 5.07259 65.1484 5.46712 65.4097 6.04953L68.2471 11.9112L71.1965 17.9983C71.1965 18.0171 71.2152 18.0171 71.2152 18.0171L71.3459 18.2801C71.3459 18.2989 71.3645 18.2989 71.3645 18.3177C72.4846 20.4782 74.7433 21.9624 77.338 21.9624C77.9167 21.9624 78.4767 21.8873 79.0181 21.7558C81.9115 21.0043 84.0582 18.3553 84.0582 15.199V0H79.0181V8.66097Z" fill="black" fill-opacity="0.2"/>
<path d="M79.0181 8.66097V15.2178C79.0181 16.1571 78.2714 16.9086 77.338 16.9086C76.6847 16.9086 76.106 16.5329 75.8447 15.988C75.8447 15.9693 75.826 15.9693 75.826 15.9505L72.9699 10.07L70.0205 3.98292C70.0205 3.96413 70.0018 3.96413 70.0018 3.94535L69.8898 3.70111C68.7885 1.50299 66.5111 0 63.8977 0C63.319 0 62.759 0.0751495 62.2176 0.206661C59.3242 0.958156 57.1775 3.60717 57.1775 6.76345V21.9812H62.2176V13.3202V6.76345C62.2176 5.82408 62.9643 5.07259 63.8977 5.07259C64.5697 5.07259 65.1484 5.46712 65.4097 6.04953L68.2471 11.9112L71.1965 17.9983C71.1965 18.0171 71.2152 18.0171 71.2152 18.0171L71.3459 18.2801C71.3459 18.2989 71.3645 18.2989 71.3645 18.3177C72.4846 20.4782 74.7433 21.9624 77.338 21.9624C77.9167 21.9624 78.4767 21.8873 79.0181 21.7558C81.9115 21.0043 84.0582 18.3553 84.0582 15.199V0H79.0181V8.66097Z" fill="black" fill-opacity="0.2"/>
<path d="M79.0181 8.66097V15.2178C79.0181 16.1571 78.2714 16.9086 77.338 16.9086C76.6847 16.9086 76.106 16.5329 75.8447 15.988C75.8447 15.9693 75.826 15.9693 75.826 15.9505L72.9699 10.07L70.0205 3.98292C70.0205 3.96413 70.0018 3.96413 70.0018 3.94535L69.8898 3.70111C68.7885 1.50299 66.5111 0 63.8977 0C63.319 0 62.759 0.0751495 62.2176 0.206661C59.3242 0.958156 57.1775 3.60717 57.1775 6.76345V21.9812H62.2176V13.3202V6.76345C62.2176 5.82408 62.9643 5.07259 63.8977 5.07259C64.5697 5.07259 65.1484 5.46712 65.4097 6.04953L68.2471 11.9112L71.1965 17.9983C71.1965 18.0171 71.2152 18.0171 71.2152 18.0171L71.3459 18.2801C71.3459 18.2989 71.3645 18.2989 71.3645 18.3177C72.4846 20.4782 74.7433 21.9624 77.338 21.9624C77.9167 21.9624 78.4767 21.8873 79.0181 21.7558C81.9115 21.0043 84.0582 18.3553 84.0582 15.199V0H79.0181V8.66097Z" fill="black" fill-opacity="0.2"/>
<path d="M79.0181 8.66097V15.2178C79.0181 16.1571 78.2714 16.9086 77.338 16.9086C76.6847 16.9086 76.106 16.5329 75.8447 15.988C75.8447 15.9693 75.826 15.9693 75.826 15.9505L72.9699 10.07L70.0205 3.98292C70.0205 3.96413 70.0018 3.96413 70.0018 3.94535L69.8898 3.70111C68.7885 1.50299 66.5111 0 63.8977 0C63.319 0 62.759 0.0751495 62.2176 0.206661C59.3242 0.958156 57.1775 3.60717 57.1775 6.76345V21.9812H62.2176V13.3202V6.76345C62.2176 5.82408 62.9643 5.07259 63.8977 5.07259C64.5697 5.07259 65.1484 5.46712 65.4097 6.04953L68.2471 11.9112L71.1965 17.9983C71.1965 18.0171 71.2152 18.0171 71.2152 18.0171L71.3459 18.2801C71.3459 18.2989 71.3645 18.2989 71.3645 18.3177C72.4846 20.4782 74.7433 21.9624 77.338 21.9624C77.9167 21.9624 78.4767 21.8873 79.0181 21.7558C81.9115 21.0043 84.0582 18.3553 84.0582 15.199V0H79.0181V8.66097Z" fill="black" fill-opacity="0.2"/>
<path d="M47.0599 0C45.7719 0 44.5398 0.319385 43.4758 0.901793C43.4571 0.901793 43.4571 0.920581 43.4385 0.920581L43.1211 1.08967L43.1025 1.10845L36.289 5.07259L32.7982 7.10162L31.9395 7.60888C31.9395 7.60888 31.9208 7.60888 31.9208 7.62767C29.4568 8.88642 27.7767 11.4415 27.7767 14.3911C27.7767 18.5995 31.2115 22 35.4489 22H47.2092C51.3347 22 54.6574 18.6371 54.6574 14.5038V7.60888C54.6201 3.40051 51.2414 0 47.0599 0ZM49.58 7.60888V14.3723V14.7857C49.5613 14.7857 49.5613 14.8044 49.5426 14.8044C49.3373 16.0068 48.3106 16.9086 47.0599 16.9086H42.6358H40.1157H35.4116C33.9556 16.9086 32.7795 15.725 32.7795 14.2596C32.7795 13.2639 33.3395 12.3809 34.1609 11.93L39.6117 8.90521L40.3211 8.51067L46.0146 5.3544C46.0332 5.33561 46.0706 5.33561 46.0892 5.31682C46.4252 5.14774 46.7799 5.0538 47.1719 5.0538C48.4413 5.0538 49.468 6.06832 49.58 7.36465C49.58 7.36465 49.58 7.36465 49.5986 7.36465V7.60888H49.58Z" fill="#1C1C1C"/>
<path d="M47.0599 0C45.7719 0 44.5398 0.319385 43.4758 0.901793C43.4571 0.901793 43.4571 0.920581 43.4385 0.920581L43.1211 1.08967L43.1025 1.10845L36.289 5.07259L32.7982 7.10162L31.9395 7.60888C31.9395 7.60888 31.9208 7.60888 31.9208 7.62767C29.4568 8.88642 27.7767 11.4415 27.7767 14.3911C27.7767 18.5995 31.2115 22 35.4489 22H47.2092C51.3347 22 54.6574 18.6371 54.6574 14.5038V7.60888C54.6201 3.40051 51.2414 0 47.0599 0ZM49.58 7.60888V14.3723V14.7857C49.5613 14.7857 49.5613 14.8044 49.5426 14.8044C49.3373 16.0068 48.3106 16.9086 47.0599 16.9086H42.6358H40.1157H35.4116C33.9556 16.9086 32.7795 15.725 32.7795 14.2596C32.7795 13.2639 33.3395 12.3809 34.1609 11.93L39.6117 8.90521L40.3211 8.51067L46.0146 5.3544C46.0332 5.33561 46.0706 5.33561 46.0892 5.31682C46.4252 5.14774 46.7799 5.0538 47.1719 5.0538C48.4413 5.0538 49.468 6.06832 49.58 7.36465C49.58 7.36465 49.58 7.36465 49.5986 7.36465V7.60888H49.58Z" fill="black" fill-opacity="0.2"/>
<path d="M47.0599 0C45.7719 0 44.5398 0.319385 43.4758 0.901793C43.4571 0.901793 43.4571 0.920581 43.4385 0.920581L43.1211 1.08967L43.1025 1.10845L36.289 5.07259L32.7982 7.10162L31.9395 7.60888C31.9395 7.60888 31.9208 7.60888 31.9208 7.62767C29.4568 8.88642 27.7767 11.4415 27.7767 14.3911C27.7767 18.5995 31.2115 22 35.4489 22H47.2092C51.3347 22 54.6574 18.6371 54.6574 14.5038V7.60888C54.6201 3.40051 51.2414 0 47.0599 0ZM49.58 7.60888V14.3723V14.7857C49.5613 14.7857 49.5613 14.8044 49.5426 14.8044C49.3373 16.0068 48.3106 16.9086 47.0599 16.9086H42.6358H40.1157H35.4116C33.9556 16.9086 32.7795 15.725 32.7795 14.2596C32.7795 13.2639 33.3395 12.3809 34.1609 11.93L39.6117 8.90521L40.3211 8.51067L46.0146 5.3544C46.0332 5.33561 46.0706 5.33561 46.0892 5.31682C46.4252 5.14774 46.7799 5.0538 47.1719 5.0538C48.4413 5.0538 49.468 6.06832 49.58 7.36465C49.58 7.36465 49.58 7.36465 49.5986 7.36465V7.60888H49.58Z" fill="black" fill-opacity="0.2"/>
<path d="M47.0599 0C45.7719 0 44.5398 0.319385 43.4758 0.901793C43.4571 0.901793 43.4571 0.920581 43.4385 0.920581L43.1211 1.08967L43.1025 1.10845L36.289 5.07259L32.7982 7.10162L31.9395 7.60888C31.9395 7.60888 31.9208 7.60888 31.9208 7.62767C29.4568 8.88642 27.7767 11.4415 27.7767 14.3911C27.7767 18.5995 31.2115 22 35.4489 22H47.2092C51.3347 22 54.6574 18.6371 54.6574 14.5038V7.60888C54.6201 3.40051 51.2414 0 47.0599 0ZM49.58 7.60888V14.3723V14.7857C49.5613 14.7857 49.5613 14.8044 49.5426 14.8044C49.3373 16.0068 48.3106 16.9086 47.0599 16.9086H42.6358H40.1157H35.4116C33.9556 16.9086 32.7795 15.725 32.7795 14.2596C32.7795 13.2639 33.3395 12.3809 34.1609 11.93L39.6117 8.90521L40.3211 8.51067L46.0146 5.3544C46.0332 5.33561 46.0706 5.33561 46.0892 5.31682C46.4252 5.14774 46.7799 5.0538 47.1719 5.0538C48.4413 5.0538 49.468 6.06832 49.58 7.36465C49.58 7.36465 49.58 7.36465 49.5986 7.36465V7.60888H49.58Z" fill="black" fill-opacity="0.2"/>
<path d="M47.0599 0C45.7719 0 44.5398 0.319385 43.4758 0.901793C43.4571 0.901793 43.4571 0.920581 43.4385 0.920581L43.1211 1.08967L43.1025 1.10845L36.289 5.07259L32.7982 7.10162L31.9395 7.60888C31.9395 7.60888 31.9208 7.60888 31.9208 7.62767C29.4568 8.88642 27.7767 11.4415 27.7767 14.3911C27.7767 18.5995 31.2115 22 35.4489 22H47.2092C51.3347 22 54.6574 18.6371 54.6574 14.5038V7.60888C54.6201 3.40051 51.2414 0 47.0599 0ZM49.58 7.60888V14.3723V14.7857C49.5613 14.7857 49.5613 14.8044 49.5426 14.8044C49.3373 16.0068 48.3106 16.9086 47.0599 16.9086H42.6358H40.1157H35.4116C33.9556 16.9086 32.7795 15.725 32.7795 14.2596C32.7795 13.2639 33.3395 12.3809 34.1609 11.93L39.6117 8.90521L40.3211 8.51067L46.0146 5.3544C46.0332 5.33561 46.0706 5.33561 46.0892 5.31682C46.4252 5.14774 46.7799 5.0538 47.1719 5.0538C48.4413 5.0538 49.468 6.06832 49.58 7.36465C49.58 7.36465 49.58 7.36465 49.5986 7.36465V7.60888H49.58Z" fill="black" fill-opacity="0.2"/>
<path d="M47.0599 0C45.7719 0 44.5398 0.319385 43.4758 0.901793C43.4571 0.901793 43.4571 0.920581 43.4385 0.920581L43.1211 1.08967L43.1025 1.10845L36.289 5.07259L32.7982 7.10162L31.9395 7.60888C31.9395 7.60888 31.9208 7.60888 31.9208 7.62767C29.4568 8.88642 27.7767 11.4415 27.7767 14.3911C27.7767 18.5995 31.2115 22 35.4489 22H47.2092C51.3347 22 54.6574 18.6371 54.6574 14.5038V7.60888C54.6201 3.40051 51.2414 0 47.0599 0ZM49.58 7.60888V14.3723V14.7857C49.5613 14.7857 49.5613 14.8044 49.5426 14.8044C49.3373 16.0068 48.3106 16.9086 47.0599 16.9086H42.6358H40.1157H35.4116C33.9556 16.9086 32.7795 15.725 32.7795 14.2596C32.7795 13.2639 33.3395 12.3809 34.1609 11.93L39.6117 8.90521L40.3211 8.51067L46.0146 5.3544C46.0332 5.33561 46.0706 5.33561 46.0892 5.31682C46.4252 5.14774 46.7799 5.0538 47.1719 5.0538C48.4413 5.0538 49.468 6.06832 49.58 7.36465C49.58 7.36465 49.58 7.36465 49.5986 7.36465V7.60888H49.58Z" fill="black" fill-opacity="0.2"/>
<path d="M47.0599 0C45.7719 0 44.5398 0.319385 43.4758 0.901793C43.4571 0.901793 43.4571 0.920581 43.4385 0.920581L43.1211 1.08967L43.1025 1.10845L36.289 5.07259L32.7982 7.10162L31.9395 7.60888C31.9395 7.60888 31.9208 7.60888 31.9208 7.62767C29.4568 8.88642 27.7767 11.4415 27.7767 14.3911C27.7767 18.5995 31.2115 22 35.4489 22H47.2092C51.3347 22 54.6574 18.6371 54.6574 14.5038V7.60888C54.6201 3.40051 51.2414 0 47.0599 0ZM49.58 7.60888V14.3723V14.7857C49.5613 14.7857 49.5613 14.8044 49.5426 14.8044C49.3373 16.0068 48.3106 16.9086 47.0599 16.9086H42.6358H40.1157H35.4116C33.9556 16.9086 32.7795 15.725 32.7795 14.2596C32.7795 13.2639 33.3395 12.3809 34.1609 11.93L39.6117 8.90521L40.3211 8.51067L46.0146 5.3544C46.0332 5.33561 46.0706 5.33561 46.0892 5.31682C46.4252 5.14774 46.7799 5.0538 47.1719 5.0538C48.4413 5.0538 49.468 6.06832 49.58 7.36465C49.58 7.36465 49.58 7.36465 49.5986 7.36465V7.60888H49.58Z" fill="black" fill-opacity="0.2"/>
<path d="M47.0599 0C45.7719 0 44.5398 0.319385 43.4758 0.901793C43.4571 0.901793 43.4571 0.920581 43.4385 0.920581L43.1211 1.08967L43.1025 1.10845L36.289 5.07259L32.7982 7.10162L31.9395 7.60888C31.9395 7.60888 31.9208 7.60888 31.9208 7.62767C29.4568 8.88642 27.7767 11.4415 27.7767 14.3911C27.7767 18.5995 31.2115 22 35.4489 22H47.2092C51.3347 22 54.6574 18.6371 54.6574 14.5038V7.60888C54.6201 3.40051 51.2414 0 47.0599 0ZM49.58 7.60888V14.3723V14.7857C49.5613 14.7857 49.5613 14.8044 49.5426 14.8044C49.3373 16.0068 48.3106 16.9086 47.0599 16.9086H42.6358H40.1157H35.4116C33.9556 16.9086 32.7795 15.725 32.7795 14.2596C32.7795 13.2639 33.3395 12.3809 34.1609 11.93L39.6117 8.90521L40.3211 8.51067L46.0146 5.3544C46.0332 5.33561 46.0706 5.33561 46.0892 5.31682C46.4252 5.14774 46.7799 5.0538 47.1719 5.0538C48.4413 5.0538 49.468 6.06832 49.58 7.36465C49.58 7.36465 49.58 7.36465 49.5986 7.36465V7.60888H49.58Z" fill="black" fill-opacity="0.2"/>
<path d="M47.0599 0C45.7719 0 44.5398 0.319385 43.4758 0.901793C43.4571 0.901793 43.4571 0.920581 43.4385 0.920581L43.1211 1.08967L43.1025 1.10845L36.289 5.07259L32.7982 7.10162L31.9395 7.60888C31.9395 7.60888 31.9208 7.60888 31.9208 7.62767C29.4568 8.88642 27.7767 11.4415 27.7767 14.3911C27.7767 18.5995 31.2115 22 35.4489 22H47.2092C51.3347 22 54.6574 18.6371 54.6574 14.5038V7.60888C54.6201 3.40051 51.2414 0 47.0599 0ZM49.58 7.60888V14.3723V14.7857C49.5613 14.7857 49.5613 14.8044 49.5426 14.8044C49.3373 16.0068 48.3106 16.9086 47.0599 16.9086H42.6358H40.1157H35.4116C33.9556 16.9086 32.7795 15.725 32.7795 14.2596C32.7795 13.2639 33.3395 12.3809 34.1609 11.93L39.6117 8.90521L40.3211 8.51067L46.0146 5.3544C46.0332 5.33561 46.0706 5.33561 46.0892 5.31682C46.4252 5.14774 46.7799 5.0538 47.1719 5.0538C48.4413 5.0538 49.468 6.06832 49.58 7.36465C49.58 7.36465 49.58 7.36465 49.5986 7.36465V7.60888H49.58Z" fill="black" fill-opacity="0.2"/>
<path d="M47.0599 0C45.7719 0 44.5398 0.319385 43.4758 0.901793C43.4571 0.901793 43.4571 0.920581 43.4385 0.920581L43.1211 1.08967L43.1025 1.10845L36.289 5.07259L32.7982 7.10162L31.9395 7.60888C31.9395 7.60888 31.9208 7.60888 31.9208 7.62767C29.4568 8.88642 27.7767 11.4415 27.7767 14.3911C27.7767 18.5995 31.2115 22 35.4489 22H47.2092C51.3347 22 54.6574 18.6371 54.6574 14.5038V7.60888C54.6201 3.40051 51.2414 0 47.0599 0ZM49.58 7.60888V14.3723V14.7857C49.5613 14.7857 49.5613 14.8044 49.5426 14.8044C49.3373 16.0068 48.3106 16.9086 47.0599 16.9086H42.6358H40.1157H35.4116C33.9556 16.9086 32.7795 15.725 32.7795 14.2596C32.7795 13.2639 33.3395 12.3809 34.1609 11.93L39.6117 8.90521L40.3211 8.51067L46.0146 5.3544C46.0332 5.33561 46.0706 5.33561 46.0892 5.31682C46.4252 5.14774 46.7799 5.0538 47.1719 5.0538C48.4413 5.0538 49.468 6.06832 49.58 7.36465C49.58 7.36465 49.58 7.36465 49.5986 7.36465V7.60888H49.58Z" fill="black" fill-opacity="0.2"/>
<path d="M47.0599 0C45.7719 0 44.5398 0.319385 43.4758 0.901793C43.4571 0.901793 43.4571 0.920581 43.4385 0.920581L43.1211 1.08967L43.1025 1.10845L36.289 5.07259L32.7982 7.10162L31.9395 7.60888C31.9395 7.60888 31.9208 7.60888 31.9208 7.62767C29.4568 8.88642 27.7767 11.4415 27.7767 14.3911C27.7767 18.5995 31.2115 22 35.4489 22H47.2092C51.3347 22 54.6574 18.6371 54.6574 14.5038V7.60888C54.6201 3.40051 51.2414 0 47.0599 0ZM49.58 7.60888V14.3723V14.7857C49.5613 14.7857 49.5613 14.8044 49.5426 14.8044C49.3373 16.0068 48.3106 16.9086 47.0599 16.9086H42.6358H40.1157H35.4116C33.9556 16.9086 32.7795 15.725 32.7795 14.2596C32.7795 13.2639 33.3395 12.3809 34.1609 11.93L39.6117 8.90521L40.3211 8.51067L46.0146 5.3544C46.0332 5.33561 46.0706 5.33561 46.0892 5.31682C46.4252 5.14774 46.7799 5.0538 47.1719 5.0538C48.4413 5.0538 49.468 6.06832 49.58 7.36465C49.58 7.36465 49.58 7.36465 49.5986 7.36465V7.60888H49.58Z" fill="black" fill-opacity="0.2"/>
<path d="M47.0599 0C45.7719 0 44.5398 0.319385 43.4758 0.901793C43.4571 0.901793 43.4571 0.920581 43.4385 0.920581L43.1211 1.08967L43.1025 1.10845L36.289 5.07259L32.7982 7.10162L31.9395 7.60888C31.9395 7.60888 31.9208 7.60888 31.9208 7.62767C29.4568 8.88642 27.7767 11.4415 27.7767 14.3911C27.7767 18.5995 31.2115 22 35.4489 22H47.2092C51.3347 22 54.6574 18.6371 54.6574 14.5038V7.60888C54.6201 3.40051 51.2414 0 47.0599 0ZM49.58 7.60888V14.3723V14.7857C49.5613 14.7857 49.5613 14.8044 49.5426 14.8044C49.3373 16.0068 48.3106 16.9086 47.0599 16.9086H42.6358H40.1157H35.4116C33.9556 16.9086 32.7795 15.725 32.7795 14.2596C32.7795 13.2639 33.3395 12.3809 34.1609 11.93L39.6117 8.90521L40.3211 8.51067L46.0146 5.3544C46.0332 5.33561 46.0706 5.33561 46.0892 5.31682C46.4252 5.14774 46.7799 5.0538 47.1719 5.0538C48.4413 5.0538 49.468 6.06832 49.58 7.36465C49.58 7.36465 49.58 7.36465 49.5986 7.36465V7.60888H49.58Z" fill="black" fill-opacity="0.2"/>
<path d="M47.0599 0C45.7719 0 44.5398 0.319385 43.4758 0.901793C43.4571 0.901793 43.4571 0.920581 43.4385 0.920581L43.1211 1.08967L43.1025 1.10845L36.289 5.07259L32.7982 7.10162L31.9395 7.60888C31.9395 7.60888 31.9208 7.60888 31.9208 7.62767C29.4568 8.88642 27.7767 11.4415 27.7767 14.3911C27.7767 18.5995 31.2115 22 35.4489 22H47.2092C51.3347 22 54.6574 18.6371 54.6574 14.5038V7.60888C54.6201 3.40051 51.2414 0 47.0599 0ZM49.58 7.60888V14.3723V14.7857C49.5613 14.7857 49.5613 14.8044 49.5426 14.8044C49.3373 16.0068 48.3106 16.9086 47.0599 16.9086H42.6358H40.1157H35.4116C33.9556 16.9086 32.7795 15.725 32.7795 14.2596C32.7795 13.2639 33.3395 12.3809 34.1609 11.93L39.6117 8.90521L40.3211 8.51067L46.0146 5.3544C46.0332 5.33561 46.0706 5.33561 46.0892 5.31682C46.4252 5.14774 46.7799 5.0538 47.1719 5.0538C48.4413 5.0538 49.468 6.06832 49.58 7.36465C49.58 7.36465 49.58 7.36465 49.5986 7.36465V7.60888H49.58Z" fill="black" fill-opacity="0.2"/>
<path d="M106.757 7.62767L111.798 0H106.757L105.805 1.1836L100.952 7.21435C100.336 7.96584 99.4026 8.45431 98.3572 8.45431H91.6371V0H86.5969V8.45431V13.5269V21.9812H91.6371V13.5269H98.3572C99.4026 13.5269 100.336 14.0154 100.952 14.7669L105.805 20.7976L106.757 21.9812H111.798L106.757 14.3535L105.488 12.4372C105.171 11.9112 104.779 11.4227 104.349 10.9906C104.779 10.5585 105.171 10.07 105.488 9.54398L106.757 7.62767Z" fill="#1C1C1C"/>
<path d="M106.757 7.62767L111.798 0H106.757L105.805 1.1836L100.952 7.21435C100.336 7.96584 99.4026 8.45431 98.3572 8.45431H91.6371V0H86.5969V8.45431V13.5269V21.9812H91.6371V13.5269H98.3572C99.4026 13.5269 100.336 14.0154 100.952 14.7669L105.805 20.7976L106.757 21.9812H111.798L106.757 14.3535L105.488 12.4372C105.171 11.9112 104.779 11.4227 104.349 10.9906C104.779 10.5585 105.171 10.07 105.488 9.54398L106.757 7.62767Z" fill="black" fill-opacity="0.2"/>
<path d="M106.757 7.62767L111.798 0H106.757L105.805 1.1836L100.952 7.21435C100.336 7.96584 99.4026 8.45431 98.3572 8.45431H91.6371V0H86.5969V8.45431V13.5269V21.9812H91.6371V13.5269H98.3572C99.4026 13.5269 100.336 14.0154 100.952 14.7669L105.805 20.7976L106.757 21.9812H111.798L106.757 14.3535L105.488 12.4372C105.171 11.9112 104.779 11.4227 104.349 10.9906C104.779 10.5585 105.171 10.07 105.488 9.54398L106.757 7.62767Z" fill="black" fill-opacity="0.2"/>
<path d="M106.757 7.62767L111.798 0H106.757L105.805 1.1836L100.952 7.21435C100.336 7.96584 99.4026 8.45431 98.3572 8.45431H91.6371V0H86.5969V8.45431V13.5269V21.9812H91.6371V13.5269H98.3572C99.4026 13.5269 100.336 14.0154 100.952 14.7669L105.805 20.7976L106.757 21.9812H111.798L106.757 14.3535L105.488 12.4372C105.171 11.9112 104.779 11.4227 104.349 10.9906C104.779 10.5585 105.171 10.07 105.488 9.54398L106.757 7.62767Z" fill="black" fill-opacity="0.2"/>
<path d="M106.757 7.62767L111.798 0H106.757L105.805 1.1836L100.952 7.21435C100.336 7.96584 99.4026 8.45431 98.3572 8.45431H91.6371V0H86.5969V8.45431V13.5269V21.9812H91.6371V13.5269H98.3572C99.4026 13.5269 100.336 14.0154 100.952 14.7669L105.805 20.7976L106.757 21.9812H111.798L106.757 14.3535L105.488 12.4372C105.171 11.9112 104.779 11.4227 104.349 10.9906C104.779 10.5585 105.171 10.07 105.488 9.54398L106.757 7.62767Z" fill="black" fill-opacity="0.2"/>
<path d="M106.757 7.62767L111.798 0H106.757L105.805 1.1836L100.952 7.21435C100.336 7.96584 99.4026 8.45431 98.3572 8.45431H91.6371V0H86.5969V8.45431V13.5269V21.9812H91.6371V13.5269H98.3572C99.4026 13.5269 100.336 14.0154 100.952 14.7669L105.805 20.7976L106.757 21.9812H111.798L106.757 14.3535L105.488 12.4372C105.171 11.9112 104.779 11.4227 104.349 10.9906C104.779 10.5585 105.171 10.07 105.488 9.54398L106.757 7.62767Z" fill="black" fill-opacity="0.2"/>
<path d="M106.757 7.62767L111.798 0H106.757L105.805 1.1836L100.952 7.21435C100.336 7.96584 99.4026 8.45431 98.3572 8.45431H91.6371V0H86.5969V8.45431V13.5269V21.9812H91.6371V13.5269H98.3572C99.4026 13.5269 100.336 14.0154 100.952 14.7669L105.805 20.7976L106.757 21.9812H111.798L106.757 14.3535L105.488 12.4372C105.171 11.9112 104.779 11.4227 104.349 10.9906C104.779 10.5585 105.171 10.07 105.488 9.54398L106.757 7.62767Z" fill="black" fill-opacity="0.2"/>
<path d="M106.757 7.62767L111.798 0H106.757L105.805 1.1836L100.952 7.21435C100.336 7.96584 99.4026 8.45431 98.3572 8.45431H91.6371V0H86.5969V8.45431V13.5269V21.9812H91.6371V13.5269H98.3572C99.4026 13.5269 100.336 14.0154 100.952 14.7669L105.805 20.7976L106.757 21.9812H111.798L106.757 14.3535L105.488 12.4372C105.171 11.9112 104.779 11.4227 104.349 10.9906C104.779 10.5585 105.171 10.07 105.488 9.54398L106.757 7.62767Z" fill="black" fill-opacity="0.2"/>
<path d="M106.757 7.62767L111.798 0H106.757L105.805 1.1836L100.952 7.21435C100.336 7.96584 99.4026 8.45431 98.3572 8.45431H91.6371V0H86.5969V8.45431V13.5269V21.9812H91.6371V13.5269H98.3572C99.4026 13.5269 100.336 14.0154 100.952 14.7669L105.805 20.7976L106.757 21.9812H111.798L106.757 14.3535L105.488 12.4372C105.171 11.9112 104.779 11.4227 104.349 10.9906C104.779 10.5585 105.171 10.07 105.488 9.54398L106.757 7.62767Z" fill="black" fill-opacity="0.2"/>
<path d="M106.757 7.62767L111.798 0H106.757L105.805 1.1836L100.952 7.21435C100.336 7.96584 99.4026 8.45431 98.3572 8.45431H91.6371V0H86.5969V8.45431V13.5269V21.9812H91.6371V13.5269H98.3572C99.4026 13.5269 100.336 14.0154 100.952 14.7669L105.805 20.7976L106.757 21.9812H111.798L106.757 14.3535L105.488 12.4372C105.171 11.9112 104.779 11.4227 104.349 10.9906C104.779 10.5585 105.171 10.07 105.488 9.54398L106.757 7.62767Z" fill="black" fill-opacity="0.2"/>
<path d="M106.757 7.62767L111.798 0H106.757L105.805 1.1836L100.952 7.21435C100.336 7.96584 99.4026 8.45431 98.3572 8.45431H91.6371V0H86.5969V8.45431V13.5269V21.9812H91.6371V13.5269H98.3572C99.4026 13.5269 100.336 14.0154 100.952 14.7669L105.805 20.7976L106.757 21.9812H111.798L106.757 14.3535L105.488 12.4372C105.171 11.9112 104.779 11.4227 104.349 10.9906C104.779 10.5585 105.171 10.07 105.488 9.54398L106.757 7.62767Z" fill="black" fill-opacity="0.2"/>
<path d="M106.757 7.62767L111.798 0H106.757L105.805 1.1836L100.952 7.21435C100.336 7.96584 99.4026 8.45431 98.3572 8.45431H91.6371V0H86.5969V8.45431V13.5269V21.9812H91.6371V13.5269H98.3572C99.4026 13.5269 100.336 14.0154 100.952 14.7669L105.805 20.7976L106.757 21.9812H111.798L106.757 14.3535L105.488 12.4372C105.171 11.9112 104.779 11.4227 104.349 10.9906C104.779 10.5585 105.171 10.07 105.488 9.54398L106.757 7.62767Z" fill="black" fill-opacity="0.2"/>
<path d="M106.757 7.62767L111.798 0H106.757L105.805 1.1836L100.952 7.21435C100.336 7.96584 99.4026 8.45431 98.3572 8.45431H91.6371V0H86.5969V8.45431V13.5269V21.9812H91.6371V13.5269H98.3572C99.4026 13.5269 100.336 14.0154 100.952 14.7669L105.805 20.7976L106.757 21.9812H111.798L106.757 14.3535L105.488 12.4372C105.171 11.9112 104.779 11.4227 104.349 10.9906C104.779 10.5585 105.171 10.07 105.488 9.54398L106.757 7.62767Z" fill="black" fill-opacity="0.2"/>
<path d="M134.292 5.54227C133.713 2.386 130.969 0 127.683 0H124.323C121.038 0 118.294 2.386 117.715 5.54227C117.715 5.56106 117.715 5.56106 117.715 5.56106L114.243 21.9812H119.283L120.385 16.9086H131.604L132.705 21.9812H137.745L134.273 5.56106C134.292 5.56106 134.292 5.54227 134.292 5.54227ZM128.766 11.836H123.241H121.505L121.878 10.1452L122.681 6.46285C122.83 5.67378 123.502 5.07259 124.342 5.07259H127.702C128.523 5.07259 129.214 5.67378 129.363 6.46285L130.166 10.1452L130.539 11.836H128.766Z" fill="#1C1C1C"/>
<path d="M134.292 5.54227C133.713 2.386 130.969 0 127.683 0H124.323C121.038 0 118.294 2.386 117.715 5.54227C117.715 5.56106 117.715 5.56106 117.715 5.56106L114.243 21.9812H119.283L120.385 16.9086H131.604L132.705 21.9812H137.745L134.273 5.56106C134.292 5.56106 134.292 5.54227 134.292 5.54227ZM128.766 11.836H123.241H121.505L121.878 10.1452L122.681 6.46285C122.83 5.67378 123.502 5.07259 124.342 5.07259H127.702C128.523 5.07259 129.214 5.67378 129.363 6.46285L130.166 10.1452L130.539 11.836H128.766Z" fill="black" fill-opacity="0.2"/>
<path d="M134.292 5.54227C133.713 2.386 130.969 0 127.683 0H124.323C121.038 0 118.294 2.386 117.715 5.54227C117.715 5.56106 117.715 5.56106 117.715 5.56106L114.243 21.9812H119.283L120.385 16.9086H131.604L132.705 21.9812H137.745L134.273 5.56106C134.292 5.56106 134.292 5.54227 134.292 5.54227ZM128.766 11.836H123.241H121.505L121.878 10.1452L122.681 6.46285C122.83 5.67378 123.502 5.07259 124.342 5.07259H127.702C128.523 5.07259 129.214 5.67378 129.363 6.46285L130.166 10.1452L130.539 11.836H128.766Z" fill="black" fill-opacity="0.2"/>
<path d="M134.292 5.54227C133.713 2.386 130.969 0 127.683 0H124.323C121.038 0 118.294 2.386 117.715 5.54227C117.715 5.56106 117.715 5.56106 117.715 5.56106L114.243 21.9812H119.283L120.385 16.9086H131.604L132.705 21.9812H137.745L134.273 5.56106C134.292 5.56106 134.292 5.54227 134.292 5.54227ZM128.766 11.836H123.241H121.505L121.878 10.1452L122.681 6.46285C122.83 5.67378 123.502 5.07259 124.342 5.07259H127.702C128.523 5.07259 129.214 5.67378 129.363 6.46285L130.166 10.1452L130.539 11.836H128.766Z" fill="black" fill-opacity="0.2"/>
<path d="M134.292 5.54227C133.713 2.386 130.969 0 127.683 0H124.323C121.038 0 118.294 2.386 117.715 5.54227C117.715 5.56106 117.715 5.56106 117.715 5.56106L114.243 21.9812H119.283L120.385 16.9086H131.604L132.705 21.9812H137.745L134.273 5.56106C134.292 5.56106 134.292 5.54227 134.292 5.54227ZM128.766 11.836H123.241H121.505L121.878 10.1452L122.681 6.46285C122.83 5.67378 123.502 5.07259 124.342 5.07259H127.702C128.523 5.07259 129.214 5.67378 129.363 6.46285L130.166 10.1452L130.539 11.836H128.766Z" fill="black" fill-opacity="0.2"/>
<path d="M134.292 5.54227C133.713 2.386 130.969 0 127.683 0H124.323C121.038 0 118.294 2.386 117.715 5.54227C117.715 5.56106 117.715 5.56106 117.715 5.56106L114.243 21.9812H119.283L120.385 16.9086H131.604L132.705 21.9812H137.745L134.273 5.56106C134.292 5.56106 134.292 5.54227 134.292 5.54227ZM128.766 11.836H123.241H121.505L121.878 10.1452L122.681 6.46285C122.83 5.67378 123.502 5.07259 124.342 5.07259H127.702C128.523 5.07259 129.214 5.67378 129.363 6.46285L130.166 10.1452L130.539 11.836H128.766Z" fill="black" fill-opacity="0.2"/>
<path d="M134.292 5.54227C133.713 2.386 130.969 0 127.683 0H124.323C121.038 0 118.294 2.386 117.715 5.54227C117.715 5.56106 117.715 5.56106 117.715 5.56106L114.243 21.9812H119.283L120.385 16.9086H131.604L132.705 21.9812H137.745L134.273 5.56106C134.292 5.56106 134.292 5.54227 134.292 5.54227ZM128.766 11.836H123.241H121.505L121.878 10.1452L122.681 6.46285C122.83 5.67378 123.502 5.07259 124.342 5.07259H127.702C128.523 5.07259 129.214 5.67378 129.363 6.46285L130.166 10.1452L130.539 11.836H128.766Z" fill="black" fill-opacity="0.2"/>
<path d="M134.292 5.54227C133.713 2.386 130.969 0 127.683 0H124.323C121.038 0 118.294 2.386 117.715 5.54227C117.715 5.56106 117.715 5.56106 117.715 5.56106L114.243 21.9812H119.283L120.385 16.9086H131.604L132.705 21.9812H137.745L134.273 5.56106C134.292 5.56106 134.292 5.54227 134.292 5.54227ZM128.766 11.836H123.241H121.505L121.878 10.1452L122.681 6.46285C122.83 5.67378 123.502 5.07259 124.342 5.07259H127.702C128.523 5.07259 129.214 5.67378 129.363 6.46285L130.166 10.1452L130.539 11.836H128.766Z" fill="black" fill-opacity="0.2"/>
<path d="M134.292 5.54227C133.713 2.386 130.969 0 127.683 0H124.323C121.038 0 118.294 2.386 117.715 5.54227C117.715 5.56106 117.715 5.56106 117.715 5.56106L114.243 21.9812H119.283L120.385 16.9086H131.604L132.705 21.9812H137.745L134.273 5.56106C134.292 5.56106 134.292 5.54227 134.292 5.54227ZM128.766 11.836H123.241H121.505L121.878 10.1452L122.681 6.46285C122.83 5.67378 123.502 5.07259 124.342 5.07259H127.702C128.523 5.07259 129.214 5.67378 129.363 6.46285L130.166 10.1452L130.539 11.836H128.766Z" fill="black" fill-opacity="0.2"/>
<path d="M134.292 5.54227C133.713 2.386 130.969 0 127.683 0H124.323C121.038 0 118.294 2.386 117.715 5.54227C117.715 5.56106 117.715 5.56106 117.715 5.56106L114.243 21.9812H119.283L120.385 16.9086H131.604L132.705 21.9812H137.745L134.273 5.56106C134.292 5.56106 134.292 5.54227 134.292 5.54227ZM128.766 11.836H123.241H121.505L121.878 10.1452L122.681 6.46285C122.83 5.67378 123.502 5.07259 124.342 5.07259H127.702C128.523 5.07259 129.214 5.67378 129.363 6.46285L130.166 10.1452L130.539 11.836H128.766Z" fill="black" fill-opacity="0.2"/>
<path d="M134.292 5.54227C133.713 2.386 130.969 0 127.683 0H124.323C121.038 0 118.294 2.386 117.715 5.54227C117.715 5.56106 117.715 5.56106 117.715 5.56106L114.243 21.9812H119.283L120.385 16.9086H131.604L132.705 21.9812H137.745L134.273 5.56106C134.292 5.56106 134.292 5.54227 134.292 5.54227ZM128.766 11.836H123.241H121.505L121.878 10.1452L122.681 6.46285C122.83 5.67378 123.502 5.07259 124.342 5.07259H127.702C128.523 5.07259 129.214 5.67378 129.363 6.46285L130.166 10.1452L130.539 11.836H128.766Z" fill="black" fill-opacity="0.2"/>
<path d="M134.292 5.54227C133.713 2.386 130.969 0 127.683 0H124.323C121.038 0 118.294 2.386 117.715 5.54227C117.715 5.56106 117.715 5.56106 117.715 5.56106L114.243 21.9812H119.283L120.385 16.9086H131.604L132.705 21.9812H137.745L134.273 5.56106C134.292 5.56106 134.292 5.54227 134.292 5.54227ZM128.766 11.836H123.241H121.505L121.878 10.1452L122.681 6.46285C122.83 5.67378 123.502 5.07259 124.342 5.07259H127.702C128.523 5.07259 129.214 5.67378 129.363 6.46285L130.166 10.1452L130.539 11.836H128.766Z" fill="black" fill-opacity="0.2"/>
<path d="M134.292 5.54227C133.713 2.386 130.969 0 127.683 0H124.323C121.038 0 118.294 2.386 117.715 5.54227C117.715 5.56106 117.715 5.56106 117.715 5.56106L114.243 21.9812H119.283L120.385 16.9086H131.604L132.705 21.9812H137.745L134.273 5.56106C134.292 5.56106 134.292 5.54227 134.292 5.54227ZM128.766 11.836H123.241H121.505L121.878 10.1452L122.681 6.46285C122.83 5.67378 123.502 5.07259 124.342 5.07259H127.702C128.523 5.07259 129.214 5.67378 129.363 6.46285L130.166 10.1452L130.539 11.836H128.766Z" fill="black" fill-opacity="0.2"/>
<path d="M168.9 15.2178H161.34V10.9906H158.82V15.2178V17.7541V21.9812H161.34V17.7541H168.9V21.9812H171.421V17.7541V15.2178V10.9906H168.9V15.2178Z" fill="#1C1C1C"/>
<path d="M168.9 15.2178H161.34V10.9906H158.82V15.2178V17.7541V21.9812H161.34V17.7541H168.9V21.9812H171.421V17.7541V15.2178V10.9906H168.9V15.2178Z" fill="black" fill-opacity="0.2"/>
<path d="M168.9 15.2178H161.34V10.9906H158.82V15.2178V17.7541V21.9812H161.34V17.7541H168.9V21.9812H171.421V17.7541V15.2178V10.9906H168.9V15.2178Z" fill="black" fill-opacity="0.2"/>
<path d="M168.9 15.2178H161.34V10.9906H158.82V15.2178V17.7541V21.9812H161.34V17.7541H168.9V21.9812H171.421V17.7541V15.2178V10.9906H168.9V15.2178Z" fill="black" fill-opacity="0.2"/>
<path d="M168.9 15.2178H161.34V10.9906H158.82V15.2178V17.7541V21.9812H161.34V17.7541H168.9V21.9812H171.421V17.7541V15.2178V10.9906H168.9V15.2178Z" fill="black" fill-opacity="0.2"/>
<path d="M168.9 15.2178H161.34V10.9906H158.82V15.2178V17.7541V21.9812H161.34V17.7541H168.9V21.9812H171.421V17.7541V15.2178V10.9906H168.9V15.2178Z" fill="black" fill-opacity="0.2"/>
<path d="M168.9 15.2178H161.34V10.9906H158.82V15.2178V17.7541V21.9812H161.34V17.7541H168.9V21.9812H171.421V17.7541V15.2178V10.9906H168.9V15.2178Z" fill="black" fill-opacity="0.2"/>
<path d="M168.9 15.2178H161.34V10.9906H158.82V15.2178V17.7541V21.9812H161.34V17.7541H168.9V21.9812H171.421V17.7541V15.2178V10.9906H168.9V15.2178Z" fill="black" fill-opacity="0.2"/>
<path d="M168.9 15.2178H161.34V10.9906H158.82V15.2178V17.7541V21.9812H161.34V17.7541H168.9V21.9812H171.421V17.7541V15.2178V10.9906H168.9V15.2178Z" fill="black" fill-opacity="0.2"/>
<path d="M168.9 15.2178H161.34V10.9906H158.82V15.2178V17.7541V21.9812H161.34V17.7541H168.9V21.9812H171.421V17.7541V15.2178V10.9906H168.9V15.2178Z" fill="black" fill-opacity="0.2"/>
<path d="M168.9 15.2178H161.34V10.9906H158.82V15.2178V17.7541V21.9812H161.34V17.7541H168.9V21.9812H171.421V17.7541V15.2178V10.9906H168.9V15.2178Z" fill="black" fill-opacity="0.2"/>
<path d="M168.9 15.2178H161.34V10.9906H158.82V15.2178V17.7541V21.9812H161.34V17.7541H168.9V21.9812H171.421V17.7541V15.2178V10.9906H168.9V15.2178Z" fill="black" fill-opacity="0.2"/>
<path d="M168.9 15.2178H161.34V10.9906H158.82V15.2178V17.7541V21.9812H161.34V17.7541H168.9V21.9812H171.421V17.7541V15.2178V10.9906H168.9V15.2178Z" fill="black" fill-opacity="0.2"/>
<path d="M144.204 13.5269C144.129 13.7899 144.092 14.0717 144.092 14.3535C144.092 16.2135 145.585 17.7165 147.433 17.7165L150.924 17.7353L154.172 17.7541C154.639 17.7541 155.012 18.1298 155.012 18.5995C155.012 19.0692 154.639 19.4449 154.172 19.4449H150.924H144.11V21.9812H154.191C155.759 21.9812 157.065 20.9103 157.439 19.4449C157.513 19.1819 157.551 18.9001 157.551 18.5995C157.551 16.7395 156.039 15.2178 154.191 15.2178L150.7 15.199L147.452 15.1802C147.004 15.1802 146.631 14.8044 146.631 14.3535C146.631 13.9026 147.004 13.5269 147.452 13.5269H150.7H157.551V10.9906H147.452C145.884 10.9906 144.577 12.0615 144.204 13.5269Z" fill="#1C1C1C"/>
<path d="M144.204 13.5269C144.129 13.7899 144.092 14.0717 144.092 14.3535C144.092 16.2135 145.585 17.7165 147.433 17.7165L150.924 17.7353L154.172 17.7541C154.639 17.7541 155.012 18.1298 155.012 18.5995C155.012 19.0692 154.639 19.4449 154.172 19.4449H150.924H144.11V21.9812H154.191C155.759 21.9812 157.065 20.9103 157.439 19.4449C157.513 19.1819 157.551 18.9001 157.551 18.5995C157.551 16.7395 156.039 15.2178 154.191 15.2178L150.7 15.199L147.452 15.1802C147.004 15.1802 146.631 14.8044 146.631 14.3535C146.631 13.9026 147.004 13.5269 147.452 13.5269H150.7H157.551V10.9906H147.452C145.884 10.9906 144.577 12.0615 144.204 13.5269Z" fill="black" fill-opacity="0.2"/>
<path d="M144.204 13.5269C144.129 13.7899 144.092 14.0717 144.092 14.3535C144.092 16.2135 145.585 17.7165 147.433 17.7165L150.924 17.7353L154.172 17.7541C154.639 17.7541 155.012 18.1298 155.012 18.5995C155.012 19.0692 154.639 19.4449 154.172 19.4449H150.924H144.11V21.9812H154.191C155.759 21.9812 157.065 20.9103 157.439 19.4449C157.513 19.1819 157.551 18.9001 157.551 18.5995C157.551 16.7395 156.039 15.2178 154.191 15.2178L150.7 15.199L147.452 15.1802C147.004 15.1802 146.631 14.8044 146.631 14.3535C146.631 13.9026 147.004 13.5269 147.452 13.5269H150.7H157.551V10.9906H147.452C145.884 10.9906 144.577 12.0615 144.204 13.5269Z" fill="black" fill-opacity="0.2"/>
<path d="M144.204 13.5269C144.129 13.7899 144.092 14.0717 144.092 14.3535C144.092 16.2135 145.585 17.7165 147.433 17.7165L150.924 17.7353L154.172 17.7541C154.639 17.7541 155.012 18.1298 155.012 18.5995C155.012 19.0692 154.639 19.4449 154.172 19.4449H150.924H144.11V21.9812H154.191C155.759 21.9812 157.065 20.9103 157.439 19.4449C157.513 19.1819 157.551 18.9001 157.551 18.5995C157.551 16.7395 156.039 15.2178 154.191 15.2178L150.7 15.199L147.452 15.1802C147.004 15.1802 146.631 14.8044 146.631 14.3535C146.631 13.9026 147.004 13.5269 147.452 13.5269H150.7H157.551V10.9906H147.452C145.884 10.9906 144.577 12.0615 144.204 13.5269Z" fill="black" fill-opacity="0.2"/>
<path d="M144.204 13.5269C144.129 13.7899 144.092 14.0717 144.092 14.3535C144.092 16.2135 145.585 17.7165 147.433 17.7165L150.924 17.7353L154.172 17.7541C154.639 17.7541 155.012 18.1298 155.012 18.5995C155.012 19.0692 154.639 19.4449 154.172 19.4449H150.924H144.11V21.9812H154.191C155.759 21.9812 157.065 20.9103 157.439 19.4449C157.513 19.1819 157.551 18.9001 157.551 18.5995C157.551 16.7395 156.039 15.2178 154.191 15.2178L150.7 15.199L147.452 15.1802C147.004 15.1802 146.631 14.8044 146.631 14.3535C146.631 13.9026 147.004 13.5269 147.452 13.5269H150.7H157.551V10.9906H147.452C145.884 10.9906 144.577 12.0615 144.204 13.5269Z" fill="black" fill-opacity="0.2"/>
<path d="M144.204 13.5269C144.129 13.7899 144.092 14.0717 144.092 14.3535C144.092 16.2135 145.585 17.7165 147.433 17.7165L150.924 17.7353L154.172 17.7541C154.639 17.7541 155.012 18.1298 155.012 18.5995C155.012 19.0692 154.639 19.4449 154.172 19.4449H150.924H144.11V21.9812H154.191C155.759 21.9812 157.065 20.9103 157.439 19.4449C157.513 19.1819 157.551 18.9001 157.551 18.5995C157.551 16.7395 156.039 15.2178 154.191 15.2178L150.7 15.199L147.452 15.1802C147.004 15.1802 146.631 14.8044 146.631 14.3535C146.631 13.9026 147.004 13.5269 147.452 13.5269H150.7H157.551V10.9906H147.452C145.884 10.9906 144.577 12.0615 144.204 13.5269Z" fill="black" fill-opacity="0.2"/>
<path d="M144.204 13.5269C144.129 13.7899 144.092 14.0717 144.092 14.3535C144.092 16.2135 145.585 17.7165 147.433 17.7165L150.924 17.7353L154.172 17.7541C154.639 17.7541 155.012 18.1298 155.012 18.5995C155.012 19.0692 154.639 19.4449 154.172 19.4449H150.924H144.11V21.9812H154.191C155.759 21.9812 157.065 20.9103 157.439 19.4449C157.513 19.1819 157.551 18.9001 157.551 18.5995C157.551 16.7395 156.039 15.2178 154.191 15.2178L150.7 15.199L147.452 15.1802C147.004 15.1802 146.631 14.8044 146.631 14.3535C146.631 13.9026 147.004 13.5269 147.452 13.5269H150.7H157.551V10.9906H147.452C145.884 10.9906 144.577 12.0615 144.204 13.5269Z" fill="black" fill-opacity="0.2"/>
<path d="M144.204 13.5269C144.129 13.7899 144.092 14.0717 144.092 14.3535C144.092 16.2135 145.585 17.7165 147.433 17.7165L150.924 17.7353L154.172 17.7541C154.639 17.7541 155.012 18.1298 155.012 18.5995C155.012 19.0692 154.639 19.4449 154.172 19.4449H150.924H144.11V21.9812H154.191C155.759 21.9812 157.065 20.9103 157.439 19.4449C157.513 19.1819 157.551 18.9001 157.551 18.5995C157.551 16.7395 156.039 15.2178 154.191 15.2178L150.7 15.199L147.452 15.1802C147.004 15.1802 146.631 14.8044 146.631 14.3535C146.631 13.9026 147.004 13.5269 147.452 13.5269H150.7H157.551V10.9906H147.452C145.884 10.9906 144.577 12.0615 144.204 13.5269Z" fill="black" fill-opacity="0.2"/>
<path d="M144.204 13.5269C144.129 13.7899 144.092 14.0717 144.092 14.3535C144.092 16.2135 145.585 17.7165 147.433 17.7165L150.924 17.7353L154.172 17.7541C154.639 17.7541 155.012 18.1298 155.012 18.5995C155.012 19.0692 154.639 19.4449 154.172 19.4449H150.924H144.11V21.9812H154.191C155.759 21.9812 157.065 20.9103 157.439 19.4449C157.513 19.1819 157.551 18.9001 157.551 18.5995C157.551 16.7395 156.039 15.2178 154.191 15.2178L150.7 15.199L147.452 15.1802C147.004 15.1802 146.631 14.8044 146.631 14.3535C146.631 13.9026 147.004 13.5269 147.452 13.5269H150.7H157.551V10.9906H147.452C145.884 10.9906 144.577 12.0615 144.204 13.5269Z" fill="black" fill-opacity="0.2"/>
<path d="M144.204 13.5269C144.129 13.7899 144.092 14.0717 144.092 14.3535C144.092 16.2135 145.585 17.7165 147.433 17.7165L150.924 17.7353L154.172 17.7541C154.639 17.7541 155.012 18.1298 155.012 18.5995C155.012 19.0692 154.639 19.4449 154.172 19.4449H150.924H144.11V21.9812H154.191C155.759 21.9812 157.065 20.9103 157.439 19.4449C157.513 19.1819 157.551 18.9001 157.551 18.5995C157.551 16.7395 156.039 15.2178 154.191 15.2178L150.7 15.199L147.452 15.1802C147.004 15.1802 146.631 14.8044 146.631 14.3535C146.631 13.9026 147.004 13.5269 147.452 13.5269H150.7H157.551V10.9906H147.452C145.884 10.9906 144.577 12.0615 144.204 13.5269Z" fill="black" fill-opacity="0.2"/>
<path d="M144.204 13.5269C144.129 13.7899 144.092 14.0717 144.092 14.3535C144.092 16.2135 145.585 17.7165 147.433 17.7165L150.924 17.7353L154.172 17.7541C154.639 17.7541 155.012 18.1298 155.012 18.5995C155.012 19.0692 154.639 19.4449 154.172 19.4449H150.924H144.11V21.9812H154.191C155.759 21.9812 157.065 20.9103 157.439 19.4449C157.513 19.1819 157.551 18.9001 157.551 18.5995C157.551 16.7395 156.039 15.2178 154.191 15.2178L150.7 15.199L147.452 15.1802C147.004 15.1802 146.631 14.8044 146.631 14.3535C146.631 13.9026 147.004 13.5269 147.452 13.5269H150.7H157.551V10.9906H147.452C145.884 10.9906 144.577 12.0615 144.204 13.5269Z" fill="black" fill-opacity="0.2"/>
<path d="M144.204 13.5269C144.129 13.7899 144.092 14.0717 144.092 14.3535C144.092 16.2135 145.585 17.7165 147.433 17.7165L150.924 17.7353L154.172 17.7541C154.639 17.7541 155.012 18.1298 155.012 18.5995C155.012 19.0692 154.639 19.4449 154.172 19.4449H150.924H144.11V21.9812H154.191C155.759 21.9812 157.065 20.9103 157.439 19.4449C157.513 19.1819 157.551 18.9001 157.551 18.5995C157.551 16.7395 156.039 15.2178 154.191 15.2178L150.7 15.199L147.452 15.1802C147.004 15.1802 146.631 14.8044 146.631 14.3535C146.631 13.9026 147.004 13.5269 147.452 13.5269H150.7H157.551V10.9906H147.452C145.884 10.9906 144.577 12.0615 144.204 13.5269Z" fill="black" fill-opacity="0.2"/>
<path d="M144.204 13.5269C144.129 13.7899 144.092 14.0717 144.092 14.3535C144.092 16.2135 145.585 17.7165 147.433 17.7165L150.924 17.7353L154.172 17.7541C154.639 17.7541 155.012 18.1298 155.012 18.5995C155.012 19.0692 154.639 19.4449 154.172 19.4449H150.924H144.11V21.9812H154.191C155.759 21.9812 157.065 20.9103 157.439 19.4449C157.513 19.1819 157.551 18.9001 157.551 18.5995C157.551 16.7395 156.039 15.2178 154.191 15.2178L150.7 15.199L147.452 15.1802C147.004 15.1802 146.631 14.8044 146.631 14.3535C146.631 13.9026 147.004 13.5269 147.452 13.5269H150.7H157.551V10.9906H147.452C145.884 10.9906 144.577 12.0615 144.204 13.5269Z" fill="black" fill-opacity="0.2"/>
</svg>
