<svg width="25" height="25" viewBox="0 0 25 25" fill="none" xmlns="http://www.w3.org/2000/svg">
<path fill-rule="evenodd" clip-rule="evenodd" d="M3.95223 11.3879C9.13482 9.12993 12.5907 7.64134 14.3198 6.92212C19.2569 4.86862 20.2828 4.5119 20.9515 4.50013C21.0985 4.49753 21.4273 4.53398 21.6403 4.70682C21.8202 4.85275 21.8697 5.0499 21.8934 5.18826C21.917 5.32663 21.9465 5.64183 21.9231 5.88811C21.6555 8.6992 20.4979 15.521 19.9089 18.6694C19.6597 20.0017 19.1691 20.4484 18.694 20.4921C17.6616 20.5871 16.8777 19.8098 15.8777 19.1543C14.3131 18.1287 13.4291 17.4902 11.9103 16.4893C10.1551 15.3327 11.293 14.6969 12.2933 13.658C12.555 13.3861 17.1038 9.24867 17.1918 8.87335C17.2028 8.82641 17.213 8.65143 17.1091 8.55904C17.0051 8.46664 16.8517 8.49824 16.741 8.52337C16.5841 8.55898 14.0845 10.2111 9.24223 13.4798C8.53273 13.967 7.89009 14.2044 7.3143 14.1919C6.67954 14.1782 5.45852 13.833 4.55082 13.538C3.43748 13.1761 2.55263 12.9847 2.62968 12.3701C2.66981 12.05 3.11066 11.7226 3.95223 11.3879Z" fill="#1C1C1C"/>
<path fill-rule="evenodd" clip-rule="evenodd" d="M3.95223 11.3879C9.13482 9.12993 12.5907 7.64134 14.3198 6.92212C19.2569 4.86862 20.2828 4.5119 20.9515 4.50013C21.0985 4.49753 21.4273 4.53398 21.6403 4.70682C21.8202 4.85275 21.8697 5.0499 21.8934 5.18826C21.917 5.32663 21.9465 5.64183 21.9231 5.88811C21.6555 8.6992 20.4979 15.521 19.9089 18.6694C19.6597 20.0017 19.1691 20.4484 18.694 20.4921C17.6616 20.5871 16.8777 19.8098 15.8777 19.1543C14.3131 18.1287 13.4291 17.4902 11.9103 16.4893C10.1551 15.3327 11.293 14.6969 12.2933 13.658C12.555 13.3861 17.1038 9.24867 17.1918 8.87335C17.2028 8.82641 17.213 8.65143 17.1091 8.55904C17.0051 8.46664 16.8517 8.49824 16.741 8.52337C16.5841 8.55898 14.0845 10.2111 9.24223 13.4798C8.53273 13.967 7.89009 14.2044 7.3143 14.1919C6.67954 14.1782 5.45852 13.833 4.55082 13.538C3.43748 13.1761 2.55263 12.9847 2.62968 12.3701C2.66981 12.05 3.11066 11.7226 3.95223 11.3879Z" fill="black" fill-opacity="0.2"/>
<path fill-rule="evenodd" clip-rule="evenodd" d="M3.95223 11.3879C9.13482 9.12993 12.5907 7.64134 14.3198 6.92212C19.2569 4.86862 20.2828 4.5119 20.9515 4.50013C21.0985 4.49753 21.4273 4.53398 21.6403 4.70682C21.8202 4.85275 21.8697 5.0499 21.8934 5.18826C21.917 5.32663 21.9465 5.64183 21.9231 5.88811C21.6555 8.6992 20.4979 15.521 19.9089 18.6694C19.6597 20.0017 19.1691 20.4484 18.694 20.4921C17.6616 20.5871 16.8777 19.8098 15.8777 19.1543C14.3131 18.1287 13.4291 17.4902 11.9103 16.4893C10.1551 15.3327 11.293 14.6969 12.2933 13.658C12.555 13.3861 17.1038 9.24867 17.1918 8.87335C17.2028 8.82641 17.213 8.65143 17.1091 8.55904C17.0051 8.46664 16.8517 8.49824 16.741 8.52337C16.5841 8.55898 14.0845 10.2111 9.24223 13.4798C8.53273 13.967 7.89009 14.2044 7.3143 14.1919C6.67954 14.1782 5.45852 13.833 4.55082 13.538C3.43748 13.1761 2.55263 12.9847 2.62968 12.3701C2.66981 12.05 3.11066 11.7226 3.95223 11.3879Z" fill="black" fill-opacity="0.2"/>
<path fill-rule="evenodd" clip-rule="evenodd" d="M3.95223 11.3879C9.13482 9.12993 12.5907 7.64134 14.3198 6.92212C19.2569 4.86862 20.2828 4.5119 20.9515 4.50013C21.0985 4.49753 21.4273 4.53398 21.6403 4.70682C21.8202 4.85275 21.8697 5.0499 21.8934 5.18826C21.917 5.32663 21.9465 5.64183 21.9231 5.88811C21.6555 8.6992 20.4979 15.521 19.9089 18.6694C19.6597 20.0017 19.1691 20.4484 18.694 20.4921C17.6616 20.5871 16.8777 19.8098 15.8777 19.1543C14.3131 18.1287 13.4291 17.4902 11.9103 16.4893C10.1551 15.3327 11.293 14.6969 12.2933 13.658C12.555 13.3861 17.1038 9.24867 17.1918 8.87335C17.2028 8.82641 17.213 8.65143 17.1091 8.55904C17.0051 8.46664 16.8517 8.49824 16.741 8.52337C16.5841 8.55898 14.0845 10.2111 9.24223 13.4798C8.53273 13.967 7.89009 14.2044 7.3143 14.1919C6.67954 14.1782 5.45852 13.833 4.55082 13.538C3.43748 13.1761 2.55263 12.9847 2.62968 12.3701C2.66981 12.05 3.11066 11.7226 3.95223 11.3879Z" fill="black" fill-opacity="0.2"/>
<path fill-rule="evenodd" clip-rule="evenodd" d="M3.95223 11.3879C9.13482 9.12993 12.5907 7.64134 14.3198 6.92212C19.2569 4.86862 20.2828 4.5119 20.9515 4.50013C21.0985 4.49753 21.4273 4.53398 21.6403 4.70682C21.8202 4.85275 21.8697 5.0499 21.8934 5.18826C21.917 5.32663 21.9465 5.64183 21.9231 5.88811C21.6555 8.6992 20.4979 15.521 19.9089 18.6694C19.6597 20.0017 19.1691 20.4484 18.694 20.4921C17.6616 20.5871 16.8777 19.8098 15.8777 19.1543C14.3131 18.1287 13.4291 17.4902 11.9103 16.4893C10.1551 15.3327 11.293 14.6969 12.2933 13.658C12.555 13.3861 17.1038 9.24867 17.1918 8.87335C17.2028 8.82641 17.213 8.65143 17.1091 8.55904C17.0051 8.46664 16.8517 8.49824 16.741 8.52337C16.5841 8.55898 14.0845 10.2111 9.24223 13.4798C8.53273 13.967 7.89009 14.2044 7.3143 14.1919C6.67954 14.1782 5.45852 13.833 4.55082 13.538C3.43748 13.1761 2.55263 12.9847 2.62968 12.3701C2.66981 12.05 3.11066 11.7226 3.95223 11.3879Z" fill="black" fill-opacity="0.2"/>
<path fill-rule="evenodd" clip-rule="evenodd" d="M3.95223 11.3879C9.13482 9.12993 12.5907 7.64134 14.3198 6.92212C19.2569 4.86862 20.2828 4.5119 20.9515 4.50013C21.0985 4.49753 21.4273 4.53398 21.6403 4.70682C21.8202 4.85275 21.8697 5.0499 21.8934 5.18826C21.917 5.32663 21.9465 5.64183 21.9231 5.88811C21.6555 8.6992 20.4979 15.521 19.9089 18.6694C19.6597 20.0017 19.1691 20.4484 18.694 20.4921C17.6616 20.5871 16.8777 19.8098 15.8777 19.1543C14.3131 18.1287 13.4291 17.4902 11.9103 16.4893C10.1551 15.3327 11.293 14.6969 12.2933 13.658C12.555 13.3861 17.1038 9.24867 17.1918 8.87335C17.2028 8.82641 17.213 8.65143 17.1091 8.55904C17.0051 8.46664 16.8517 8.49824 16.741 8.52337C16.5841 8.55898 14.0845 10.2111 9.24223 13.4798C8.53273 13.967 7.89009 14.2044 7.3143 14.1919C6.67954 14.1782 5.45852 13.833 4.55082 13.538C3.43748 13.1761 2.55263 12.9847 2.62968 12.3701C2.66981 12.05 3.11066 11.7226 3.95223 11.3879Z" fill="black" fill-opacity="0.2"/>
<path fill-rule="evenodd" clip-rule="evenodd" d="M3.95223 11.3879C9.13482 9.12993 12.5907 7.64134 14.3198 6.92212C19.2569 4.86862 20.2828 4.5119 20.9515 4.50013C21.0985 4.49753 21.4273 4.53398 21.6403 4.70682C21.8202 4.85275 21.8697 5.0499 21.8934 5.18826C21.917 5.32663 21.9465 5.64183 21.9231 5.88811C21.6555 8.6992 20.4979 15.521 19.9089 18.6694C19.6597 20.0017 19.1691 20.4484 18.694 20.4921C17.6616 20.5871 16.8777 19.8098 15.8777 19.1543C14.3131 18.1287 13.4291 17.4902 11.9103 16.4893C10.1551 15.3327 11.293 14.6969 12.2933 13.658C12.555 13.3861 17.1038 9.24867 17.1918 8.87335C17.2028 8.82641 17.213 8.65143 17.1091 8.55904C17.0051 8.46664 16.8517 8.49824 16.741 8.52337C16.5841 8.55898 14.0845 10.2111 9.24223 13.4798C8.53273 13.967 7.89009 14.2044 7.3143 14.1919C6.67954 14.1782 5.45852 13.833 4.55082 13.538C3.43748 13.1761 2.55263 12.9847 2.62968 12.3701C2.66981 12.05 3.11066 11.7226 3.95223 11.3879Z" fill="black" fill-opacity="0.2"/>
<path fill-rule="evenodd" clip-rule="evenodd" d="M3.95223 11.3879C9.13482 9.12993 12.5907 7.64134 14.3198 6.92212C19.2569 4.86862 20.2828 4.5119 20.9515 4.50013C21.0985 4.49753 21.4273 4.53398 21.6403 4.70682C21.8202 4.85275 21.8697 5.0499 21.8934 5.18826C21.917 5.32663 21.9465 5.64183 21.9231 5.88811C21.6555 8.6992 20.4979 15.521 19.9089 18.6694C19.6597 20.0017 19.1691 20.4484 18.694 20.4921C17.6616 20.5871 16.8777 19.8098 15.8777 19.1543C14.3131 18.1287 13.4291 17.4902 11.9103 16.4893C10.1551 15.3327 11.293 14.6969 12.2933 13.658C12.555 13.3861 17.1038 9.24867 17.1918 8.87335C17.2028 8.82641 17.213 8.65143 17.1091 8.55904C17.0051 8.46664 16.8517 8.49824 16.741 8.52337C16.5841 8.55898 14.0845 10.2111 9.24223 13.4798C8.53273 13.967 7.89009 14.2044 7.3143 14.1919C6.67954 14.1782 5.45852 13.833 4.55082 13.538C3.43748 13.1761 2.55263 12.9847 2.62968 12.3701C2.66981 12.05 3.11066 11.7226 3.95223 11.3879Z" fill="black" fill-opacity="0.2"/>
<path fill-rule="evenodd" clip-rule="evenodd" d="M3.95223 11.3879C9.13482 9.12993 12.5907 7.64134 14.3198 6.92212C19.2569 4.86862 20.2828 4.5119 20.9515 4.50013C21.0985 4.49753 21.4273 4.53398 21.6403 4.70682C21.8202 4.85275 21.8697 5.0499 21.8934 5.18826C21.917 5.32663 21.9465 5.64183 21.9231 5.88811C21.6555 8.6992 20.4979 15.521 19.9089 18.6694C19.6597 20.0017 19.1691 20.4484 18.694 20.4921C17.6616 20.5871 16.8777 19.8098 15.8777 19.1543C14.3131 18.1287 13.4291 17.4902 11.9103 16.4893C10.1551 15.3327 11.293 14.6969 12.2933 13.658C12.555 13.3861 17.1038 9.24867 17.1918 8.87335C17.2028 8.82641 17.213 8.65143 17.1091 8.55904C17.0051 8.46664 16.8517 8.49824 16.741 8.52337C16.5841 8.55898 14.0845 10.2111 9.24223 13.4798C8.53273 13.967 7.89009 14.2044 7.3143 14.1919C6.67954 14.1782 5.45852 13.833 4.55082 13.538C3.43748 13.1761 2.55263 12.9847 2.62968 12.3701C2.66981 12.05 3.11066 11.7226 3.95223 11.3879Z" fill="black" fill-opacity="0.2"/>
<path fill-rule="evenodd" clip-rule="evenodd" d="M3.95223 11.3879C9.13482 9.12993 12.5907 7.64134 14.3198 6.92212C19.2569 4.86862 20.2828 4.5119 20.9515 4.50013C21.0985 4.49753 21.4273 4.53398 21.6403 4.70682C21.8202 4.85275 21.8697 5.0499 21.8934 5.18826C21.917 5.32663 21.9465 5.64183 21.9231 5.88811C21.6555 8.6992 20.4979 15.521 19.9089 18.6694C19.6597 20.0017 19.1691 20.4484 18.694 20.4921C17.6616 20.5871 16.8777 19.8098 15.8777 19.1543C14.3131 18.1287 13.4291 17.4902 11.9103 16.4893C10.1551 15.3327 11.293 14.6969 12.2933 13.658C12.555 13.3861 17.1038 9.24867 17.1918 8.87335C17.2028 8.82641 17.213 8.65143 17.1091 8.55904C17.0051 8.46664 16.8517 8.49824 16.741 8.52337C16.5841 8.55898 14.0845 10.2111 9.24223 13.4798C8.53273 13.967 7.89009 14.2044 7.3143 14.1919C6.67954 14.1782 5.45852 13.833 4.55082 13.538C3.43748 13.1761 2.55263 12.9847 2.62968 12.3701C2.66981 12.05 3.11066 11.7226 3.95223 11.3879Z" fill="black" fill-opacity="0.2"/>
<path fill-rule="evenodd" clip-rule="evenodd" d="M3.95223 11.3879C9.13482 9.12993 12.5907 7.64134 14.3198 6.92212C19.2569 4.86862 20.2828 4.5119 20.9515 4.50013C21.0985 4.49753 21.4273 4.53398 21.6403 4.70682C21.8202 4.85275 21.8697 5.0499 21.8934 5.18826C21.917 5.32663 21.9465 5.64183 21.9231 5.88811C21.6555 8.6992 20.4979 15.521 19.9089 18.6694C19.6597 20.0017 19.1691 20.4484 18.694 20.4921C17.6616 20.5871 16.8777 19.8098 15.8777 19.1543C14.3131 18.1287 13.4291 17.4902 11.9103 16.4893C10.1551 15.3327 11.293 14.6969 12.2933 13.658C12.555 13.3861 17.1038 9.24867 17.1918 8.87335C17.2028 8.82641 17.213 8.65143 17.1091 8.55904C17.0051 8.46664 16.8517 8.49824 16.741 8.52337C16.5841 8.55898 14.0845 10.2111 9.24223 13.4798C8.53273 13.967 7.89009 14.2044 7.3143 14.1919C6.67954 14.1782 5.45852 13.833 4.55082 13.538C3.43748 13.1761 2.55263 12.9847 2.62968 12.3701C2.66981 12.05 3.11066 11.7226 3.95223 11.3879Z" fill="black" fill-opacity="0.2"/>
<path fill-rule="evenodd" clip-rule="evenodd" d="M3.95223 11.3879C9.13482 9.12993 12.5907 7.64134 14.3198 6.92212C19.2569 4.86862 20.2828 4.5119 20.9515 4.50013C21.0985 4.49753 21.4273 4.53398 21.6403 4.70682C21.8202 4.85275 21.8697 5.0499 21.8934 5.18826C21.917 5.32663 21.9465 5.64183 21.9231 5.88811C21.6555 8.6992 20.4979 15.521 19.9089 18.6694C19.6597 20.0017 19.1691 20.4484 18.694 20.4921C17.6616 20.5871 16.8777 19.8098 15.8777 19.1543C14.3131 18.1287 13.4291 17.4902 11.9103 16.4893C10.1551 15.3327 11.293 14.6969 12.2933 13.658C12.555 13.3861 17.1038 9.24867 17.1918 8.87335C17.2028 8.82641 17.213 8.65143 17.1091 8.55904C17.0051 8.46664 16.8517 8.49824 16.741 8.52337C16.5841 8.55898 14.0845 10.2111 9.24223 13.4798C8.53273 13.967 7.89009 14.2044 7.3143 14.1919C6.67954 14.1782 5.45852 13.833 4.55082 13.538C3.43748 13.1761 2.55263 12.9847 2.62968 12.3701C2.66981 12.05 3.11066 11.7226 3.95223 11.3879Z" fill="black" fill-opacity="0.2"/>
<path fill-rule="evenodd" clip-rule="evenodd" d="M3.95223 11.3879C9.13482 9.12993 12.5907 7.64134 14.3198 6.92212C19.2569 4.86862 20.2828 4.5119 20.9515 4.50013C21.0985 4.49753 21.4273 4.53398 21.6403 4.70682C21.8202 4.85275 21.8697 5.0499 21.8934 5.18826C21.917 5.32663 21.9465 5.64183 21.9231 5.88811C21.6555 8.6992 20.4979 15.521 19.9089 18.6694C19.6597 20.0017 19.1691 20.4484 18.694 20.4921C17.6616 20.5871 16.8777 19.8098 15.8777 19.1543C14.3131 18.1287 13.4291 17.4902 11.9103 16.4893C10.1551 15.3327 11.293 14.6969 12.2933 13.658C12.555 13.3861 17.1038 9.24867 17.1918 8.87335C17.2028 8.82641 17.213 8.65143 17.1091 8.55904C17.0051 8.46664 16.8517 8.49824 16.741 8.52337C16.5841 8.55898 14.0845 10.2111 9.24223 13.4798C8.53273 13.967 7.89009 14.2044 7.3143 14.1919C6.67954 14.1782 5.45852 13.833 4.55082 13.538C3.43748 13.1761 2.55263 12.9847 2.62968 12.3701C2.66981 12.05 3.11066 11.7226 3.95223 11.3879Z" fill="black" fill-opacity="0.2"/>
</svg>
