<svg width="25" height="25" viewBox="0 0 25 25" fill="none" xmlns="http://www.w3.org/2000/svg">
<path d="M6.125 11.5002V6.7002C6.125 5.58009 6.125 5.01962 6.34299 4.5918C6.53473 4.21547 6.84047 3.90973 7.2168 3.71799C7.64462 3.5 8.20509 3.5 9.3252 3.5H13.7997C13.9223 3.5 14.0295 3.5 14.125 3.50087M20.1241 9.5C20.125 9.59561 20.125 9.70296 20.125 9.82568V18.3036C20.125 19.4215 20.125 19.9805 19.9072 20.4079C19.7155 20.7842 19.4089 21.0905 19.0326 21.2822C18.6052 21.5 18.046 21.5 16.9281 21.5L13.125 21.5M20.1241 9.5C20.1213 9.21451 20.1107 9.03376 20.0693 8.86133C20.0203 8.65726 19.9392 8.46214 19.8296 8.2832C19.7059 8.08136 19.5339 7.90889 19.188 7.56298L16.0625 4.4375C15.7168 4.09182 15.5436 3.91857 15.3418 3.79492C15.1629 3.68526 14.9679 3.60425 14.7638 3.55526C14.5913 3.51385 14.4106 3.50347 14.125 3.50087M20.1241 9.5H20.1252M20.1241 9.5H17.3219C16.204 9.5 15.6442 9.5 15.2168 9.28223C14.8405 9.09048 14.5347 8.78392 14.343 8.40759C14.125 7.97977 14.125 7.4201 14.125 6.3V3.50087M9.125 14.5L11.125 16.5M4.125 21.5V19L11.625 11.5L14.125 14L6.625 21.5H4.125Z" stroke="#1C1C1C" stroke-width="2" stroke-linecap="round" stroke-linejoin="round"/>
<path d="M6.125 11.5002V6.7002C6.125 5.58009 6.125 5.01962 6.34299 4.5918C6.53473 4.21547 6.84047 3.90973 7.2168 3.71799C7.64462 3.5 8.20509 3.5 9.3252 3.5H13.7997C13.9223 3.5 14.0295 3.5 14.125 3.50087M20.1241 9.5C20.125 9.59561 20.125 9.70296 20.125 9.82568V18.3036C20.125 19.4215 20.125 19.9805 19.9072 20.4079C19.7155 20.7842 19.4089 21.0905 19.0326 21.2822C18.6052 21.5 18.046 21.5 16.9281 21.5L13.125 21.5M20.1241 9.5C20.1213 9.21451 20.1107 9.03376 20.0693 8.86133C20.0203 8.65726 19.9392 8.46214 19.8296 8.2832C19.7059 8.08136 19.5339 7.90889 19.188 7.56298L16.0625 4.4375C15.7168 4.09182 15.5436 3.91857 15.3418 3.79492C15.1629 3.68526 14.9679 3.60425 14.7638 3.55526C14.5913 3.51385 14.4106 3.50347 14.125 3.50087M20.1241 9.5H20.1252M20.1241 9.5H17.3219C16.204 9.5 15.6442 9.5 15.2168 9.28223C14.8405 9.09048 14.5347 8.78392 14.343 8.40759C14.125 7.97977 14.125 7.4201 14.125 6.3V3.50087M9.125 14.5L11.125 16.5M4.125 21.5V19L11.625 11.5L14.125 14L6.625 21.5H4.125Z" stroke="black" stroke-opacity="0.2" stroke-width="2" stroke-linecap="round" stroke-linejoin="round"/>
<path d="M6.125 11.5002V6.7002C6.125 5.58009 6.125 5.01962 6.34299 4.5918C6.53473 4.21547 6.84047 3.90973 7.2168 3.71799C7.64462 3.5 8.20509 3.5 9.3252 3.5H13.7997C13.9223 3.5 14.0295 3.5 14.125 3.50087M20.1241 9.5C20.125 9.59561 20.125 9.70296 20.125 9.82568V18.3036C20.125 19.4215 20.125 19.9805 19.9072 20.4079C19.7155 20.7842 19.4089 21.0905 19.0326 21.2822C18.6052 21.5 18.046 21.5 16.9281 21.5L13.125 21.5M20.1241 9.5C20.1213 9.21451 20.1107 9.03376 20.0693 8.86133C20.0203 8.65726 19.9392 8.46214 19.8296 8.2832C19.7059 8.08136 19.5339 7.90889 19.188 7.56298L16.0625 4.4375C15.7168 4.09182 15.5436 3.91857 15.3418 3.79492C15.1629 3.68526 14.9679 3.60425 14.7638 3.55526C14.5913 3.51385 14.4106 3.50347 14.125 3.50087M20.1241 9.5H20.1252M20.1241 9.5H17.3219C16.204 9.5 15.6442 9.5 15.2168 9.28223C14.8405 9.09048 14.5347 8.78392 14.343 8.40759C14.125 7.97977 14.125 7.4201 14.125 6.3V3.50087M9.125 14.5L11.125 16.5M4.125 21.5V19L11.625 11.5L14.125 14L6.625 21.5H4.125Z" stroke="black" stroke-opacity="0.2" stroke-width="2" stroke-linecap="round" stroke-linejoin="round"/>
<path d="M6.125 11.5002V6.7002C6.125 5.58009 6.125 5.01962 6.34299 4.5918C6.53473 4.21547 6.84047 3.90973 7.2168 3.71799C7.64462 3.5 8.20509 3.5 9.3252 3.5H13.7997C13.9223 3.5 14.0295 3.5 14.125 3.50087M20.1241 9.5C20.125 9.59561 20.125 9.70296 20.125 9.82568V18.3036C20.125 19.4215 20.125 19.9805 19.9072 20.4079C19.7155 20.7842 19.4089 21.0905 19.0326 21.2822C18.6052 21.5 18.046 21.5 16.9281 21.5L13.125 21.5M20.1241 9.5C20.1213 9.21451 20.1107 9.03376 20.0693 8.86133C20.0203 8.65726 19.9392 8.46214 19.8296 8.2832C19.7059 8.08136 19.5339 7.90889 19.188 7.56298L16.0625 4.4375C15.7168 4.09182 15.5436 3.91857 15.3418 3.79492C15.1629 3.68526 14.9679 3.60425 14.7638 3.55526C14.5913 3.51385 14.4106 3.50347 14.125 3.50087M20.1241 9.5H20.1252M20.1241 9.5H17.3219C16.204 9.5 15.6442 9.5 15.2168 9.28223C14.8405 9.09048 14.5347 8.78392 14.343 8.40759C14.125 7.97977 14.125 7.4201 14.125 6.3V3.50087M9.125 14.5L11.125 16.5M4.125 21.5V19L11.625 11.5L14.125 14L6.625 21.5H4.125Z" stroke="black" stroke-opacity="0.2" stroke-width="2" stroke-linecap="round" stroke-linejoin="round"/>
<path d="M6.125 11.5002V6.7002C6.125 5.58009 6.125 5.01962 6.34299 4.5918C6.53473 4.21547 6.84047 3.90973 7.2168 3.71799C7.64462 3.5 8.20509 3.5 9.3252 3.5H13.7997C13.9223 3.5 14.0295 3.5 14.125 3.50087M20.1241 9.5C20.125 9.59561 20.125 9.70296 20.125 9.82568V18.3036C20.125 19.4215 20.125 19.9805 19.9072 20.4079C19.7155 20.7842 19.4089 21.0905 19.0326 21.2822C18.6052 21.5 18.046 21.5 16.9281 21.5L13.125 21.5M20.1241 9.5C20.1213 9.21451 20.1107 9.03376 20.0693 8.86133C20.0203 8.65726 19.9392 8.46214 19.8296 8.2832C19.7059 8.08136 19.5339 7.90889 19.188 7.56298L16.0625 4.4375C15.7168 4.09182 15.5436 3.91857 15.3418 3.79492C15.1629 3.68526 14.9679 3.60425 14.7638 3.55526C14.5913 3.51385 14.4106 3.50347 14.125 3.50087M20.1241 9.5H20.1252M20.1241 9.5H17.3219C16.204 9.5 15.6442 9.5 15.2168 9.28223C14.8405 9.09048 14.5347 8.78392 14.343 8.40759C14.125 7.97977 14.125 7.4201 14.125 6.3V3.50087M9.125 14.5L11.125 16.5M4.125 21.5V19L11.625 11.5L14.125 14L6.625 21.5H4.125Z" stroke="black" stroke-opacity="0.2" stroke-width="2" stroke-linecap="round" stroke-linejoin="round"/>
<path d="M6.125 11.5002V6.7002C6.125 5.58009 6.125 5.01962 6.34299 4.5918C6.53473 4.21547 6.84047 3.90973 7.2168 3.71799C7.64462 3.5 8.20509 3.5 9.3252 3.5H13.7997C13.9223 3.5 14.0295 3.5 14.125 3.50087M20.1241 9.5C20.125 9.59561 20.125 9.70296 20.125 9.82568V18.3036C20.125 19.4215 20.125 19.9805 19.9072 20.4079C19.7155 20.7842 19.4089 21.0905 19.0326 21.2822C18.6052 21.5 18.046 21.5 16.9281 21.5L13.125 21.5M20.1241 9.5C20.1213 9.21451 20.1107 9.03376 20.0693 8.86133C20.0203 8.65726 19.9392 8.46214 19.8296 8.2832C19.7059 8.08136 19.5339 7.90889 19.188 7.56298L16.0625 4.4375C15.7168 4.09182 15.5436 3.91857 15.3418 3.79492C15.1629 3.68526 14.9679 3.60425 14.7638 3.55526C14.5913 3.51385 14.4106 3.50347 14.125 3.50087M20.1241 9.5H20.1252M20.1241 9.5H17.3219C16.204 9.5 15.6442 9.5 15.2168 9.28223C14.8405 9.09048 14.5347 8.78392 14.343 8.40759C14.125 7.97977 14.125 7.4201 14.125 6.3V3.50087M9.125 14.5L11.125 16.5M4.125 21.5V19L11.625 11.5L14.125 14L6.625 21.5H4.125Z" stroke="black" stroke-opacity="0.2" stroke-width="2" stroke-linecap="round" stroke-linejoin="round"/>
<path d="M6.125 11.5002V6.7002C6.125 5.58009 6.125 5.01962 6.34299 4.5918C6.53473 4.21547 6.84047 3.90973 7.2168 3.71799C7.64462 3.5 8.20509 3.5 9.3252 3.5H13.7997C13.9223 3.5 14.0295 3.5 14.125 3.50087M20.1241 9.5C20.125 9.59561 20.125 9.70296 20.125 9.82568V18.3036C20.125 19.4215 20.125 19.9805 19.9072 20.4079C19.7155 20.7842 19.4089 21.0905 19.0326 21.2822C18.6052 21.5 18.046 21.5 16.9281 21.5L13.125 21.5M20.1241 9.5C20.1213 9.21451 20.1107 9.03376 20.0693 8.86133C20.0203 8.65726 19.9392 8.46214 19.8296 8.2832C19.7059 8.08136 19.5339 7.90889 19.188 7.56298L16.0625 4.4375C15.7168 4.09182 15.5436 3.91857 15.3418 3.79492C15.1629 3.68526 14.9679 3.60425 14.7638 3.55526C14.5913 3.51385 14.4106 3.50347 14.125 3.50087M20.1241 9.5H20.1252M20.1241 9.5H17.3219C16.204 9.5 15.6442 9.5 15.2168 9.28223C14.8405 9.09048 14.5347 8.78392 14.343 8.40759C14.125 7.97977 14.125 7.4201 14.125 6.3V3.50087M9.125 14.5L11.125 16.5M4.125 21.5V19L11.625 11.5L14.125 14L6.625 21.5H4.125Z" stroke="black" stroke-opacity="0.2" stroke-width="2" stroke-linecap="round" stroke-linejoin="round"/>
<path d="M6.125 11.5002V6.7002C6.125 5.58009 6.125 5.01962 6.34299 4.5918C6.53473 4.21547 6.84047 3.90973 7.2168 3.71799C7.64462 3.5 8.20509 3.5 9.3252 3.5H13.7997C13.9223 3.5 14.0295 3.5 14.125 3.50087M20.1241 9.5C20.125 9.59561 20.125 9.70296 20.125 9.82568V18.3036C20.125 19.4215 20.125 19.9805 19.9072 20.4079C19.7155 20.7842 19.4089 21.0905 19.0326 21.2822C18.6052 21.5 18.046 21.5 16.9281 21.5L13.125 21.5M20.1241 9.5C20.1213 9.21451 20.1107 9.03376 20.0693 8.86133C20.0203 8.65726 19.9392 8.46214 19.8296 8.2832C19.7059 8.08136 19.5339 7.90889 19.188 7.56298L16.0625 4.4375C15.7168 4.09182 15.5436 3.91857 15.3418 3.79492C15.1629 3.68526 14.9679 3.60425 14.7638 3.55526C14.5913 3.51385 14.4106 3.50347 14.125 3.50087M20.1241 9.5H20.1252M20.1241 9.5H17.3219C16.204 9.5 15.6442 9.5 15.2168 9.28223C14.8405 9.09048 14.5347 8.78392 14.343 8.40759C14.125 7.97977 14.125 7.4201 14.125 6.3V3.50087M9.125 14.5L11.125 16.5M4.125 21.5V19L11.625 11.5L14.125 14L6.625 21.5H4.125Z" stroke="black" stroke-opacity="0.2" stroke-width="2" stroke-linecap="round" stroke-linejoin="round"/>
<path d="M6.125 11.5002V6.7002C6.125 5.58009 6.125 5.01962 6.34299 4.5918C6.53473 4.21547 6.84047 3.90973 7.2168 3.71799C7.64462 3.5 8.20509 3.5 9.3252 3.5H13.7997C13.9223 3.5 14.0295 3.5 14.125 3.50087M20.1241 9.5C20.125 9.59561 20.125 9.70296 20.125 9.82568V18.3036C20.125 19.4215 20.125 19.9805 19.9072 20.4079C19.7155 20.7842 19.4089 21.0905 19.0326 21.2822C18.6052 21.5 18.046 21.5 16.9281 21.5L13.125 21.5M20.1241 9.5C20.1213 9.21451 20.1107 9.03376 20.0693 8.86133C20.0203 8.65726 19.9392 8.46214 19.8296 8.2832C19.7059 8.08136 19.5339 7.90889 19.188 7.56298L16.0625 4.4375C15.7168 4.09182 15.5436 3.91857 15.3418 3.79492C15.1629 3.68526 14.9679 3.60425 14.7638 3.55526C14.5913 3.51385 14.4106 3.50347 14.125 3.50087M20.1241 9.5H20.1252M20.1241 9.5H17.3219C16.204 9.5 15.6442 9.5 15.2168 9.28223C14.8405 9.09048 14.5347 8.78392 14.343 8.40759C14.125 7.97977 14.125 7.4201 14.125 6.3V3.50087M9.125 14.5L11.125 16.5M4.125 21.5V19L11.625 11.5L14.125 14L6.625 21.5H4.125Z" stroke="black" stroke-opacity="0.2" stroke-width="2" stroke-linecap="round" stroke-linejoin="round"/>
<path d="M6.125 11.5002V6.7002C6.125 5.58009 6.125 5.01962 6.34299 4.5918C6.53473 4.21547 6.84047 3.90973 7.2168 3.71799C7.64462 3.5 8.20509 3.5 9.3252 3.5H13.7997C13.9223 3.5 14.0295 3.5 14.125 3.50087M20.1241 9.5C20.125 9.59561 20.125 9.70296 20.125 9.82568V18.3036C20.125 19.4215 20.125 19.9805 19.9072 20.4079C19.7155 20.7842 19.4089 21.0905 19.0326 21.2822C18.6052 21.5 18.046 21.5 16.9281 21.5L13.125 21.5M20.1241 9.5C20.1213 9.21451 20.1107 9.03376 20.0693 8.86133C20.0203 8.65726 19.9392 8.46214 19.8296 8.2832C19.7059 8.08136 19.5339 7.90889 19.188 7.56298L16.0625 4.4375C15.7168 4.09182 15.5436 3.91857 15.3418 3.79492C15.1629 3.68526 14.9679 3.60425 14.7638 3.55526C14.5913 3.51385 14.4106 3.50347 14.125 3.50087M20.1241 9.5H20.1252M20.1241 9.5H17.3219C16.204 9.5 15.6442 9.5 15.2168 9.28223C14.8405 9.09048 14.5347 8.78392 14.343 8.40759C14.125 7.97977 14.125 7.4201 14.125 6.3V3.50087M9.125 14.5L11.125 16.5M4.125 21.5V19L11.625 11.5L14.125 14L6.625 21.5H4.125Z" stroke="black" stroke-opacity="0.2" stroke-width="2" stroke-linecap="round" stroke-linejoin="round"/>
<path d="M6.125 11.5002V6.7002C6.125 5.58009 6.125 5.01962 6.34299 4.5918C6.53473 4.21547 6.84047 3.90973 7.2168 3.71799C7.64462 3.5 8.20509 3.5 9.3252 3.5H13.7997C13.9223 3.5 14.0295 3.5 14.125 3.50087M20.1241 9.5C20.125 9.59561 20.125 9.70296 20.125 9.82568V18.3036C20.125 19.4215 20.125 19.9805 19.9072 20.4079C19.7155 20.7842 19.4089 21.0905 19.0326 21.2822C18.6052 21.5 18.046 21.5 16.9281 21.5L13.125 21.5M20.1241 9.5C20.1213 9.21451 20.1107 9.03376 20.0693 8.86133C20.0203 8.65726 19.9392 8.46214 19.8296 8.2832C19.7059 8.08136 19.5339 7.90889 19.188 7.56298L16.0625 4.4375C15.7168 4.09182 15.5436 3.91857 15.3418 3.79492C15.1629 3.68526 14.9679 3.60425 14.7638 3.55526C14.5913 3.51385 14.4106 3.50347 14.125 3.50087M20.1241 9.5H20.1252M20.1241 9.5H17.3219C16.204 9.5 15.6442 9.5 15.2168 9.28223C14.8405 9.09048 14.5347 8.78392 14.343 8.40759C14.125 7.97977 14.125 7.4201 14.125 6.3V3.50087M9.125 14.5L11.125 16.5M4.125 21.5V19L11.625 11.5L14.125 14L6.625 21.5H4.125Z" stroke="black" stroke-opacity="0.2" stroke-width="2" stroke-linecap="round" stroke-linejoin="round"/>
<path d="M6.125 11.5002V6.7002C6.125 5.58009 6.125 5.01962 6.34299 4.5918C6.53473 4.21547 6.84047 3.90973 7.2168 3.71799C7.64462 3.5 8.20509 3.5 9.3252 3.5H13.7997C13.9223 3.5 14.0295 3.5 14.125 3.50087M20.1241 9.5C20.125 9.59561 20.125 9.70296 20.125 9.82568V18.3036C20.125 19.4215 20.125 19.9805 19.9072 20.4079C19.7155 20.7842 19.4089 21.0905 19.0326 21.2822C18.6052 21.5 18.046 21.5 16.9281 21.5L13.125 21.5M20.1241 9.5C20.1213 9.21451 20.1107 9.03376 20.0693 8.86133C20.0203 8.65726 19.9392 8.46214 19.8296 8.2832C19.7059 8.08136 19.5339 7.90889 19.188 7.56298L16.0625 4.4375C15.7168 4.09182 15.5436 3.91857 15.3418 3.79492C15.1629 3.68526 14.9679 3.60425 14.7638 3.55526C14.5913 3.51385 14.4106 3.50347 14.125 3.50087M20.1241 9.5H20.1252M20.1241 9.5H17.3219C16.204 9.5 15.6442 9.5 15.2168 9.28223C14.8405 9.09048 14.5347 8.78392 14.343 8.40759C14.125 7.97977 14.125 7.4201 14.125 6.3V3.50087M9.125 14.5L11.125 16.5M4.125 21.5V19L11.625 11.5L14.125 14L6.625 21.5H4.125Z" stroke="black" stroke-opacity="0.2" stroke-width="2" stroke-linecap="round" stroke-linejoin="round"/>
<path d="M6.125 11.5002V6.7002C6.125 5.58009 6.125 5.01962 6.34299 4.5918C6.53473 4.21547 6.84047 3.90973 7.2168 3.71799C7.64462 3.5 8.20509 3.5 9.3252 3.5H13.7997C13.9223 3.5 14.0295 3.5 14.125 3.50087M20.1241 9.5C20.125 9.59561 20.125 9.70296 20.125 9.82568V18.3036C20.125 19.4215 20.125 19.9805 19.9072 20.4079C19.7155 20.7842 19.4089 21.0905 19.0326 21.2822C18.6052 21.5 18.046 21.5 16.9281 21.5L13.125 21.5M20.1241 9.5C20.1213 9.21451 20.1107 9.03376 20.0693 8.86133C20.0203 8.65726 19.9392 8.46214 19.8296 8.2832C19.7059 8.08136 19.5339 7.90889 19.188 7.56298L16.0625 4.4375C15.7168 4.09182 15.5436 3.91857 15.3418 3.79492C15.1629 3.68526 14.9679 3.60425 14.7638 3.55526C14.5913 3.51385 14.4106 3.50347 14.125 3.50087M20.1241 9.5H20.1252M20.1241 9.5H17.3219C16.204 9.5 15.6442 9.5 15.2168 9.28223C14.8405 9.09048 14.5347 8.78392 14.343 8.40759C14.125 7.97977 14.125 7.4201 14.125 6.3V3.50087M9.125 14.5L11.125 16.5M4.125 21.5V19L11.625 11.5L14.125 14L6.625 21.5H4.125Z" stroke="black" stroke-opacity="0.2" stroke-width="2" stroke-linecap="round" stroke-linejoin="round"/>
</svg>
