<svg width="25" height="25" viewBox="0 0 25 25" fill="none" xmlns="http://www.w3.org/2000/svg">
<path d="M18.371 14.8827C18.0702 14.7305 16.6055 14.0157 16.3317 13.9137C16.058 13.8162 15.8592 13.7652 15.6597 14.066C15.4647 14.3592 14.8902 15.0305 14.7147 15.2262C14.5392 15.422 14.3667 15.437 14.0705 15.3043C13.7697 15.152 12.809 14.8392 11.6683 13.8162C10.7773 13.0235 10.184 12.047 10.0077 11.7463C9.83225 11.4493 9.98825 11.2812 10.1368 11.1327C10.2732 10.9963 10.4375 10.7893 10.5898 10.6093C10.7345 10.4292 10.781 10.3085 10.8868 10.1135C10.9843 9.90275 10.934 9.7385 10.8597 9.59C10.7855 9.4415 10.1877 7.96925 9.938 7.38275C9.6995 6.80075 9.44975 6.875 9.266 6.875C9.09425 6.85925 8.89475 6.85925 8.696 6.85925C8.49725 6.85925 8.1725 6.9335 7.89875 7.2185C7.625 7.51925 6.85175 8.23775 6.85175 9.69125C6.85175 11.1485 7.922 12.5585 8.0705 12.7692C8.22275 12.9642 10.1757 15.9642 13.172 17.2535C13.8868 17.5542 14.4417 17.7342 14.8752 17.8827C15.59 18.1092 16.2425 18.0777 16.7577 18.0035C17.3277 17.9097 18.5233 17.2805 18.7738 16.5778C19.028 15.8705 19.028 15.2847 18.9538 15.152C18.8795 15.0155 18.6845 14.9412 18.3837 14.8085L18.371 14.8827ZM12.9373 22.25H12.9215C11.1477 22.25 9.39425 21.7692 7.86275 20.8708L7.5035 20.6562L3.7535 21.6327L4.7615 17.984L4.51925 17.609C3.53075 16.0347 3.0035 14.2183 3.0035 12.3515C3.0035 6.9065 7.46075 2.465 12.9447 2.465C15.6013 2.465 18.0935 3.5 19.9685 5.375C21.8435 7.23425 22.8785 9.7265 22.8785 12.3673C22.871 17.8085 18.4175 22.25 12.941 22.25H12.9373ZM21.3942 3.94925C19.1127 1.74575 16.1128 0.5 12.9215 0.5C6.3395 0.5 0.98 5.83625 0.97625 12.3942C0.97625 14.4882 1.523 16.5312 2.57 18.3395L0.875 24.5L7.211 22.8478C8.957 23.789 10.922 24.293 12.9222 24.2967H12.926C19.5118 24.2967 24.8713 18.9605 24.875 12.398C24.875 9.2225 23.6368 6.23375 21.3792 3.9875L21.3942 3.94925Z" fill="#1C1C1C"/>
<path d="M18.371 14.8827C18.0702 14.7305 16.6055 14.0157 16.3317 13.9137C16.058 13.8162 15.8592 13.7652 15.6597 14.066C15.4647 14.3592 14.8902 15.0305 14.7147 15.2262C14.5392 15.422 14.3667 15.437 14.0705 15.3043C13.7697 15.152 12.809 14.8392 11.6683 13.8162C10.7773 13.0235 10.184 12.047 10.0077 11.7463C9.83225 11.4493 9.98825 11.2812 10.1368 11.1327C10.2732 10.9963 10.4375 10.7893 10.5898 10.6093C10.7345 10.4292 10.781 10.3085 10.8868 10.1135C10.9843 9.90275 10.934 9.7385 10.8597 9.59C10.7855 9.4415 10.1877 7.96925 9.938 7.38275C9.6995 6.80075 9.44975 6.875 9.266 6.875C9.09425 6.85925 8.89475 6.85925 8.696 6.85925C8.49725 6.85925 8.1725 6.9335 7.89875 7.2185C7.625 7.51925 6.85175 8.23775 6.85175 9.69125C6.85175 11.1485 7.922 12.5585 8.0705 12.7692C8.22275 12.9642 10.1757 15.9642 13.172 17.2535C13.8868 17.5542 14.4417 17.7342 14.8752 17.8827C15.59 18.1092 16.2425 18.0777 16.7577 18.0035C17.3277 17.9097 18.5233 17.2805 18.7738 16.5778C19.028 15.8705 19.028 15.2847 18.9538 15.152C18.8795 15.0155 18.6845 14.9412 18.3837 14.8085L18.371 14.8827ZM12.9373 22.25H12.9215C11.1477 22.25 9.39425 21.7692 7.86275 20.8708L7.5035 20.6562L3.7535 21.6327L4.7615 17.984L4.51925 17.609C3.53075 16.0347 3.0035 14.2183 3.0035 12.3515C3.0035 6.9065 7.46075 2.465 12.9447 2.465C15.6013 2.465 18.0935 3.5 19.9685 5.375C21.8435 7.23425 22.8785 9.7265 22.8785 12.3673C22.871 17.8085 18.4175 22.25 12.941 22.25H12.9373ZM21.3942 3.94925C19.1127 1.74575 16.1128 0.5 12.9215 0.5C6.3395 0.5 0.98 5.83625 0.97625 12.3942C0.97625 14.4882 1.523 16.5312 2.57 18.3395L0.875 24.5L7.211 22.8478C8.957 23.789 10.922 24.293 12.9222 24.2967H12.926C19.5118 24.2967 24.8713 18.9605 24.875 12.398C24.875 9.2225 23.6368 6.23375 21.3792 3.9875L21.3942 3.94925Z" fill="black" fill-opacity="0.2"/>
<path d="M18.371 14.8827C18.0702 14.7305 16.6055 14.0157 16.3317 13.9137C16.058 13.8162 15.8592 13.7652 15.6597 14.066C15.4647 14.3592 14.8902 15.0305 14.7147 15.2262C14.5392 15.422 14.3667 15.437 14.0705 15.3043C13.7697 15.152 12.809 14.8392 11.6683 13.8162C10.7773 13.0235 10.184 12.047 10.0077 11.7463C9.83225 11.4493 9.98825 11.2812 10.1368 11.1327C10.2732 10.9963 10.4375 10.7893 10.5898 10.6093C10.7345 10.4292 10.781 10.3085 10.8868 10.1135C10.9843 9.90275 10.934 9.7385 10.8597 9.59C10.7855 9.4415 10.1877 7.96925 9.938 7.38275C9.6995 6.80075 9.44975 6.875 9.266 6.875C9.09425 6.85925 8.89475 6.85925 8.696 6.85925C8.49725 6.85925 8.1725 6.9335 7.89875 7.2185C7.625 7.51925 6.85175 8.23775 6.85175 9.69125C6.85175 11.1485 7.922 12.5585 8.0705 12.7692C8.22275 12.9642 10.1757 15.9642 13.172 17.2535C13.8868 17.5542 14.4417 17.7342 14.8752 17.8827C15.59 18.1092 16.2425 18.0777 16.7577 18.0035C17.3277 17.9097 18.5233 17.2805 18.7738 16.5778C19.028 15.8705 19.028 15.2847 18.9538 15.152C18.8795 15.0155 18.6845 14.9412 18.3837 14.8085L18.371 14.8827ZM12.9373 22.25H12.9215C11.1477 22.25 9.39425 21.7692 7.86275 20.8708L7.5035 20.6562L3.7535 21.6327L4.7615 17.984L4.51925 17.609C3.53075 16.0347 3.0035 14.2183 3.0035 12.3515C3.0035 6.9065 7.46075 2.465 12.9447 2.465C15.6013 2.465 18.0935 3.5 19.9685 5.375C21.8435 7.23425 22.8785 9.7265 22.8785 12.3673C22.871 17.8085 18.4175 22.25 12.941 22.25H12.9373ZM21.3942 3.94925C19.1127 1.74575 16.1128 0.5 12.9215 0.5C6.3395 0.5 0.98 5.83625 0.97625 12.3942C0.97625 14.4882 1.523 16.5312 2.57 18.3395L0.875 24.5L7.211 22.8478C8.957 23.789 10.922 24.293 12.9222 24.2967H12.926C19.5118 24.2967 24.8713 18.9605 24.875 12.398C24.875 9.2225 23.6368 6.23375 21.3792 3.9875L21.3942 3.94925Z" fill="black" fill-opacity="0.2"/>
<path d="M18.371 14.8827C18.0702 14.7305 16.6055 14.0157 16.3317 13.9137C16.058 13.8162 15.8592 13.7652 15.6597 14.066C15.4647 14.3592 14.8902 15.0305 14.7147 15.2262C14.5392 15.422 14.3667 15.437 14.0705 15.3043C13.7697 15.152 12.809 14.8392 11.6683 13.8162C10.7773 13.0235 10.184 12.047 10.0077 11.7463C9.83225 11.4493 9.98825 11.2812 10.1368 11.1327C10.2732 10.9963 10.4375 10.7893 10.5898 10.6093C10.7345 10.4292 10.781 10.3085 10.8868 10.1135C10.9843 9.90275 10.934 9.7385 10.8597 9.59C10.7855 9.4415 10.1877 7.96925 9.938 7.38275C9.6995 6.80075 9.44975 6.875 9.266 6.875C9.09425 6.85925 8.89475 6.85925 8.696 6.85925C8.49725 6.85925 8.1725 6.9335 7.89875 7.2185C7.625 7.51925 6.85175 8.23775 6.85175 9.69125C6.85175 11.1485 7.922 12.5585 8.0705 12.7692C8.22275 12.9642 10.1757 15.9642 13.172 17.2535C13.8868 17.5542 14.4417 17.7342 14.8752 17.8827C15.59 18.1092 16.2425 18.0777 16.7577 18.0035C17.3277 17.9097 18.5233 17.2805 18.7738 16.5778C19.028 15.8705 19.028 15.2847 18.9538 15.152C18.8795 15.0155 18.6845 14.9412 18.3837 14.8085L18.371 14.8827ZM12.9373 22.25H12.9215C11.1477 22.25 9.39425 21.7692 7.86275 20.8708L7.5035 20.6562L3.7535 21.6327L4.7615 17.984L4.51925 17.609C3.53075 16.0347 3.0035 14.2183 3.0035 12.3515C3.0035 6.9065 7.46075 2.465 12.9447 2.465C15.6013 2.465 18.0935 3.5 19.9685 5.375C21.8435 7.23425 22.8785 9.7265 22.8785 12.3673C22.871 17.8085 18.4175 22.25 12.941 22.25H12.9373ZM21.3942 3.94925C19.1127 1.74575 16.1128 0.5 12.9215 0.5C6.3395 0.5 0.98 5.83625 0.97625 12.3942C0.97625 14.4882 1.523 16.5312 2.57 18.3395L0.875 24.5L7.211 22.8478C8.957 23.789 10.922 24.293 12.9222 24.2967H12.926C19.5118 24.2967 24.8713 18.9605 24.875 12.398C24.875 9.2225 23.6368 6.23375 21.3792 3.9875L21.3942 3.94925Z" fill="black" fill-opacity="0.2"/>
<path d="M18.371 14.8827C18.0702 14.7305 16.6055 14.0157 16.3317 13.9137C16.058 13.8162 15.8592 13.7652 15.6597 14.066C15.4647 14.3592 14.8902 15.0305 14.7147 15.2262C14.5392 15.422 14.3667 15.437 14.0705 15.3043C13.7697 15.152 12.809 14.8392 11.6683 13.8162C10.7773 13.0235 10.184 12.047 10.0077 11.7463C9.83225 11.4493 9.98825 11.2812 10.1368 11.1327C10.2732 10.9963 10.4375 10.7893 10.5898 10.6093C10.7345 10.4292 10.781 10.3085 10.8868 10.1135C10.9843 9.90275 10.934 9.7385 10.8597 9.59C10.7855 9.4415 10.1877 7.96925 9.938 7.38275C9.6995 6.80075 9.44975 6.875 9.266 6.875C9.09425 6.85925 8.89475 6.85925 8.696 6.85925C8.49725 6.85925 8.1725 6.9335 7.89875 7.2185C7.625 7.51925 6.85175 8.23775 6.85175 9.69125C6.85175 11.1485 7.922 12.5585 8.0705 12.7692C8.22275 12.9642 10.1757 15.9642 13.172 17.2535C13.8868 17.5542 14.4417 17.7342 14.8752 17.8827C15.59 18.1092 16.2425 18.0777 16.7577 18.0035C17.3277 17.9097 18.5233 17.2805 18.7738 16.5778C19.028 15.8705 19.028 15.2847 18.9538 15.152C18.8795 15.0155 18.6845 14.9412 18.3837 14.8085L18.371 14.8827ZM12.9373 22.25H12.9215C11.1477 22.25 9.39425 21.7692 7.86275 20.8708L7.5035 20.6562L3.7535 21.6327L4.7615 17.984L4.51925 17.609C3.53075 16.0347 3.0035 14.2183 3.0035 12.3515C3.0035 6.9065 7.46075 2.465 12.9447 2.465C15.6013 2.465 18.0935 3.5 19.9685 5.375C21.8435 7.23425 22.8785 9.7265 22.8785 12.3673C22.871 17.8085 18.4175 22.25 12.941 22.25H12.9373ZM21.3942 3.94925C19.1127 1.74575 16.1128 0.5 12.9215 0.5C6.3395 0.5 0.98 5.83625 0.97625 12.3942C0.97625 14.4882 1.523 16.5312 2.57 18.3395L0.875 24.5L7.211 22.8478C8.957 23.789 10.922 24.293 12.9222 24.2967H12.926C19.5118 24.2967 24.8713 18.9605 24.875 12.398C24.875 9.2225 23.6368 6.23375 21.3792 3.9875L21.3942 3.94925Z" fill="black" fill-opacity="0.2"/>
<path d="M18.371 14.8827C18.0702 14.7305 16.6055 14.0157 16.3317 13.9137C16.058 13.8162 15.8592 13.7652 15.6597 14.066C15.4647 14.3592 14.8902 15.0305 14.7147 15.2262C14.5392 15.422 14.3667 15.437 14.0705 15.3043C13.7697 15.152 12.809 14.8392 11.6683 13.8162C10.7773 13.0235 10.184 12.047 10.0077 11.7463C9.83225 11.4493 9.98825 11.2812 10.1368 11.1327C10.2732 10.9963 10.4375 10.7893 10.5898 10.6093C10.7345 10.4292 10.781 10.3085 10.8868 10.1135C10.9843 9.90275 10.934 9.7385 10.8597 9.59C10.7855 9.4415 10.1877 7.96925 9.938 7.38275C9.6995 6.80075 9.44975 6.875 9.266 6.875C9.09425 6.85925 8.89475 6.85925 8.696 6.85925C8.49725 6.85925 8.1725 6.9335 7.89875 7.2185C7.625 7.51925 6.85175 8.23775 6.85175 9.69125C6.85175 11.1485 7.922 12.5585 8.0705 12.7692C8.22275 12.9642 10.1757 15.9642 13.172 17.2535C13.8868 17.5542 14.4417 17.7342 14.8752 17.8827C15.59 18.1092 16.2425 18.0777 16.7577 18.0035C17.3277 17.9097 18.5233 17.2805 18.7738 16.5778C19.028 15.8705 19.028 15.2847 18.9538 15.152C18.8795 15.0155 18.6845 14.9412 18.3837 14.8085L18.371 14.8827ZM12.9373 22.25H12.9215C11.1477 22.25 9.39425 21.7692 7.86275 20.8708L7.5035 20.6562L3.7535 21.6327L4.7615 17.984L4.51925 17.609C3.53075 16.0347 3.0035 14.2183 3.0035 12.3515C3.0035 6.9065 7.46075 2.465 12.9447 2.465C15.6013 2.465 18.0935 3.5 19.9685 5.375C21.8435 7.23425 22.8785 9.7265 22.8785 12.3673C22.871 17.8085 18.4175 22.25 12.941 22.25H12.9373ZM21.3942 3.94925C19.1127 1.74575 16.1128 0.5 12.9215 0.5C6.3395 0.5 0.98 5.83625 0.97625 12.3942C0.97625 14.4882 1.523 16.5312 2.57 18.3395L0.875 24.5L7.211 22.8478C8.957 23.789 10.922 24.293 12.9222 24.2967H12.926C19.5118 24.2967 24.8713 18.9605 24.875 12.398C24.875 9.2225 23.6368 6.23375 21.3792 3.9875L21.3942 3.94925Z" fill="black" fill-opacity="0.2"/>
<path d="M18.371 14.8827C18.0702 14.7305 16.6055 14.0157 16.3317 13.9137C16.058 13.8162 15.8592 13.7652 15.6597 14.066C15.4647 14.3592 14.8902 15.0305 14.7147 15.2262C14.5392 15.422 14.3667 15.437 14.0705 15.3043C13.7697 15.152 12.809 14.8392 11.6683 13.8162C10.7773 13.0235 10.184 12.047 10.0077 11.7463C9.83225 11.4493 9.98825 11.2812 10.1368 11.1327C10.2732 10.9963 10.4375 10.7893 10.5898 10.6093C10.7345 10.4292 10.781 10.3085 10.8868 10.1135C10.9843 9.90275 10.934 9.7385 10.8597 9.59C10.7855 9.4415 10.1877 7.96925 9.938 7.38275C9.6995 6.80075 9.44975 6.875 9.266 6.875C9.09425 6.85925 8.89475 6.85925 8.696 6.85925C8.49725 6.85925 8.1725 6.9335 7.89875 7.2185C7.625 7.51925 6.85175 8.23775 6.85175 9.69125C6.85175 11.1485 7.922 12.5585 8.0705 12.7692C8.22275 12.9642 10.1757 15.9642 13.172 17.2535C13.8868 17.5542 14.4417 17.7342 14.8752 17.8827C15.59 18.1092 16.2425 18.0777 16.7577 18.0035C17.3277 17.9097 18.5233 17.2805 18.7738 16.5778C19.028 15.8705 19.028 15.2847 18.9538 15.152C18.8795 15.0155 18.6845 14.9412 18.3837 14.8085L18.371 14.8827ZM12.9373 22.25H12.9215C11.1477 22.25 9.39425 21.7692 7.86275 20.8708L7.5035 20.6562L3.7535 21.6327L4.7615 17.984L4.51925 17.609C3.53075 16.0347 3.0035 14.2183 3.0035 12.3515C3.0035 6.9065 7.46075 2.465 12.9447 2.465C15.6013 2.465 18.0935 3.5 19.9685 5.375C21.8435 7.23425 22.8785 9.7265 22.8785 12.3673C22.871 17.8085 18.4175 22.25 12.941 22.25H12.9373ZM21.3942 3.94925C19.1127 1.74575 16.1128 0.5 12.9215 0.5C6.3395 0.5 0.98 5.83625 0.97625 12.3942C0.97625 14.4882 1.523 16.5312 2.57 18.3395L0.875 24.5L7.211 22.8478C8.957 23.789 10.922 24.293 12.9222 24.2967H12.926C19.5118 24.2967 24.8713 18.9605 24.875 12.398C24.875 9.2225 23.6368 6.23375 21.3792 3.9875L21.3942 3.94925Z" fill="black" fill-opacity="0.2"/>
<path d="M18.371 14.8827C18.0702 14.7305 16.6055 14.0157 16.3317 13.9137C16.058 13.8162 15.8592 13.7652 15.6597 14.066C15.4647 14.3592 14.8902 15.0305 14.7147 15.2262C14.5392 15.422 14.3667 15.437 14.0705 15.3043C13.7697 15.152 12.809 14.8392 11.6683 13.8162C10.7773 13.0235 10.184 12.047 10.0077 11.7463C9.83225 11.4493 9.98825 11.2812 10.1368 11.1327C10.2732 10.9963 10.4375 10.7893 10.5898 10.6093C10.7345 10.4292 10.781 10.3085 10.8868 10.1135C10.9843 9.90275 10.934 9.7385 10.8597 9.59C10.7855 9.4415 10.1877 7.96925 9.938 7.38275C9.6995 6.80075 9.44975 6.875 9.266 6.875C9.09425 6.85925 8.89475 6.85925 8.696 6.85925C8.49725 6.85925 8.1725 6.9335 7.89875 7.2185C7.625 7.51925 6.85175 8.23775 6.85175 9.69125C6.85175 11.1485 7.922 12.5585 8.0705 12.7692C8.22275 12.9642 10.1757 15.9642 13.172 17.2535C13.8868 17.5542 14.4417 17.7342 14.8752 17.8827C15.59 18.1092 16.2425 18.0777 16.7577 18.0035C17.3277 17.9097 18.5233 17.2805 18.7738 16.5778C19.028 15.8705 19.028 15.2847 18.9538 15.152C18.8795 15.0155 18.6845 14.9412 18.3837 14.8085L18.371 14.8827ZM12.9373 22.25H12.9215C11.1477 22.25 9.39425 21.7692 7.86275 20.8708L7.5035 20.6562L3.7535 21.6327L4.7615 17.984L4.51925 17.609C3.53075 16.0347 3.0035 14.2183 3.0035 12.3515C3.0035 6.9065 7.46075 2.465 12.9447 2.465C15.6013 2.465 18.0935 3.5 19.9685 5.375C21.8435 7.23425 22.8785 9.7265 22.8785 12.3673C22.871 17.8085 18.4175 22.25 12.941 22.25H12.9373ZM21.3942 3.94925C19.1127 1.74575 16.1128 0.5 12.9215 0.5C6.3395 0.5 0.98 5.83625 0.97625 12.3942C0.97625 14.4882 1.523 16.5312 2.57 18.3395L0.875 24.5L7.211 22.8478C8.957 23.789 10.922 24.293 12.9222 24.2967H12.926C19.5118 24.2967 24.8713 18.9605 24.875 12.398C24.875 9.2225 23.6368 6.23375 21.3792 3.9875L21.3942 3.94925Z" fill="black" fill-opacity="0.2"/>
<path d="M18.371 14.8827C18.0702 14.7305 16.6055 14.0157 16.3317 13.9137C16.058 13.8162 15.8592 13.7652 15.6597 14.066C15.4647 14.3592 14.8902 15.0305 14.7147 15.2262C14.5392 15.422 14.3667 15.437 14.0705 15.3043C13.7697 15.152 12.809 14.8392 11.6683 13.8162C10.7773 13.0235 10.184 12.047 10.0077 11.7463C9.83225 11.4493 9.98825 11.2812 10.1368 11.1327C10.2732 10.9963 10.4375 10.7893 10.5898 10.6093C10.7345 10.4292 10.781 10.3085 10.8868 10.1135C10.9843 9.90275 10.934 9.7385 10.8597 9.59C10.7855 9.4415 10.1877 7.96925 9.938 7.38275C9.6995 6.80075 9.44975 6.875 9.266 6.875C9.09425 6.85925 8.89475 6.85925 8.696 6.85925C8.49725 6.85925 8.1725 6.9335 7.89875 7.2185C7.625 7.51925 6.85175 8.23775 6.85175 9.69125C6.85175 11.1485 7.922 12.5585 8.0705 12.7692C8.22275 12.9642 10.1757 15.9642 13.172 17.2535C13.8868 17.5542 14.4417 17.7342 14.8752 17.8827C15.59 18.1092 16.2425 18.0777 16.7577 18.0035C17.3277 17.9097 18.5233 17.2805 18.7738 16.5778C19.028 15.8705 19.028 15.2847 18.9538 15.152C18.8795 15.0155 18.6845 14.9412 18.3837 14.8085L18.371 14.8827ZM12.9373 22.25H12.9215C11.1477 22.25 9.39425 21.7692 7.86275 20.8708L7.5035 20.6562L3.7535 21.6327L4.7615 17.984L4.51925 17.609C3.53075 16.0347 3.0035 14.2183 3.0035 12.3515C3.0035 6.9065 7.46075 2.465 12.9447 2.465C15.6013 2.465 18.0935 3.5 19.9685 5.375C21.8435 7.23425 22.8785 9.7265 22.8785 12.3673C22.871 17.8085 18.4175 22.25 12.941 22.25H12.9373ZM21.3942 3.94925C19.1127 1.74575 16.1128 0.5 12.9215 0.5C6.3395 0.5 0.98 5.83625 0.97625 12.3942C0.97625 14.4882 1.523 16.5312 2.57 18.3395L0.875 24.5L7.211 22.8478C8.957 23.789 10.922 24.293 12.9222 24.2967H12.926C19.5118 24.2967 24.8713 18.9605 24.875 12.398C24.875 9.2225 23.6368 6.23375 21.3792 3.9875L21.3942 3.94925Z" fill="black" fill-opacity="0.2"/>
<path d="M18.371 14.8827C18.0702 14.7305 16.6055 14.0157 16.3317 13.9137C16.058 13.8162 15.8592 13.7652 15.6597 14.066C15.4647 14.3592 14.8902 15.0305 14.7147 15.2262C14.5392 15.422 14.3667 15.437 14.0705 15.3043C13.7697 15.152 12.809 14.8392 11.6683 13.8162C10.7773 13.0235 10.184 12.047 10.0077 11.7463C9.83225 11.4493 9.98825 11.2812 10.1368 11.1327C10.2732 10.9963 10.4375 10.7893 10.5898 10.6093C10.7345 10.4292 10.781 10.3085 10.8868 10.1135C10.9843 9.90275 10.934 9.7385 10.8597 9.59C10.7855 9.4415 10.1877 7.96925 9.938 7.38275C9.6995 6.80075 9.44975 6.875 9.266 6.875C9.09425 6.85925 8.89475 6.85925 8.696 6.85925C8.49725 6.85925 8.1725 6.9335 7.89875 7.2185C7.625 7.51925 6.85175 8.23775 6.85175 9.69125C6.85175 11.1485 7.922 12.5585 8.0705 12.7692C8.22275 12.9642 10.1757 15.9642 13.172 17.2535C13.8868 17.5542 14.4417 17.7342 14.8752 17.8827C15.59 18.1092 16.2425 18.0777 16.7577 18.0035C17.3277 17.9097 18.5233 17.2805 18.7738 16.5778C19.028 15.8705 19.028 15.2847 18.9538 15.152C18.8795 15.0155 18.6845 14.9412 18.3837 14.8085L18.371 14.8827ZM12.9373 22.25H12.9215C11.1477 22.25 9.39425 21.7692 7.86275 20.8708L7.5035 20.6562L3.7535 21.6327L4.7615 17.984L4.51925 17.609C3.53075 16.0347 3.0035 14.2183 3.0035 12.3515C3.0035 6.9065 7.46075 2.465 12.9447 2.465C15.6013 2.465 18.0935 3.5 19.9685 5.375C21.8435 7.23425 22.8785 9.7265 22.8785 12.3673C22.871 17.8085 18.4175 22.25 12.941 22.25H12.9373ZM21.3942 3.94925C19.1127 1.74575 16.1128 0.5 12.9215 0.5C6.3395 0.5 0.98 5.83625 0.97625 12.3942C0.97625 14.4882 1.523 16.5312 2.57 18.3395L0.875 24.5L7.211 22.8478C8.957 23.789 10.922 24.293 12.9222 24.2967H12.926C19.5118 24.2967 24.8713 18.9605 24.875 12.398C24.875 9.2225 23.6368 6.23375 21.3792 3.9875L21.3942 3.94925Z" fill="black" fill-opacity="0.2"/>
<path d="M18.371 14.8827C18.0702 14.7305 16.6055 14.0157 16.3317 13.9137C16.058 13.8162 15.8592 13.7652 15.6597 14.066C15.4647 14.3592 14.8902 15.0305 14.7147 15.2262C14.5392 15.422 14.3667 15.437 14.0705 15.3043C13.7697 15.152 12.809 14.8392 11.6683 13.8162C10.7773 13.0235 10.184 12.047 10.0077 11.7463C9.83225 11.4493 9.98825 11.2812 10.1368 11.1327C10.2732 10.9963 10.4375 10.7893 10.5898 10.6093C10.7345 10.4292 10.781 10.3085 10.8868 10.1135C10.9843 9.90275 10.934 9.7385 10.8597 9.59C10.7855 9.4415 10.1877 7.96925 9.938 7.38275C9.6995 6.80075 9.44975 6.875 9.266 6.875C9.09425 6.85925 8.89475 6.85925 8.696 6.85925C8.49725 6.85925 8.1725 6.9335 7.89875 7.2185C7.625 7.51925 6.85175 8.23775 6.85175 9.69125C6.85175 11.1485 7.922 12.5585 8.0705 12.7692C8.22275 12.9642 10.1757 15.9642 13.172 17.2535C13.8868 17.5542 14.4417 17.7342 14.8752 17.8827C15.59 18.1092 16.2425 18.0777 16.7577 18.0035C17.3277 17.9097 18.5233 17.2805 18.7738 16.5778C19.028 15.8705 19.028 15.2847 18.9538 15.152C18.8795 15.0155 18.6845 14.9412 18.3837 14.8085L18.371 14.8827ZM12.9373 22.25H12.9215C11.1477 22.25 9.39425 21.7692 7.86275 20.8708L7.5035 20.6562L3.7535 21.6327L4.7615 17.984L4.51925 17.609C3.53075 16.0347 3.0035 14.2183 3.0035 12.3515C3.0035 6.9065 7.46075 2.465 12.9447 2.465C15.6013 2.465 18.0935 3.5 19.9685 5.375C21.8435 7.23425 22.8785 9.7265 22.8785 12.3673C22.871 17.8085 18.4175 22.25 12.941 22.25H12.9373ZM21.3942 3.94925C19.1127 1.74575 16.1128 0.5 12.9215 0.5C6.3395 0.5 0.98 5.83625 0.97625 12.3942C0.97625 14.4882 1.523 16.5312 2.57 18.3395L0.875 24.5L7.211 22.8478C8.957 23.789 10.922 24.293 12.9222 24.2967H12.926C19.5118 24.2967 24.8713 18.9605 24.875 12.398C24.875 9.2225 23.6368 6.23375 21.3792 3.9875L21.3942 3.94925Z" fill="black" fill-opacity="0.2"/>
<path d="M18.371 14.8827C18.0702 14.7305 16.6055 14.0157 16.3317 13.9137C16.058 13.8162 15.8592 13.7652 15.6597 14.066C15.4647 14.3592 14.8902 15.0305 14.7147 15.2262C14.5392 15.422 14.3667 15.437 14.0705 15.3043C13.7697 15.152 12.809 14.8392 11.6683 13.8162C10.7773 13.0235 10.184 12.047 10.0077 11.7463C9.83225 11.4493 9.98825 11.2812 10.1368 11.1327C10.2732 10.9963 10.4375 10.7893 10.5898 10.6093C10.7345 10.4292 10.781 10.3085 10.8868 10.1135C10.9843 9.90275 10.934 9.7385 10.8597 9.59C10.7855 9.4415 10.1877 7.96925 9.938 7.38275C9.6995 6.80075 9.44975 6.875 9.266 6.875C9.09425 6.85925 8.89475 6.85925 8.696 6.85925C8.49725 6.85925 8.1725 6.9335 7.89875 7.2185C7.625 7.51925 6.85175 8.23775 6.85175 9.69125C6.85175 11.1485 7.922 12.5585 8.0705 12.7692C8.22275 12.9642 10.1757 15.9642 13.172 17.2535C13.8868 17.5542 14.4417 17.7342 14.8752 17.8827C15.59 18.1092 16.2425 18.0777 16.7577 18.0035C17.3277 17.9097 18.5233 17.2805 18.7738 16.5778C19.028 15.8705 19.028 15.2847 18.9538 15.152C18.8795 15.0155 18.6845 14.9412 18.3837 14.8085L18.371 14.8827ZM12.9373 22.25H12.9215C11.1477 22.25 9.39425 21.7692 7.86275 20.8708L7.5035 20.6562L3.7535 21.6327L4.7615 17.984L4.51925 17.609C3.53075 16.0347 3.0035 14.2183 3.0035 12.3515C3.0035 6.9065 7.46075 2.465 12.9447 2.465C15.6013 2.465 18.0935 3.5 19.9685 5.375C21.8435 7.23425 22.8785 9.7265 22.8785 12.3673C22.871 17.8085 18.4175 22.25 12.941 22.25H12.9373ZM21.3942 3.94925C19.1127 1.74575 16.1128 0.5 12.9215 0.5C6.3395 0.5 0.98 5.83625 0.97625 12.3942C0.97625 14.4882 1.523 16.5312 2.57 18.3395L0.875 24.5L7.211 22.8478C8.957 23.789 10.922 24.293 12.9222 24.2967H12.926C19.5118 24.2967 24.8713 18.9605 24.875 12.398C24.875 9.2225 23.6368 6.23375 21.3792 3.9875L21.3942 3.94925Z" fill="black" fill-opacity="0.2"/>
<path d="M18.371 14.8827C18.0702 14.7305 16.6055 14.0157 16.3317 13.9137C16.058 13.8162 15.8592 13.7652 15.6597 14.066C15.4647 14.3592 14.8902 15.0305 14.7147 15.2262C14.5392 15.422 14.3667 15.437 14.0705 15.3043C13.7697 15.152 12.809 14.8392 11.6683 13.8162C10.7773 13.0235 10.184 12.047 10.0077 11.7463C9.83225 11.4493 9.98825 11.2812 10.1368 11.1327C10.2732 10.9963 10.4375 10.7893 10.5898 10.6093C10.7345 10.4292 10.781 10.3085 10.8868 10.1135C10.9843 9.90275 10.934 9.7385 10.8597 9.59C10.7855 9.4415 10.1877 7.96925 9.938 7.38275C9.6995 6.80075 9.44975 6.875 9.266 6.875C9.09425 6.85925 8.89475 6.85925 8.696 6.85925C8.49725 6.85925 8.1725 6.9335 7.89875 7.2185C7.625 7.51925 6.85175 8.23775 6.85175 9.69125C6.85175 11.1485 7.922 12.5585 8.0705 12.7692C8.22275 12.9642 10.1757 15.9642 13.172 17.2535C13.8868 17.5542 14.4417 17.7342 14.8752 17.8827C15.59 18.1092 16.2425 18.0777 16.7577 18.0035C17.3277 17.9097 18.5233 17.2805 18.7738 16.5778C19.028 15.8705 19.028 15.2847 18.9538 15.152C18.8795 15.0155 18.6845 14.9412 18.3837 14.8085L18.371 14.8827ZM12.9373 22.25H12.9215C11.1477 22.25 9.39425 21.7692 7.86275 20.8708L7.5035 20.6562L3.7535 21.6327L4.7615 17.984L4.51925 17.609C3.53075 16.0347 3.0035 14.2183 3.0035 12.3515C3.0035 6.9065 7.46075 2.465 12.9447 2.465C15.6013 2.465 18.0935 3.5 19.9685 5.375C21.8435 7.23425 22.8785 9.7265 22.8785 12.3673C22.871 17.8085 18.4175 22.25 12.941 22.25H12.9373ZM21.3942 3.94925C19.1127 1.74575 16.1128 0.5 12.9215 0.5C6.3395 0.5 0.98 5.83625 0.97625 12.3942C0.97625 14.4882 1.523 16.5312 2.57 18.3395L0.875 24.5L7.211 22.8478C8.957 23.789 10.922 24.293 12.9222 24.2967H12.926C19.5118 24.2967 24.8713 18.9605 24.875 12.398C24.875 9.2225 23.6368 6.23375 21.3792 3.9875L21.3942 3.94925Z" fill="black" fill-opacity="0.2"/>
</svg>
