<svg width="12" height="12" viewBox="0 0 12 12" fill="none" xmlns="http://www.w3.org/2000/svg">
<path d="M4.33497 0.838146C4.13249 0.331935 3.64221 0 3.09701 0H1.26316C0.565535 0 0 0.565398 0 1.26302C0 7.19281 4.80719 12 10.737 12C11.4346 12 12 11.4344 12 10.7368L12.0003 8.90264C12.0003 8.35743 11.6685 7.86724 11.1622 7.66475L9.40462 6.96196C8.94991 6.78007 8.43219 6.86193 8.05596 7.17546L7.60235 7.55378C7.07258 7.99526 6.29309 7.96015 5.80546 7.47252L4.52815 6.19404C4.04052 5.70641 4.00449 4.92756 4.44596 4.39779L4.82422 3.9442C5.13774 3.56797 5.22033 3.05011 5.03844 2.59539L4.33497 0.838146Z" fill="#A4A4A6"/>
</svg>
