<svg width="12" height="12" viewBox="0 0 12 12" fill="none" xmlns="http://www.w3.org/2000/svg">
<path d="M1.16748 5.16814C1.01086 5.0233 1.09593 4.76145 1.30778 4.73633L4.30957 4.38029C4.39591 4.37005 4.47091 4.31583 4.50732 4.23688L5.77344 1.49199C5.86279 1.29827 6.13819 1.29823 6.22754 1.49195L7.49365 4.23682C7.53007 4.31577 7.60458 4.37014 7.69092 4.38038L10.6929 4.73633C10.9047 4.76145 10.9896 5.02338 10.8329 5.16822L8.61388 7.22071C8.55005 7.27974 8.52163 7.36761 8.53857 7.45289L9.1275 10.4177C9.16908 10.627 8.94639 10.7891 8.76024 10.6849L6.12257 9.20806C6.0467 9.16559 5.95453 9.16579 5.87866 9.20826L3.24072 10.6845C3.05457 10.7887 2.83147 10.627 2.87305 10.4177L3.46207 7.45307C3.47902 7.36779 3.45067 7.27972 3.38683 7.22069L1.16748 5.16814Z" fill="#FC9C00"/>
</svg>
