<svg width="48" height="48" viewBox="0 0 48 48" fill="none" xmlns="http://www.w3.org/2000/svg">
<rect x="1" y="1" width="46" height="46" rx="23" stroke="#2A2A2A" stroke-width="2"/>
<path fill-rule="evenodd" clip-rule="evenodd" d="M15.3272 22.8879C20.5098 20.6299 23.9657 19.1413 25.6948 18.4221C30.6319 16.3686 31.6578 16.0119 32.3265 16.0001C32.4735 15.9975 32.8023 16.034 33.0153 16.2068C33.1952 16.3528 33.2447 16.5499 33.2684 16.6883C33.292 16.8266 33.3215 17.1418 33.2981 17.3881C33.0305 20.1992 31.8729 27.021 31.2839 30.1694C31.0347 31.5017 30.5441 31.9484 30.069 31.9921C29.0366 32.0871 28.2527 31.3098 27.2527 30.6543C25.6881 29.6287 24.8041 28.9902 23.2853 27.9893C21.5301 26.8327 22.668 26.1969 23.6683 25.158C23.93 24.8861 28.4788 20.7487 28.5668 20.3733C28.5778 20.3264 28.588 20.1514 28.4841 20.059C28.3801 19.9666 28.2267 19.9982 28.116 20.0234C27.9591 20.059 25.4595 21.7111 20.6172 24.9798C19.9077 25.467 19.2651 25.7044 18.6893 25.6919C18.0545 25.6782 16.8335 25.333 15.9258 25.038C14.8125 24.6761 13.9276 24.4847 14.0047 23.8701C14.0448 23.55 14.4857 23.2226 15.3272 22.8879Z" fill="#2A2A2A"/>
</svg>
