<svg width="48" height="48" viewBox="0 0 48 48" fill="none" xmlns="http://www.w3.org/2000/svg">
<rect x="1" y="1" width="46" height="46" rx="23" stroke="#2A2A2A" stroke-width="2"/>
<g clip-path="url(#clip0_594_3868)">
<path d="M12.5576 35.4893L14.1733 29.5891C13.1767 27.8623 12.6525 25.9034 12.6532 23.8966C12.6558 17.6185 17.7648 12.5107 24.0427 12.5107C27.0893 12.512 29.9488 13.6978 32.0992 15.85C34.2494 18.0022 35.4332 20.8631 35.4321 23.9057C35.4294 30.1837 30.3196 35.2921 24.0427 35.2921C24.0424 35.2921 24.0429 35.2921 24.0427 35.2921H24.0378C22.1317 35.2914 20.2589 34.8133 18.5953 33.906L12.5576 35.4893ZM18.8749 31.8448L19.2208 32.0497C20.674 32.9121 22.34 33.3682 24.0391 33.3692H24.0427C29.2602 33.3692 33.5067 29.1233 33.5089 23.905C33.5099 21.3761 32.5262 18.9982 30.7389 17.2094C28.9514 15.4206 26.5749 14.435 24.0462 14.4339C18.8246 14.4339 14.5782 18.6792 14.5762 23.8973C14.5754 25.6855 15.0757 27.4268 16.0234 28.9338L16.2487 29.292L15.2921 32.7841L18.8749 31.8448Z" fill="#2A2A2A"/>
<path fill-rule="evenodd" clip-rule="evenodd" d="M21.1961 19.1366C20.983 18.6627 20.7585 18.6532 20.5556 18.645C20.3897 18.6378 20.1998 18.6382 20.0103 18.6382C19.8206 18.6382 19.5123 18.7096 19.2515 18.9943C18.9906 19.2791 18.2552 19.9675 18.2552 21.3678C18.2552 22.7682 19.2751 24.1211 19.4174 24.3112C19.5597 24.5011 21.3862 27.4663 24.2787 28.607C26.6827 29.5552 27.1717 29.3666 27.6936 29.3191C28.2154 29.2717 29.3772 28.6307 29.6144 27.9662C29.8517 27.3017 29.8517 26.7322 29.7804 26.613C29.7092 26.4945 29.5195 26.4233 29.235 26.281C28.9504 26.1388 27.5513 25.4501 27.2904 25.3553C27.0295 25.2602 26.8398 25.213 26.6501 25.4979C26.4602 25.7824 25.9153 26.4233 25.7492 26.613C25.5831 26.8033 25.417 26.8271 25.1325 26.6846C24.8479 26.542 23.9313 26.2417 22.844 25.2721C21.9981 24.5179 21.4268 23.5863 21.2607 23.3014C21.0948 23.0168 21.258 22.8762 21.3858 22.7207C21.616 22.4408 22.0021 21.9374 22.097 21.7477C22.1918 21.5576 22.1444 21.3916 22.0734 21.2491C22.0021 21.1068 21.449 19.6995 21.1961 19.1366Z" fill="#2A2A2A"/>
</g>
<defs>
<clipPath id="clip0_594_3868">
<rect width="24" height="24" fill="white" transform="translate(12 12)"/>
</clipPath>
</defs>
</svg>
